<svg width="80" height="55" viewBox="0 0 80 55" fill="none" xmlns="http://www.w3.org/2000/svg">
<rect width="2.10526" height="2.10526" transform="matrix(-1 0 0 1 2.10547 25.2632)" fill="#2F2627"/>
<rect width="2.10526" height="2.10526" transform="matrix(-1 0 0 1 2.10547 25.2632)" fill="#2F2627"/>
<rect width="2.10526" height="2.10526" transform="matrix(-1 0 0 1 2.10547 27.3684)" fill="#2F2627"/>
<rect width="2.10526" height="2.10526" transform="matrix(-1 0 0 1 2.10547 23.1579)" fill="#2F2627"/>
<rect width="2.10526" height="2.10526" transform="matrix(-1 0 0 1 2.10547 21.0526)" fill="#2F2627"/>
<rect width="2.10526" height="2.10526" transform="matrix(-1 0 0 1 4.21045 18.9474)" fill="#2F2627"/>
<rect width="2.10526" height="2.10526" transform="matrix(-1 0 0 1 6.31592 16.8421)" fill="#2F2627"/>
<rect width="2.10526" height="2.10526" transform="matrix(-1 0 0 1 8.42139 14.7368)" fill="#2F2627"/>
<rect width="2.10526" height="2.10526" transform="matrix(-1 0 0 1 10.5264 12.6316)" fill="#2F2627"/>
<rect width="2.10526" height="2.10526" transform="matrix(-1 0 0 1 12.6318 10.5263)" fill="#2F2627"/>
<rect width="2.10526" height="2.10526" transform="matrix(-1 0 0 1 14.7368 8.42108)" fill="#2F2627"/>
<rect width="2.10526" height="2.10526" transform="matrix(-1 0 0 1 16.8423 6.3158)" fill="#2F2627"/>
<rect width="2.10526" height="2.10526" transform="matrix(-1 0 0 1 18.9478 6.3158)" fill="#2F2627"/>
<rect width="2.10526" height="2.10526" transform="matrix(-1 0 0 1 21.0522 6.3158)" fill="#2F2627"/>
<rect width="2.10526" height="2.10526" transform="matrix(-1 0 0 1 23.1577 8.42108)" fill="#2F2627"/>
<rect width="2.10526" height="2.10526" transform="matrix(-1 0 0 1 25.2632 10.5263)" fill="#2F2627"/>
<rect width="2.10526" height="2.10526" transform="matrix(-1 0 0 1 27.3682 12.6316)" fill="#2F2627"/>
<rect width="2.10526" height="2.10526" transform="matrix(-1 0 0 1 29.4736 14.7368)" fill="#2F2627"/>
<rect width="2.10526" height="2.10526" transform="matrix(-1 0 0 1 31.5791 14.7368)" fill="#2F2627"/>
<rect width="2.10526" height="2.10526" transform="matrix(-1 0 0 1 33.6841 14.7368)" fill="#2F2627"/>
<rect width="2.10526" height="2.10526" transform="matrix(-1 0 0 1 37.8945 14.7368)" fill="#2F2627"/>
<rect width="2.10526" height="2.10526" transform="matrix(-1 0 0 1 40 14.7368)" fill="#2F2627"/>
<rect width="2.10526" height="2.10526" transform="matrix(-1 0 0 1 42.1055 14.7368)" fill="#2F2627"/>
<rect width="2.10526" height="2.10526" transform="matrix(-1 0 0 1 44.2104 14.7368)" fill="#2F2627"/>
<rect width="2.10526" height="2.10526" transform="matrix(-1 0 0 1 37.8945 10.5263)" fill="#2F2627"/>
<rect width="2.10526" height="2.10526" transform="matrix(-1 0 0 1 40 8.42108)" fill="#2F2627"/>
<rect width="2.10526" height="2.10526" transform="matrix(-1 0 0 1 42.1055 8.42108)" fill="#2F2627"/>
<rect width="2.10526" height="2.10526" transform="matrix(-1 0 0 1 42.1055 8.42108)" fill="#2F2627"/>
<rect width="2.10526" height="2.10526" transform="matrix(-1 0 0 1 35.7896 6.3158)" fill="#2F2627"/>
<rect width="2.10526" height="2.10526" transform="matrix(-1 0 0 1 37.8945 6.3158)" fill="#2F2627"/>
<rect width="2.10526" height="2.10526" transform="matrix(-1 0 0 1 37.8945 6.3158)" fill="#2F2627"/>
<rect width="2.10526" height="2.10526" transform="matrix(-1 0 0 1 40 6.3158)" fill="#2F2627"/>
<rect width="2.10526" height="2.10526" transform="matrix(-1 0 0 1 42.1055 6.3158)" fill="#2F2627"/>
<rect width="2.10526" height="2.10526" transform="matrix(-1 0 0 1 42.1055 6.3158)" fill="#2F2627"/>
<rect width="2.10526" height="2.10526" transform="matrix(-1 0 0 1 44.2104 6.3158)" fill="#2F2627"/>
<rect width="2.10526" height="2.10526" transform="matrix(-1 0 0 1 46.3159 6.3158)" fill="#2F2627"/>
<rect width="2.10526" height="2.10526" transform="matrix(-1 0 0 1 46.3159 6.3158)" fill="#2F2627"/>
<rect width="2.10526" height="2.10526" transform="matrix(-1 0 0 1 44.2104 4.21051)" fill="#2F2627"/>
<rect width="2.10526" height="2.10526" transform="matrix(-1 0 0 1 46.3159 4.21051)" fill="#2F2627"/>
<rect width="2.10526" height="2.10526" transform="matrix(-1 0 0 1 46.3159 2.10529)" fill="#2F2627"/>
<rect width="2.10526" height="2.10526" transform="matrix(-1 0 0 1 48.4214 0)" fill="#2F2627"/>
<rect width="2.10526" height="2.10526" transform="matrix(-1 0 0 1 50.5264 0)" fill="#2F2627"/>
<rect width="2.10526" height="2.10526" transform="matrix(-1 0 0 1 50.5264 2.10529)" fill="#2F2627"/>
<rect width="2.10526" height="2.10526" transform="matrix(-1 0 0 1 50.5264 4.21051)" fill="#2F2627"/>
<rect width="2.10526" height="2.10526" transform="matrix(-1 0 0 1 50.5264 6.3158)" fill="#2F2627"/>
<rect width="2.10526" height="2.10526" transform="matrix(-1 0 0 1 50.5264 8.42108)" fill="#2F2627"/>
<rect width="2.10526" height="2.10526" transform="matrix(-1 0 0 1 48.4214 8.42108)" fill="#2F2627"/>
<rect width="2.10526" height="2.10526" transform="matrix(-1 0 0 1 46.3159 8.42108)" fill="#2F2627"/>
<rect width="2.10526" height="2.10526" transform="matrix(-1 0 0 1 48.4214 10.5263)" fill="#2F2627"/>
<rect x="33.6841" y="4.21051" width="2.10526" height="2.10526" fill="#2F2627"/>
<rect x="33.6841" y="2.10529" width="2.10526" height="2.10526" fill="#2F2627"/>
<rect x="31.5791" width="2.10526" height="2.10526" fill="#2F2627"/>
<rect x="29.4736" width="2.10526" height="2.10526" fill="#2F2627"/>
<rect x="29.4736" y="2.10529" width="2.10526" height="2.10526" fill="#2F2627"/>
<rect x="29.4736" y="4.21051" width="2.10526" height="2.10526" fill="#2F2627"/>
<rect x="29.4736" y="6.3158" width="2.10526" height="2.10526" fill="#2F2627"/>
<rect x="29.4736" y="8.42108" width="2.10526" height="2.10526" fill="#2F2627"/>
<rect x="31.5791" y="8.42108" width="2.10526" height="2.10526" fill="#2F2627"/>
<rect x="33.6841" y="8.42108" width="2.10526" height="2.10526" fill="#2F2627"/>
<rect x="31.5791" y="10.5263" width="2.10526" height="2.10526" fill="#2F2627"/>
<rect width="2.10526" height="2.10526" transform="matrix(-1 0 0 1 44.2104 10.5263)" fill="#2F2627"/>
<rect width="2.10526" height="2.10526" transform="matrix(-1 0 0 1 46.3159 12.6316)" fill="#2F2627"/>
<rect width="2.10526" height="2.10526" transform="matrix(-1 0 0 1 35.7896 12.6316)" fill="#2F2627"/>
<rect width="2.10526" height="2.10526" transform="matrix(-1 0 0 1 4.21045 23.1579)" fill="#2F2627"/>
<rect width="2.10526" height="2.10526" transform="matrix(-1 0 0 1 6.31592 23.1579)" fill="#2F2627"/>
<rect width="2.10526" height="2.10526" transform="matrix(-1 0 0 1 8.42139 23.1579)" fill="#2F2627"/>
<rect width="2.10526" height="2.10526" transform="matrix(-1 0 0 1 10.5264 23.1579)" fill="#2F2627"/>
<rect width="2.10526" height="2.10526" transform="matrix(-1 0 0 1 10.5264 25.2632)" fill="#2F2627"/>
<rect width="2.10526" height="2.10526" transform="matrix(-1 0 0 1 12.6318 23.1579)" fill="#2F2627"/>
<rect width="2.10526" height="2.10526" transform="matrix(-1 0 0 1 12.6318 25.2632)" fill="#2F2627"/>
<rect width="2.10526" height="2.10526" transform="matrix(-1 0 0 1 12.6318 27.3684)" fill="#2F2627"/>
<rect width="2.10526" height="2.10526" transform="matrix(-1 0 0 1 14.7368 25.2632)" fill="#2F2627"/>
<rect width="2.10526" height="2.10526" transform="matrix(-1 0 0 1 16.8423 25.2632)" fill="#2F2627"/>
<rect width="2.10526" height="2.10526" transform="matrix(-1 0 0 1 14.7368 23.1579)" fill="#2F2627"/>
<rect width="2.10526" height="2.10526" transform="matrix(-1 0 0 1 14.7368 21.0526)" fill="#2F2627"/>
<rect width="2.10526" height="2.10526" transform="matrix(-1 0 0 1 14.7368 18.9474)" fill="#2F2627"/>
<rect width="2.10526" height="2.10526" transform="matrix(-1 0 0 1 12.6318 21.0526)" fill="#2F2627"/>
<rect width="2.10526" height="2.10526" transform="matrix(-1 0 0 1 14.7368 27.3684)" fill="#2F2627"/>
<rect width="2.10526" height="2.10526" transform="matrix(-1 0 0 1 14.7368 29.4737)" fill="#2F2627"/>
<rect width="2.10526" height="2.10526" transform="matrix(-1 0 0 1 16.8423 27.3684)" fill="#2F2627"/>
<rect width="2.10526" height="2.10526" transform="matrix(-1 0 0 1 16.8423 29.4737)" fill="#2F2627"/>
<rect width="2.10526" height="2.10526" transform="matrix(-1 0 0 1 21.0522 29.4737)" fill="#2F2627"/>
<rect width="2.10526" height="2.10526" transform="matrix(-1 0 0 1 16.8423 31.5789)" fill="#2F2627"/>
<rect width="2.10526" height="2.10526" transform="matrix(-1 0 0 1 18.9478 33.6842)" fill="#2F2627"/>
<rect width="2.10526" height="2.10526" transform="matrix(-1 0 0 1 21.0522 33.6842)" fill="#2F2627"/>
<rect width="2.10526" height="2.10526" transform="matrix(-1 0 0 1 23.1577 33.6842)" fill="#2F2627"/>
<rect width="2.10526" height="2.10526" transform="matrix(-1 0 0 1 27.3682 35.7895)" fill="#2F2627"/>
<rect width="2.10526" height="2.10526" transform="matrix(-1 0 0 1 27.3682 37.8947)" fill="#2F2627"/>
<rect width="2.10526" height="2.10526" transform="matrix(-1 0 0 1 29.4736 37.8947)" fill="#2F2627"/>
<rect width="2.10526" height="2.10526" transform="matrix(-1 0 0 1 29.4736 40)" fill="#2F2627"/>
<rect width="2.10526" height="2.10526" transform="matrix(-1 0 0 1 29.4736 42.1053)" fill="#2F2627"/>
<rect width="2.10526" height="2.10526" transform="matrix(-1 0 0 1 31.5791 42.1053)" fill="#2F2627"/>
<rect width="2.10526" height="2.10526" transform="matrix(-1 0 0 1 31.5791 44.2105)" fill="#2F2627"/>
<rect width="2.10526" height="2.10526" transform="matrix(-1 0 0 1 31.5791 48.4211)" fill="#2F2627"/>
<rect width="2.10526" height="2.10526" transform="matrix(-1 0 0 1 29.4736 48.4211)" fill="#2F2627"/>
<rect width="2.10526" height="2.10526" transform="matrix(-1 0 0 1 31.5791 50.5263)" fill="#2F2627"/>
<rect width="2.10526" height="2.10526" transform="matrix(-1 0 0 1 33.6841 48.4211)" fill="#2F2627"/>
<rect width="2.10526" height="2.10526" transform="matrix(-1 0 0 1 33.6841 46.3158)" fill="#2F2627"/>
<rect width="2.10526" height="2.10526" transform="matrix(-1 0 0 1 35.7896 46.3158)" fill="#2F2627"/>
<rect width="2.10526" height="2.10526" transform="matrix(-1 0 0 1 37.8945 46.3158)" fill="#2F2627"/>
<rect width="2.10526" height="2.10526" transform="matrix(-1 0 0 1 40 48.4211)" fill="#2F2627"/>
<rect width="2.10526" height="2.10526" transform="matrix(-1 0 0 1 37.8945 48.4211)" fill="#2F2627"/>
<rect width="2.10526" height="2.10526" transform="matrix(-1 0 0 1 42.1055 48.4211)" fill="#2F2627"/>
<rect width="2.10526" height="2.10526" transform="matrix(-1 0 0 1 40 50.5263)" fill="#2F2627"/>
<rect width="2.10526" height="2.10526" transform="matrix(-1 0 0 1 42.1055 50.5263)" fill="#2F2627"/>
<rect width="2.10526" height="2.10526" transform="matrix(-1 0 0 1 40 52.6316)" fill="#2F2627"/>
<rect width="2.10526" height="2.10526" transform="matrix(-1 0 0 1 42.1055 52.6316)" fill="#2F2627"/>
<rect width="2.10526" height="2.10526" transform="matrix(-1 0 0 1 25.2632 33.6842)" fill="#2F2627"/>
<rect width="2.10526" height="2.10526" transform="matrix(-1 0 0 1 8.42139 21.0526)" fill="#2F2627"/>
<rect width="2.10526" height="2.10526" transform="matrix(-1 0 0 1 10.5264 21.0526)" fill="#2F2627"/>
<rect width="2.10526" height="2.10526" transform="matrix(-1 0 0 1 40 35.7895)" fill="#BBBACB"/>
<rect width="2.10526" height="2.10526" transform="matrix(-1 0 0 1 42.1055 35.7895)" fill="#BBBACB"/>
<rect width="2.10526" height="2.10526" transform="matrix(-1 0 0 1 10.5264 18.9474)" fill="#2F2627"/>
<rect width="2.10526" height="2.10526" transform="matrix(-1 0 0 1 12.6318 18.9474)" fill="#2F2627"/>
<rect width="2.10526" height="2.10526" transform="matrix(-1 0 0 1 12.6318 16.8421)" fill="#2F2627"/>
<rect width="2.10526" height="2.10526" transform="matrix(-1 0 0 1 16.8423 18.9474)" fill="#2F2627"/>
<rect width="2.10526" height="2.10526" transform="matrix(-1 0 0 1 16.8423 16.8421)" fill="#2F2627"/>
<rect width="2.10526" height="2.10526" transform="matrix(-1 0 0 1 16.8423 23.1579)" fill="#2F2627"/>
<rect width="2.10526" height="2.10526" transform="matrix(-1 0 0 1 16.8423 21.0526)" fill="#2F2627"/>
<rect width="2.10526" height="2.10526" transform="matrix(-1 0 0 1 14.7368 16.8421)" fill="#2F2627"/>
<rect width="2.10526" height="2.10526" transform="matrix(-1 0 0 1 14.7368 14.7368)" fill="#2F2627"/>
<rect width="2.10526" height="2.10526" transform="matrix(-1 0 0 1 21.0522 25.2632)" fill="#2F2627"/>
<rect width="2.10526" height="2.10526" transform="matrix(-1 0 0 1 21.0522 23.1579)" fill="#2F2627"/>
<rect width="2.10526" height="2.10526" transform="matrix(-1 0 0 1 21.0522 21.0526)" fill="#2F2627"/>
<rect width="2.10526" height="2.10526" transform="matrix(-1 0 0 1 21.0522 18.9474)" fill="#2F2627"/>
<rect width="2.10526" height="2.10526" transform="matrix(-1 0 0 1 21.0522 27.3684)" fill="#2F2627"/>
<rect width="2.10526" height="2.10526" transform="matrix(-1 0 0 1 21.0522 16.8421)" fill="#2F2627"/>
<rect width="2.10526" height="2.10526" transform="matrix(-1 0 0 1 23.1577 29.4737)" fill="#2F2627"/>
<rect width="2.10526" height="2.10526" transform="matrix(-1 0 0 1 23.1577 25.2632)" fill="#2F2627"/>
<rect width="2.10526" height="2.10526" transform="matrix(-1 0 0 1 23.1577 23.1579)" fill="#2F2627"/>
<rect width="2.10526" height="2.10526" transform="matrix(-1 0 0 1 23.1577 21.0526)" fill="#2F2627"/>
<rect width="2.10526" height="2.10526" transform="matrix(-1 0 0 1 23.1577 18.9474)" fill="#2F2627"/>
<rect width="2.10526" height="2.10526" transform="matrix(-1 0 0 1 23.1577 27.3684)" fill="#2F2627"/>
<rect width="2.10526" height="2.10526" transform="matrix(-1 0 0 1 23.1577 16.8421)" fill="#2F2627"/>
<rect width="2.10526" height="2.10526" transform="matrix(-1 0 0 1 25.2632 27.3684)" fill="#2F2627"/>
<rect width="2.10526" height="2.10526" transform="matrix(-1 0 0 1 25.2632 25.2632)" fill="#2F2627"/>
<rect width="2.10526" height="2.10526" transform="matrix(-1 0 0 1 25.2632 23.1579)" fill="#2F2627"/>
<rect width="2.10526" height="2.10526" transform="matrix(-1 0 0 1 25.2632 21.0526)" fill="#2F2627"/>
<rect width="2.10526" height="2.10526" transform="matrix(-1 0 0 1 25.2632 21.0526)" fill="#2F2627"/>
<rect width="2.10526" height="2.10526" transform="matrix(-1 0 0 1 25.2632 29.4737)" fill="#2F2627"/>
<rect width="2.10526" height="2.10526" transform="matrix(-1 0 0 1 25.2632 18.9474)" fill="#2F2627"/>
<rect width="2.10526" height="2.10526" transform="matrix(-1 0 0 1 27.3682 33.6842)" fill="#2F2627"/>
<rect width="2.10526" height="2.10526" transform="matrix(-1 0 0 1 27.3682 29.4737)" fill="#2F2627"/>
<rect width="2.10526" height="2.10526" transform="matrix(-1 0 0 1 27.3682 27.3684)" fill="#2F2627"/>
<rect width="2.10526" height="2.10526" transform="matrix(-1 0 0 1 27.3682 25.2632)" fill="#2F2627"/>
<rect width="2.10526" height="2.10526" transform="matrix(-1 0 0 1 27.3682 23.1579)" fill="#2F2627"/>
<rect width="2.10526" height="2.10526" transform="matrix(-1 0 0 1 27.3682 31.5789)" fill="#2F2627"/>
<rect width="2.10526" height="2.10526" transform="matrix(-1 0 0 1 25.2632 31.5789)" fill="#2F2627"/>
<rect width="2.10526" height="2.10526" transform="matrix(-1 0 0 1 23.1577 31.5789)" fill="#2F2627"/>
<rect width="2.10526" height="2.10526" transform="matrix(-1 0 0 1 21.0522 31.5789)" fill="#2F2627"/>
<rect width="2.10526" height="2.10526" transform="matrix(-1 0 0 1 27.3682 21.0526)" fill="#2F2627"/>
<rect width="2.10526" height="2.10526" transform="matrix(-1 0 0 1 29.4736 35.7895)" fill="#2F2627"/>
<rect width="2.10526" height="2.10526" transform="matrix(-1 0 0 1 29.4736 31.5789)" fill="#2F2627"/>
<rect width="2.10526" height="2.10526" transform="matrix(-1 0 0 1 29.4736 29.4737)" fill="#2F2627"/>
<rect width="2.10526" height="2.10526" transform="matrix(-1 0 0 1 29.4736 27.3684)" fill="#2F2627"/>
<rect width="2.10526" height="2.10526" transform="matrix(-1 0 0 1 29.4736 25.2632)" fill="#2F2627"/>
<rect width="2.10526" height="2.10526" transform="matrix(-1 0 0 1 29.4736 33.6842)" fill="#2F2627"/>
<rect width="2.10526" height="2.10526" transform="matrix(-1 0 0 1 29.4736 23.1579)" fill="#2F2627"/>
<rect width="2.10526" height="2.10526" transform="matrix(-1 0 0 1 31.5791 40)" fill="#2F2627"/>
<rect width="2.10526" height="2.10526" transform="matrix(-1 0 0 1 31.5791 35.7895)" fill="#2F2627"/>
<rect width="2.10526" height="2.10526" transform="matrix(-1 0 0 1 31.5791 33.6842)" fill="#2F2627"/>
<rect width="2.10526" height="2.10526" transform="matrix(-1 0 0 1 31.5791 31.5789)" fill="#2F2627"/>
<rect width="2.10526" height="2.10526" transform="matrix(-1 0 0 1 31.5791 29.4737)" fill="#2F2627"/>
<rect width="2.10526" height="2.10526" transform="matrix(-1 0 0 1 31.5791 37.8947)" fill="#2F2627"/>
<rect width="2.10526" height="2.10526" transform="matrix(-1 0 0 1 31.5791 27.3684)" fill="#2F2627"/>
<rect width="2.10526" height="2.10526" transform="matrix(-1 0 0 1 33.6841 42.1053)" fill="#2F2627"/>
<rect width="2.10526" height="2.10526" transform="matrix(-1 0 0 1 33.6841 37.8947)" fill="#2F2627"/>
<rect width="2.10526" height="2.10526" transform="matrix(-1 0 0 1 33.6841 35.7895)" fill="#2F2627"/>
<rect width="2.10526" height="2.10526" transform="matrix(-1 0 0 1 33.6841 33.6842)" fill="#2F2627"/>
<rect width="2.10526" height="2.10526" transform="matrix(-1 0 0 1 33.6841 31.5789)" fill="#2F2627"/>
<rect width="2.10526" height="2.10526" transform="matrix(-1 0 0 1 33.6841 40)" fill="#2F2627"/>
<rect width="2.10526" height="2.10526" transform="matrix(-1 0 0 1 33.6841 33.6842)" fill="#2F2627"/>
<rect width="2.10526" height="2.10526" transform="matrix(-1 0 0 1 35.7896 37.8947)" fill="#2F2627"/>
<rect width="2.10526" height="2.10526" transform="matrix(-1 0 0 1 35.7896 35.7895)" fill="#2F2627"/>
<rect width="2.10526" height="2.10526" transform="matrix(-1 0 0 1 35.7896 33.6842)" fill="#2F2627"/>
<rect width="2.10526" height="2.10526" transform="matrix(-1 0 0 1 46.3159 37.8947)" fill="#2F2627"/>
<rect width="2.10526" height="2.10526" transform="matrix(-1 0 0 1 46.3159 35.7895)" fill="#2F2627"/>
<rect width="2.10526" height="2.10526" transform="matrix(-1 0 0 1 46.3159 33.6842)" fill="#2F2627"/>
<rect width="2.10526" height="2.10526" transform="matrix(-1 0 0 1 35.7896 44.2105)" fill="#2F2627"/>
<rect width="2.10526" height="2.10526" transform="matrix(-1 0 0 1 35.7896 42.1053)" fill="#2F2627"/>
<rect width="2.10526" height="2.10526" transform="matrix(-1 0 0 1 35.7896 40)" fill="#2F2627"/>
<rect width="2.10526" height="2.10526" transform="matrix(-1 0 0 1 37.8945 44.2105)" fill="#2F2627"/>
<rect width="2.10526" height="2.10526" transform="matrix(-1 0 0 1 37.8945 42.1053)" fill="#2F2627"/>
<rect width="2.10526" height="2.10526" transform="matrix(-1 0 0 1 37.8945 40)" fill="#2F2627"/>
<rect width="2.10526" height="2.10526" transform="matrix(-1 0 0 1 44.2104 44.2105)" fill="#2F2627"/>
<rect width="2.10526" height="2.10526" transform="matrix(-1 0 0 1 44.2104 42.1053)" fill="#2F2627"/>
<rect width="2.10526" height="2.10526" transform="matrix(-1 0 0 1 44.2104 40)" fill="#2F2627"/>
<rect width="2.10526" height="2.10526" transform="matrix(-1 0 0 1 46.3159 44.2105)" fill="#2F2627"/>
<rect width="2.10526" height="2.10526" transform="matrix(-1 0 0 1 46.3159 42.1053)" fill="#2F2627"/>
<rect width="2.10526" height="2.10526" transform="matrix(-1 0 0 1 46.3159 42.1053)" fill="#2F2627"/>
<rect width="2.10526" height="2.10526" transform="matrix(-1 0 0 1 46.3159 40)" fill="#2F2627"/>
<rect width="2.10526" height="2.10526" transform="matrix(-1 0 0 1 33.6841 40)" fill="#2F2627"/>
<rect width="2.10526" height="2.10526" transform="matrix(-1 0 0 1 33.6841 29.4737)" fill="#2F2627"/>
<rect width="2.10526" height="2.10526" transform="matrix(-1 0 0 1 48.4214 42.1053)" fill="#2F2627"/>
<rect width="2.10526" height="2.10526" transform="matrix(-1 0 0 1 48.4214 37.8947)" fill="#2F2627"/>
<rect width="2.10526" height="2.10526" transform="matrix(-1 0 0 1 48.4214 35.7895)" fill="#2F2627"/>
<rect width="2.10526" height="2.10526" transform="matrix(-1 0 0 1 48.4214 33.6842)" fill="#2F2627"/>
<rect width="2.10526" height="2.10526" transform="matrix(-1 0 0 1 48.4214 31.5789)" fill="#2F2627"/>
<rect width="2.10526" height="2.10526" transform="matrix(-1 0 0 1 48.4214 40)" fill="#2F2627"/>
<rect width="2.10526" height="2.10526" transform="matrix(-1 0 0 1 48.4214 29.4737)" fill="#2F2627"/>
<rect width="2.10526" height="2.10526" transform="matrix(-1 0 0 1 50.5264 40)" fill="#2F2627"/>
<rect width="2.10526" height="2.10526" transform="matrix(-1 0 0 1 50.5264 35.7895)" fill="#2F2627"/>
<rect width="2.10526" height="2.10526" transform="matrix(-1 0 0 1 50.5264 33.6842)" fill="#2F2627"/>
<rect width="2.10526" height="2.10526" transform="matrix(-1 0 0 1 50.5264 31.5789)" fill="#2F2627"/>
<rect width="2.10526" height="2.10526" transform="matrix(-1 0 0 1 50.5264 29.4737)" fill="#2F2627"/>
<rect width="2.10526" height="2.10526" transform="matrix(-1 0 0 1 50.5264 37.8947)" fill="#2F2627"/>
<rect width="2.10526" height="2.10526" transform="matrix(-1 0 0 1 50.5264 27.3684)" fill="#2F2627"/>
<rect width="2.10526" height="2.10526" transform="matrix(-1 0 0 1 52.6318 35.7895)" fill="#2F2627"/>
<rect width="2.10526" height="2.10526" transform="matrix(-1 0 0 1 52.6318 31.5789)" fill="#2F2627"/>
<rect width="2.10526" height="2.10526" transform="matrix(-1 0 0 1 52.6318 29.4737)" fill="#2F2627"/>
<rect width="2.10526" height="2.10526" transform="matrix(-1 0 0 1 52.6318 27.3684)" fill="#2F2627"/>
<rect width="2.10526" height="2.10526" transform="matrix(-1 0 0 1 52.6318 25.2632)" fill="#2F2627"/>
<rect width="2.10526" height="2.10526" transform="matrix(-1 0 0 1 52.6318 33.6842)" fill="#2F2627"/>
<rect width="2.10526" height="2.10526" transform="matrix(-1 0 0 1 52.6318 23.1579)" fill="#2F2627"/>
<rect width="2.10526" height="2.10526" transform="matrix(-1 0 0 1 54.7368 33.6842)" fill="#2F2627"/>
<rect width="2.10526" height="2.10526" transform="matrix(-1 0 0 1 54.7368 29.4737)" fill="#2F2627"/>
<rect width="2.10526" height="2.10526" transform="matrix(-1 0 0 1 54.7368 27.3684)" fill="#2F2627"/>
<rect width="2.10526" height="2.10526" transform="matrix(-1 0 0 1 54.7368 25.2632)" fill="#2F2627"/>
<rect width="2.10526" height="2.10526" transform="matrix(-1 0 0 1 54.7368 23.1579)" fill="#2F2627"/>
<rect width="2.10526" height="2.10526" transform="matrix(-1 0 0 1 54.7368 31.5789)" fill="#2F2627"/>
<rect width="2.10526" height="2.10526" transform="matrix(-1 0 0 1 54.7368 21.0526)" fill="#2F2627"/>
<rect width="2.10526" height="2.10526" transform="matrix(-1 0 0 1 56.8423 31.5789)" fill="#2F2627"/>
<rect width="2.10526" height="2.10526" transform="matrix(-1 0 0 1 56.8423 27.3684)" fill="#2F2627"/>
<rect width="2.10526" height="2.10526" transform="matrix(-1 0 0 1 56.8423 25.2632)" fill="#2F2627"/>
<rect width="2.10526" height="2.10526" transform="matrix(-1 0 0 1 56.8423 23.1579)" fill="#2F2627"/>
<rect width="2.10526" height="2.10526" transform="matrix(-1 0 0 1 56.8423 21.0526)" fill="#2F2627"/>
<rect width="2.10526" height="2.10526" transform="matrix(-1 0 0 1 56.8423 29.4737)" fill="#2F2627"/>
<rect width="2.10526" height="2.10526" transform="matrix(-1 0 0 1 56.8423 18.9474)" fill="#2F2627"/>
<rect width="2.10526" height="2.10526" transform="matrix(-1 0 0 1 58.9478 31.5789)" fill="#2F2627"/>
<rect width="2.10526" height="2.10526" transform="matrix(-1 0 0 1 58.9478 27.3684)" fill="#2F2627"/>
<rect width="2.10526" height="2.10526" transform="matrix(-1 0 0 1 58.9478 25.2632)" fill="#2F2627"/>
<rect width="2.10526" height="2.10526" transform="matrix(-1 0 0 1 58.9478 23.1579)" fill="#2F2627"/>
<rect width="2.10526" height="2.10526" transform="matrix(-1 0 0 1 58.9478 21.0526)" fill="#2F2627"/>
<rect width="2.10526" height="2.10526" transform="matrix(-1 0 0 1 58.9478 29.4737)" fill="#2F2627"/>
<rect width="2.10526" height="2.10526" transform="matrix(-1 0 0 1 58.9478 18.9474)" fill="#2F2627"/>
<rect width="2.10526" height="2.10526" transform="matrix(-1 0 0 1 61.0522 31.5789)" fill="#2F2627"/>
<rect width="2.10526" height="2.10526" transform="matrix(-1 0 0 1 61.0522 27.3684)" fill="#2F2627"/>
<rect width="2.10526" height="2.10526" transform="matrix(-1 0 0 1 61.0522 25.2632)" fill="#2F2627"/>
<rect width="2.10526" height="2.10526" transform="matrix(-1 0 0 1 61.0522 23.1579)" fill="#2F2627"/>
<rect width="2.10526" height="2.10526" transform="matrix(-1 0 0 1 61.0522 21.0526)" fill="#2F2627"/>
<rect width="2.10526" height="2.10526" transform="matrix(-1 0 0 1 61.0522 29.4737)" fill="#2F2627"/>
<rect width="2.10526" height="2.10526" transform="matrix(-1 0 0 1 61.0522 18.9474)" fill="#2F2627"/>
<rect width="2.10526" height="2.10526" transform="matrix(-1 0 0 1 61.0522 16.8421)" fill="#2F2627"/>
<rect width="2.10526" height="2.10526" transform="matrix(-1 0 0 1 61.0522 14.7368)" fill="#2F2627"/>
<rect width="2.10526" height="2.10526" transform="matrix(-1 0 0 1 58.9478 16.8421)" fill="#2F2627"/>
<rect width="2.10526" height="2.10526" transform="matrix(-1 0 0 1 63.1577 16.8421)" fill="#2F2627"/>
<rect width="2.10526" height="2.10526" transform="matrix(-1 0 0 1 65.2632 16.8421)" fill="#2F2627"/>
<rect width="2.10526" height="2.10526" transform="matrix(-1 0 0 1 63.1577 14.7368)" fill="#2F2627"/>
<rect width="2.10526" height="2.10526" transform="matrix(-1 0 0 1 63.1577 12.6316)" fill="#2F2627"/>
<rect width="2.10526" height="2.10526" transform="matrix(-1 0 0 1 63.1577 31.5789)" fill="#2F2627"/>
<rect width="2.10526" height="2.10526" transform="matrix(-1 0 0 1 63.1577 27.3684)" fill="#2F2627"/>
<rect width="2.10526" height="2.10526" transform="matrix(-1 0 0 1 63.1577 25.2632)" fill="#2F2627"/>
<rect width="2.10526" height="2.10526" transform="matrix(-1 0 0 1 63.1577 23.1579)" fill="#2F2627"/>
<rect width="2.10526" height="2.10526" transform="matrix(-1 0 0 1 63.1577 21.0526)" fill="#2F2627"/>
<rect width="2.10526" height="2.10526" transform="matrix(-1 0 0 1 63.1577 29.4737)" fill="#2F2627"/>
<rect width="2.10526" height="2.10526" transform="matrix(-1 0 0 1 63.1577 18.9474)" fill="#2F2627"/>
<rect width="2.10526" height="2.10526" transform="matrix(-1 0 0 1 65.2632 25.2632)" fill="#2F2627"/>
<rect width="2.10526" height="2.10526" transform="matrix(-1 0 0 1 65.2632 23.1579)" fill="#2F2627"/>
<rect width="2.10526" height="2.10526" transform="matrix(-1 0 0 1 65.2632 21.0526)" fill="#2F2627"/>
<rect width="2.10526" height="2.10526" transform="matrix(-1 0 0 1 65.2632 18.9474)" fill="#2F2627"/>
<rect width="2.10526" height="2.10526" transform="matrix(-1 0 0 1 67.3682 23.1579)" fill="#2F2627"/>
<rect width="2.10526" height="2.10526" transform="matrix(-1 0 0 1 67.3682 21.0526)" fill="#2F2627"/>
<rect width="2.10526" height="2.10526" transform="matrix(-1 0 0 1 69.4736 21.0526)" fill="#2F2627"/>
<rect width="2.10526" height="2.10526" transform="matrix(-1 0 0 1 67.3682 18.9474)" fill="#2F2627"/>
<rect width="2.10526" height="2.10526" transform="matrix(-1 0 0 1 21.0522 14.7368)" fill="#2F2627"/>
<rect width="2.10526" height="2.10526" transform="matrix(-1 0 0 1 16.8423 14.7368)" fill="#2F2627"/>
<rect width="2.10526" height="2.10526" transform="matrix(-1 0 0 1 16.8423 12.6316)" fill="#2F2627"/>
<rect width="2.10526" height="2.10526" transform="matrix(-1 0 0 1 18.9478 10.5263)" fill="#2F2627"/>
<rect width="2.10526" height="2.10526" transform="matrix(-1 0 0 1 18.9478 12.6316)" fill="#BBBACB"/>
<rect width="2.10526" height="2.10526" transform="matrix(-1 0 0 1 4.21045 21.0526)" fill="#BBBACB"/>
<rect width="2.10526" height="2.10526" transform="matrix(-1 0 0 1 6.31592 21.0526)" fill="#BBBACB"/>
<rect width="2.10526" height="2.10526" transform="matrix(-1 0 0 1 6.31592 18.9474)" fill="#BBBACB"/>
<rect width="2.10526" height="2.10526" transform="matrix(-1 0 0 1 8.42139 18.9474)" fill="#BBBACB"/>
<rect width="2.10526" height="2.10526" transform="matrix(-1 0 0 1 8.42139 16.8421)" fill="#BBBACB"/>
<rect width="2.10526" height="2.10526" transform="matrix(-1 0 0 1 10.5264 16.8421)" fill="#BBBACB"/>
<rect width="2.10526" height="2.10526" transform="matrix(-1 0 0 1 10.5264 14.7368)" fill="#BBBACB"/>
<rect width="2.10526" height="2.10526" transform="matrix(-1 0 0 1 12.6318 14.7368)" fill="#BBBACB"/>
<rect width="2.10526" height="2.10526" transform="matrix(-1 0 0 1 12.6318 12.6316)" fill="#BBBACB"/>
<rect width="2.10526" height="2.10526" transform="matrix(-1 0 0 1 14.7368 12.6316)" fill="#BBBACB"/>
<rect width="2.10526" height="2.10526" transform="matrix(-1 0 0 1 14.7368 10.5263)" fill="#BBBACB"/>
<rect width="2.10526" height="2.10526" transform="matrix(-1 0 0 1 16.8423 10.5263)" fill="#BBBACB"/>
<rect width="2.10526" height="2.10526" transform="matrix(-1 0 0 1 16.8423 8.42108)" fill="#BBBACB"/>
<rect width="2.10526" height="2.10526" transform="matrix(-1 0 0 1 18.9478 8.42108)" fill="#BBBACB"/>
<rect width="2.10526" height="2.10526" transform="matrix(-1 0 0 1 21.0522 8.42108)" fill="#BBBACB"/>
<rect width="2.10526" height="2.10526" transform="matrix(-1 0 0 1 21.0522 10.5263)" fill="#BBBACB"/>
<rect width="2.10526" height="2.10526" transform="matrix(-1 0 0 1 23.1577 10.5263)" fill="#BBBACB"/>
<rect width="2.10526" height="2.10526" transform="matrix(-1 0 0 1 23.1577 12.6316)" fill="#BBBACB"/>
<rect width="2.10526" height="2.10526" transform="matrix(-1 0 0 1 25.2632 12.6316)" fill="#BBBACB"/>
<rect width="2.10526" height="2.10526" transform="matrix(-1 0 0 1 25.2632 14.7368)" fill="#BBBACB"/>
<rect width="2.10526" height="2.10526" transform="matrix(-1 0 0 1 27.3682 14.7368)" fill="#2F2627"/>
<rect width="2.10526" height="2.10526" transform="matrix(-1 0 0 1 27.3682 16.8421)" fill="#2F2627"/>
<rect width="2.10526" height="2.10526" transform="matrix(-1 0 0 1 29.4736 16.8421)" fill="#BBBACB"/>
<rect width="2.10526" height="2.10526" transform="matrix(-1 0 0 1 29.4736 18.9474)" fill="#BBBACB"/>
<rect width="2.10526" height="2.10526" transform="matrix(-1 0 0 1 31.5791 18.9474)" fill="#BBBACB"/>
<rect width="2.10526" height="2.10526" transform="matrix(-1 0 0 1 31.5791 16.8421)" fill="#BBBACB"/>
<rect width="2.10526" height="2.10526" transform="matrix(-1 0 0 1 33.6841 16.8421)" fill="#BBBACB"/>
<rect width="2.10526" height="2.10526" transform="matrix(-1 0 0 1 35.7896 16.8421)" fill="#BBBACB"/>
<rect width="2.10526" height="2.10526" transform="matrix(-1 0 0 1 35.7896 14.7368)" fill="#BBBACB"/>
<rect width="2.10526" height="2.10526" transform="matrix(-1 0 0 1 37.8945 16.8421)" fill="#BBBACB"/>
<rect width="2.10526" height="2.10526" transform="matrix(-1 0 0 1 37.8945 12.6316)" fill="#BBBACB"/>
<rect width="2.10526" height="2.10526" transform="matrix(-1 0 0 1 40 12.6316)" fill="#BBBACB"/>
<rect width="2.10526" height="2.10526" transform="matrix(-1 0 0 1 42.1055 12.6316)" fill="#BBBACB"/>
<rect width="2.10526" height="2.10526" transform="matrix(-1 0 0 1 44.2104 12.6316)" fill="#BBBACB"/>
<rect width="2.10526" height="2.10526" transform="matrix(-1 0 0 1 42.1055 10.5263)" fill="#BBBACB"/>
<rect width="2.10526" height="2.10526" transform="matrix(-1 0 0 1 48.4214 6.3158)" fill="#BBBACB"/>
<rect width="2.10526" height="2.10526" transform="matrix(-1 0 0 1 48.4214 4.21051)" fill="#BBBACB"/>
<rect width="2.10526" height="2.10526" transform="matrix(-1 0 0 1 33.6841 4.21051)" fill="#BBBACB"/>
<rect width="2.10526" height="2.10526" transform="matrix(-1 0 0 1 33.6841 2.10529)" fill="#BBBACB"/>
<rect width="2.10526" height="2.10526" transform="matrix(-1 0 0 1 33.6841 6.3158)" fill="#BBBACB"/>
<rect width="2.10526" height="2.10526" transform="matrix(-1 0 0 1 40 10.5263)" fill="#BBBACB"/>
<rect width="2.10526" height="2.10526" transform="matrix(-1 0 0 1 40 16.8421)" fill="#BBBACB"/>
<rect width="2.10526" height="2.10526" transform="matrix(-1 0 0 1 40 16.8421)" fill="#BBBACB"/>
<rect width="2.10526" height="2.10526" transform="matrix(-1 0 0 1 42.1055 16.8421)" fill="#8A799F"/>
<rect width="2.10526" height="2.10526" transform="matrix(-1 0 0 1 44.2104 16.8421)" fill="#8A799F"/>
<rect width="2.10526" height="2.10526" transform="matrix(-1 0 0 1 33.6841 18.9474)" fill="#BBBACB"/>
<rect width="2.10526" height="2.10526" transform="matrix(-1 0 0 1 35.7896 18.9474)" fill="#BBBACB"/>
<rect width="2.10526" height="2.10526" transform="matrix(-1 0 0 1 37.8945 18.9474)" fill="#BBBACB"/>
<rect width="2.10526" height="2.10526" transform="matrix(-1 0 0 1 40 18.9474)" fill="#BBBACB"/>
<rect width="2.10526" height="2.10526" transform="matrix(-1 0 0 1 42.1055 18.9474)" fill="#BBBACB"/>
<rect width="2.10526" height="2.10526" transform="matrix(-1 0 0 1 44.2104 18.9474)" fill="#8A799F"/>
<rect width="2.10526" height="2.10526" transform="matrix(-1 0 0 1 46.3159 16.8421)" fill="#8A799F"/>
<rect width="2.10526" height="2.10526" transform="matrix(-1 0 0 1 46.3159 14.7368)" fill="#8A799F"/>
<rect width="2.10526" height="2.10526" transform="matrix(-1 0 0 1 48.4214 16.8421)" fill="#8A799F"/>
<rect width="2.10526" height="2.10526" transform="matrix(-1 0 0 1 50.5264 16.8421)" fill="#8A799F"/>
<rect width="2.10526" height="2.10526" transform="matrix(-1 0 0 1 52.6318 16.8421)" fill="#8A799F"/>
<rect width="2.10526" height="2.10526" transform="matrix(-1 0 0 1 48.4214 2.10529)" fill="#69688D"/>
<rect width="2.10526" height="2.10526" transform="matrix(-1 0 0 1 54.7368 16.8421)" fill="#2F2627"/>
<rect width="2.10526" height="2.10526" transform="matrix(-1 0 0 1 54.7368 14.7368)" fill="#2F2627"/>
<rect width="2.10526" height="2.10526" transform="matrix(-1 0 0 1 56.8423 14.7368)" fill="#BBBACB"/>
<rect width="2.10526" height="2.10526" transform="matrix(-1 0 0 1 56.8423 12.6316)" fill="#BBBACB"/>
<rect width="2.10526" height="2.10526" transform="matrix(-1 0 0 1 58.9478 12.6316)" fill="#BBBACB"/>
<rect width="2.10526" height="2.10526" transform="matrix(-1 0 0 1 58.9478 10.5263)" fill="#BBBACB"/>
<rect width="2.10526" height="2.10526" transform="matrix(-1 0 0 1 61.0522 10.5263)" fill="#BBBACB"/>
<rect width="2.10526" height="2.10526" transform="matrix(-1 0 0 1 61.0522 8.42108)" fill="#BBBACB"/>
<rect width="2.10526" height="2.10526" transform="matrix(-1 0 0 1 63.1577 8.42108)" fill="#BBBACB"/>
<rect width="2.10526" height="2.10526" transform="matrix(-1 0 0 1 65.2632 8.42108)" fill="#BBBACB"/>
<rect width="2.10526" height="2.10526" transform="matrix(-1 0 0 1 65.2632 10.5263)" fill="#BBBACB"/>
<rect width="2.10526" height="2.10526" transform="matrix(-1 0 0 1 67.3682 10.5263)" fill="#BBBACB"/>
<rect width="2.10526" height="2.10526" transform="matrix(-1 0 0 1 67.3682 12.6316)" fill="#BBBACB"/>
<rect width="2.10526" height="2.10526" transform="matrix(-1 0 0 1 69.4736 12.6316)" fill="#BBBACB"/>
<rect width="2.10526" height="2.10526" transform="matrix(-1 0 0 1 69.4736 14.7368)" fill="#BBBACB"/>
<rect width="2.10526" height="2.10526" transform="matrix(-1 0 0 1 71.5791 14.7368)" fill="#BBBACB"/>
<rect width="2.10526" height="2.10526" transform="matrix(-1 0 0 1 71.5791 16.8421)" fill="#BBBACB"/>
<rect width="2.10526" height="2.10526" transform="matrix(-1 0 0 1 73.6841 16.8421)" fill="#BBBACB"/>
<rect width="2.10526" height="2.10526" transform="matrix(-1 0 0 1 73.6841 18.9474)" fill="#BBBACB"/>
<rect width="2.10526" height="2.10526" transform="matrix(-1 0 0 1 75.7896 18.9474)" fill="#BBBACB"/>
<rect width="2.10526" height="2.10526" transform="matrix(-1 0 0 1 75.7896 21.0526)" fill="#BBBACB"/>
<rect width="2.10526" height="2.10526" transform="matrix(-1 0 0 1 77.8945 21.0526)" fill="#BBBACB"/>
<rect width="2.10526" height="2.10526" transform="matrix(-1 0 0 1 50.5264 18.9474)" fill="#8A799F"/>
<rect width="2.10526" height="2.10526" transform="matrix(-1 0 0 1 52.6318 18.9474)" fill="#8A799F"/>
<rect width="2.10526" height="2.10526" transform="matrix(-1 0 0 1 46.3159 18.9474)" fill="#8A799F"/>
<rect width="2.10526" height="2.10526" transform="matrix(-1 0 0 1 48.4214 18.9474)" fill="#8A799F"/>
<rect width="2.10526" height="2.10526" transform="matrix(-1 0 0 1 35.7896 21.0526)" fill="#BBBACB"/>
<rect width="2.10526" height="2.10526" transform="matrix(-1 0 0 1 33.6841 21.0526)" fill="#BBBACB"/>
<rect width="2.10526" height="2.10526" transform="matrix(-1 0 0 1 37.8945 21.0526)" fill="#BBBACB"/>
<rect width="2.10526" height="2.10526" transform="matrix(-1 0 0 1 40 21.0526)" fill="#BBBACB"/>
<rect width="2.10526" height="2.10526" transform="matrix(-1 0 0 1 40 21.0526)" fill="#BBBACB"/>
<rect width="2.10526" height="2.10526" transform="matrix(-1 0 0 1 42.1055 21.0526)" fill="#BBBACB"/>
<rect width="2.10526" height="2.10526" transform="matrix(-1 0 0 1 44.2104 21.0526)" fill="#8A799F"/>
<rect width="2.10526" height="2.10526" transform="matrix(-1 0 0 1 46.3159 21.0526)" fill="#8A799F"/>
<rect width="2.10526" height="2.10526" transform="matrix(-1 0 0 1 48.4214 21.0526)" fill="#8A799F"/>
<rect width="2.10526" height="2.10526" transform="matrix(-1 0 0 1 33.6841 23.1579)" fill="#BBBACB"/>
<rect width="2.10526" height="2.10526" transform="matrix(-1 0 0 1 35.7896 23.1579)" fill="#BBBACB"/>
<rect width="2.10526" height="2.10526" transform="matrix(-1 0 0 1 37.8945 23.1579)" fill="#BBBACB"/>
<rect width="2.10526" height="2.10526" transform="matrix(-1 0 0 1 40 23.1579)" fill="#BBBACB"/>
<rect width="2.10526" height="2.10526" transform="matrix(-1 0 0 1 42.1055 23.1579)" fill="#BBBACB"/>
<rect width="2.10526" height="2.10526" transform="matrix(-1 0 0 1 44.2104 23.1579)" fill="#8A799F"/>
<rect width="2.10526" height="2.10526" transform="matrix(-1 0 0 1 46.3159 23.1579)" fill="#BBBACB"/>
<rect width="2.10526" height="2.10526" transform="matrix(-1 0 0 1 48.4214 23.1579)" fill="#8A799F"/>
<rect width="2.10526" height="2.10526" transform="matrix(-1 0 0 1 18.9478 14.7368)" fill="#BBBACB"/>
<rect width="2.10526" height="2.10526" transform="matrix(-1 0 0 1 18.9478 16.8421)" fill="#BBBACB"/>
<rect width="2.10526" height="2.10526" transform="matrix(-1 0 0 1 18.9478 18.9474)" fill="#BBBACB"/>
<rect width="2.10526" height="2.10526" transform="matrix(-1 0 0 1 18.9478 21.0526)" fill="#BBBACB"/>
<rect width="2.10526" height="2.10526" transform="matrix(-1 0 0 1 18.9478 23.1579)" fill="#BBBACB"/>
<rect width="2.10526" height="2.10526" transform="matrix(-1 0 0 1 18.9478 25.2632)" fill="#BBBACB"/>
<rect width="2.10526" height="2.10526" transform="matrix(-1 0 0 1 18.9478 27.3684)" fill="#BBBACB"/>
<rect width="2.10526" height="2.10526" transform="matrix(-1 0 0 1 18.9478 29.4737)" fill="#BBBACB"/>
<rect width="2.10526" height="2.10526" transform="matrix(-1 0 0 1 18.9478 31.5789)" fill="#BBBACB"/>
<rect width="2.10526" height="2.10526" transform="matrix(-1 0 0 1 18.9478 12.6316)" fill="#BBBACB"/>
<rect width="2.10526" height="2.10526" transform="matrix(-1 0 0 1 63.1577 12.9123)" fill="#BBBACB"/>
<rect width="2.10526" height="2.10526" transform="matrix(-1 0 0 1 63.1577 15.0175)" fill="#BBBACB"/>
<rect width="2.10526" height="2.10526" transform="matrix(-1 0 0 1 63.1577 17.1228)" fill="#BBBACB"/>
<rect width="2.10526" height="2.10526" transform="matrix(-1 0 0 1 63.1577 19.2281)" fill="#BBBACB"/>
<rect width="2.10526" height="2.10526" transform="matrix(-1 0 0 1 63.1577 21.3333)" fill="#BBBACB"/>
<rect width="2.10526" height="2.10526" transform="matrix(-1 0 0 1 63.1577 23.4386)" fill="#BBBACB"/>
<rect width="2.10526" height="2.10526" transform="matrix(-1 0 0 1 63.1577 25.5439)" fill="#BBBACB"/>
<rect width="2.10526" height="2.10526" transform="matrix(-1 0 0 1 63.1577 27.6491)" fill="#BBBACB"/>
<rect width="2.10526" height="2.10526" transform="matrix(-1 0 0 1 63.1577 29.7544)" fill="#BBBACB"/>
<rect width="2.10526" height="2.10526" transform="matrix(-1 0 0 1 63.1577 31.8597)" fill="#BBBACB"/>
<rect width="2.10526" height="2.10526" transform="matrix(-1 0 0 1 21.0522 12.6316)" fill="#2F2627"/>
<rect width="2.10526" height="2.10526" transform="matrix(-1 0 0 1 23.1577 14.7368)" fill="#2F2627"/>
<rect width="2.10526" height="2.10526" transform="matrix(-1 0 0 1 25.2632 16.8421)" fill="#2F2627"/>
<rect width="2.10526" height="2.10526" transform="matrix(-1 0 0 1 27.3682 18.9474)" fill="#2F2627"/>
<rect width="2.10526" height="2.10526" transform="matrix(-1 0 0 1 27.3682 18.9474)" fill="#2F2627"/>
<rect width="2.10526" height="2.10526" transform="matrix(-1 0 0 1 29.4736 21.0526)" fill="#2F2627"/>
<rect width="2.10526" height="2.10526" transform="matrix(-1 0 0 1 31.5791 21.0526)" fill="#2F2627"/>
<rect width="2.10526" height="2.10526" transform="matrix(-1 0 0 1 31.5791 23.1579)" fill="#2F2627"/>
<rect width="2.10526" height="2.10526" transform="matrix(-1 0 0 1 31.5791 25.2632)" fill="#2F2627"/>
<rect width="2.10526" height="2.10526" transform="matrix(-1 0 0 1 33.6841 25.2632)" fill="#2F2627"/>
<rect width="2.10526" height="2.10526" transform="matrix(-1 0 0 1 35.7896 23.1579)" fill="#BBBACB"/>
<rect width="2.10526" height="2.10526" transform="matrix(-1 0 0 1 46.3159 23.1579)" fill="#8A799F"/>
<rect width="2.10526" height="2.10526" transform="matrix(-1 0 0 1 33.6841 25.2632)" fill="#2F2627"/>
<rect width="2.10526" height="2.10526" transform="matrix(-1 0 0 1 33.6841 27.3684)" fill="#2F2627"/>
<rect width="2.10526" height="2.10526" transform="matrix(-1 0 0 1 35.7896 29.4737)" fill="#2F2627"/>
<rect width="2.10526" height="2.10526" transform="matrix(-1 0 0 1 35.7896 31.5789)" fill="#2F2627"/>
<rect width="2.10526" height="2.10526" transform="matrix(-1 0 0 1 37.8945 33.6842)" fill="#8A799F"/>
<rect width="2.10526" height="2.10526" transform="matrix(-1 0 0 1 37.8945 35.7895)" fill="#8A799F"/>
<rect width="2.10526" height="2.10526" transform="matrix(-1 0 0 1 37.8945 37.8947)" fill="#2F2627"/>
<rect width="2.10526" height="2.10526" transform="matrix(-1 0 0 1 40 40)" fill="#2F2627"/>
<rect width="2.10526" height="2.10526" transform="matrix(-1 0 0 1 42.1055 40)" fill="#2F2627"/>
<rect x="69.4736" y="23.1579" width="2.10526" height="2.10526" fill="#2F2627"/>
<rect x="69.4736" y="25.2632" width="2.10526" height="2.10526" fill="#2F2627"/>
<rect x="67.3682" y="23.1579" width="2.10526" height="2.10526" fill="#2F2627"/>
<rect x="67.3682" y="25.2632" width="2.10526" height="2.10526" fill="#2F2627"/>
<rect x="67.3682" y="27.3684" width="2.10526" height="2.10526" fill="#2F2627"/>
<rect x="65.2632" y="25.2632" width="2.10526" height="2.10526" fill="#2F2627"/>
<rect x="65.2632" y="27.3684" width="2.10526" height="2.10526" fill="#2F2627"/>
<rect x="65.2632" y="29.4737" width="2.10526" height="2.10526" fill="#2F2627"/>
<rect x="63.1577" y="27.3684" width="2.10526" height="2.10526" fill="#2F2627"/>
<rect x="63.1577" y="29.4737" width="2.10526" height="2.10526" fill="#2F2627"/>
<rect x="63.1577" y="31.5789" width="2.10526" height="2.10526" fill="#2F2627"/>
<rect x="61.0522" y="33.6842" width="2.10526" height="2.10526" fill="#2F2627"/>
<rect x="58.9478" y="33.6842" width="2.10526" height="2.10526" fill="#2F2627"/>
<rect x="56.8423" y="33.6842" width="2.10526" height="2.10526" fill="#2F2627"/>
<rect x="52.6318" y="35.7895" width="2.10526" height="2.10526" fill="#2F2627"/>
<rect x="52.6318" y="37.8947" width="2.10526" height="2.10526" fill="#2F2627"/>
<rect x="50.5264" y="37.8947" width="2.10526" height="2.10526" fill="#2F2627"/>
<rect x="50.5264" y="40" width="2.10526" height="2.10526" fill="#2F2627"/>
<rect x="50.5264" y="42.1053" width="2.10526" height="2.10526" fill="#2F2627"/>
<rect x="48.4214" y="42.1053" width="2.10526" height="2.10526" fill="#2F2627"/>
<rect x="48.4214" y="44.2105" width="2.10526" height="2.10526" fill="#2F2627"/>
<rect x="48.4214" y="48.4211" width="2.10526" height="2.10526" fill="#2F2627"/>
<rect x="50.5264" y="48.4211" width="2.10526" height="2.10526" fill="#2F2627"/>
<rect x="48.4214" y="50.5263" width="2.10526" height="2.10526" fill="#2F2627"/>
<rect x="46.3159" y="48.4211" width="2.10526" height="2.10526" fill="#2F2627"/>
<rect x="46.3159" y="46.3158" width="2.10526" height="2.10526" fill="#2F2627"/>
<rect x="44.2104" y="46.3158" width="2.10526" height="2.10526" fill="#2F2627"/>
<rect x="42.1055" y="46.3158" width="2.10526" height="2.10526" fill="#2F2627"/>
<rect x="40" y="48.4211" width="2.10526" height="2.10526" fill="#2F2627"/>
<rect x="42.1055" y="48.4211" width="2.10526" height="2.10526" fill="#2F2627"/>
<rect x="37.8945" y="48.4211" width="2.10526" height="2.10526" fill="#2F2627"/>
<rect width="2.10526" height="2.10526" transform="matrix(-1 0 0 1 40 46.3158)" fill="#2F2627"/>
<rect width="2.10526" height="2.10526" transform="matrix(-1 0 0 1 42.1055 46.3158)" fill="#2F2627"/>
<rect x="40" y="46.3158" width="2.10526" height="2.10526" fill="#2F2627"/>
<rect x="37.8945" y="46.3158" width="2.10526" height="2.10526" fill="#2F2627"/>
<rect width="2.10526" height="2.10526" transform="matrix(-1 0 0 1 40 44.2105)" fill="#2F2627"/>
<rect width="2.10526" height="2.10526" transform="matrix(-1 0 0 1 42.1055 44.2105)" fill="#2F2627"/>
<rect x="40" y="44.2105" width="2.10526" height="2.10526" fill="#2F2627"/>
<rect x="37.8945" y="44.2105" width="2.10526" height="2.10526" fill="#2F2627"/>
<rect width="2.10526" height="2.10526" transform="matrix(-1 0 0 1 40 42.1053)" fill="#2F2627"/>
<rect width="2.10526" height="2.10526" transform="matrix(-1 0 0 1 42.1055 42.1053)" fill="#2F2627"/>
<rect x="40" y="42.1053" width="2.10526" height="2.10526" fill="#2F2627"/>
<rect x="37.8945" y="42.1053" width="2.10526" height="2.10526" fill="#2F2627"/>
<rect x="40" y="50.5263" width="2.10526" height="2.10526" fill="#2F2627"/>
<rect x="37.8945" y="50.5263" width="2.10526" height="2.10526" fill="#2F2627"/>
<rect x="40" y="52.6316" width="2.10526" height="2.10526" fill="#2F2627"/>
<rect x="37.8945" y="52.6316" width="2.10526" height="2.10526" fill="#2F2627"/>
<rect x="54.7368" y="33.6842" width="2.10526" height="2.10526" fill="#2F2627"/>
<rect x="69.4736" y="21.0526" width="2.10526" height="2.10526" fill="#2F2627"/>
<rect x="56.8423" y="14.7368" width="2.10526" height="2.10526" fill="#2F2627"/>
<rect x="54.7368" y="16.8421" width="2.10526" height="2.10526" fill="#2F2627"/>
<rect x="52.6318" y="18.9474" width="2.10526" height="2.10526" fill="#2F2627"/>
<rect x="50.5264" y="21.0526" width="2.10526" height="2.10526" fill="#2F2627"/>
<rect x="48.4214" y="21.0526" width="2.10526" height="2.10526" fill="#2F2627"/>
<rect x="48.4214" y="23.1579" width="2.10526" height="2.10526" fill="#2F2627"/>
<rect x="48.4214" y="25.2632" width="2.10526" height="2.10526" fill="#2F2627"/>
<rect x="46.3159" y="25.2632" width="2.10526" height="2.10526" fill="#2F2627"/>
<rect x="46.3159" y="27.3684" width="2.10526" height="2.10526" fill="#2F2627"/>
<rect x="44.2104" y="29.4737" width="2.10526" height="2.10526" fill="#2F2627"/>
<rect x="44.2104" y="31.5789" width="2.10526" height="2.10526" fill="#2F2627"/>
<rect x="42.1055" y="33.6842" width="2.10526" height="2.10526" fill="#8A799F"/>
<rect x="42.1055" y="35.7895" width="2.10526" height="2.10526" fill="#8A799F"/>
<rect x="42.1055" y="37.8947" width="2.10526" height="2.10526" fill="#2F2627"/>
<rect x="40" y="40" width="2.10526" height="2.10526" fill="#2F2627"/>
<rect x="37.8945" y="40" width="2.10526" height="2.10526" fill="#2F2627"/>
<rect x="37.8945" y="40" width="2.10526" height="2.10526" fill="#2F2627"/>
<rect x="77.8945" y="25.2632" width="2.10526" height="2.10526" fill="#2F2627"/>
<rect x="77.8945" y="25.2632" width="2.10526" height="2.10526" fill="#2F2627"/>
<rect x="77.8945" y="27.3684" width="2.10526" height="2.10526" fill="#2F2627"/>
<rect x="77.8945" y="23.1579" width="2.10526" height="2.10526" fill="#2F2627"/>
<rect x="77.8945" y="21.0526" width="2.10526" height="2.10526" fill="#2F2627"/>
<rect x="75.7896" y="18.9474" width="2.10526" height="2.10526" fill="#2F2627"/>
<rect x="73.6841" y="16.8421" width="2.10526" height="2.10526" fill="#2F2627"/>
<rect x="71.5791" y="14.7368" width="2.10526" height="2.10526" fill="#2F2627"/>
<rect x="69.4736" y="12.6316" width="2.10526" height="2.10526" fill="#2F2627"/>
<rect x="67.3682" y="10.5263" width="2.10526" height="2.10526" fill="#2F2627"/>
<rect x="65.2632" y="8.42108" width="2.10526" height="2.10526" fill="#2F2627"/>
<rect x="63.1577" y="6.3158" width="2.10526" height="2.10526" fill="#2F2627"/>
<rect x="61.0522" y="6.3158" width="2.10526" height="2.10526" fill="#2F2627"/>
<rect x="58.9478" y="6.3158" width="2.10526" height="2.10526" fill="#2F2627"/>
<rect x="56.8423" y="8.42108" width="2.10526" height="2.10526" fill="#2F2627"/>
<rect x="54.7368" y="10.5263" width="2.10526" height="2.10526" fill="#2F2627"/>
<rect x="52.6318" y="12.6316" width="2.10526" height="2.10526" fill="#2F2627"/>
<rect x="50.5264" y="14.7368" width="2.10526" height="2.10526" fill="#2F2627"/>
<rect x="48.4214" y="14.7368" width="2.10526" height="2.10526" fill="#2F2627"/>
<rect x="46.3159" y="14.7368" width="2.10526" height="2.10526" fill="#2F2627"/>
<rect x="75.7896" y="23.1579" width="2.10526" height="2.10526" fill="#2F2627"/>
<rect x="73.6841" y="23.1579" width="2.10526" height="2.10526" fill="#2F2627"/>
<rect x="71.5791" y="23.1579" width="2.10526" height="2.10526" fill="#2F2627"/>
<rect x="71.5791" y="21.0526" width="2.10526" height="2.10526" fill="#2F2627"/>
<rect x="69.4736" y="21.0526" width="2.10526" height="2.10526" fill="#2F2627"/>
<rect x="69.4736" y="18.9474" width="2.10526" height="2.10526" fill="#2F2627"/>
<rect x="67.3682" y="18.9474" width="2.10526" height="2.10526" fill="#2F2627"/>
<rect x="67.3682" y="16.8421" width="2.10526" height="2.10526" fill="#2F2627"/>
<rect x="65.2632" y="16.8421" width="2.10526" height="2.10526" fill="#2F2627"/>
<rect x="65.2632" y="14.7368" width="2.10526" height="2.10526" fill="#2F2627"/>
<rect x="63.1577" y="14.7368" width="2.10526" height="2.10526" fill="#2F2627"/>
<rect x="63.1577" y="12.6316" width="2.10526" height="2.10526" fill="#2F2627"/>
<rect x="61.0522" y="10.5263" width="2.10526" height="2.10526" fill="#2F2627"/>
<rect x="58.9478" y="12.6316" width="2.10526" height="2.10526" fill="#2F2627"/>
<rect width="2.10526" height="2.10526" transform="matrix(-1 0 0 1 37.8945 25.2632)" fill="#BBBACB"/>
<rect width="2.10526" height="2.10526" transform="matrix(-1 0 0 1 31.5791 46.3158)" fill="#BBBACB"/>
<rect width="2.10526" height="2.10526" transform="matrix(-1 0 0 1 33.6841 44.2105)" fill="#BBBACB"/>
<rect width="2.10526" height="2.10526" transform="matrix(-1 0 0 1 48.4214 44.2105)" fill="#BBBACB"/>
<rect width="2.10526" height="2.10526" transform="matrix(-1 0 0 1 50.5264 46.3158)" fill="#BBBACB"/>
<rect width="2.10526" height="2.10526" transform="matrix(-1 0 0 1 40 25.2632)" fill="#BBBACB"/>
<rect width="2.10526" height="2.10526" transform="matrix(-1 0 0 1 42.1055 25.2632)" fill="#8A799F"/>
<rect width="2.10526" height="2.10526" transform="matrix(-1 0 0 1 44.2104 25.2632)" fill="#8A799F"/>
<rect width="2.10526" height="2.10526" transform="matrix(-1 0 0 1 35.7896 25.2632)" fill="#BBBACB"/>
<rect width="2.10526" height="2.10526" transform="matrix(-1 0 0 1 46.3159 25.2632)" fill="#8A799F"/>
<rect width="2.10526" height="2.10526" transform="matrix(-1 0 0 1 37.8945 27.3684)" fill="#8A799F"/>
<rect width="2.10526" height="2.10526" transform="matrix(-1 0 0 1 40 27.3684)" fill="#8A799F"/>
<rect width="2.10526" height="2.10526" transform="matrix(-1 0 0 1 42.1055 27.3684)" fill="#8A799F"/>
<rect width="2.10526" height="2.10526" transform="matrix(-1 0 0 1 44.2104 27.3684)" fill="#8A799F"/>
<rect width="2.10526" height="2.10526" transform="matrix(-1 0 0 1 37.8945 29.4737)" fill="#8A799F"/>
<rect width="2.10526" height="2.10526" transform="matrix(-1 0 0 1 40 29.4737)" fill="#8A799F"/>
<rect width="2.10526" height="2.10526" transform="matrix(-1 0 0 1 42.1055 29.4737)" fill="#8A799F"/>
<rect width="2.10526" height="2.10526" transform="matrix(-1 0 0 1 44.2104 29.4737)" fill="#8A799F"/>
<rect width="2.10526" height="2.10526" transform="matrix(-1 0 0 1 37.8945 31.5789)" fill="#8A799F"/>
<rect width="2.10526" height="2.10526" transform="matrix(-1 0 0 1 40 31.5789)" fill="#8A799F"/>
<rect width="2.10526" height="2.10526" transform="matrix(-1 0 0 1 42.1055 31.5789)" fill="#8A799F"/>
<rect width="2.10526" height="2.10526" transform="matrix(-1 0 0 1 40 33.6842)" fill="#8A799F"/>
<rect width="2.10526" height="2.10526" transform="matrix(-1 0 0 1 42.1055 33.6842)" fill="#8A799F"/>
<rect width="2.10526" height="2.10526" transform="matrix(-1 0 0 1 40 35.7895)" fill="#8A799F"/>
<rect width="2.10526" height="2.10526" transform="matrix(-1 0 0 1 42.1055 35.7895)" fill="#8A799F"/>
<rect width="2.10526" height="2.10526" transform="matrix(-1 0 0 1 40 37.8947)" fill="#8A799F"/>
<rect width="2.10526" height="2.10526" transform="matrix(-1 0 0 1 42.1055 37.8947)" fill="#8A799F"/>
<rect width="2.10526" height="2.10526" transform="matrix(-1 0 0 1 44.2104 31.5789)" fill="#8A799F"/>
<rect width="2.10526" height="2.10526" transform="matrix(-1 0 0 1 35.7896 27.3684)" fill="#8A799F"/>
<rect width="2.10526" height="2.10526" transform="matrix(-1 0 0 1 46.3159 27.3684)" fill="#8A799F"/>
</svg>
