<svg width="60" height="69" viewBox="0 0 60 69" fill="none" xmlns="http://www.w3.org/2000/svg">
<path d="M49.8936 48.7071C52.2112 50.9056 55.241 56.4636 53.0495 58.7884C50.8579 61.1133 42.6583 61.0396 40.3407 58.8412C38.0231 56.6428 42.8385 50.2576 45.03 47.9328C47.2216 45.6079 47.576 46.5087 49.8936 48.7071Z" fill="#342A22"/>
<path d="M48.9696 48.1259L50.4392 46.5668L52.926 48.9257L51.4563 50.4848L48.9696 48.1259Z" fill="#342A22"/>
<path d="M49.0541 51.1593L50.5238 49.6002L52.078 51.0745L50.6083 52.6336L49.0541 51.1593Z" fill="#342A22"/>
<path d="M50.6083 52.6336L52.078 51.0745L53.6322 52.5488L52.1625 54.1079L50.6083 52.6336Z" fill="#342A22"/>
<path d="M52.1625 54.1079L53.6322 52.5488L55.1864 54.0231L53.7167 55.5822L52.1625 54.1079Z" fill="#342A22"/>
<path d="M52.247 57.1412L53.7167 55.5822L55.2709 57.0565L53.8012 58.6156L52.247 57.1412Z" fill="#342A22"/>
<path d="M50.7773 58.7003L52.247 57.1412L53.8012 58.6156L52.3315 60.1746L50.7773 58.7003Z" fill="#342A22"/>
<path d="M38.0601 58.4498L39.5298 56.8907L41.7057 58.9547L40.236 60.5138L38.0601 58.4498Z" fill="#342A22"/>
<path d="M40.236 60.5138L42.2935 58.3311L43.8477 59.8054L41.7902 61.9881L40.236 60.5138Z" fill="#342A22"/>
<path d="M43.2599 60.429L44.7295 58.8699L46.2838 60.3442L44.8141 61.9033L43.2599 60.429Z" fill="#342A22"/>
<path d="M45.6959 60.9678L47.7534 58.7851L49.3076 60.2594L47.2501 62.4421L45.6959 60.9678Z" fill="#342A22"/>
<path d="M49.3076 60.2594L50.7773 58.7003L52.3315 60.1746L50.8619 61.7337L49.3076 60.2594Z" fill="#342A22"/>
<path d="M38.5972 56.0061L40.0669 54.447L41.6211 55.9213L40.1514 57.4804L38.5972 56.0061Z" fill="#342A22"/>
<path d="M40.0669 54.447L41.5366 52.8879L43.0908 54.3622L41.6211 55.9213L40.0669 54.447Z" fill="#342A22"/>
<path d="M39.3945 52.0373L41.4521 49.8545L43.0063 51.3288L40.9487 53.5116L39.3945 52.0373Z" fill="#342A22"/>
<path d="M41.4521 49.8545L42.9218 48.2955L44.476 49.7698L43.0063 51.3288L41.4521 49.8545Z" fill="#342A22"/>
<path d="M42.9218 48.2955L44.3915 46.7364L45.9457 48.2107L44.476 49.7698L42.9218 48.2955Z" fill="#342A22"/>
<path d="M47.4154 46.6516L48.885 45.0925L50.4392 46.5668L48.9696 48.1259L47.4154 46.6516Z" fill="#342A22"/>
<path d="M44.3915 46.7364L45.8611 45.1773L47.4154 46.6516L45.9457 48.2107L44.3915 46.7364Z" fill="#342A22"/>
<path d="M20.9016 28.8244C25.3469 34.49 25.1577 42.0775 20.479 45.7716C15.8003 49.4656 8.40381 47.8674 3.9585 42.2018C-0.486805 36.5362 -0.297603 28.9487 4.3811 25.2547C9.05979 21.5606 16.4563 23.1589 20.9016 28.8244Z" fill="#342A22"/>
<path d="M21.1111 29.369L21.7834 28.8382L22.4714 29.7149L21.799 30.2458L21.1111 29.369Z" fill="#342A22"/>
<path d="M21.799 30.2458L22.4714 29.7149L23.1593 30.5917L22.487 31.1226L21.799 30.2458Z" fill="#342A22"/>
<path d="M21.8146 31.6534L22.487 31.1226L23.1749 31.9994L22.5026 32.5302L21.8146 31.6534Z" fill="#342A22"/>
<path d="M22.5026 32.5302L23.1749 31.9994L23.8628 32.8762L23.1905 33.407L22.5026 32.5302Z" fill="#342A22"/>
<path d="M22.5182 33.9379L23.1905 33.407L23.8784 34.2838L23.2061 34.8147L22.5182 33.9379Z" fill="#342A22"/>
<path d="M23.2061 34.8147L23.8784 34.2838L24.5664 35.1606L23.894 35.6914L23.2061 34.8147Z" fill="#342A22"/>
<path d="M23.2217 36.2223L23.894 35.6914L24.582 36.5682L23.9096 37.0991L23.2217 36.2223Z" fill="#342A22"/>
<path d="M23.2373 37.6299L23.9096 37.0991L24.5976 37.9759L23.9252 38.5067L23.2373 37.6299Z" fill="#342A22"/>
<path d="M23.2529 39.0376L23.9252 38.5067L24.6132 39.3835L23.9408 39.9144L23.2529 39.0376Z" fill="#342A22"/>
<path d="M23.2685 40.4452L23.9408 39.9144L24.6288 40.7912L23.9564 41.322L23.2685 40.4452Z" fill="#342A22"/>
<path d="M21.9394 42.9145L22.6118 42.3837L23.2997 43.2605L22.6274 43.7913L21.9394 42.9145Z" fill="#342A22"/>
<path d="M20.6103 45.3839L21.2827 44.853L21.9706 45.7298L21.2983 46.2607L20.6103 45.3839Z" fill="#342A22"/>
<path d="M21.2827 44.853L21.955 44.3222L22.643 45.199L21.9706 45.7298L21.2827 44.853Z" fill="#342A22"/>
<path d="M21.2671 43.4454L21.9394 42.9145L22.6274 43.7913L21.955 44.3222L21.2671 43.4454Z" fill="#342A22"/>
<path d="M22.6118 42.3837L23.2841 41.8529L23.972 42.7296L23.2997 43.2605L22.6118 42.3837Z" fill="#342A22"/>
<path d="M22.5962 40.9761L23.2685 40.4452L23.9564 41.322L23.2841 41.8529L22.5962 40.9761Z" fill="#342A22"/>
<path d="M20.4231 28.4922L21.0955 27.9614L21.7834 28.8382L21.1111 29.369L20.4231 28.4922Z" fill="#342A22"/>
<path d="M19.938 45.9147L20.6103 45.3839L21.2983 46.2607L20.6259 46.7915L19.938 45.9147Z" fill="#342A22"/>
<path d="M3.61453 41.7634L4.28688 41.2326L4.97482 42.1094L4.30248 42.6402L3.61453 41.7634Z" fill="#342A22"/>
<path d="M4.30248 42.6402L4.97482 42.1094L5.66276 42.9862L4.99042 43.517L4.30248 42.6402Z" fill="#342A22"/>
<path d="M4.99042 43.517L5.66276 42.9862L6.35071 43.8629L5.67836 44.3938L4.99042 43.517Z" fill="#342A22"/>
<path d="M5.67836 44.3938L6.35071 43.8629L7.03865 44.7397L6.36631 45.2706L5.67836 44.3938Z" fill="#342A22"/>
<path d="M6.36631 45.2706L7.03865 44.7397L7.72659 45.6165L7.05425 46.1474L6.36631 45.2706Z" fill="#342A22"/>
<path d="M7.72659 45.6165L8.39894 45.0857L9.08688 45.9625L8.41454 46.4933L7.72659 45.6165Z" fill="#342A22"/>
<path d="M8.41454 46.4933L9.08688 45.9625L9.77482 46.8393L9.10248 47.3701L8.41454 46.4933Z" fill="#342A22"/>
<path d="M9.77482 46.8393L10.4472 46.3084L11.1351 47.1852L10.4628 47.7161L9.77482 46.8393Z" fill="#342A22"/>
<path d="M11.1351 47.1852L11.8075 46.6544L12.4954 47.5311L11.8231 48.062L11.1351 47.1852Z" fill="#342A22"/>
<path d="M12.4954 47.5311L13.1677 47.0003L13.8557 47.8771L13.1833 48.4079L12.4954 47.5311Z" fill="#342A22"/>
<path d="M14.528 47.3462L15.2004 46.8154L15.8883 47.6922L15.216 48.223L14.528 47.3462Z" fill="#342A22"/>
<path d="M16.5607 47.1613L17.233 46.6305L17.9209 47.5073L17.2486 48.0381L16.5607 47.1613Z" fill="#342A22"/>
<path d="M13.8557 47.8771L14.528 47.3462L15.216 48.223L14.5436 48.7539L13.8557 47.8771Z" fill="#342A22"/>
<path d="M15.8883 47.6922L16.5607 47.1613L17.2486 48.0381L16.5763 48.569L15.8883 47.6922Z" fill="#342A22"/>
<path d="M17.233 46.6305L17.9053 46.0996L18.5933 46.9764L17.9209 47.5073L17.233 46.6305Z" fill="#342A22"/>
<path d="M18.5933 46.9764L19.2656 46.4456L19.9536 47.3224L19.2812 47.8532L18.5933 46.9764Z" fill="#342A22"/>
<path d="M19.2656 46.4456L19.938 45.9147L20.6259 46.7915L19.9536 47.3224L19.2656 46.4456Z" fill="#342A22"/>
<path d="M1.4259 27.8719L2.09824 27.3411L2.78618 28.2179L2.11384 28.7487L1.4259 27.8719Z" fill="#342A22"/>
<path d="M0.769158 29.8104L1.4415 29.2796L2.12945 30.1564L1.4571 30.6872L0.769158 29.8104Z" fill="#342A22"/>
<path d="M0.112415 31.7489L0.784759 31.2181L1.4727 32.0949L0.800359 32.6257L0.112415 31.7489Z" fill="#342A22"/>
<path d="M0.128013 33.1566L0.800359 32.6257L1.4883 33.5025L0.815956 34.0333L0.128013 33.1566Z" fill="#342A22"/>
<path d="M0.197203 34.6017L0.974134 33.9882L1.94035 35.2197L1.16342 35.8331L0.197203 34.6017Z" fill="#342A22"/>
<path d="M0 35.954L0.971163 35.1872L1.74413 36.1723L0.77297 36.9391L0 35.954Z" fill="#342A22"/>
<path d="M0.847158 36.8486L1.5195 36.3178L2.20745 37.1946L1.5351 37.7254L0.847158 36.8486Z" fill="#342A22"/>
<path d="M0.862757 38.2563L1.5351 37.7254L2.22304 38.6022L1.5507 39.1331L0.862757 38.2563Z" fill="#342A22"/>
<path d="M1.5507 39.1331L2.22304 38.6022L2.91099 39.479L2.23864 40.0098L1.5507 39.1331Z" fill="#342A22"/>
<path d="M2.23864 40.0098L2.91099 39.479L3.59893 40.3558L2.92659 40.8866L2.23864 40.0098Z" fill="#342A22"/>
<path d="M2.92659 40.8866L3.59893 40.3558L4.28688 41.2326L3.61453 41.7634L2.92659 40.8866Z" fill="#342A22"/>
<path d="M0.013861 30.3589L0.790792 29.7455L1.757 30.9769L0.980074 31.5904L0.013861 30.3589Z" fill="#342A22"/>
<path d="M0.753557 28.4028L1.4259 27.8719L2.11384 28.7487L1.4415 29.2796L0.753557 28.4028Z" fill="#342A22"/>
<path d="M2.09824 27.3411L2.77059 26.8102L3.45853 27.687L2.78618 28.2179L2.09824 27.3411Z" fill="#342A22"/>
<path d="M1.96312 26.0278L2.93428 25.2611L3.90049 26.4925L2.92933 27.2593L1.96312 26.0278Z" fill="#342A22"/>
<path d="M2.75499 25.4026L3.42733 24.8718L4.11527 25.7486L3.44293 26.2794L2.75499 25.4026Z" fill="#342A22"/>
<path d="M3.42733 24.8718L4.09968 24.3409L4.78763 25.2177L4.11527 25.7486L3.42733 24.8718Z" fill="#342A22"/>
<path d="M6.80465 23.6252L7.47699 23.0943L8.16494 23.9711L7.49259 24.5019L6.80465 23.6252Z" fill="#342A22"/>
<path d="M9.50963 22.9094L10.182 22.3786L10.8699 23.2553L10.1976 23.7862L9.50963 22.9094Z" fill="#342A22"/>
<path d="M10.8869 23.3695L11.8581 22.6028L12.4378 23.3416L11.4667 24.1084L10.8869 23.3695Z" fill="#342A22"/>
<path d="M12.2436 23.495L13.0205 22.8816L13.7935 23.8667L13.0166 24.4801L12.2436 23.495Z" fill="#342A22"/>
<path d="M13.5905 23.9472L14.2628 23.4164L14.9508 24.2932L14.2784 24.824L13.5905 23.9472Z" fill="#342A22"/>
<path d="M14.9508 24.2932L15.6231 23.7623L16.3111 24.6391L15.6387 25.17L14.9508 24.2932Z" fill="#342A22"/>
<path d="M15.6387 25.17L16.3111 24.6391L16.999 25.5159L16.3267 26.0468L15.6387 25.17Z" fill="#342A22"/>
<path d="M16.999 25.5159L17.6714 24.9851L18.3593 25.8618L17.687 26.3927L16.999 25.5159Z" fill="#342A22"/>
<path d="M17.687 26.3927L18.3593 25.8618L19.0472 26.7386L18.3749 27.2695L17.687 26.3927Z" fill="#342A22"/>
<path d="M19.0472 26.7386L19.7196 26.2078L20.4075 27.0846L19.7352 27.6154L19.0472 26.7386Z" fill="#342A22"/>
<path d="M19.7352 27.6154L20.4075 27.0846L21.0955 27.9614L20.4231 28.4922L19.7352 27.6154Z" fill="#342A22"/>
<path d="M4.09968 24.3409L4.77202 23.8101L5.45997 24.6869L4.78763 25.2177L4.09968 24.3409Z" fill="#342A22"/>
<path d="M4.77202 23.8101L5.44436 23.2792L6.13231 24.156L5.45997 24.6869L4.77202 23.8101Z" fill="#342A22"/>
<path d="M6.13231 24.156L6.80465 23.6252L7.49259 24.5019L6.82026 25.0328L6.13231 24.156Z" fill="#342A22"/>
<path d="M7.47699 23.0943L8.14934 22.5635L8.83728 23.4402L8.16494 23.9711L7.47699 23.0943Z" fill="#342A22"/>
<path d="M8.83728 23.4402L9.50963 22.9094L10.1976 23.7862L9.52523 24.317L8.83728 23.4402Z" fill="#342A22"/>
<path d="M36.429 57.3511H38.9958V64.6467H36.429V57.3511Z" fill="#D9D9D9"/>
<path d="M40.7071 62.0718V64.6467H36.429V62.0718H40.7071Z" fill="#D9D9D9"/>
<path d="M38.9958 64.2175V66.7925H33.4343V64.2175H38.9958Z" fill="#D9D9D9"/>
<path d="M56.9638 34.3914C56.9638 48.2568 44.897 59.4969 30.0118 59.4969C15.1266 59.4969 3.05979 48.2568 3.05979 34.3914C3.05979 20.5261 15.1266 9.28598 30.0118 9.28598C44.897 9.28598 56.9638 20.5261 56.9638 34.3914Z" fill="#504439"/>
<path d="M56.536 35.4643H58.6751V37.6101H56.536V35.4643Z" fill="#504439"/>
<path d="M55.2526 37.6101H58.6751V39.7558H55.2526V37.6101Z" fill="#504439"/>
<path d="M54.397 39.7558H56.536V41.9016H54.397V39.7558Z" fill="#504439"/>
<path d="M54.397 41.9016H56.536V44.0474H54.397V41.9016Z" fill="#504439"/>
<path d="M52.2579 44.0474H54.8248V46.1931H52.2579V44.0474Z" fill="#504439"/>
<path d="M52.2579 46.1931H54.397V48.3389H52.2579V46.1931Z" fill="#504439"/>
<path d="M50.1189 48.3389H52.2579V50.4846H50.1189V48.3389Z" fill="#504439"/>
<path d="M47.9798 50.4846H50.9745V52.6304H47.9798V50.4846Z" fill="#504439"/>
<path d="M45.8408 52.6304H48.4076V54.7762H45.8408V52.6304Z" fill="#504439"/>
<path d="M43.7017 54.7762H45.8408V56.9219H43.7017V54.7762Z" fill="#504439"/>
<path d="M37.2846 56.9219H39.4236V59.0677H37.2846V56.9219Z" fill="#504439"/>
<path d="M30.8674 59.0677H33.0065V61.2135H30.8674V59.0677Z" fill="#504439"/>
<path d="M33.0065 59.0677H35.1455V61.2135H33.0065V59.0677Z" fill="#504439"/>
<path d="M35.1455 56.9219H37.2846V59.0677H35.1455V56.9219Z" fill="#504439"/>
<path d="M39.4236 56.9219H41.5627V59.0677H39.4236V56.9219Z" fill="#504439"/>
<path d="M41.5627 54.7762H43.7017V56.9219H41.5627V54.7762Z" fill="#504439"/>
<path d="M56.536 33.3185H58.6751V35.4643H56.536V33.3185Z" fill="#504439"/>
<path d="M28.7284 59.0677H30.8674V61.2135H28.7284V59.0677Z" fill="#504439"/>
<path d="M3.05979 33.3185H5.19884V35.4643H3.05979V33.3185Z" fill="#504439"/>
<path d="M3.05979 35.4643H5.19884V37.6101H3.05979V35.4643Z" fill="#504439"/>
<path d="M3.05979 37.6101H5.19884V39.7558H3.05979V37.6101Z" fill="#504439"/>
<path d="M3.05979 39.7558H5.19884V41.9016H3.05979V39.7558Z" fill="#504439"/>
<path d="M3.05979 41.9016H5.19884V44.0474H3.05979V41.9016Z" fill="#504439"/>
<path d="M5.19884 44.0474H7.33789V46.1931H5.19884V44.0474Z" fill="#504439"/>
<path d="M5.19884 46.1931H8.19351V48.3389H5.19884V46.1931Z" fill="#504439"/>
<path d="M7.33789 48.3389H9.47694V50.4846H7.33789V48.3389Z" fill="#504439"/>
<path d="M9.47694 50.4846H11.616V52.6304H9.47694V50.4846Z" fill="#504439"/>
<path d="M11.616 52.6304H14.1828V54.7762H11.616V52.6304Z" fill="#504439"/>
<path d="M15.8941 54.7762H18.0331V56.9219H15.8941V54.7762Z" fill="#504439"/>
<path d="M20.1722 56.9219H22.3112V59.0677H20.1722V56.9219Z" fill="#504439"/>
<path d="M13.755 54.7762H15.8941V56.9219H13.755V54.7762Z" fill="#504439"/>
<path d="M18.0331 56.9219H20.1722V59.0677H18.0331V56.9219Z" fill="#504439"/>
<path d="M22.3112 56.9219H24.4503V59.0677H22.3112V56.9219Z" fill="#504439"/>
<path d="M24.4503 58.6385H26.5893V61.2135H24.4503V58.6385Z" fill="#504439"/>
<path d="M26.5893 59.0677H28.7284V61.2135H26.5893V59.0677Z" fill="#504439"/>
<path d="M20.1722 9.71513H22.3112V11.8609H20.1722V9.71513Z" fill="#504439"/>
<path d="M15.8941 11.8609H18.0331V14.0067H15.8941V11.8609Z" fill="#504439"/>
<path d="M11.616 14.0067H13.755V16.1524H11.616V14.0067Z" fill="#504439"/>
<path d="M9.47694 16.1524H11.616V18.2982H9.47694V16.1524Z" fill="#504439"/>
<path d="M7.33789 18.2982H9.47694V20.444H7.33789V18.2982Z" fill="#504439"/>
<path d="M5.19884 20.444H7.33789V22.5897H5.19884V20.444Z" fill="#504439"/>
<path d="M5.19884 22.5897H7.33789V24.7355H5.19884V22.5897Z" fill="#504439"/>
<path d="M3.05979 24.7355H5.19884V26.8812H3.05979V24.7355Z" fill="#504439"/>
<path d="M3.05979 26.8812H5.19884V29.027H3.05979V26.8812Z" fill="#504439"/>
<path d="M3.05979 29.027H5.19884V31.1728H3.05979V29.027Z" fill="#504439"/>
<path d="M3.05979 31.1728H5.19884V33.3185H3.05979V31.1728Z" fill="#504439"/>
<path d="M13.755 11.8609H15.8941V14.0067H13.755V11.8609Z" fill="#504439"/>
<path d="M18.0331 9.71513H20.1722V11.8609H18.0331V9.71513Z" fill="#504439"/>
<path d="M22.3112 9.71513H24.4503V11.8609H22.3112V9.71513Z" fill="#504439"/>
<path d="M24.4503 7.56937H26.5893V9.71513H24.4503V7.56937Z" fill="#504439"/>
<path d="M26.5893 7.56937H28.7284V9.71513H26.5893V7.56937Z" fill="#504439"/>
<path d="M28.7284 7.56937H30.8674V9.71513H28.7284V7.56937Z" fill="#504439"/>
<path d="M37.2846 9.71513H39.4236V11.8609H37.2846V9.71513Z" fill="#504439"/>
<path d="M43.7017 11.8609H45.8408V14.0067H43.7017V11.8609Z" fill="#504439"/>
<path d="M45.8408 14.0067H48.4076V16.1524H45.8408V14.0067Z" fill="#504439"/>
<path d="M47.9798 16.1524H50.5467V18.2982H47.9798V16.1524Z" fill="#504439"/>
<path d="M50.1189 18.2982H52.6857V20.444H50.1189V18.2982Z" fill="#504439"/>
<path d="M52.2579 20.444H54.397V22.5897H52.2579V20.444Z" fill="#504439"/>
<path d="M52.2579 22.5897H54.8248V24.7355H52.2579V22.5897Z" fill="#504439"/>
<path d="M54.397 24.7355H56.536V26.8812H54.397V24.7355Z" fill="#504439"/>
<path d="M54.397 26.8812H56.536V29.027H54.397V26.8812Z" fill="#504439"/>
<path d="M55.6804 29.027L57.9121 29.4533L58.6751 31.1728H55.6804V29.027Z" fill="#504439"/>
<path d="M56.536 31.1728H58.6751V33.3185H56.536V31.1728Z" fill="#504439"/>
<path d="M30.8674 7.56937H33.0065V9.71513H30.8674V7.56937Z" fill="#504439"/>
<path d="M33.0065 7.56937H35.1455V9.71513H33.0065V7.56937Z" fill="#504439"/>
<path d="M35.1455 9.71513H37.2846V11.8609H35.1455V9.71513Z" fill="#504439"/>
<path d="M39.4236 9.71513H41.9905V11.8609H39.4236V9.71513Z" fill="#504439"/>
<path d="M41.5627 11.8609H43.7017V14.0067H41.5627V11.8609Z" fill="#504439"/>
<path d="M41.6614 20.6585C41.6614 30.5307 33.3074 38.5336 23.0023 38.5336C12.6972 38.5336 4.34322 30.5307 4.34322 20.6585C4.34322 10.7864 12.6972 2.78346 23.0023 2.78346C33.3074 2.78346 41.6614 10.7864 41.6614 20.6585Z" fill="#504439"/>
<path d="M41.3652 21.4224H42.8461V22.9502H41.3652V21.4224Z" fill="#504439"/>
<path d="M41.3652 22.9502H42.8461V24.478H41.3652V22.9502Z" fill="#504439"/>
<path d="M39.8844 24.478L41.3652 24.478L41.3652 26.0058H39.8844V24.478Z" fill="#504439"/>
<path d="M39.8844 26.0058H41.3652V27.5336H39.8844V26.0058Z" fill="#504439"/>
<path d="M38.4035 27.5336L39.8844 27.5336L39.8844 29.0613H38.4035V27.5336Z" fill="#504439"/>
<path d="M38.4035 29.0613H39.8844V30.5891H38.4035V29.0613Z" fill="#504439"/>
<path d="M36.9226 30.5891L38.4035 30.5891L38.4035 32.1169H36.9226V30.5891Z" fill="#504439"/>
<path d="M35.4417 32.1169H36.9226L36.9226 33.6447H35.4417V32.1169Z" fill="#504439"/>
<path d="M33.9608 33.6447L35.4417 33.6447V35.1725H33.9608V33.6447Z" fill="#504439"/>
<path d="M32.48 35.1725H33.9608V36.7003H32.48V35.1725Z" fill="#504439"/>
<path d="M28.0373 36.7003H29.5182V38.228H28.0373V36.7003Z" fill="#504439"/>
<path d="M23.5947 38.228H25.0756V39.7558H23.5947V38.228Z" fill="#504439"/>
<path d="M25.0756 38.228H26.5564V39.7558H25.0756V38.228Z" fill="#504439"/>
<path d="M26.5564 36.7003H28.0373V38.228L26.5564 38.228L26.5564 36.7003Z" fill="#504439"/>
<path d="M29.5182 36.7003H30.9991V38.228H29.5182V36.7003Z" fill="#504439"/>
<path d="M30.9991 35.1725H32.48V36.7003H30.9991L30.9991 35.1725Z" fill="#504439"/>
<path d="M41.3652 19.8946H42.8461V21.4224H41.3652V19.8946Z" fill="#504439"/>
<path d="M22.1138 38.228H23.5947V39.7558H22.1138V38.228Z" fill="#504439"/>
<path d="M4.34322 19.8946H5.8241V21.4224H4.34322V19.8946Z" fill="#504439"/>
<path d="M4.34322 21.4224H5.8241V22.9502H4.34322V21.4224Z" fill="#504439"/>
<path d="M4.34322 22.9502H5.8241V24.478H4.34322V22.9502Z" fill="#504439"/>
<path d="M4.34322 24.478H5.8241V26.0058H4.34322V24.478Z" fill="#504439"/>
<path d="M4.34322 26.0058H5.8241V27.5336H4.34322V26.0058Z" fill="#504439"/>
<path d="M5.8241 27.5336L7.30498 27.5336V29.0613H5.8241L5.8241 27.5336Z" fill="#504439"/>
<path d="M5.8241 29.0613H7.30498V30.5891H5.8241V29.0613Z" fill="#504439"/>
<path d="M7.30498 30.5891L8.78586 30.5891V32.1169H7.30498L7.30498 30.5891Z" fill="#504439"/>
<path d="M8.78586 32.1169H10.2667V33.6447H8.78586L8.78586 32.1169Z" fill="#504439"/>
<path d="M10.2667 33.6447L11.7476 33.6447V35.1725H10.2667L10.2667 33.6447Z" fill="#504439"/>
<path d="M13.2285 35.1725H14.7094V36.7003H13.2285V35.1725Z" fill="#504439"/>
<path d="M16.1903 36.7003H17.6711V38.228H16.1903V36.7003Z" fill="#504439"/>
<path d="M11.7476 35.1725H13.2285V36.7003H11.7476L11.7476 35.1725Z" fill="#504439"/>
<path d="M14.7094 36.7003H16.1903V38.228H14.7094L14.7094 36.7003Z" fill="#504439"/>
<path d="M17.6711 36.7003H19.152V38.228H17.6711V36.7003Z" fill="#504439"/>
<path d="M19.152 38.228L20.6329 38.228V39.7558H19.152L19.152 38.228Z" fill="#504439"/>
<path d="M20.6329 38.228H22.1138V39.7558H20.6329V38.228Z" fill="#504439"/>
<path d="M16.1903 3.08901H17.6711V4.61679H16.1903V3.08901Z" fill="#504439"/>
<path d="M13.2285 4.6168H14.7094V6.14458H13.2285V4.6168Z" fill="#504439"/>
<path d="M10.2667 6.14458H11.7476V7.67236H10.2667V6.14458Z" fill="#504439"/>
<path d="M8.78586 7.67236L10.2667 7.67236L10.2667 9.20015H8.78586V7.67236Z" fill="#504439"/>
<path d="M7.33789 9.28598H9.04913V11.4317H7.33789V9.28598Z" fill="#504439"/>
<path d="M5.62665 10.5734H7.7657V12.29H5.62665V10.5734Z" fill="#504439"/>
<path d="M5.8241 12.2557H7.30498V13.7835H5.8241V12.2557Z" fill="#504439"/>
<path d="M4.34322 13.7835H5.8241L5.8241 15.3113H4.34322V13.7835Z" fill="#504439"/>
<path d="M4.34322 15.3113H5.8241V16.8391H4.34322V15.3113Z" fill="#504439"/>
<path d="M4.34322 16.8391H5.8241V18.3669H4.34322V16.8391Z" fill="#504439"/>
<path d="M4.34322 18.3669H5.8241V19.8946H4.34322V18.3669Z" fill="#504439"/>
<path d="M11.616 4.5653H13.3272V6.71106H11.616V4.5653Z" fill="#504439"/>
<path d="M14.7094 3.08901H16.1903V4.61679L14.7094 4.6168L14.7094 3.08901Z" fill="#504439"/>
<path d="M17.6711 3.08901H19.152V4.61679H17.6711V3.08901Z" fill="#504439"/>
<path d="M18.8888 1.56123H21.0278V3.70699H18.8888V1.56123Z" fill="#504439"/>
<path d="M20.6329 1.56123H22.1138V3.08901H20.6329V1.56123Z" fill="#504439"/>
<path d="M22.1138 1.56123H23.5947V3.08901H22.1138V1.56123Z" fill="#504439"/>
<path d="M28.0373 3.08901H29.5182V4.61679H28.0373V3.08901Z" fill="#504439"/>
<path d="M32.48 4.6168H33.9608V6.14458H32.48V4.6168Z" fill="#504439"/>
<path d="M33.8621 6.28191H36.0012V7.56937H33.8621V6.28191Z" fill="#504439"/>
<path d="M35.5733 7.56937H37.2846V9.28598H35.5733V7.56937Z" fill="#504439"/>
<path d="M36.9226 9.20015H38.4035V10.7279H36.9226V9.20015Z" fill="#504439"/>
<path d="M38.4035 10.7279L39.8844 10.7279V12.2557H38.4035L38.4035 10.7279Z" fill="#504439"/>
<path d="M38.4035 12.2557H39.8844V13.7835H38.4035V12.2557Z" fill="#504439"/>
<path d="M39.8844 13.7835H41.3652V15.3113H39.8844L39.8844 13.7835Z" fill="#504439"/>
<path d="M39.8844 15.3113H41.3652V16.8391H39.8844V15.3113Z" fill="#504439"/>
<path d="M41.3652 16.8391L42.8461 16.8391V18.3669H41.3652L41.3652 16.8391Z" fill="#504439"/>
<path d="M41.3652 18.3669H42.8461V19.8946H41.3652V18.3669Z" fill="#504439"/>
<path d="M23.5947 1.56123H25.0756V3.08901H23.5947V1.56123Z" fill="#504439"/>
<path d="M25.0756 1.56123H26.5564V3.08901H25.0756V1.56123Z" fill="#504439"/>
<path d="M26.5564 3.08901L28.0373 3.08901V4.61679H26.5564L26.5564 3.08901Z" fill="#504439"/>
<path d="M29.5182 3.08901H30.9991V4.61679H29.5182V3.08901Z" fill="#504439"/>
<path d="M30.9991 4.61679L32.48 4.6168V6.14458H30.9991L30.9991 4.61679Z" fill="#504439"/>
<path d="M41.5627 20.444H43.7017V22.5897H41.5627V20.444Z" fill="#504439"/>
<path d="M39.4236 22.5897H41.5627V24.7355H39.4236V22.5897Z" fill="#504439"/>
<path d="M39.4236 24.7355H41.5627V26.8812H39.4236V24.7355Z" fill="#504439"/>
<path d="M39.4236 26.8812H41.5627V29.027H39.4236V26.8812Z" fill="#504439"/>
<path d="M37.2846 29.027H39.4236V31.1728H37.2846V29.027Z" fill="#504439"/>
<path d="M35.1455 31.1728H37.2846V33.3185H35.1455V31.1728Z" fill="#504439"/>
<path d="M33.0065 33.3185H35.1455V35.4643H33.0065V33.3185Z" fill="#504439"/>
<path d="M30.8674 35.4643H33.0065V37.6101H30.8674V35.4643Z" fill="#504439"/>
<path d="M22.3112 37.6101H24.4503V39.7558H22.3112V37.6101Z" fill="#504439"/>
<path d="M24.4503 37.6101H26.5893V39.7558H24.4503V37.6101Z" fill="#504439"/>
<path d="M26.5893 37.6101H28.7284V39.7558H26.5893V37.6101Z" fill="#504439"/>
<path d="M28.7284 35.4643H30.8674V37.6101H28.7284V35.4643Z" fill="#504439"/>
<path d="M3.05979 20.444H5.19884V22.5897H3.05979V20.444Z" fill="#504439"/>
<path d="M3.05979 22.5897H5.19884V24.7355H3.05979V22.5897Z" fill="#504439"/>
<path d="M3.05979 24.7355H5.19884V26.8812H3.05979V24.7355Z" fill="#504439"/>
<path d="M5.19884 26.8812H7.33789V29.027H5.19884V26.8812Z" fill="#504439"/>
<path d="M5.19884 29.027H7.33789V31.1728H5.19884V29.027Z" fill="#504439"/>
<path d="M7.33789 31.1728H9.47694V33.3185H7.33789V31.1728Z" fill="#504439"/>
<path d="M9.47694 33.3185H11.616V35.4643H9.47694V33.3185Z" fill="#504439"/>
<path d="M13.755 35.4643H15.8941V37.6101H13.755V35.4643Z" fill="#504439"/>
<path d="M11.616 35.4643H13.755V37.6101H11.616V35.4643Z" fill="#504439"/>
<path d="M15.8941 35.4643H18.0331V37.6101H15.8941V35.4643Z" fill="#504439"/>
<path d="M18.0331 37.6101H20.1722V39.7558H18.0331V37.6101Z" fill="#504439"/>
<path d="M20.1722 37.6101H22.3112V39.7558H20.1722V37.6101Z" fill="#504439"/>
<path d="M13.755 3.27784H15.8941V5.4236H13.755V3.27784Z" fill="#504439"/>
<path d="M9.47694 5.4236H11.616V7.56937H9.47694V5.4236Z" fill="#504439"/>
<path d="M7.33789 7.56937H9.47694V9.71513H7.33789V7.56937Z" fill="#504439"/>
<path d="M7.33789 9.71513H9.47694V11.8609H7.33789V9.71513Z" fill="#504439"/>
<path d="M5.19884 11.8609H7.33789V14.0067H5.19884V11.8609Z" fill="#504439"/>
<path d="M5.19884 14.0067H7.33789V16.1524H5.19884V14.0067Z" fill="#504439"/>
<path d="M3.05979 16.1524H5.19884V18.2982H3.05979V16.1524Z" fill="#504439"/>
<path d="M3.05979 18.2982H5.19884V20.444H3.05979V18.2982Z" fill="#504439"/>
<path d="M11.616 5.4236H13.755V7.56937H11.616V5.4236Z" fill="#504439"/>
<path d="M15.8941 3.27784H18.0331V5.4236H15.8941V3.27784Z" fill="#504439"/>
<path d="M18.0331 1.13208H20.1722V3.27784H18.0331V1.13208Z" fill="#504439"/>
<path d="M20.1722 1.13208H22.3112V3.27784H20.1722V1.13208Z" fill="#504439"/>
<path d="M22.3112 1.13208H24.4503V3.27784H22.3112V1.13208Z" fill="#504439"/>
<path d="M28.7284 3.27784H30.8674V5.4236H28.7284V3.27784Z" fill="#504439"/>
<path d="M33.0065 5.4236H35.1455V7.56937H33.0065V5.4236Z" fill="#504439"/>
<path d="M35.1455 7.56937H37.2846V9.71513H35.1455V7.56937Z" fill="#504439"/>
<path d="M37.2846 9.71513H39.4236V11.8609H37.2846V9.71513Z" fill="#504439"/>
<path d="M39.4236 11.8609H41.5627V14.0067H39.4236V11.8609Z" fill="#504439"/>
<path d="M39.4236 14.0067H41.5627V16.1524H39.4236V14.0067Z" fill="#504439"/>
<path d="M39.4236 16.1524H41.5627V18.2982H39.4236V16.1524Z" fill="#504439"/>
<path d="M41.5627 18.2982H43.7017V20.444H41.5627V18.2982Z" fill="#504439"/>
<path d="M24.4503 1.13208H26.5893V3.27784H24.4503V1.13208Z" fill="#504439"/>
<path d="M26.5893 3.27784H28.7284V5.4236H26.5893V3.27784Z" fill="#504439"/>
<path d="M30.8674 3.27784H33.0065V5.4236H30.8674V3.27784Z" fill="#504439"/>
<path d="M57.6629 30.204C60.8977 36.6424 59.2098 44.041 53.8928 46.7291C48.5758 49.4173 41.6433 46.377 38.4085 39.9385C35.1737 33.5 36.8616 26.1014 42.1786 23.4133C47.4956 20.7252 54.4281 23.7655 57.6629 30.204Z" fill="#342A22"/>
<path d="M57.7604 30.7794L58.5245 30.3931L59.0251 31.3895L58.261 31.7758L57.7604 30.7794Z" fill="#342A22"/>
<path d="M58.261 31.7758L59.0251 31.3895L59.5257 32.3859L58.7616 32.7722L58.261 31.7758Z" fill="#342A22"/>
<path d="M57.9976 33.1585L58.7616 32.7722L59.2622 33.7686L58.4982 34.1549L57.9976 33.1585Z" fill="#342A22"/>
<path d="M58.4982 34.1549L59.2622 33.7686L59.7629 34.765L58.9988 35.1513L58.4982 34.1549Z" fill="#342A22"/>
<path d="M58.2347 35.5376L58.9988 35.1513L59.4994 36.1477L58.7353 36.534L58.2347 35.5376Z" fill="#342A22"/>
<path d="M58.7353 36.534L59.4994 36.1477L60 37.1441L59.2359 37.5304L58.7353 36.534Z" fill="#342A22"/>
<path d="M58.4719 37.9167L59.2359 37.5304L59.7366 38.5268L58.9725 38.9131L58.4719 37.9167Z" fill="#342A22"/>
<path d="M58.2084 39.2994L58.9725 38.9131L59.4731 39.9095L58.709 40.2958L58.2084 39.2994Z" fill="#342A22"/>
<path d="M57.945 40.6821L58.709 40.2958L59.2096 41.2922L58.4456 41.6785L57.945 40.6821Z" fill="#342A22"/>
<path d="M57.6815 42.0648L58.4456 41.6785L58.9462 42.6749L58.1821 43.0612L57.6815 42.0648Z" fill="#342A22"/>
<path d="M55.8899 44.2201L56.654 43.8338L57.1546 44.8302L56.3905 45.2165L55.8899 44.2201Z" fill="#342A22"/>
<path d="M54.0983 46.3754L54.8624 45.9891L55.363 46.9855L54.5989 47.3718L54.0983 46.3754Z" fill="#342A22"/>
<path d="M54.8624 45.9891L55.6264 45.6028L56.1271 46.5992L55.363 46.9855L54.8624 45.9891Z" fill="#342A22"/>
<path d="M55.1258 44.6064L55.8899 44.2201L56.3905 45.2165L55.6264 45.6028L55.1258 44.6064Z" fill="#342A22"/>
<path d="M56.654 43.8338L57.418 43.4475L57.9187 44.4439L57.1546 44.8302L56.654 43.8338Z" fill="#342A22"/>
<path d="M56.9174 42.4511L57.6815 42.0648L58.1821 43.0612L57.418 43.4475L56.9174 42.4511Z" fill="#342A22"/>
<path d="M57.2598 29.783L58.0239 29.3967L58.5245 30.3931L57.7604 30.7794L57.2598 29.783Z" fill="#342A22"/>
<path d="M53.3343 46.7616L54.0983 46.3754L54.5989 47.3718L53.8349 47.758L53.3343 46.7616Z" fill="#342A22"/>
<path d="M38.1582 39.4403L38.9222 39.054L39.4228 40.0504L38.6588 40.4367L38.1582 39.4403Z" fill="#342A22"/>
<path d="M38.6588 40.4367L39.4228 40.0504L39.9235 41.0468L39.1594 41.4331L38.6588 40.4367Z" fill="#342A22"/>
<path d="M39.1594 41.4331L39.9235 41.0468L40.4241 42.0432L39.66 42.4295L39.1594 41.4331Z" fill="#342A22"/>
<path d="M39.66 42.4295L40.4241 42.0432L40.9247 43.0396L40.1606 43.4259L39.66 42.4295Z" fill="#342A22"/>
<path d="M40.1606 43.4259L40.9247 43.0396L41.4253 44.036L40.6612 44.4223L40.1606 43.4259Z" fill="#342A22"/>
<path d="M41.4253 44.036L42.1893 43.6497L42.69 44.6461L41.9259 45.0324L41.4253 44.036Z" fill="#342A22"/>
<path d="M41.9259 45.0324L42.69 44.6461L43.1906 45.6425L42.4265 46.0288L41.9259 45.0324Z" fill="#342A22"/>
<path d="M43.1906 45.6425L43.9546 45.2563L44.4552 46.2527L43.6912 46.639L43.1906 45.6425Z" fill="#342A22"/>
<path d="M44.4552 46.2527L45.2193 45.8664L45.7199 46.8628L44.9558 47.2491L44.4552 46.2527Z" fill="#342A22"/>
<path d="M45.7199 46.8628L46.484 46.4765L46.9846 47.4729L46.2205 47.8592L45.7199 46.8628Z" fill="#342A22"/>
<path d="M47.7486 47.0866L48.5127 46.7003L49.0133 47.6967L48.2493 48.083L47.7486 47.0866Z" fill="#342A22"/>
<path d="M49.7774 47.3104L50.5414 46.9241L51.0421 47.9205L50.278 48.3068L49.7774 47.3104Z" fill="#342A22"/>
<path d="M46.9846 47.4729L47.7486 47.0866L48.2493 48.083L47.4852 48.4693L46.9846 47.4729Z" fill="#342A22"/>
<path d="M49.0133 47.6967L49.7774 47.3104L50.278 48.3068L49.5139 48.6931L49.0133 47.6967Z" fill="#342A22"/>
<path d="M50.5414 46.9241L51.3055 46.5378L51.8061 47.5342L51.0421 47.9205L50.5414 46.9241Z" fill="#342A22"/>
<path d="M51.8061 47.5342L52.5702 47.1479L53.0708 48.1443L52.3067 48.5306L51.8061 47.5342Z" fill="#342A22"/>
<path d="M52.5702 47.1479L53.3343 46.7616L53.8349 47.758L53.0708 48.1443L52.5702 47.1479Z" fill="#342A22"/>
<path d="M38.764 25.3895L39.5281 25.0032L40.0287 25.9997L39.2646 26.3859L38.764 25.3895Z" fill="#342A22"/>
<path d="M37.7365 27.1585L38.5005 26.7722L39.0012 27.7686L38.2371 28.1549L37.7365 27.1585Z" fill="#342A22"/>
<path d="M36.709 28.9275L37.473 28.5412L37.9736 29.5376L37.2096 29.9239L36.709 28.9275Z" fill="#342A22"/>
<path d="M36.4455 30.3102L37.2096 29.9239L37.7102 30.9203L36.9461 31.3066L36.4455 30.3102Z" fill="#342A22"/>
<path d="M36.2271 31.7403L37.1101 31.2939L37.8132 32.6934L36.9302 33.1397L36.2271 31.7403Z" fill="#342A22"/>
<path d="M35.7661 33.0263L36.8697 32.4684L37.4322 33.5879L36.3286 34.1459L35.7661 33.0263Z" fill="#342A22"/>
<path d="M36.4192 34.072L37.1833 33.6857L37.6839 34.6821L36.9198 35.0684L36.4192 34.072Z" fill="#342A22"/>
<path d="M36.1557 35.4547L36.9198 35.0684L37.4204 36.0648L36.6563 36.4511L36.1557 35.4547Z" fill="#342A22"/>
<path d="M36.6563 36.4511L37.4204 36.0648L37.921 37.0612L37.1569 37.4475L36.6563 36.4511Z" fill="#342A22"/>
<path d="M37.1569 37.4475L37.921 37.0612L38.4216 38.0576L37.6576 38.4439L37.1569 37.4475Z" fill="#342A22"/>
<path d="M37.6576 38.4439L38.4216 38.0576L38.9222 39.054L38.1582 39.4403L37.6576 38.4439Z" fill="#342A22"/>
<path d="M36.8876 27.5456L37.7705 27.0992L38.4736 28.4986L37.5907 28.945L36.8876 27.5456Z" fill="#342A22"/>
<path d="M37.9999 25.7758L38.764 25.3895L39.2646 26.3859L38.5005 26.7722L37.9999 25.7758Z" fill="#342A22"/>
<path d="M39.5281 25.0032L40.2921 24.617L40.7927 25.6134L40.0287 25.9997L39.5281 25.0032Z" fill="#342A22"/>
<path d="M39.6557 23.6892L40.7593 23.1313L41.4624 24.5307L40.3588 25.0887L39.6557 23.6892Z" fill="#342A22"/>
<path d="M40.5556 23.2343L41.3197 22.848L41.8203 23.8444L41.0562 24.2307L40.5556 23.2343Z" fill="#342A22"/>
<path d="M41.3197 22.848L42.0837 22.4617L42.5843 23.4581L41.8203 23.8444L41.3197 22.848Z" fill="#342A22"/>
<path d="M44.8765 22.2992L45.6406 21.9129L46.1412 22.9093L45.3771 23.2956L44.8765 22.2992Z" fill="#342A22"/>
<path d="M47.6693 22.1367L48.4334 21.7504L48.934 22.7468L48.1699 23.1331L47.6693 22.1367Z" fill="#342A22"/>
<path d="M48.9281 22.8622L50.0317 22.3042L50.4536 23.1438L49.3499 23.7018L48.9281 22.8622Z" fill="#342A22"/>
<path d="M50.2328 23.2554L51.1158 22.8091L51.6782 23.9286L50.7953 24.375L50.2328 23.2554Z" fill="#342A22"/>
<path d="M51.4634 23.9671L52.2274 23.5808L52.728 24.5772L51.964 24.9635L51.4634 23.9671Z" fill="#342A22"/>
<path d="M52.728 24.5772L53.4921 24.1909L53.9927 25.1873L53.2286 25.5736L52.728 24.5772Z" fill="#342A22"/>
<path d="M53.2286 25.5736L53.9927 25.1873L54.4933 26.1837L53.7292 26.57L53.2286 25.5736Z" fill="#342A22"/>
<path d="M54.4933 26.1837L55.2574 25.7974L55.758 26.7938L54.9939 27.1801L54.4933 26.1837Z" fill="#342A22"/>
<path d="M54.9939 27.1801L55.758 26.7938L56.2586 27.7902L55.4945 28.1765L54.9939 27.1801Z" fill="#342A22"/>
<path d="M56.2586 27.7902L57.0227 27.4039L57.5233 28.4003L56.7592 28.7866L56.2586 27.7902Z" fill="#342A22"/>
<path d="M56.7592 28.7866L57.5233 28.4003L58.0239 29.3967L57.2598 29.783L56.7592 28.7866Z" fill="#342A22"/>
<path d="M42.0837 22.4617L42.8478 22.0754L43.3484 23.0718L42.5843 23.4581L42.0837 22.4617Z" fill="#342A22"/>
<path d="M42.8478 22.0754L43.6119 21.6891L44.1125 22.6855L43.3484 23.0718L42.8478 22.0754Z" fill="#342A22"/>
<path d="M44.1125 22.6855L44.8765 22.2992L45.3771 23.2956L44.6131 23.6819L44.1125 22.6855Z" fill="#342A22"/>
<path d="M45.6406 21.9129L46.4047 21.5266L46.9053 22.523L46.1412 22.9093L45.6406 21.9129Z" fill="#342A22"/>
<path d="M46.9053 22.523L47.6693 22.1367L48.1699 23.1331L47.4059 23.5194L46.9053 22.523Z" fill="#342A22"/>
<path d="M6.91008 17.869H10.3326V21.7314H6.91008V17.869Z" fill="white"/>
<path d="M34.7177 44.9057H38.1402V48.768H34.7177V44.9057Z" fill="#342A22"/>
<path d="M30.0118 40.185H33.4343V44.0474H30.0118V40.185Z" fill="#342A22"/>
<path d="M27.0171 44.4765H30.4396V48.3389H27.0171V44.4765Z" fill="#342A22"/>
<path d="M12.8994 6.71106H16.3219V10.5734H12.8994V6.71106Z" fill="#342A22"/>
<path d="M18.0331 5.85276H21.4556V9.71513H18.0331V5.85276Z" fill="#342A22"/>
<path d="M14.1828 9.71513H17.6053V13.5775H14.1828V9.71513Z" fill="#342A22"/>
<path d="M3.4876 32.4602H6.91008V36.3226H3.4876V32.4602Z" fill="#342A22"/>
<path d="M5.62665 36.3226H9.04913V40.185H5.62665V36.3226Z" fill="#342A22"/>
<path d="M24.0225 17.869H27.445V21.7314H24.0225V17.869Z" fill="white"/>
<path d="M18.8888 22.8525C18.8888 24.4487 15.0099 25.1646 13.0048 25.1646C10.9998 25.1646 12.7545 22.1781 12.7545 22.1781C12.7545 22.1781 14.1295 20.444 16.1346 20.444C18.1397 20.444 18.8888 21.2562 18.8888 22.8525Z" fill="#CFD2C8"/>
<path d="M18.0331 23.0189H18.8888V23.8772H18.0331V23.0189Z" fill="#CFD2C8"/>
<path d="M17.1775 23.8772H18.0331V24.7355H17.1775V23.8772Z" fill="#CFD2C8"/>
<path d="M12.8994 24.7355H13.755V25.5938H12.8994V24.7355Z" fill="#CFD2C8"/>
<path d="M13.755 24.7355H14.6107V25.5938H13.755V24.7355Z" fill="#CFD2C8"/>
<path d="M14.6107 24.7355H15.4663V25.5938H14.6107V24.7355Z" fill="#CFD2C8"/>
<path d="M15.4663 24.7355H16.3219V25.5938H15.4663V24.7355Z" fill="#CFD2C8"/>
<path d="M16.3219 23.8772H17.1775V24.7355H16.3219V23.8772Z" fill="#CFD2C8"/>
<path d="M18.8888 22.1606H19.7444V23.0189H18.8888V22.1606Z" fill="#CFD2C8"/>
<path d="M12.0438 22.1606H12.8994V23.0189H12.0438V22.1606Z" fill="#CFD2C8"/>
<path d="M12.0438 23.0189H12.8994V23.8772H12.0438V23.0189Z" fill="#CFD2C8"/>
<path d="M12.0438 23.8772H12.8994V24.7355H12.0438V23.8772Z" fill="#CFD2C8"/>
<path d="M12.0438 24.7355H12.8994V25.5938H12.0438V24.7355Z" fill="#CFD2C8"/>
<path d="M13.755 20.444H14.6107V21.3023H13.755V20.444Z" fill="#CFD2C8"/>
<path d="M12.8994 21.3023H13.755V22.1606H12.8994V21.3023Z" fill="#CFD2C8"/>
<path d="M14.6107 20.444H15.4663V21.3023H14.6107V20.444Z" fill="#CFD2C8"/>
<path d="M15.4663 20.444H16.3219V21.3023H15.4663V20.444Z" fill="#CFD2C8"/>
<path d="M18.0331 20.444H18.8888V21.3023H18.0331V20.444Z" fill="#CFD2C8"/>
<path d="M18.0331 21.3023H18.8888V22.1606H18.0331V21.3023Z" fill="#CFD2C8"/>
<path d="M18.0331 22.1606H18.8888V23.0189H18.0331V22.1606Z" fill="#CFD2C8"/>
<path d="M16.3219 20.444H17.1775V21.3023H16.3219V20.444Z" fill="#CFD2C8"/>
<path d="M17.1775 20.444H18.0331V21.3023H17.1775V20.444Z" fill="#CFD2C8"/>
<path d="M19.7444 56.9219H22.3112V64.2175H19.7444V56.9219Z" fill="#D9D9D9"/>
<path d="M24.0225 61.6426V64.2175H19.7444V61.6426H24.0225Z" fill="#D9D9D9"/>
<path d="M22.3112 63.7884V66.3633H16.7497V63.7884H22.3112Z" fill="#D9D9D9"/>
<path d="M2.63363 41.0943H5.63009V44.5188H2.63363V41.0943Z" fill="#342A22"/>
<path d="M1.77744 39.8101H3.91777V42.3785H1.77744V39.8101Z" fill="#342A22"/>
<path d="M3.48978 43.6628H5.63011V45.8031H3.48978V43.6628Z" fill="#342A22"/>
<path d="M3.48978 45.8031H6.48624V48.3715H3.48978V45.8031Z" fill="#342A22"/>
<path d="M5.63011 47.9434H7.77044V50.9399H5.63011V47.9434Z" fill="#342A22"/>
<path d="M7.77044 50.0837H9.91077V53.0802H7.77044V50.0837Z" fill="#342A22"/>
<path d="M9.91077 52.2241H12.0511V55.2205H9.91077V52.2241Z" fill="#342A22"/>
<path d="M12.0511 54.3644H14.6195V56.9328H12.0511V54.3644Z" fill="#342A22"/>
<path d="M16.3318 56.5047H18.4721V58.6451H16.3318V56.5047Z" fill="#342A22"/>
<path d="M14.1914 55.6486H16.3318V58.6451L14.1914 58.645V55.6486Z" fill="#342A22"/>
<path d="M23.6088 0H25.7491V2.14033H23.6088V0Z" fill="#342A22"/>
<path d="M19.3281 0H21.4684V2.14033H19.3281V0Z" fill="#342A22"/>
<path d="M30.0298 2.14033H33.0262V4.70873H30.0298V2.14033Z" fill="#342A22"/>
<path d="M12.0511 2.14033H15.0475V5.13679H12.0511V2.14033Z" fill="#342A22"/>
<path d="M32.1701 4.28066H35.1666V6.42099H32.1701V4.28066Z" fill="#342A22"/>
<path d="M9.48261 4.28066H12.9071V6.42099H9.48261V4.28066Z" fill="#342A22"/>
<path d="M34.3104 6.42099H37.3069V8.56132H34.3104V6.42099Z" fill="#342A22"/>
<path d="M6.91429 6.42099H10.7669V8.56132H6.91429V6.42099Z" fill="#342A22"/>
<path d="M5.63011 8.56132H8.62657V10.7017H5.63011V8.56132Z" fill="#342A22"/>
<path d="M4.34584 10.7017H6.48617V12.842H4.34584V10.7017Z" fill="#342A22"/>
<path d="M3.48978 12.842H6.48617L6.48624 14.9823H3.48978V12.842Z" fill="#342A22"/>
<path d="M2.20551 14.9823H4.34584V17.1226H2.20551V14.9823Z" fill="#342A22"/>
<path d="M2.20551 17.1226H4.34584V19.263H2.20551V17.1226Z" fill="#342A22"/>
<path d="M2.20551 19.263H4.34584V21.4033H2.20551V19.263Z" fill="#342A22"/>
<path d="M2.20551 21.4033H4.34584V23.5436H2.20551V21.4033Z" fill="#342A22"/>
<path d="M1.77748 23.5436H4.34584L4.34588 27.8243H1.77748V23.5436Z" fill="#342A22"/>
<path d="M15.0475 2.14033H17.1878V4.28066H15.0474L15.0475 2.14033Z" fill="#342A22"/>
<path d="M15.9036 0H19.3281L19.3281 3.42453H15.9036V0Z" fill="#342A22"/>
<path d="M21.4684 0H23.6088V2.14033H21.4684V0Z" fill="#342A22"/>
<path d="M25.7491 0H29.6017V3.42453H25.7491V0Z" fill="#342A22"/>
<path d="M27.8894 2.14033H30.0298V4.28066H27.8894V2.14033Z" fill="#342A22"/>
<path d="M34.3104 8.56132L36.4508 8.56146L36.4507 10.7017H34.3104V8.56132Z" fill="#342A22"/>
<path d="M42.8717 10.7017H46.2963V12.842H42.8717V10.7017Z" fill="#342A22"/>
<path d="M47.1524 12.842H49.2927V16.2665H47.1524V12.842Z" fill="#342A22"/>
<path d="M49.2927 14.9823H51.4331V18.4068H49.2927V14.9823Z" fill="#342A22"/>
<path d="M51.4331 17.1226H53.5734V19.263H51.4331V17.1226Z" fill="#342A22"/>
<path d="M51.4331 19.263H53.5734V21.4033H51.4331V19.263Z" fill="#342A22"/>
<path d="M53.5734 20.1191H55.7137V23.5436H53.5734V20.1191Z" fill="#342A22"/>
<path d="M54.8577 23.5436H57.8541V25.684H54.8577V23.5436Z" fill="#342A22"/>
<path d="M55.7137 25.684H57.8541L57.854 28.6804H55.7137V25.684Z" fill="#342A22"/>
<path d="M36.4508 8.56146L38.5911 8.56132V10.7017H36.4507L36.4508 8.56146Z" fill="#342A22"/>
<path d="M38.5911 8.56132H42.0156V10.7017H38.5911V8.56132Z" fill="#342A22"/>
<path d="M40.7314 10.7017H42.8717V12.842H40.7314V10.7017Z" fill="#342A22"/>
<path d="M45.0121 12.842H47.1524V14.9823H45.0121V12.842Z" fill="#342A22"/>
<path d="M51.4331 49.2276H53.5734V51.3679H51.4331V49.2276Z" fill="#342A22"/>
<path d="M51.4331 51.3679H53.5734V53.5083H51.4331V51.3679Z" fill="#342A22"/>
<path d="M51.4331 47.0873H54.4295V49.2276H51.4331V47.0873Z" fill="#342A22"/>
<path d="M38.591 57.7889H40.7314V59.9292H38.591V57.7889Z" fill="#342A22"/>
<path d="M23.6088 57.7889H25.7491V61.2134H23.6088V57.7889Z" fill="#342A22"/>
<path d="M25.7491 59.5012H27.8894V62.0696H25.7491V59.5012Z" fill="#342A22"/>
<path d="M27.8894 59.9292H30.0297V62.0696L27.8894 62.0696V59.9292Z" fill="#342A22"/>
<path d="M30.0297 59.9292H32.17V62.0696H30.0297V59.9292Z" fill="#342A22"/>
<path d="M32.17 59.5012H35.1665V62.0696L32.17 62.0696V59.5012Z" fill="#342A22"/>
<path d="M34.3104 57.7889H36.4507V60.3573H34.3104V57.7889Z" fill="#342A22"/>
<path d="M40.7314 57.7889H42.8717V59.9292H40.7314V57.7889Z" fill="#342A22"/>
<path d="M17.5472 57.3585H19.6226V60H17.5472V57.3585Z" fill="#342A22"/>
<path d="M22.2641 58.6792H25.8491V61.6981H22.2641V58.6792Z" fill="#342A22"/>
<path d="M39.0566 59.0566H42.4528V62.0755H39.0566V59.0566Z" fill="#342A22"/>
<path d="M23.9623 61.6981H25.283V64.717H23.9623V61.6981Z" fill="#342A22"/>
<path d="M40.7547 61.6981H42.0755V64.717H40.7547V61.6981Z" fill="#342A22"/>
<path d="M17.5472 60H19.6226V62.6415H17.5472V60Z" fill="#342A22"/>
<path d="M34.3396 60.3774H36.4151V62.8302H34.3396V60.3774Z" fill="#342A22"/>
<path d="M22.2641 64.1509H24.9057V65.8491H22.2641V64.1509Z" fill="#342A22"/>
<path d="M39.0566 64.1509H41.6981V65.8491H39.0566V64.1509Z" fill="#342A22"/>
<path d="M22.2641 65.0943H23.9623V66.7924H22.2641V65.0943Z" fill="#342A22"/>
<path d="M39.0566 65.0943H40.7547V66.7924H39.0566V65.0943Z" fill="#342A22"/>
<path d="M14.9057 63.3962H16.7925V66.7924H14.9057V63.3962Z" fill="#342A22"/>
<path d="M31.6981 63.3962H33.3962V66.7924H31.6981V63.3962Z" fill="#342A22"/>
<path d="M16.7925 62.0755H19.6226V63.7736H16.7925V62.0755Z" fill="#342A22"/>
<path d="M33.3962 62.6415H36.4151V64.1509H33.3962V62.6415Z" fill="#342A22"/>
<path d="M16.7925 66.4151H22.2641V68.1132H16.7925V66.4151Z" fill="#342A22"/>
<path d="M33.3962 66.7924H39.0566V68.4906H33.3962V66.7924Z" fill="#342A22"/>
<path d="M19.6226 57.3585H22.2641V61.1321H19.6226V57.3585Z" fill="#D9D9D9"/>
<path d="M36.4151 58.3019H39.0566V62.0755H36.4151V58.3019Z" fill="#D9D9D9"/>
<path d="M35.5295 36.3856H37.6698V38.5259H35.5295V36.3856Z" fill="#27201B"/>
<path d="M37.6698 38.5259H39.8101V40.6663H37.6698V38.5259Z" fill="#27201B"/>
<path d="M37.6698 40.6663H39.8101V42.8066H37.6698V40.6663Z" fill="#27201B"/>
<path d="M39.8101 42.8066H41.9505V44.9469H39.8101V42.8066Z" fill="#27201B"/>
<path d="M41.9505 44.9469H44.0908V47.0873H41.9505V44.9469Z" fill="#27201B"/>
<path d="M44.0908 44.9469H46.2311V47.0873H44.0908V44.9469Z" fill="#27201B"/>
<path d="M46.2311 47.0873H48.3714V49.2276H46.2311V47.0873Z" fill="#27201B"/>
<path d="M48.3714 47.0873H50.5118V49.2276H48.3714V47.0873Z" fill="#27201B"/>
<path d="M50.5118 47.0873H52.6521V49.2276H50.5118V47.0873Z" fill="#27201B"/>
<path d="M18.8679 23.2075H20V24.3396H18.8679V23.2075Z" fill="#27201B"/>
<path d="M27.3585 20.566H28.6792V21.6981H27.3585V20.566Z" fill="#27201B"/>
<path d="M10.1887 20.566H11.5094V23.2075H10.1887V20.566Z" fill="#27201B"/>
<path d="M26.2264 21.6981H28.6792V23.2075H26.2264V21.6981Z" fill="#27201B"/>
<path d="M7.73585 21.6981H10.1887V23.2075H7.73585V21.6981Z" fill="#27201B"/>
<path d="M16.2264 24.717H18.4906V26.2264H16.2264V24.717Z" fill="#27201B"/>
<path d="M12.8302 25.6604H17.9245V26.9811H12.8302V25.6604Z" fill="#27201B"/>
<path d="M34.1509 10.566H37.7358V12.8302H34.1509V10.566Z" fill="#27201B"/>
<path d="M33.3962 12.8302H35.4717V14.9057H33.3962V12.8302Z" fill="#27201B"/>
<path d="M47.9245 21.5094H50V23.5849H47.9245V21.5094Z" fill="#27201B"/>
<path d="M49.6226 21.6981H51.6981V23.9623H49.6226V21.6981Z" fill="#27201B"/>
<path d="M49.6226 54.3396H51.6981V56.4151H49.6226V54.3396Z" fill="#27201B"/>
<path d="M47.9245 55.6604H50V57.9245H47.9245V55.6604Z" fill="#27201B"/>
<path d="M49.0566 56.0377H51.3208V58.3019H49.0566V56.0377Z" fill="#27201B"/>
<path d="M46.7924 57.3585H48.8679V59.434H46.7924V57.3585Z" fill="#27201B"/>
<path d="M3.01887 27.9245H5.09434V30H3.01887V27.9245Z" fill="#27201B"/>
<path d="M4.71698 28.6792H6.79245V30.7547H4.71698V28.6792Z" fill="#27201B"/>
<path d="M19.6226 21.6981H20.9434V23.2075H19.6226V21.6981Z" fill="#27201B"/>
<path d="M14.717 26.4151H17.5472V27.9245H14.717V26.4151Z" fill="#27201B"/>
<path d="M17.9245 23.9623H19.434V25.6604H17.9245V23.9623Z" fill="#27201B"/>
<path d="M21.5094 64.1509H22.6415V66.4151H21.5094V64.1509Z" fill="#A2ABC2"/>
<path d="M18.4906 22.2641H19.6226V23.2075H18.4906V22.2641Z" fill="#A2ABC2"/>
<path d="M17.5472 23.2075H18.8679V23.9623H17.5472V23.2075Z" fill="#A2ABC2"/>
<path d="M17.1698 23.9623H17.9245V24.717H17.1698V23.9623Z" fill="#A2ABC2"/>
<path d="M13.7736 24.717H16.2264V25.6604H13.7736V24.717Z" fill="#A2ABC2"/>
<path d="M6.41509 10.1887H8.49057V13.7736H6.41509V10.1887Z" fill="#886A57"/>
<path d="M8.49057 8.49057H10.566V10.566H8.49057V8.49057Z" fill="#886A57"/>
<path d="M10.566 6.41509H12.8302V8.49057H10.566V6.41509Z" fill="#886A57"/>
<path d="M4.33962 23.9623H6.41509V27.9245H4.33962V23.9623Z" fill="#886A57"/>
<path d="M5.66038 42.2641H7.73585V46.2264H5.66038V42.2641Z" fill="#886A57"/>
<path d="M6.41509 45.283H8.49057V49.0566H6.41509V45.283Z" fill="#886A57"/>
<path d="M22.6415 35.8491H24.717V38.1132H22.6415V35.8491Z" fill="#886A57"/>
<path d="M24.3396 37.3585H26.4151V39.434H24.3396V37.3585Z" fill="#886A57"/>
<path d="M37.3585 36.4151H39.434V38.4906H37.3585V36.4151Z" fill="#513C33"/>
<path d="M14.717 20.9434H16.7925V21.6981H14.717V20.9434Z" fill="#FCF9E0"/>
<path d="M13.7736 21.6981H15.8491V22.6415H13.7736V21.6981Z" fill="#FCF9E0"/>
<path d="M16.7925 63.7736H18.8679V65.0943H16.7925V63.7736Z" fill="#FCF9E0"/>
<path d="M33.3962 64.1509H34.717V65.8491H33.3962V64.1509Z" fill="#FCF9E0"/>
<path d="M38.4906 38.1132H41.5094V40.1887H38.4906V38.1132Z" fill="#513C33"/>
<path d="M42.0755 42.8302H44.9057V44.9057H42.0755V42.8302Z" fill="#513C33"/>
<path d="M30.7547 14.1509H33.0189V16.2264H30.7547V14.1509Z" fill="#886A57"/>
<path d="M12.8302 49.6226H14.9057V51.6981H12.8302V49.6226Z" fill="#886A57"/>
<path d="M37.7358 64.717H39.0566V66.7924H37.7358V64.717Z" fill="#A2ABC2"/>
<path d="M18.8679 20.566H20.566V22.2641H18.8679V20.566Z" fill="#27201B"/>
</svg>
