<svg width="82" height="78" viewBox="0 0 82 78" fill="none" xmlns="http://www.w3.org/2000/svg">
<path d="M13.1686 23.803C16.6176 21.5401 20.8784 19.6365 25.1683 19.1432C25.4112 18.6575 26.413 18.485 26.939 18.485C28.7734 18.485 30.2355 17.5176 32.0819 17.4986C34.5607 17.473 37.303 17.1778 39.7568 17.5595C40.7746 17.7178 41.1668 17.0237 41.6147 16.1281C43.1786 13.0002 41.4502 7.84398 39.6959 5.16383C38.7554 3.72688 37.3437 2.90934 35.9803 1.93548C35.6198 1.67797 34.4751 1.05225 35.5843 1.05225C39.0169 1.05225 41.1573 3.11283 44.0816 4.61562C48.7038 6.99093 50.744 11.3589 52.3048 16.1281C52.5667 16.9285 52.8341 17.6828 52.853 18.5341C52.8595 18.828 52.6974 19.6641 52.9139 19.9046C53.1615 20.1798 54.4313 20.2701 54.8326 20.5137C56.6221 21.6002 58.6288 22.742 60.5889 23.468C65.5594 25.3089 69.6833 29.2427 73.35 32.9094C74.0996 33.659 74.5933 34.745 75.1164 35.6505C76.4095 37.8884 77.7362 40.1285 78.893 42.4422C80.9973 46.6508 81.6005 52.1714 80.2026 56.7566C79.2306 59.9448 78.1896 62.7861 75.756 65.1929C72.2143 68.6957 66.9905 70.9353 62.2639 72.2588C53.4219 74.7346 44.5252 75.5801 35.3711 75.2739C27.9301 75.0251 19.366 74.0166 12.8945 70.005C8.16582 67.0738 4.51615 63.0788 2.75258 57.7312C0.692654 51.485 1.41919 43.697 2.75258 37.356C4.06334 31.1226 7.9901 27.2005 13.1686 23.803Z" fill="#2F2627" stroke="#2F1717" stroke-linecap="round"/>
<rect x="17.9697" y="19.394" width="2.42424" height="2.42424" fill="#2F1717"/>
<rect x="13.1211" y="21.8181" width="2.42424" height="2.42424" fill="#2F1717"/>
<rect x="15.5459" y="19.394" width="2.42424" height="2.42424" fill="#2F1717"/>
<rect x="20.3936" y="19.394" width="2.42424" height="2.42424" fill="#2F1717"/>
<rect x="22.8184" y="16.9697" width="2.42424" height="2.42424" fill="#2F1717"/>
<rect x="10.6973" y="24.2424" width="2.42424" height="2.42424" fill="#2F1717"/>
<rect x="5.84863" y="26.6667" width="2.42424" height="2.42424" fill="#2F1717"/>
<rect x="5.84863" y="29.0908" width="2.42424" height="2.42424" fill="#2F1717"/>
<rect x="3.42383" y="31.5151" width="2.42424" height="2.42424" fill="#2F1717"/>
<rect x="1" y="33.9395" width="2.42424" height="2.42424" fill="#2F1717"/>
<rect x="8.27246" y="24.2424" width="2.42424" height="2.42424" fill="#2F1717"/>
<rect x="1" y="36.3635" width="2.42424" height="2.42424" fill="#2F1717"/>
<rect x="1" y="38.7878" width="2.42424" height="2.42424" fill="#2F1717"/>
<rect x="1" y="41.2122" width="2.42424" height="2.42424" fill="#2F1717"/>
<rect x="1" y="43.6365" width="2.42424" height="2.42424" fill="#2F1717"/>
<rect x="1" y="46.0605" width="2.42424" height="2.42424" fill="#2F1717"/>
<rect x="1" y="48.4849" width="2.42424" height="2.42424" fill="#2F1717"/>
<rect x="1" y="50.9092" width="2.42424" height="2.42424" fill="#2F1717"/>
<rect x="1" y="53.3333" width="2.42424" height="2.42424" fill="#2F1717"/>
<rect x="1" y="55.7576" width="2.42424" height="2.42424" fill="#2F1717"/>
<rect x="1" y="58.1819" width="2.42424" height="2.42424" fill="#2F1717"/>
<rect x="3.42383" y="60.606" width="2.42424" height="2.42424" fill="#2F1717"/>
<rect x="5.84863" y="63.0303" width="2.42424" height="2.42424" fill="#2F1717"/>
<rect x="8.27246" y="65.4546" width="2.42424" height="2.42424" fill="#2F1717"/>
<rect x="10.6973" y="67.8789" width="2.42424" height="2.42424" fill="#2F1717"/>
<rect x="15.5459" y="70.303" width="2.42424" height="2.42424" fill="#2F1717"/>
<rect x="22.8184" y="72.7273" width="2.42424" height="2.42424" fill="#2F1717"/>
<rect x="13.1211" y="70.303" width="2.42424" height="2.42424" fill="#2F1717"/>
<rect x="17.9697" y="72.7273" width="2.42424" height="2.42424" fill="#2F1717"/>
<rect x="20.3936" y="72.7273" width="2.42424" height="2.42424" fill="#2F1717"/>
<rect x="25.2422" y="72.7273" width="2.42424" height="2.42424" fill="#2F1717"/>
<rect x="27.667" y="72.7273" width="2.42424" height="2.42424" fill="#2F1717"/>
<rect x="30.0908" y="72.7273" width="2.42424" height="2.42424" fill="#2F1717"/>
<rect x="32.5156" y="75.1516" width="2.42424" height="2.42424" fill="#2F1717"/>
<rect x="34.9395" y="75.1516" width="2.42424" height="2.42424" fill="#2F1717"/>
<rect x="54.333" y="72.7273" width="2.42424" height="2.42424" fill="#2F1717"/>
<rect x="37.3633" y="75.1516" width="2.42424" height="2.42424" fill="#2F1717"/>
<rect x="39.7881" y="75.1516" width="2.42424" height="2.42424" fill="#2F1717"/>
<rect x="42.2119" y="75.1516" width="2.42424" height="2.42424" fill="#2F1717"/>
<rect x="44.6367" y="72.7273" width="2.42424" height="2.42424" fill="#2F1717"/>
<rect x="47.0605" y="72.7273" width="2.42424" height="2.42424" fill="#2F1717"/>
<rect x="49.4844" y="72.7273" width="2.42424" height="2.42424" fill="#2F1717"/>
<rect x="51.9092" y="72.7273" width="2.42424" height="2.42424" fill="#2F1717"/>
<rect x="56.7578" y="72.7273" width="2.42424" height="2.42424" fill="#2F1717"/>
<rect x="59.1816" y="72.7273" width="2.42424" height="2.42424" fill="#2F1717"/>
<rect x="61.6064" y="70.303" width="2.42424" height="2.42424" fill="#2F1717"/>
<rect x="73.7275" y="65.4546" width="2.42424" height="2.42424" fill="#2F1717"/>
<rect x="68.8789" y="67.8789" width="2.42424" height="2.42424" fill="#2F1717"/>
<rect x="64.0303" y="70.303" width="2.42424" height="2.42424" fill="#2F1717"/>
<rect x="66.4541" y="70.303" width="2.42424" height="2.42424" fill="#2F1717"/>
<rect x="71.3027" y="65.4546" width="2.42424" height="2.42424" fill="#2F1717"/>
<rect x="73.7275" y="63.0303" width="2.42424" height="2.42424" fill="#2F1717"/>
<rect x="78.5762" y="55.7576" width="2.42424" height="2.42424" fill="#2F1717"/>
<rect x="78.5762" y="58.1819" width="2.42424" height="2.42424" fill="#2F1717"/>
<rect x="76.1514" y="60.606" width="2.42424" height="2.42424" fill="#2F1717"/>
<rect x="76.1514" y="63.0303" width="2.42424" height="2.42424" fill="#2F1717"/>
<rect x="78.5762" y="43.6365" width="2.42424" height="2.42424" fill="#2F1717"/>
<rect x="78.5762" y="46.0605" width="2.42424" height="2.42424" fill="#2F1717"/>
<rect x="78.5762" y="48.4849" width="2.42424" height="2.42424" fill="#2F1717"/>
<rect x="78.5762" y="50.9092" width="2.42424" height="2.42424" fill="#2F1717"/>
<rect x="78.5762" y="53.3333" width="2.42424" height="2.42424" fill="#2F1717"/>
<rect x="78.5762" y="41.2122" width="2.42424" height="2.42424" fill="#2F1717"/>
<rect x="76.1514" y="36.3635" width="2.42424" height="2.42424" fill="#2F1717"/>
<rect x="76.1514" y="38.7878" width="2.42424" height="2.42424" fill="#2F1717"/>
<rect x="73.7275" y="33.9395" width="2.42424" height="2.42424" fill="#2F1717"/>
<rect x="71.3027" y="31.5151" width="2.42424" height="2.42424" fill="#2F1717"/>
<rect x="64.0303" y="24.2424" width="2.42424" height="2.42424" fill="#2F1717"/>
<rect x="66.4541" y="26.6667" width="2.42424" height="2.42424" fill="#2F1717"/>
<rect x="68.8789" y="29.0908" width="2.42424" height="2.42424" fill="#2F1717"/>
<rect x="61.6064" y="24.2424" width="2.42424" height="2.42424" fill="#2F1717"/>
<rect x="59.1816" y="21.8181" width="2.42424" height="2.42424" fill="#2F1717"/>
<rect x="54.333" y="19.394" width="2.42424" height="2.42424" fill="#2F1717"/>
<rect x="56.7578" y="21.8181" width="2.42424" height="2.42424" fill="#2F1717"/>
<rect x="51.9092" y="19.394" width="2.42424" height="2.42424" fill="#2F1717"/>
<rect x="51.9092" y="16.9697" width="2.42424" height="2.42424" fill="#2F1717"/>
<rect x="51.9092" y="14.5454" width="2.42424" height="2.42424" fill="#2F1717"/>
<rect x="44.6367" y="4.84839" width="2.42424" height="2.42424" fill="#2F1717"/>
<rect x="47.0605" y="7.27271" width="2.42424" height="2.42424" fill="#2F1717"/>
<rect x="49.4844" y="9.69702" width="2.42424" height="2.42424" fill="#2F1717"/>
<rect x="49.4844" y="12.1211" width="2.42424" height="2.42424" fill="#2F1717"/>
<rect x="42.2119" y="2.42432" width="2.42424" height="2.42424" fill="#2F1717"/>
<rect x="34.9395" width="2.42424" height="2.42424" fill="#2F1717"/>
<rect x="37.3633" width="2.42424" height="2.42424" fill="#2F1717"/>
<rect x="39.7881" y="2.42432" width="2.42424" height="2.42424" fill="#2F1717"/>
<rect x="37.3633" y="2.42432" width="2.42424" height="2.42424" fill="#2F1717"/>
<rect x="37.3633" y="4.84839" width="2.42424" height="2.42424" fill="#2F1717"/>
<rect x="39.7881" y="4.84839" width="2.42424" height="2.42424" fill="#2F1717"/>
<rect x="39.7881" y="7.27271" width="2.42424" height="2.42424" fill="#2F1717"/>
<rect x="39.7881" y="9.69702" width="2.42424" height="2.42424" fill="#2F1717"/>
<rect x="42.2119" y="12.1211" width="2.42424" height="2.42424" fill="#2F1717"/>
<rect x="39.7881" y="14.5454" width="2.42424" height="2.42424" fill="#2F1717"/>
<rect x="39.7881" y="16.9697" width="2.42424" height="2.42424" fill="#2F1717"/>
<rect x="37.3633" y="16.9697" width="2.42424" height="2.42424" fill="#2F1717"/>
<rect x="32.5156" y="16.9697" width="2.42424" height="2.42424" fill="#2F1717"/>
<rect x="34.9395" y="16.9697" width="2.42424" height="2.42424" fill="#2F1717"/>
<rect x="30.0908" y="16.9697" width="2.42424" height="2.42424" fill="#2F1717"/>
<rect x="27.667" y="16.9697" width="2.42424" height="2.42424" fill="#2F1717"/>
<rect x="25.2422" y="16.9697" width="2.42424" height="2.42424" fill="#2F1717"/>
<path d="M8.51933 62.1048C5.37619 58.5127 5.2769 53.6709 5.27634 49.1516C5.26784 50.4507 4.83994 47.6821 6.21785 47.6055C7.55635 47.5312 8.52721 48.0934 9.6073 48.6935C10.6901 49.295 11.7474 50.314 12.7248 51.0891C14.9124 52.8241 17.146 54.4178 19.2526 56.2674C22.6011 59.2076 26.9724 60.8303 30.7809 63.0568C34.4035 65.1746 36.9552 69.2645 40.5726 71.3317H38.7105H34.275C30.9111 71.3317 27.4422 71.5648 24.1066 71.1015C21.5285 70.7434 18.7831 70.2529 16.3757 69.2499C14.5373 68.4839 13.5107 67.2521 12.1599 65.8709C10.9418 64.6255 9.66747 63.417 8.51933 62.1048Z" fill="#44393F"/>
<path d="M5.27634 49.1119C5.27634 53.6426 5.36698 58.5021 8.51933 62.1048C9.66747 63.417 10.9418 64.6255 12.1599 65.8709C13.5107 67.2521 14.5373 68.4839 16.3757 69.2499C18.7831 70.2529 21.5285 70.7434 24.1066 71.1015C27.4422 71.5648 30.9111 71.3317 34.275 71.3317C35.7535 71.3317 37.232 71.3317 38.7105 71.3317C39.3312 71.3317 39.9519 71.3317 40.5726 71.3317M40.5726 71.3317C41.3298 71.3317 40.8897 71.5128 40.5726 71.3317ZM40.5726 71.3317C36.9552 69.2645 34.4035 65.1746 30.7809 63.0568C26.9724 60.8303 22.6011 59.2076 19.2526 56.2674C17.146 54.4178 14.9124 52.8241 12.7248 51.0891C11.7474 50.314 10.6901 49.295 9.6073 48.6935C8.52721 48.0934 7.55635 47.5312 6.21786 47.6055C4.82633 47.6828 5.27647 50.5056 5.27647 49.1119" stroke="#44393F" stroke-linecap="round"/>
<rect x="2.93945" y="49.697" width="2.42424" height="2.42424" fill="#44393F"/>
<rect x="5.36328" y="52.1211" width="2.42424" height="2.42424" fill="#44393F"/>
<rect x="5.36328" y="54.5454" width="2.42424" height="2.42424" fill="#44393F"/>
<rect x="5.36328" y="56.9697" width="2.42424" height="2.42424" fill="#44393F"/>
<rect x="5.36328" y="59.3938" width="2.42424" height="2.42424" fill="#44393F"/>
<rect x="2.93945" y="47.2727" width="2.42424" height="2.42424" fill="#44393F"/>
<rect x="7.78809" y="61.8181" width="2.42424" height="2.42424" fill="#44393F"/>
<rect x="10.2119" y="64.2424" width="2.42424" height="2.42424" fill="#44393F"/>
<rect x="12.6367" y="66.6667" width="2.42424" height="2.42424" fill="#44393F"/>
<rect x="15.0605" y="69.0908" width="2.42424" height="2.42424" fill="#44393F"/>
<rect x="17.4844" y="69.0908" width="2.42424" height="2.42424" fill="#44393F"/>
<rect x="19.9092" y="69.0908" width="2.42424" height="2.42424" fill="#44393F"/>
<rect x="22.333" y="69.0908" width="2.42424" height="2.42424" fill="#44393F"/>
<rect x="24.7578" y="69.0908" width="2.42424" height="2.42424" fill="#44393F"/>
<rect x="27.1816" y="69.0908" width="2.42424" height="2.42424" fill="#44393F"/>
<rect x="29.6064" y="69.0908" width="2.42424" height="2.42424" fill="#44393F"/>
<rect x="32.0303" y="69.0908" width="2.42424" height="2.42424" fill="#44393F"/>
<rect x="34.4541" y="69.0908" width="2.42424" height="2.42424" fill="#44393F"/>
<rect x="36.8789" y="69.0908" width="2.42424" height="2.42424" fill="#44393F"/>
<rect x="39.3027" y="69.0908" width="2.42424" height="2.42424" fill="#44393F"/>
<rect x="32.0303" y="64.2424" width="2.42424" height="2.42424" fill="#44393F"/>
<rect x="34.4541" y="66.6667" width="2.42424" height="2.42424" fill="#44393F"/>
<rect x="29.6064" y="61.8181" width="2.42424" height="2.42424" fill="#44393F"/>
<rect x="19.9092" y="56.9697" width="2.42424" height="2.42424" fill="#44393F"/>
<rect x="24.7578" y="59.3938" width="2.42424" height="2.42424" fill="#44393F"/>
<rect x="22.333" y="56.9697" width="2.42424" height="2.42424" fill="#44393F"/>
<rect x="27.1816" y="59.3938" width="2.42424" height="2.42424" fill="#44393F"/>
<rect x="17.4844" y="54.5454" width="2.42424" height="2.42424" fill="#44393F"/>
<rect x="15.0605" y="52.1211" width="2.42424" height="2.42424" fill="#44393F"/>
<rect x="12.6367" y="49.697" width="2.42424" height="2.42424" fill="#44393F"/>
<rect x="10.2119" y="49.697" width="2.42424" height="2.42424" fill="#44393F"/>
<rect x="7.78809" y="47.2727" width="2.42424" height="2.42424" fill="#44393F"/>
<rect x="5.36328" y="47.2727" width="2.42424" height="2.42424" fill="#44393F"/>
<path d="M46.5318 19.3481C47.016 18.3423 47.0234 17.5234 47.0234 16.4294C48.136 16.8003 48.793 17.1666 49.4295 18.3125C50.0204 19.3761 49.9756 20.6775 49.6597 21.8484C49.4992 22.443 48.631 24.0178 49.3772 24.4323C50.4096 25.0058 51.8189 26.1882 52.3691 27.2464C52.9764 28.4142 52.8619 29.3047 52.5784 30.5521C51.9181 33.4572 50.3105 36.3797 47.7766 38.0843C44.0297 40.6049 39.4162 42.2214 34.8884 41.4737C32.0285 41.0014 27.9144 39.3391 26.2474 36.7661C25.1326 35.0455 25.9224 32.6292 26.6763 30.9706C27.5853 28.9708 28.8895 26.6138 31.1223 25.9387C34.2809 24.9838 37.5955 24.4731 40.7048 23.3757C42.6035 22.7056 45.5938 21.2963 46.5318 19.3481Z" fill="#685D62"/>
<path d="M46.5318 19.3481C47.016 18.3423 47.0234 17.5234 47.0234 16.4294C48.136 16.8003 48.793 17.1666 49.4295 18.3125C50.0204 19.3761 49.9756 20.6775 49.6597 21.8484C49.4992 22.443 48.631 24.0178 49.3772 24.4323C50.4096 25.0058 51.8189 26.1882 52.3691 27.2464C52.9764 28.4142 52.8619 29.3047 52.5784 30.5521C51.9181 33.4572 50.3105 36.3797 47.7766 38.0843C44.0297 40.6049 39.4162 42.2214 34.8884 41.4737C32.0285 41.0014 27.9144 39.3391 26.2474 36.7661C25.1326 35.0455 25.9224 32.6292 26.6763 30.9706C27.5853 28.9708 28.8895 26.6138 31.1223 25.9387C34.2809 24.9838 37.5955 24.4731 40.7048 23.3757C42.6035 22.7056 45.5938 21.2963 46.5318 19.3481Z" fill="black" fill-opacity="0.2"/>
<rect x="44.6367" y="16.9697" width="2.42424" height="2.42424" fill="#685D62"/>
<rect x="44.6367" y="16.9697" width="2.42424" height="2.42424" fill="black" fill-opacity="0.2"/>
<rect x="44.6367" y="14.5454" width="2.42424" height="2.42424" fill="#685D62"/>
<rect x="44.6367" y="14.5454" width="2.42424" height="2.42424" fill="black" fill-opacity="0.2"/>
<rect x="44.6367" y="19.3938" width="2.42424" height="2.42424" fill="#685D62"/>
<rect x="44.6367" y="19.3938" width="2.42424" height="2.42424" fill="black" fill-opacity="0.2"/>
<rect x="39.7881" y="21.8181" width="2.42424" height="2.42424" fill="#685D62"/>
<rect x="39.7881" y="21.8181" width="2.42424" height="2.42424" fill="black" fill-opacity="0.2"/>
<rect x="42.2119" y="21.8181" width="2.42424" height="2.42424" fill="#685D62"/>
<rect x="42.2119" y="21.8181" width="2.42424" height="2.42424" fill="black" fill-opacity="0.2"/>
<rect x="32.5156" y="24.2424" width="2.42424" height="2.42424" fill="#685D62"/>
<rect x="32.5156" y="24.2424" width="2.42424" height="2.42424" fill="black" fill-opacity="0.2"/>
<rect x="30.0908" y="24.2424" width="2.42424" height="2.42424" fill="#685D62"/>
<rect x="30.0908" y="24.2424" width="2.42424" height="2.42424" fill="black" fill-opacity="0.2"/>
<rect x="34.9395" y="24.2424" width="2.42424" height="2.42424" fill="#685D62"/>
<rect x="34.9395" y="24.2424" width="2.42424" height="2.42424" fill="black" fill-opacity="0.2"/>
<rect x="37.3633" y="21.8181" width="2.42424" height="2.42424" fill="#685D62"/>
<rect x="37.3633" y="21.8181" width="2.42424" height="2.42424" fill="black" fill-opacity="0.2"/>
<rect x="27.667" y="26.6665" width="2.42424" height="2.42424" fill="#685D62"/>
<rect x="27.667" y="26.6665" width="2.42424" height="2.42424" fill="black" fill-opacity="0.2"/>
<rect x="25.2422" y="29.0908" width="2.42424" height="2.42424" fill="#685D62"/>
<rect x="25.2422" y="29.0908" width="2.42424" height="2.42424" fill="black" fill-opacity="0.2"/>
<rect x="25.2422" y="31.5151" width="2.42424" height="2.42424" fill="#685D62"/>
<rect x="25.2422" y="31.5151" width="2.42424" height="2.42424" fill="black" fill-opacity="0.2"/>
<rect x="25.2422" y="33.9395" width="2.42424" height="2.42424" fill="#685D62"/>
<rect x="25.2422" y="33.9395" width="2.42424" height="2.42424" fill="black" fill-opacity="0.2"/>
<rect x="25.2422" y="36.3635" width="2.42424" height="2.42424" fill="#685D62"/>
<rect x="25.2422" y="36.3635" width="2.42424" height="2.42424" fill="black" fill-opacity="0.2"/>
<rect x="30.0908" y="38.7878" width="2.42424" height="2.42424" fill="#685D62"/>
<rect x="30.0908" y="38.7878" width="2.42424" height="2.42424" fill="black" fill-opacity="0.2"/>
<rect x="27.667" y="38.7878" width="2.42424" height="2.42424" fill="#685D62"/>
<rect x="27.667" y="38.7878" width="2.42424" height="2.42424" fill="black" fill-opacity="0.2"/>
<rect x="32.5156" y="41.2122" width="2.42424" height="2.42424" fill="#685D62"/>
<rect x="32.5156" y="41.2122" width="2.42424" height="2.42424" fill="black" fill-opacity="0.2"/>
<rect x="42.2119" y="38.7878" width="2.42424" height="2.42424" fill="#685D62"/>
<rect x="42.2119" y="38.7878" width="2.42424" height="2.42424" fill="black" fill-opacity="0.2"/>
<rect x="34.9395" y="41.2122" width="2.42424" height="2.42424" fill="#685D62"/>
<rect x="34.9395" y="41.2122" width="2.42424" height="2.42424" fill="black" fill-opacity="0.2"/>
<rect x="37.3633" y="41.2122" width="2.42424" height="2.42424" fill="#685D62"/>
<rect x="37.3633" y="41.2122" width="2.42424" height="2.42424" fill="black" fill-opacity="0.2"/>
<rect x="39.7881" y="38.7878" width="2.42424" height="2.42424" fill="#685D62"/>
<rect x="39.7881" y="38.7878" width="2.42424" height="2.42424" fill="black" fill-opacity="0.2"/>
<rect x="44.6367" y="38.7878" width="2.42424" height="2.42424" fill="#685D62"/>
<rect x="44.6367" y="38.7878" width="2.42424" height="2.42424" fill="black" fill-opacity="0.2"/>
<rect x="47.0605" y="36.3635" width="2.42424" height="2.42424" fill="#685D62"/>
<rect x="47.0605" y="36.3635" width="2.42424" height="2.42424" fill="black" fill-opacity="0.2"/>
<rect x="49.4844" y="31.5151" width="2.42424" height="2.42424" fill="#685D62"/>
<rect x="49.4844" y="31.5151" width="2.42424" height="2.42424" fill="black" fill-opacity="0.2"/>
<rect x="49.4844" y="33.9395" width="2.42424" height="2.42424" fill="#685D62"/>
<rect x="49.4844" y="33.9395" width="2.42424" height="2.42424" fill="black" fill-opacity="0.2"/>
<rect x="51.9092" y="29.0908" width="2.42424" height="2.42424" fill="#685D62"/>
<rect x="51.9092" y="29.0908" width="2.42424" height="2.42424" fill="black" fill-opacity="0.2"/>
<rect x="51.9092" y="26.6665" width="2.42424" height="2.42424" fill="#685D62"/>
<rect x="51.9092" y="26.6665" width="2.42424" height="2.42424" fill="black" fill-opacity="0.2"/>
<rect x="49.4844" y="24.2424" width="2.42424" height="2.42424" fill="#685D62"/>
<rect x="49.4844" y="24.2424" width="2.42424" height="2.42424" fill="black" fill-opacity="0.2"/>
<rect x="47.0605" y="24.2424" width="2.42424" height="2.42424" fill="#685D62"/>
<rect x="47.0605" y="24.2424" width="2.42424" height="2.42424" fill="black" fill-opacity="0.2"/>
<rect x="47.0605" y="21.8181" width="2.42424" height="2.42424" fill="#685D62"/>
<rect x="47.0605" y="21.8181" width="2.42424" height="2.42424" fill="black" fill-opacity="0.2"/>
<rect x="49.4844" y="21.8181" width="2.42424" height="2.42424" fill="#685D62"/>
<rect x="49.4844" y="21.8181" width="2.42424" height="2.42424" fill="black" fill-opacity="0.2"/>
<rect x="49.4844" y="19.3938" width="2.42424" height="2.42424" fill="#685D62"/>
<rect x="49.4844" y="19.3938" width="2.42424" height="2.42424" fill="black" fill-opacity="0.2"/>
<rect x="47.0605" y="16.9697" width="2.42424" height="2.42424" fill="#685D62"/>
<rect x="47.0605" y="16.9697" width="2.42424" height="2.42424" fill="black" fill-opacity="0.2"/>
<path d="M51.1217 47.7128C54.0751 44.2479 59.2705 44.934 63.3794 44.9483C64.3943 44.94 65.7263 44.7043 66.6878 44.9881C67.5743 45.2498 68.5085 45.1775 69.4132 45.4835C71.013 46.0248 73.0588 47.5811 73.5906 49.2188C74.3388 51.5224 71.8435 54.1604 70.2089 55.3616C65.7147 58.6641 58.9555 58.3614 54.0659 56.0849C52.3386 55.2807 50.5066 54.1789 50.1868 52.1614C49.951 50.6738 50.109 48.9009 51.1217 47.7128Z" fill="#D9D9D9"/>
<path d="M63.505 44.9485C59.3769 44.9485 54.1052 44.2125 51.1217 47.7128C50.109 48.9009 49.951 50.6738 50.1868 52.1614C50.5066 54.1789 52.3386 55.2807 54.0659 56.0849C58.9555 58.3614 65.7147 58.6641 70.2089 55.3616C71.8435 54.1604 74.3388 51.5224 73.5906 49.2188C73.0588 47.5811 71.013 46.0248 69.4132 45.4835C68.5085 45.1775 67.5743 45.2498 66.6878 44.9881C65.7094 44.6993 64.3472 44.9485 63.326 44.9485" stroke="#DB1E1E" stroke-linecap="round"/>
<rect x="49.4844" y="46.0608" width="2.42424" height="2.42424" fill="#DB1E1E"/>
<rect x="51.9082" y="46.0608" width="2.42424" height="2.42424" fill="#DB1E1E"/>
<rect x="54.333" y="43.6365" width="2.42424" height="2.42424" fill="#DB1E1E"/>
<rect x="56.7568" y="43.6365" width="2.42424" height="2.42424" fill="#DB1E1E"/>
<rect x="59.1816" y="43.6365" width="2.42424" height="2.42424" fill="#DB1E1E"/>
<rect x="61.6055" y="43.6365" width="2.42424" height="2.42424" fill="#DB1E1E"/>
<rect x="49.4844" y="48.4849" width="2.42424" height="2.42424" fill="#DB1E1E"/>
<rect x="49.4844" y="50.9092" width="2.42424" height="2.42424" fill="#DB1E1E"/>
<rect x="49.4844" y="53.3335" width="2.42424" height="2.42424" fill="#DB1E1E"/>
<rect x="51.9082" y="53.3335" width="2.42424" height="2.42424" fill="#DB1E1E"/>
<rect x="51.9082" y="55.7576" width="2.42424" height="2.42424" fill="#DB1E1E"/>
<rect x="66.4541" y="55.7576" width="2.42424" height="2.42424" fill="#DB1E1E"/>
<rect x="54.333" y="55.7576" width="2.42424" height="2.42424" fill="#DB1E1E"/>
<rect x="56.7568" y="55.7576" width="2.42424" height="2.42424" fill="#DB1E1E"/>
<rect x="59.1816" y="55.7576" width="2.42424" height="2.42424" fill="#DB1E1E"/>
<rect x="61.6055" y="55.7576" width="2.42424" height="2.42424" fill="#DB1E1E"/>
<rect x="64.0303" y="55.7576" width="2.42424" height="2.42424" fill="#DB1E1E"/>
<rect x="68.8779" y="53.3335" width="2.42424" height="2.42424" fill="#DB1E1E"/>
<rect x="71.3027" y="48.4849" width="2.42424" height="2.42424" fill="#DB1E1E"/>
<rect x="71.3027" y="50.9092" width="2.42424" height="2.42424" fill="#DB1E1E"/>
<rect x="71.3027" y="46.0608" width="2.42424" height="2.42424" fill="#DB1E1E"/>
<rect x="68.8779" y="43.6365" width="2.42424" height="2.42424" fill="#DB1E1E"/>
<rect x="66.4541" y="43.6365" width="2.42424" height="2.42424" fill="#DB1E1E"/>
<rect x="64.0303" y="43.6365" width="2.42424" height="2.42424" fill="#DB1E1E"/>
<path d="M58.9531 50.9986C58.9531 49.0021 59.0308 46.7766 60.8943 45.7105C61.4219 45.5347 61.4196 44.953 61.9303 44.6977C62.6195 44.3531 63.3056 44.4859 63.9938 44.611C66.6479 45.0936 66.0016 50.1197 65.892 51.9831C65.8304 53.0298 65.4335 54.1586 64.6948 54.8972C64.0952 55.4968 63.1086 56.4002 62.2768 56.6379C61.5106 56.8568 61.231 56.3441 60.6859 55.9605C59.0853 54.8342 58.9531 52.7509 58.9531 50.9986Z" fill="#443030"/>
<path d="M61.0797 45.6113C59.0359 46.6332 58.9531 48.9379 58.9531 50.9986C58.9531 52.7509 59.0853 54.8342 60.6859 55.9605C61.231 56.3441 61.5106 56.8568 62.2768 56.6379C63.1086 56.4002 64.0952 55.4968 64.6948 54.8972C65.4335 54.1586 65.8304 53.0298 65.892 51.9831C66.0016 50.1197 66.6479 45.0936 63.9938 44.611C63.3056 44.4859 62.6195 44.3531 61.9303 44.6977C61.4196 44.953 61.4219 45.5347 60.8943 45.7105" stroke="#2B2326" stroke-linecap="round"/>
<rect x="59.1816" y="46.0608" width="2.42424" height="2.42424" fill="#2B2326"/>
<rect x="56.7578" y="48.4849" width="2.42424" height="2.42424" fill="#2B2326"/>
<rect x="59.1816" y="43.6365" width="2.42424" height="2.42424" fill="#2B2326"/>
<rect x="56.7578" y="50.9092" width="2.42424" height="2.42424" fill="#2B2326"/>
<rect x="59.1816" y="53.3335" width="2.42424" height="2.42424" fill="#2B2326"/>
<rect x="59.1816" y="55.7576" width="2.42424" height="2.42424" fill="#2B2326"/>
<rect x="61.6064" y="55.7576" width="2.42424" height="2.42424" fill="#2B2326"/>
<rect x="64.0303" y="53.3335" width="2.42424" height="2.42424" fill="#2B2326"/>
<rect x="64.0303" y="50.9092" width="2.42424" height="2.42424" fill="#2B2326"/>
<rect x="64.0303" y="43.6365" width="2.42424" height="2.42424" fill="#2B2326"/>
<rect x="64.0303" y="46.0608" width="2.42424" height="2.42424" fill="#2B2326"/>
<rect x="64.0303" y="48.4849" width="2.42424" height="2.42424" fill="#2B2326"/>
<rect x="61.6064" y="43.6365" width="2.42424" height="2.42424" fill="#2B2326"/>
<path d="M65.2621 29.7904C63.4374 29.0499 60.9859 28.6959 60.8163 26.5301C60.4639 25.9446 60.0016 26.092 59.3918 26.176C58.7807 26.2602 59.555 27.7443 59.7167 28.013C60.5913 29.4661 62.7221 30.7498 64.0001 31.8422C66.1778 33.7037 68.4373 35.8165 70.8482 37.3718C71.9777 38.1005 72.1564 37.561 72.0713 36.4742C72.0014 35.5821 71.6733 35.1608 71.0983 34.4551C69.312 32.2627 68.0135 30.9069 65.2621 29.7904Z" fill="#837777"/>
<rect x="60.4395" y="26.3357" width="1.93939" height="1.93939" transform="rotate(-4.47755 60.4395 26.3357)" fill="#837777"/>
<rect x="62.5244" y="28.1179" width="1.93939" height="1.93939" transform="rotate(-4.47755 62.5244 28.1179)" fill="#837777"/>
<rect x="64.458" y="27.9666" width="1.93939" height="1.93939" transform="rotate(-4.47755 64.458 27.9666)" fill="#837777"/>
<rect x="66.543" y="29.7485" width="1.93939" height="1.93939" transform="rotate(-4.47755 66.543 29.7485)" fill="#837777"/>
<rect x="68.6279" y="31.5305" width="1.93939" height="1.93939" transform="rotate(-4.47755 68.6279 31.5305)" fill="#837777"/>
<rect x="70.7119" y="33.3127" width="1.93939" height="1.93939" transform="rotate(-4.47755 70.7119 33.3127)" fill="#837777"/>
<rect x="64.6094" y="29.8999" width="1.93939" height="1.93939" transform="rotate(-4.47755 64.6094 29.8999)" fill="#837777"/>
<rect x="70.8643" y="35.2461" width="1.93939" height="1.93939" transform="rotate(-4.47755 70.8643 35.2461)" fill="#837777"/>
<rect x="71.0156" y="37.1797" width="1.93939" height="1.93939" transform="rotate(-4.47755 71.0156 37.1797)" fill="#837777"/>
<rect x="69.082" y="37.3311" width="1.93939" height="1.93939" transform="rotate(-4.47755 69.082 37.3311)" fill="#837777"/>
<rect x="64.7607" y="31.8335" width="1.93939" height="1.93939" transform="rotate(-4.47755 64.7607 31.8335)" fill="#837777"/>
<rect x="66.8457" y="33.6155" width="1.93939" height="1.93939" transform="rotate(-4.47755 66.8457 33.6155)" fill="#837777"/>
<rect x="68.9307" y="35.3975" width="1.93939" height="1.93939" transform="rotate(-4.47755 68.9307 35.3975)" fill="#837777"/>
<rect x="62.6758" y="30.0513" width="1.93939" height="1.93939" transform="rotate(-4.47755 62.6758 30.0513)" fill="#837777"/>
<rect x="60.5908" y="28.2693" width="1.93939" height="1.93939" transform="rotate(-4.47755 60.5908 28.2693)" fill="#837777"/>
<rect x="58.5059" y="26.4871" width="1.93939" height="1.93939" transform="rotate(-4.47755 58.5059 26.4871)" fill="#837777"/>
<rect x="58.3545" y="24.5537" width="1.93939" height="1.93939" transform="rotate(-4.47755 58.3545 24.5537)" fill="#837777"/>
<path d="M37.4498 29.6607C37.8249 28.4938 39.4874 28.8657 40.4208 28.8657C41.5951 28.8657 41.0991 27.7358 42.1155 27.7358C42.9827 27.7358 45.0902 28.3645 45.3062 29.3364C45.8821 31.9277 41.0552 32.5544 39.4898 32.14C38.3424 31.8363 37.0052 31.044 37.4498 29.6607Z" fill="#D9D9D9"/>
<rect x="36.8789" y="26.9092" width="2.42424" height="2.42424" fill="#D9D9D9"/>
<rect x="39.3027" y="26.9092" width="2.42424" height="2.42424" fill="#D9D9D9"/>
<rect x="36.8789" y="29.3335" width="2.42424" height="2.42424" fill="#D9D9D9"/>
<rect x="39.3027" y="31.7576" width="2.42424" height="2.42424" fill="#D9D9D9"/>
<rect x="44.1514" y="29.3335" width="2.42424" height="2.42424" fill="#D9D9D9"/>
<rect x="41.7275" y="31.7576" width="2.42424" height="2.42424" fill="#D9D9D9"/>
<rect x="41.7275" y="26.9092" width="2.42424" height="2.42424" fill="#D9D9D9"/>
</svg>
