<svg width="151" height="124" viewBox="0 0 151 124" fill="none" xmlns="http://www.w3.org/2000/svg">
<path d="M107.626 96.3433C109.353 96.9251 114.779 97.5565 112.957 97.5565C115.282 99.107 111.182 98.4438 113.802 99.1924C115.998 99.8197 114.942 101.462 114.942 103.365C114.942 105.089 114.6 107.152 114.353 108.879C113.882 112.181 114.164 115.782 113.214 118.989C112.829 120.287 110.858 119.738 109.905 119.394C105.43 117.775 100.472 117.671 96.0088 116.011C84.6118 111.773 74.2242 105.181 62.7568 101.086C62.0186 100.822 59.0254 100.514 59.0254 99.3762V99.3493C59.0254 98.2887 59.0254 97.2468 59.2092 96.1962C59.7171 93.294 59.9723 90.3229 60.6981 87.4651C61.2508 85.2889 62.3059 83.0989 62.6465 80.8845C62.81 79.8221 63.6374 81.2226 64.1538 81.5095C65.9247 82.4933 69.9232 81.6508 71.8556 81.6749C74.847 81.7123 78.0332 82.6932 80.9361 83.4028C82.1433 83.6979 83.4117 84.5661 84.5756 85.0571C87.1502 86.1433 89.5899 87.4993 92.0752 88.7701C97.2388 91.4106 102.093 94.4793 107.626 96.3433Z" fill="#441510" stroke="#CA6F00" stroke-width="3" stroke-linecap="round"/>
<rect x="108.053" y="94.3518" width="3.3557" height="3.3557" fill="#CA6F00"/>
<rect x="111.41" y="94.3518" width="3.3557" height="3.3557" fill="#CA6F00"/>
<rect x="104.699" y="94.3518" width="3.3557" height="3.3557" fill="#CA6F00"/>
<rect x="91.2754" y="87.6404" width="3.3557" height="3.3557" fill="#CA6F00"/>
<rect x="97.9863" y="90.9961" width="3.3557" height="3.3557" fill="#CA6F00"/>
<rect x="94.6309" y="90.9961" width="3.3557" height="3.3557" fill="#CA6F00"/>
<rect x="101.342" y="94.3518" width="3.3557" height="3.3557" fill="#CA6F00"/>
<rect x="84.5645" y="84.2847" width="3.3557" height="3.3557" fill="#CA6F00"/>
<rect x="87.9199" y="84.2847" width="3.3557" height="3.3557" fill="#CA6F00"/>
<rect x="81.207" y="80.929" width="3.3557" height="3.3557" fill="#CA6F00"/>
<rect x="77.8535" y="80.929" width="3.3557" height="3.3557" fill="#CA6F00"/>
<rect x="74.4961" y="80.929" width="3.3557" height="3.3557" fill="#CA6F00"/>
<rect x="71.1406" y="80.929" width="3.3557" height="3.3557" fill="#CA6F00"/>
<rect x="64.4297" y="80.929" width="3.3557" height="3.3557" fill="#CA6F00"/>
<rect x="67.7852" y="80.929" width="3.3557" height="3.3557" fill="#CA6F00"/>
<rect x="61.0742" y="80.929" width="3.3557" height="3.3557" fill="#CA6F00"/>
<rect x="61.0742" y="77.5732" width="3.3557" height="3.3557" fill="#CA6F00"/>
<rect x="61.0742" y="84.2847" width="3.3557" height="3.3557" fill="#CA6F00"/>
<rect x="57.7178" y="84.2847" width="3.3557" height="3.3557" fill="#CA6F00"/>
<rect x="57.7178" y="87.6404" width="3.3557" height="3.3557" fill="#CA6F00"/>
<rect x="57.7178" y="90.9961" width="3.3557" height="3.3557" fill="#CA6F00"/>
<rect x="57.7178" y="94.3518" width="3.3557" height="3.3557" fill="#CA6F00"/>
<rect x="57.7178" y="97.7075" width="3.3557" height="3.3557" fill="#CA6F00"/>
<rect x="61.0742" y="101.063" width="3.3557" height="3.3557" fill="#CA6F00"/>
<rect x="64.4297" y="101.063" width="3.3557" height="3.3557" fill="#CA6F00"/>
<rect x="71.1406" y="104.419" width="3.3557" height="3.3557" fill="#CA6F00"/>
<rect x="81.207" y="107.775" width="3.3557" height="3.3557" fill="#CA6F00"/>
<rect x="87.9199" y="111.13" width="3.3557" height="3.3557" fill="#CA6F00"/>
<rect x="67.7852" y="101.063" width="3.3557" height="3.3557" fill="#CA6F00"/>
<rect x="74.4961" y="104.419" width="3.3557" height="3.3557" fill="#CA6F00"/>
<rect x="77.8535" y="107.775" width="3.3557" height="3.3557" fill="#CA6F00"/>
<rect x="84.5645" y="111.13" width="3.3557" height="3.3557" fill="#CA6F00"/>
<rect x="91.2754" y="114.486" width="3.3557" height="3.3557" fill="#CA6F00"/>
<rect x="94.6309" y="114.486" width="3.3557" height="3.3557" fill="#CA6F00"/>
<rect x="97.9863" y="114.486" width="3.3557" height="3.3557" fill="#CA6F00"/>
<rect x="101.342" y="114.486" width="3.3557" height="3.3557" fill="#CA6F00"/>
<rect x="104.699" y="117.842" width="3.3557" height="3.3557" fill="#CA6F00"/>
<rect x="108.053" y="117.842" width="3.3557" height="3.3557" fill="#CA6F00"/>
<rect x="111.41" y="117.842" width="3.3557" height="3.3557" fill="#CA6F00"/>
<rect x="111.41" y="107.775" width="3.3557" height="3.3557" fill="#CA6F00"/>
<rect x="111.41" y="111.13" width="3.3557" height="3.3557" fill="#CA6F00"/>
<rect x="111.41" y="114.486" width="3.3557" height="3.3557" fill="#CA6F00"/>
<rect x="111.41" y="104.419" width="3.3557" height="3.3557" fill="#CA6F00"/>
<rect x="114.766" y="101.063" width="3.3557" height="3.3557" fill="#CA6F00"/>
<rect x="111.41" y="97.7075" width="3.3557" height="3.3557" fill="#CA6F00"/>
<path d="M2.64611 82.8503H24.2459C26.2163 82.8503 28.5128 81.2697 30.5621 81.2128C33.0248 81.1444 35.5018 81.2797 37.944 81.5637C39.9406 81.7959 42.8892 81.719 44.7151 82.7334C45.9753 83.4335 47.0175 83.9267 48.1071 84.9557C48.653 85.4713 49.5711 85.8949 50.2645 86.1774C52.7095 87.1735 54.2129 90.3186 54.7742 92.6885C55.1742 94.3773 55.1251 96.0599 55.1251 97.7831C55.1251 98.46 54.6256 98.4281 54.0724 98.6408C50.993 99.8252 47.0236 99.2257 43.7793 99.2257C37.2304 99.2257 30.7597 99.6935 24.1939 99.6935H24.171C19.6387 99.6935 15.1411 99.6935 10.7298 100.837C9.74092 101.094 8.42752 101.375 7.51972 100.746C5.3498 99.244 3.54571 96.9022 3.07499 94.2871C2.51033 91.1501 2.31371 87.9982 2.07428 84.8258C2.01078 83.9844 1.60452 82.8503 2.64611 82.8503Z" fill="#621F1F" stroke="black" stroke-linecap="round"/>
<rect x="3.35547" y="81.7681" width="3.3557" height="3.3557" fill="black"/>
<rect x="6.71094" y="81.7681" width="3.3557" height="3.3557" fill="black"/>
<rect x="10.0674" y="81.7681" width="3.3557" height="3.3557" fill="black"/>
<rect x="13.4229" y="81.7681" width="3.3557" height="3.3557" fill="black"/>
<rect x="16.7783" y="81.7681" width="3.3557" height="3.3557" fill="black"/>
<rect x="20.1348" y="81.7681" width="3.3557" height="3.3557" fill="black"/>
<rect x="23.4902" y="81.7681" width="3.3557" height="3.3557" fill="black"/>
<rect y="81.7681" width="3.3557" height="3.3557" fill="black"/>
<rect y="85.1238" width="3.3557" height="3.3557" fill="black"/>
<rect y="88.4795" width="3.3557" height="3.3557" fill="black"/>
<rect y="91.8352" width="3.3557" height="3.3557" fill="black"/>
<rect x="3.35547" y="95.1909" width="3.3557" height="3.3557" fill="black"/>
<rect x="6.71094" y="98.5466" width="3.3557" height="3.3557" fill="black"/>
<rect x="10.0674" y="98.5466" width="3.3557" height="3.3557" fill="black"/>
<rect x="13.4229" y="98.5466" width="3.3557" height="3.3557" fill="black"/>
<rect x="16.7783" y="98.5466" width="3.3557" height="3.3557" fill="black"/>
<rect x="20.1348" y="98.5466" width="3.3557" height="3.3557" fill="black"/>
<rect x="23.4902" y="98.5466" width="3.3557" height="3.3557" fill="black"/>
<rect x="26.8457" y="98.5466" width="3.3557" height="3.3557" fill="black"/>
<rect x="30.2012" y="98.5466" width="3.3557" height="3.3557" fill="black"/>
<rect x="33.5576" y="98.5466" width="3.3557" height="3.3557" fill="black"/>
<rect x="36.9121" y="98.5466" width="3.3557" height="3.3557" fill="black"/>
<rect x="40.2686" y="98.5466" width="3.3557" height="3.3557" fill="black"/>
<rect x="43.624" y="98.5466" width="3.3557" height="3.3557" fill="black"/>
<rect x="46.9795" y="98.5466" width="3.3557" height="3.3557" fill="black"/>
<rect x="50.3359" y="98.5466" width="3.3557" height="3.3557" fill="black"/>
<rect x="53.6914" y="98.5466" width="3.3557" height="3.3557" fill="black"/>
<rect x="53.6914" y="95.1909" width="3.3557" height="3.3557" fill="black"/>
<rect x="53.6914" y="91.8352" width="3.3557" height="3.3557" fill="black"/>
<rect x="50.3359" y="85.1238" width="3.3557" height="3.3557" fill="black"/>
<rect x="53.6914" y="88.4795" width="3.3557" height="3.3557" fill="black"/>
<rect x="46.9795" y="85.1238" width="3.3557" height="3.3557" fill="black"/>
<rect x="46.9795" y="81.7681" width="3.3557" height="3.3557" fill="black"/>
<rect x="43.624" y="81.7681" width="3.3557" height="3.3557" fill="black"/>
<rect x="36.9121" y="78.4124" width="3.3557" height="3.3557" fill="black"/>
<rect x="40.2686" y="81.7681" width="3.3557" height="3.3557" fill="black"/>
<rect x="30.2012" y="78.4124" width="3.3557" height="3.3557" fill="black"/>
<rect x="33.5576" y="78.4124" width="3.3557" height="3.3557" fill="black"/>
<rect x="26.8457" y="78.4124" width="3.3557" height="3.3557" fill="black"/>
<path d="M143.018 90.273C144.297 90.7763 145.055 91.6431 146.455 91.7986C149.026 91.7986 148.771 93.3991 148.771 95.4382C148.771 97.4752 150.538 104.88 147.779 105.033C146.624 105.097 145.724 106.171 144.635 106.338C142.805 106.62 140.778 105.807 139.029 105.364C128.638 102.73 117.971 101.542 107.597 98.563C101.98 96.9503 96.7041 94.6223 91.2742 92.5339C89.9589 92.028 91.1875 86.7771 91.3661 85.8247C91.9846 82.5256 93.0361 80.4261 94.7666 77.6449C95.5616 76.3673 96.156 75.0349 97.8363 75.77C99.5498 76.5197 101.135 77.5802 102.45 78.8949C103.732 80.1771 105.918 80.3752 107.615 80.7146C114.865 82.1647 122.132 84.0858 129.324 85.8431C133.997 86.9851 138.542 88.5112 143.018 90.273Z" fill="#813014" stroke="#371F00" stroke-width="3" stroke-linecap="round"/>
<rect width="3.3557" height="3.3557" transform="matrix(-1 0 0 1 146.645 89.8218)" fill="#371F00"/>
<rect width="3.3557" height="3.3557" transform="matrix(-1 0 0 1 143.289 89.8218)" fill="#371F00"/>
<rect width="3.3557" height="3.3557" transform="matrix(-1 0 0 1 139.934 86.4661)" fill="#371F00"/>
<rect width="3.3557" height="3.3557" transform="matrix(-1 0 0 1 143.289 86.4661)" fill="#371F00"/>
<rect width="3.3557" height="3.3557" transform="matrix(-1 0 0 1 136.576 86.4661)" fill="#371F00"/>
<rect width="3.3557" height="3.3557" transform="matrix(-1 0 0 1 133.223 83.1104)" fill="#371F00"/>
<rect width="3.3557" height="3.3557" transform="matrix(-1 0 0 1 129.865 83.1104)" fill="#371F00"/>
<rect width="3.3557" height="3.3557" transform="matrix(-1 0 0 1 113.088 79.7546)" fill="#371F00"/>
<rect width="3.3557" height="3.3557" transform="matrix(-1 0 0 1 126.51 83.1104)" fill="#371F00"/>
<rect width="3.3557" height="3.3557" transform="matrix(-1 0 0 1 123.154 83.1104)" fill="#371F00"/>
<rect width="3.3557" height="3.3557" transform="matrix(-1 0 0 1 119.799 79.7546)" fill="#371F00"/>
<rect width="3.3557" height="3.3557" transform="matrix(-1 0 0 1 116.443 79.7546)" fill="#371F00"/>
<rect width="3.3557" height="3.3557" transform="matrix(-1 0 0 1 109.73 79.7546)" fill="#371F00"/>
<rect width="3.3557" height="3.3557" transform="matrix(-1 0 0 1 106.375 79.7546)" fill="#371F00"/>
<rect width="3.3557" height="3.3557" transform="matrix(-1 0 0 1 103.02 76.3989)" fill="#371F00"/>
<rect width="3.3557" height="3.3557" transform="matrix(-1 0 0 1 99.6641 73.0432)" fill="#371F00"/>
<rect width="3.3557" height="3.3557" transform="matrix(-1 0 0 1 96.3086 76.3989)" fill="#371F00"/>
<rect width="3.3557" height="3.3557" transform="matrix(-1 0 0 1 92.9531 79.7546)" fill="#371F00"/>
<rect width="3.3557" height="3.3557" transform="matrix(-1 0 0 1 92.9531 83.1104)" fill="#371F00"/>
<rect width="3.3557" height="3.3557" transform="matrix(-1 0 0 1 92.9531 86.4661)" fill="#371F00"/>
<rect width="3.3557" height="3.3557" transform="matrix(-1 0 0 1 92.9531 89.8218)" fill="#371F00"/>
<rect width="3.3557" height="3.3557" transform="matrix(-1 0 0 1 99.6641 93.1775)" fill="#371F00"/>
<rect width="3.3557" height="3.3557" transform="matrix(-1 0 0 1 109.73 96.5332)" fill="#371F00"/>
<rect width="3.3557" height="3.3557" transform="matrix(-1 0 0 1 106.375 96.5332)" fill="#371F00"/>
<rect width="3.3557" height="3.3557" transform="matrix(-1 0 0 1 103.02 93.1775)" fill="#371F00"/>
<rect width="3.3557" height="3.3557" transform="matrix(-1 0 0 1 96.3086 93.1775)" fill="#371F00"/>
<rect width="3.3557" height="3.3557" transform="matrix(-1 0 0 1 123.154 99.8889)" fill="#371F00"/>
<rect width="3.3557" height="3.3557" transform="matrix(-1 0 0 1 139.934 103.245)" fill="#371F00"/>
<rect width="3.3557" height="3.3557" transform="matrix(-1 0 0 1 136.576 103.245)" fill="#371F00"/>
<rect width="3.3557" height="3.3557" transform="matrix(-1 0 0 1 133.223 103.245)" fill="#371F00"/>
<rect width="3.3557" height="3.3557" transform="matrix(-1 0 0 1 129.865 99.8889)" fill="#371F00"/>
<rect width="3.3557" height="3.3557" transform="matrix(-1 0 0 1 126.51 99.8889)" fill="#371F00"/>
<rect width="3.3557" height="3.3557" transform="matrix(-1 0 0 1 119.799 99.8889)" fill="#371F00"/>
<rect width="3.3557" height="3.3557" transform="matrix(-1 0 0 1 116.443 99.8889)" fill="#371F00"/>
<rect width="3.3557" height="3.3557" transform="matrix(-1 0 0 1 113.088 96.5332)" fill="#371F00"/>
<rect width="3.3557" height="3.3557" transform="matrix(-1 0 0 1 143.289 103.245)" fill="#371F00"/>
<rect width="3.3557" height="3.3557" transform="matrix(-1 0 0 1 146.645 103.245)" fill="#371F00"/>
<rect width="3.3557" height="3.3557" transform="matrix(-1 0 0 1 150 103.245)" fill="#371F00"/>
<rect width="3.3557" height="3.3557" transform="matrix(-1 0 0 1 150 96.5332)" fill="#371F00"/>
<rect width="3.3557" height="3.3557" transform="matrix(-1 0 0 1 150 99.8889)" fill="#371F00"/>
<rect width="3.3557" height="3.3557" transform="matrix(-1 0 0 1 150 93.1775)" fill="#371F00"/>
<rect width="3.3557" height="3.3557" transform="matrix(-1 0 0 1 150 89.8218)" fill="#371F00"/>
<path d="M38.6782 97.2578C34.1855 97.2578 30.7642 95.9167 27.9806 92.1648C24.6405 87.6629 26.7 80.3022 28.1512 75.5457C29.137 72.3145 30.0041 69.0571 30.588 65.7253C30.7709 64.6814 31.1204 62.9505 30.5636 61.9483C30.5089 61.8497 30.4516 61.7659 30.3975 61.6969C29.9579 61.3745 30.1445 61.3747 30.3975 61.6969C30.4116 61.7072 30.4263 61.7179 30.4418 61.7289C32.5416 63.2288 34.5352 64.8067 36.4607 66.5295C37.3657 67.3392 40.5094 71.1069 40.8714 68.8445C41.3708 65.7228 42.3611 62.7329 42.967 59.6333C43.6098 56.3451 43.5031 53.0234 43.5031 49.691C43.5031 42.9469 44.3287 36.8551 45.477 30.2208C45.7896 28.4143 46.0436 26.7093 46.1349 24.8842C46.1839 23.9037 46.964 25.2259 47.134 25.3959C51.623 29.885 55.8827 33.3077 58.7576 39.164C58.9453 39.5463 59.4387 41.5285 59.7567 40.3093C60.6015 37.0711 62.3462 34.1257 63.5825 31.025C66.181 24.5083 69.6368 17.5846 69.8208 10.4095C69.8603 8.86669 69.4465 4.2823 69.8208 5.77954C72.1408 15.0594 77.0145 24.3218 81.1276 32.9257C83.0277 36.9003 84.9416 40.9005 87.0978 44.7443C87.6472 45.7235 88.6197 46.951 88.6818 48.1315C88.7399 49.2357 87.959 52.3891 88.5356 51.4456C90.8112 47.7217 95.5393 45.308 98.2341 41.747C98.6769 41.1619 99.1686 40.5626 99.2088 39.7976C99.2163 39.6565 99.1146 38.4294 99.4282 38.5548C100.234 38.8771 100.447 43.7432 100.525 44.3788C100.952 47.8707 100.963 51.3466 100.963 54.8571C100.963 57.471 100.213 59.7985 103.376 56.636C104.829 55.1827 106.34 53.4754 107.445 51.738C107.908 51.0106 108.277 49.9454 108.639 51.2506C109.43 54.0973 108.859 57.6735 108.859 60.6324C108.859 63.5975 109.13 66.6954 108.834 69.6486C108.544 72.554 108.938 77.8988 107.445 80.3418C106.097 82.5489 109.07 87.4551 107.445 89.4861C105.155 92.3486 98.2006 94.9271 95.3031 97.2578C92.099 99.8349 86.4498 96.3049 82.6385 97.2578C79.0042 98.1664 74.7199 97.8811 71.0392 97.3553C67.1048 96.7932 63.2309 97.1198 59.2937 96.7217C55.309 96.3187 51.5774 95.9419 47.5483 95.9419C46.5386 95.9419 44.4586 95.5617 43.5031 96.0394C42.3635 96.6092 42.2209 97.2578 40.8714 97.2578H38.6782Z" fill="#DA2929"/>
<path d="M38.6782 97.2578C34.1855 97.2578 30.7642 95.9167 27.9806 92.1648C24.6405 87.6629 26.7 80.3022 28.1512 75.5457C29.137 72.3145 30.0041 69.0571 30.588 65.7253C30.7709 64.6814 31.1204 62.9505 30.5636 61.9483C30.245 61.3748 29.8431 61.3013 30.4418 61.7289C32.5416 63.2288 34.5352 64.8067 36.4607 66.5295C37.3657 67.3392 40.5094 71.1069 40.8714 68.8445C41.3708 65.7228 42.3611 62.7329 42.967 59.6333C43.6098 56.3451 43.5031 53.0234 43.5031 49.691C43.5031 42.9469 44.3287 36.8551 45.477 30.2209C45.7896 28.4143 46.0436 26.7093 46.1349 24.8842C46.1839 23.9037 46.964 25.2259 47.134 25.3959C51.623 29.885 55.8827 33.3077 58.7576 39.164C58.9453 39.5463 59.4387 41.5285 59.7567 40.3093C60.6015 37.0711 62.3462 34.1257 63.5825 31.025C66.181 24.5083 69.6368 17.5846 69.8208 10.4095C69.8603 8.86669 69.4465 4.2823 69.8208 5.77954C72.1408 15.0594 77.0145 24.3218 81.1276 32.9257C83.0277 36.9003 84.9416 40.9005 87.0978 44.7443C87.6472 45.7235 88.6197 46.951 88.6818 48.1315C88.7399 49.2357 87.959 52.3891 88.5356 51.4456C90.8112 47.7217 95.5393 45.308 98.2341 41.747C98.6769 41.1619 99.1686 40.5626 99.2088 39.7976C99.2163 39.6565 99.1146 38.4294 99.4282 38.5548C100.234 38.8771 100.447 43.7432 100.525 44.3788C100.952 47.8707 100.963 51.3466 100.963 54.8571C100.963 57.471 100.213 59.7985 103.376 56.636C104.829 55.1827 106.34 53.4754 107.445 51.738C107.908 51.0106 108.277 49.9454 108.639 51.2506C109.43 54.0973 108.859 57.6735 108.859 60.6324C108.859 63.5975 109.13 66.6954 108.834 69.6486C108.544 72.554 108.938 77.8988 107.445 80.3418C106.097 82.5489 109.07 87.4551 107.445 89.4861C105.155 92.3486 98.2006 94.9271 95.3031 97.2578C92.099 99.8349 86.4498 96.3049 82.6385 97.2578C79.0042 98.1663 74.7199 97.8811 71.0392 97.3553C67.1048 96.7932 63.2309 97.1198 59.2937 96.7217C55.309 96.3187 51.5774 95.9419 47.5483 95.9419C46.5386 95.9419 44.4586 95.5617 43.5031 96.0394C42.3635 96.6092 42.2209 97.2578 40.8714 97.2578C39.8479 97.2578 38.8244 97.2578 37.801 97.2578" stroke="#8C0707" stroke-width="3" stroke-linecap="round"/>
<rect x="27.3496" y="91.6672" width="3.3557" height="3.3557" fill="#8C0707"/>
<rect x="34.0615" y="95.0229" width="3.3557" height="3.3557" fill="#8C0707"/>
<rect x="30.7051" y="95.0229" width="3.3557" height="3.3557" fill="#8C0707"/>
<rect x="37.416" y="95.0229" width="3.3557" height="3.3557" fill="#8C0707"/>
<rect x="27.3496" y="74.8887" width="3.3557" height="3.3557" fill="#8C0707"/>
<rect x="23.9941" y="78.2446" width="3.3557" height="3.3557" fill="#8C0707"/>
<rect x="23.9941" y="81.6001" width="3.3557" height="3.3557" fill="#8C0707"/>
<rect x="23.9941" y="84.9558" width="3.3557" height="3.3557" fill="#8C0707"/>
<rect x="23.9941" y="88.3115" width="3.3557" height="3.3557" fill="#8C0707"/>
<rect x="27.3496" y="64.8218" width="3.3557" height="3.3557" fill="#8C0707"/>
<rect x="27.3496" y="68.1775" width="3.3557" height="3.3557" fill="#8C0707"/>
<rect x="27.3496" y="71.533" width="3.3557" height="3.3557" fill="#8C0707"/>
<rect x="30.7051" y="61.4658" width="3.3557" height="3.3557" fill="#8C0707"/>
<rect x="27.3496" y="61.4658" width="3.3557" height="3.3557" fill="#8C0707"/>
<rect x="34.0615" y="64.8218" width="3.3557" height="3.3557" fill="#8C0707"/>
<rect x="37.416" y="68.1775" width="3.3557" height="3.3557" fill="#8C0707"/>
<rect x="40.7725" y="68.1775" width="3.3557" height="3.3557" fill="#8C0707"/>
<rect x="40.7725" y="58.1104" width="3.3557" height="3.3557" fill="#8C0707"/>
<rect x="40.7725" y="61.4658" width="3.3557" height="3.3557" fill="#8C0707"/>
<rect x="40.7725" y="64.8218" width="3.3557" height="3.3557" fill="#8C0707"/>
<rect x="40.7725" y="48.0432" width="3.3557" height="3.3557" fill="#8C0707"/>
<rect x="40.7725" y="51.3989" width="3.3557" height="3.3557" fill="#8C0707"/>
<rect x="40.7725" y="54.7546" width="3.3557" height="3.3557" fill="#8C0707"/>
<rect x="44.1289" y="31.2646" width="3.3557" height="3.3557" fill="#8C0707"/>
<rect x="44.1289" y="34.6204" width="3.3557" height="3.3557" fill="#8C0707"/>
<rect x="40.7725" y="37.9761" width="3.3557" height="3.3557" fill="#8C0707"/>
<rect x="40.7725" y="41.3318" width="3.3557" height="3.3557" fill="#8C0707"/>
<rect x="40.7725" y="44.6875" width="3.3557" height="3.3557" fill="#8C0707"/>
<rect x="44.1289" y="27.9089" width="3.3557" height="3.3557" fill="#8C0707"/>
<rect x="44.1289" y="24.5532" width="3.3557" height="3.3557" fill="#8C0707"/>
<rect x="47.4834" y="24.5532" width="3.3557" height="3.3557" fill="#8C0707"/>
<rect x="50.8398" y="27.9089" width="3.3557" height="3.3557" fill="#8C0707"/>
<rect x="54.1953" y="31.2646" width="3.3557" height="3.3557" fill="#8C0707"/>
<rect x="54.1953" y="34.6204" width="3.3557" height="3.3557" fill="#8C0707"/>
<rect x="57.5508" y="37.9761" width="3.3557" height="3.3557" fill="#8C0707"/>
<rect x="60.9062" y="31.2646" width="3.3557" height="3.3557" fill="#8C0707"/>
<rect x="60.9062" y="34.6204" width="3.3557" height="3.3557" fill="#8C0707"/>
<rect x="60.9062" y="27.9089" width="3.3557" height="3.3557" fill="#8C0707"/>
<rect x="67.6182" y="11.1304" width="3.3557" height="3.3557" fill="#8C0707"/>
<rect x="67.6182" y="14.4861" width="3.3557" height="3.3557" fill="#8C0707"/>
<rect x="67.6182" y="17.8418" width="3.3557" height="3.3557" fill="#8C0707"/>
<rect x="64.2627" y="21.1975" width="3.3557" height="3.3557" fill="#8C0707"/>
<rect x="64.2627" y="24.5532" width="3.3557" height="3.3557" fill="#8C0707"/>
<rect x="67.6182" y="7.77466" width="3.3557" height="3.3557" fill="#8C0707"/>
<rect x="67.6182" y="4.41895" width="3.3557" height="3.3557" fill="#8C0707"/>
<rect x="70.9736" y="11.1304" width="3.3557" height="3.3557" fill="#8C0707"/>
<rect x="70.9736" y="14.4861" width="3.3557" height="3.3557" fill="#8C0707"/>
<rect x="74.3301" y="17.8418" width="3.3557" height="3.3557" fill="#8C0707"/>
<rect x="74.3301" y="21.1975" width="3.3557" height="3.3557" fill="#8C0707"/>
<rect x="77.6855" y="24.5532" width="3.3557" height="3.3557" fill="#8C0707"/>
<rect x="77.6855" y="27.9089" width="3.3557" height="3.3557" fill="#8C0707"/>
<rect x="81.041" y="31.2646" width="3.3557" height="3.3557" fill="#8C0707"/>
<rect x="81.041" y="34.6204" width="3.3557" height="3.3557" fill="#8C0707"/>
<rect x="84.3965" y="37.9761" width="3.3557" height="3.3557" fill="#8C0707"/>
<rect x="84.3965" y="41.3318" width="3.3557" height="3.3557" fill="#8C0707"/>
<rect x="84.3965" y="44.6875" width="3.3557" height="3.3557" fill="#8C0707"/>
<rect x="87.752" y="44.6875" width="3.3557" height="3.3557" fill="#8C0707"/>
<rect x="87.752" y="48.0432" width="3.3557" height="3.3557" fill="#8C0707"/>
<rect x="87.752" y="51.3989" width="3.3557" height="3.3557" fill="#8C0707"/>
<rect x="94.4648" y="41.3318" width="3.3557" height="3.3557" fill="#8C0707"/>
<rect x="91.1074" y="44.6875" width="3.3557" height="3.3557" fill="#8C0707"/>
<rect x="97.8203" y="41.3318" width="3.3557" height="3.3557" fill="#8C0707"/>
<rect x="97.8203" y="37.9761" width="3.3557" height="3.3557" fill="#8C0707"/>
<rect x="97.8203" y="44.6875" width="3.3557" height="3.3557" fill="#8C0707"/>
<rect x="97.8203" y="48.0432" width="3.3557" height="3.3557" fill="#8C0707"/>
<rect x="97.8203" y="51.3989" width="3.3557" height="3.3557" fill="#8C0707"/>
<rect x="97.8203" y="54.7546" width="3.3557" height="3.3557" fill="#8C0707"/>
<rect x="101.176" y="54.7546" width="3.3557" height="3.3557" fill="#8C0707"/>
<rect x="104.531" y="51.3989" width="3.3557" height="3.3557" fill="#8C0707"/>
<rect x="107.887" y="48.0432" width="3.3557" height="3.3557" fill="#8C0707"/>
<rect x="107.887" y="51.3989" width="3.3557" height="3.3557" fill="#8C0707"/>
<rect x="107.887" y="54.7546" width="3.3557" height="3.3557" fill="#8C0707"/>
<rect x="107.887" y="58.1104" width="3.3557" height="3.3557" fill="#8C0707"/>
<rect x="107.887" y="61.4658" width="3.3557" height="3.3557" fill="#8C0707"/>
<rect x="107.887" y="64.8218" width="3.3557" height="3.3557" fill="#8C0707"/>
<rect x="107.887" y="68.1775" width="3.3557" height="3.3557" fill="#8C0707"/>
<rect x="107.887" y="71.533" width="3.3557" height="3.3557" fill="#8C0707"/>
<rect x="107.887" y="74.8887" width="3.3557" height="3.3557" fill="#8C0707"/>
<rect x="104.531" y="78.2446" width="3.3557" height="3.3557" fill="#8C0707"/>
<rect x="104.531" y="81.6001" width="3.3557" height="3.3557" fill="#8C0707"/>
<rect x="104.531" y="84.9558" width="3.3557" height="3.3557" fill="#8C0707"/>
<rect x="104.531" y="88.3115" width="3.3557" height="3.3557" fill="#8C0707"/>
<rect x="101.176" y="91.6672" width="3.3557" height="3.3557" fill="#8C0707"/>
<rect x="94.4648" y="95.0229" width="3.3557" height="3.3557" fill="#8C0707"/>
<rect x="97.8203" y="91.6672" width="3.3557" height="3.3557" fill="#8C0707"/>
<rect x="81.041" y="95.0229" width="3.3557" height="3.3557" fill="#8C0707"/>
<rect x="84.3965" y="95.0229" width="3.3557" height="3.3557" fill="#8C0707"/>
<rect x="87.752" y="95.0229" width="3.3557" height="3.3557" fill="#8C0707"/>
<rect x="91.1074" y="95.0229" width="3.3557" height="3.3557" fill="#8C0707"/>
<rect x="70.9736" y="95.0229" width="3.3557" height="3.3557" fill="#8C0707"/>
<rect x="74.3301" y="95.0229" width="3.3557" height="3.3557" fill="#8C0707"/>
<rect x="77.6855" y="95.0229" width="3.3557" height="3.3557" fill="#8C0707"/>
<rect x="60.9062" y="95.0229" width="3.3557" height="3.3557" fill="#8C0707"/>
<rect x="64.2627" y="95.0229" width="3.3557" height="3.3557" fill="#8C0707"/>
<rect x="67.6182" y="95.0229" width="3.3557" height="3.3557" fill="#8C0707"/>
<rect x="57.5508" y="95.0229" width="3.3557" height="3.3557" fill="#8C0707"/>
<rect x="47.4834" y="95.0229" width="3.3557" height="3.3557" fill="#8C0707"/>
<rect x="50.8398" y="95.0229" width="3.3557" height="3.3557" fill="#8C0707"/>
<rect x="54.1953" y="95.0229" width="3.3557" height="3.3557" fill="#8C0707"/>
<rect x="44.1289" y="95.0229" width="3.3557" height="3.3557" fill="#8C0707"/>
<rect x="40.7725" y="95.0229" width="3.3557" height="3.3557" fill="#8C0707"/>
<path d="M50.8888 92.4273C46.5413 92.4273 42.1695 92.202 38.0881 90.5106C36.7252 89.9458 33.6387 88.3011 33.6387 86.4206C33.6387 83.685 33.9467 80.9803 33.9467 78.2576" stroke="#DB1E1E" stroke-width="3" stroke-linecap="round"/>
<path d="M39.6339 82.799C41.2808 85.0635 39.0613 91.8419 42.9997 91.8419C45.3257 91.8419 48.611 94.2243 51.0288 94.7616C53.8819 95.3956 56.3739 95.8565 59.3418 95.8565C61.8312 95.8565 64.2536 96.5864 66.7423 96.5864H79.1307C83.8305 96.5864 86.9126 95.9318 90.9919 93.4842C94.3451 91.4723 97.4815 89.5286 99.8523 86.3675C101.821 83.7428 100.597 78.4455 100.298 75.4593C100.273 75.208 99.7529 72.1266 99.5685 72.3571C99.2156 72.7981 98.907 73.4976 98.656 73.9994C97.278 76.7556 97.3513 80.4454 94.5401 82.353C91.863 84.1695 92.2045 78.1927 91.6204 76.8786C90.5777 74.5323 90.8094 70.2496 90.8094 67.7546V60.354C90.8094 59.6692 90.7752 59.0683 90.0795 59.7254C86.155 63.4319 85.659 69.2938 83.1453 73.8778C82.2052 75.592 81.7785 75.7671 80.8744 73.9589C80.0808 72.3718 79.8197 70.2087 79.2929 68.4845C77.736 63.3893 75.133 58.5628 73.3724 53.5211C72.3449 50.5786 71.8507 47.493 70.8177 44.5593C70.8131 44.5463 70.2207 42.4619 70.027 43.14C68.1003 49.8832 64.7679 55.8922 61.9979 62.4018C61.0068 64.7308 60.6584 66.2947 58.0441 66.2947C55.8787 66.2947 53.792 64.6379 52.3264 63.1723C51.7023 62.5482 50.2989 61.2846 50.2989 60.3134V61.9355C50.2989 63.8787 51.358 65.424 51.3937 67.3896C51.4796 72.1113 50.4481 76.2719 49.5892 80.8526C49.282 82.4912 49.1639 83.5165 47.2981 83.0018C45.689 82.5579 43.9854 82.3604 42.3508 81.988C41.2054 81.727 39.658 80.9337 38.4985 80.9337C37.7706 80.9337 39.2058 82.2103 39.6339 82.799Z" fill="#FFC277" stroke="#FFC277" stroke-width="3" stroke-linecap="round"/>
<rect x="38.8174" y="83.7634" width="3.07878" height="3.07878" fill="#FFC277"/>
<rect x="38.8174" y="86.8423" width="3.07878" height="3.07878" fill="#FFC277"/>
<rect x="38.8174" y="89.9209" width="3.07878" height="3.07878" fill="#FFC277"/>
<rect x="41.8965" y="89.9209" width="3.07878" height="3.07878" fill="#FFC277"/>
<rect x="38.8174" y="80.6846" width="3.07878" height="3.07878" fill="#FFC277"/>
<rect x="35.7393" y="80.6846" width="3.07878" height="3.07878" fill="#FFC277"/>
<rect x="41.8965" y="80.6846" width="3.07878" height="3.07878" fill="#FFC277"/>
<rect x="44.9746" y="80.6846" width="3.07878" height="3.07878" fill="#FFC277"/>
<rect x="48.0547" y="80.6846" width="3.07878" height="3.07878" fill="#FFC277"/>
<rect x="51.1328" y="68.3694" width="3.07878" height="3.07878" fill="#FFC277"/>
<rect x="48.0547" y="71.4482" width="3.07878" height="3.07878" fill="#FFC277"/>
<rect x="48.0547" y="74.5271" width="3.07878" height="3.07878" fill="#FFC277"/>
<rect x="48.0547" y="77.606" width="3.07878" height="3.07878" fill="#FFC277"/>
<rect x="51.1328" y="65.2908" width="3.07878" height="3.07878" fill="#FFC277"/>
<rect x="48.0547" y="62.2119" width="3.07878" height="3.07878" fill="#FFC277"/>
<rect x="48.0547" y="59.1331" width="3.07878" height="3.07878" fill="#FFC277"/>
<rect x="51.1328" y="62.2119" width="3.07878" height="3.07878" fill="#FFC277"/>
<rect x="54.2119" y="65.2908" width="3.07878" height="3.07878" fill="#FFC277"/>
<rect x="57.29" y="65.2908" width="3.07878" height="3.07878" fill="#FFC277"/>
<rect x="60.3691" y="62.2119" width="3.07878" height="3.07878" fill="#FFC277"/>
<rect x="66.5264" y="43.7393" width="3.07878" height="3.07878" fill="#FFC277"/>
<rect x="66.5264" y="46.8179" width="3.07878" height="3.07878" fill="#FFC277"/>
<rect x="66.5264" y="49.8967" width="3.07878" height="3.07878" fill="#FFC277"/>
<rect x="63.4482" y="52.9756" width="3.07878" height="3.07878" fill="#FFC277"/>
<rect x="63.4482" y="56.0544" width="3.07878" height="3.07878" fill="#FFC277"/>
<rect x="60.3691" y="59.1331" width="3.07878" height="3.07878" fill="#FFC277"/>
<rect x="69.6055" y="40.6604" width="3.07878" height="3.07878" fill="#FFC277"/>
<rect x="69.6055" y="43.7393" width="3.07878" height="3.07878" fill="#FFC277"/>
<rect x="69.6055" y="46.8179" width="3.07878" height="3.07878" fill="#FFC277"/>
<rect x="72.6836" y="49.8967" width="3.07878" height="3.07878" fill="#FFC277"/>
<rect x="72.6836" y="52.9756" width="3.07878" height="3.07878" fill="#FFC277"/>
<rect x="72.6836" y="56.0544" width="3.07878" height="3.07878" fill="#FFC277"/>
<rect x="75.7637" y="59.1331" width="3.07878" height="3.07878" fill="#FFC277"/>
<rect x="75.7637" y="62.2119" width="3.07878" height="3.07878" fill="#FFC277"/>
<rect x="75.7637" y="65.2908" width="3.07878" height="3.07878" fill="#FFC277"/>
<rect x="78.8418" y="68.3694" width="3.07878" height="3.07878" fill="#FFC277"/>
<rect x="78.8418" y="71.4482" width="3.07878" height="3.07878" fill="#FFC277"/>
<rect x="81.9199" y="71.4482" width="3.07878" height="3.07878" fill="#FFC277"/>
<rect x="88.0781" y="59.1331" width="3.07878" height="3.07878" fill="#FFC277"/>
<rect x="85" y="62.2119" width="3.07878" height="3.07878" fill="#FFC277"/>
<rect x="85" y="65.2908" width="3.07878" height="3.07878" fill="#FFC277"/>
<rect x="81.9199" y="68.3694" width="3.07878" height="3.07878" fill="#FFC277"/>
<rect x="88.0781" y="62.2119" width="3.07878" height="3.07878" fill="#FFC277"/>
<rect x="88.0781" y="65.2908" width="3.07878" height="3.07878" fill="#FFC277"/>
<rect x="88.0781" y="68.3694" width="3.07878" height="3.07878" fill="#FFC277"/>
<rect x="88.0781" y="71.4482" width="3.07878" height="3.07878" fill="#FFC277"/>
<rect x="91.1562" y="74.5271" width="3.07878" height="3.07878" fill="#FFC277"/>
<rect x="91.1562" y="77.606" width="3.07878" height="3.07878" fill="#FFC277"/>
<rect x="91.1562" y="80.6846" width="3.07878" height="3.07878" fill="#FFC277"/>
<rect x="94.2363" y="80.6846" width="3.07878" height="3.07878" fill="#FFC277"/>
<rect x="97.3145" y="74.5271" width="3.07878" height="3.07878" fill="#FFC277"/>
<rect x="94.2363" y="77.606" width="3.07878" height="3.07878" fill="#FFC277"/>
<rect x="97.3145" y="71.4482" width="3.07878" height="3.07878" fill="#FFC277"/>
<rect x="100.395" y="77.606" width="3.07878" height="3.07878" fill="#FFC277"/>
<rect x="100.395" y="80.6846" width="3.07878" height="3.07878" fill="#FFC277"/>
<rect x="100.395" y="83.7634" width="3.07878" height="3.07878" fill="#FFC277"/>
<rect x="97.3145" y="83.7634" width="3.07878" height="3.07878" fill="#FFC277"/>
<rect x="97.3145" y="86.8423" width="3.07878" height="3.07878" fill="#FFC277"/>
<rect x="91.1562" y="89.9209" width="3.07878" height="3.07878" fill="#FFC277"/>
<rect x="94.2363" y="89.9209" width="3.07878" height="3.07878" fill="#FFC277"/>
<rect x="88.0781" y="92.9998" width="3.07878" height="3.07878" fill="#FFC277"/>
<rect x="78.8418" y="96.0786" width="3.07878" height="3.07878" fill="#FFC277"/>
<rect x="81.9199" y="96.0786" width="3.07878" height="3.07878" fill="#FFC277"/>
<rect x="85" y="92.9998" width="3.07878" height="3.07878" fill="#FFC277"/>
<rect x="66.5264" y="96.0786" width="3.07878" height="3.07878" fill="#FFC277"/>
<rect x="69.6055" y="96.0786" width="3.07878" height="3.07878" fill="#FFC277"/>
<rect x="72.6836" y="96.0786" width="3.07878" height="3.07878" fill="#FFC277"/>
<rect x="75.7637" y="96.0786" width="3.07878" height="3.07878" fill="#FFC277"/>
<rect x="60.3691" y="92.9998" width="3.07878" height="3.07878" fill="#FFC277"/>
<rect x="63.4482" y="96.0786" width="3.07878" height="3.07878" fill="#FFC277"/>
<rect x="57.29" y="92.9998" width="3.07878" height="3.07878" fill="#FFC277"/>
<rect x="51.1328" y="92.9998" width="3.07878" height="3.07878" fill="#FFC277"/>
<rect x="54.2119" y="92.9998" width="3.07878" height="3.07878" fill="#FFC277"/>
<rect x="48.0547" y="92.9998" width="3.07878" height="3.07878" fill="#FFC277"/>
<rect x="44.9746" y="89.9209" width="3.07878" height="3.07878" fill="#FFC277"/>
<path d="M57.8445 95.693H67.3656C67.5338 95.9457 67.2862 95.3589 67.3656 96.7086C67.3971 97.2438 67.8863 97.3704 68.1838 97.6678C69.1167 98.6007 72.5103 97.9781 73.7131 97.9781C75.8419 97.9781 78.1412 97.0398 80.0606 96.1867C82.6393 95.0406 85.4123 93.9643 87.6775 92.2654C89.3573 91.0055 91.1941 89.3658 92.1207 87.4413C92.2572 87.1579 93.7905 84.5674 93.0094 84.5215C91.9996 84.4621 90.932 85.2078 90.1601 85.791C88.8823 86.7564 88.3999 86.6036 87.2261 85.791C86.2293 85.1009 85.9129 83.7191 85.0116 82.9981C84.4428 82.5431 84.2191 80.4737 84.1229 79.8244C84.0717 79.4782 83.8093 76.5641 83.3048 77.9766C82.9199 79.0543 82.611 81.3986 81.2736 81.6722C79.937 81.9456 78.1277 81.8665 76.7599 81.7145C74.391 81.4513 72.1877 79.4113 71.1741 77.3841C69.8256 74.6872 68.8974 71.7534 67.7606 68.9632C67.4775 68.2683 67.1226 67.6015 66.6604 68.5259C65.9629 69.9207 65.9922 71.8328 65.5319 73.35C65.2083 74.4167 64.0665 78.0893 62.5416 78.174C61.6205 78.2252 55.9375 74.8314 56.5891 76.693C57.0456 77.9975 61.1457 88.475 58.7049 88.8237C56.2436 89.1753 53.7719 89.0917 51.2854 89.0917C51.0023 89.0917 49.3359 88.7429 49.1414 88.8942C49.0496 88.9656 49.332 89.2288 49.3389 89.3456C49.4646 91.4837 49.7365 93.8541 51.638 95.1852C53.1622 96.2522 56.1047 95.693 57.8445 95.693Z" fill="#FFDD77" stroke="#F28C0E" stroke-width="3" stroke-linecap="round"/>
<rect x="57.7188" y="93.8484" width="3.3557" height="3.3557" fill="#F28C0E"/>
<rect x="61.0742" y="93.8484" width="3.3557" height="3.3557" fill="#F28C0E"/>
<rect x="64.4307" y="93.8484" width="3.3557" height="3.3557" fill="#F28C0E"/>
<rect x="51.0078" y="93.8484" width="3.3557" height="3.3557" fill="#F28C0E"/>
<rect x="54.3633" y="93.8484" width="3.3557" height="3.3557" fill="#F28C0E"/>
<rect x="47.6514" y="90.4927" width="3.3557" height="3.3557" fill="#F28C0E"/>
<rect x="47.6514" y="87.137" width="3.3557" height="3.3557" fill="#F28C0E"/>
<rect x="51.0078" y="87.137" width="3.3557" height="3.3557" fill="#F28C0E"/>
<rect x="54.3633" y="87.137" width="3.3557" height="3.3557" fill="#F28C0E"/>
<rect x="57.7188" y="87.137" width="3.3557" height="3.3557" fill="#F28C0E"/>
<rect x="54.3633" y="77.0698" width="3.3557" height="3.3557" fill="#F28C0E"/>
<rect x="57.7188" y="80.4255" width="3.3557" height="3.3557" fill="#F28C0E"/>
<rect x="57.7188" y="83.7812" width="3.3557" height="3.3557" fill="#F28C0E"/>
<rect x="54.3633" y="73.7141" width="3.3557" height="3.3557" fill="#F28C0E"/>
<rect x="57.7188" y="73.7141" width="3.3557" height="3.3557" fill="#F28C0E"/>
<rect x="61.0742" y="77.0698" width="3.3557" height="3.3557" fill="#F28C0E"/>
<rect x="64.4307" y="73.7141" width="3.3557" height="3.3557" fill="#F28C0E"/>
<rect x="64.4307" y="70.3584" width="3.3557" height="3.3557" fill="#F28C0E"/>
<rect x="64.4307" y="67.0027" width="3.3557" height="3.3557" fill="#F28C0E"/>
<rect x="67.7852" y="70.3584" width="3.3557" height="3.3557" fill="#F28C0E"/>
<rect x="67.7852" y="73.7141" width="3.3557" height="3.3557" fill="#F28C0E"/>
<rect x="71.1416" y="77.0698" width="3.3557" height="3.3557" fill="#F28C0E"/>
<rect x="74.4961" y="80.4255" width="3.3557" height="3.3557" fill="#F28C0E"/>
<rect x="77.8535" y="80.4255" width="3.3557" height="3.3557" fill="#F28C0E"/>
<rect x="81.209" y="80.4255" width="3.3557" height="3.3557" fill="#F28C0E"/>
<rect x="81.209" y="77.0698" width="3.3557" height="3.3557" fill="#F28C0E"/>
<rect x="84.5645" y="80.4255" width="3.3557" height="3.3557" fill="#F28C0E"/>
<rect x="84.5645" y="83.7812" width="3.3557" height="3.3557" fill="#F28C0E"/>
<rect x="87.9199" y="83.7812" width="3.3557" height="3.3557" fill="#F28C0E"/>
<rect x="91.2754" y="83.7812" width="3.3557" height="3.3557" fill="#F28C0E"/>
<rect x="91.2754" y="87.137" width="3.3557" height="3.3557" fill="#F28C0E"/>
<rect x="84.5645" y="90.4927" width="3.3557" height="3.3557" fill="#F28C0E"/>
<rect x="87.9199" y="90.4927" width="3.3557" height="3.3557" fill="#F28C0E"/>
<rect x="81.209" y="93.8484" width="3.3557" height="3.3557" fill="#F28C0E"/>
<rect x="77.8535" y="93.8484" width="3.3557" height="3.3557" fill="#F28C0E"/>
<rect x="74.4961" y="97.2041" width="3.3557" height="3.3557" fill="#F28C0E"/>
<rect x="71.1416" y="97.2041" width="3.3557" height="3.3557" fill="#F28C0E"/>
<rect x="67.7852" y="97.2041" width="3.3557" height="3.3557" fill="#F28C0E"/>
<path d="M49.9447 42.2748V34.802L49.9297 34.757C49.3143 32.9111 48.8454 31.5044 48.8743 29.4502C48.8855 28.6565 48.9984 25.002 49.9447 27.1311C51.9181 31.5713 54.6545 35.8047 54.9199 40.8476C55.0055 42.4752 55.0607 47.1978 52.3629 46.2985C50.1796 45.5707 49.9447 44.4447 49.9447 42.2748Z" fill="#FFDD77" stroke="#FFDD77" stroke-width="3" stroke-linecap="round"/>
<rect x="47.4834" y="34.6204" width="3.3557" height="3.3557" fill="#FFDD77"/>
<rect x="47.4834" y="37.9761" width="3.3557" height="3.3557" fill="#FFDD77"/>
<rect x="47.4834" y="41.3318" width="3.3557" height="3.3557" fill="#FFDD77"/>
<rect x="50.8398" y="44.6875" width="3.3557" height="3.3557" fill="#FFDD77"/>
<rect x="54.1953" y="41.3318" width="3.3557" height="3.3557" fill="#FFDD77"/>
<rect x="54.1953" y="37.9761" width="3.3557" height="3.3557" fill="#FFDD77"/>
<rect x="50.8398" y="27.9089" width="3.3557" height="3.3557" fill="#FFDD77"/>
<rect x="50.8398" y="31.2646" width="3.3557" height="3.3557" fill="#FFDD77"/>
<rect x="50.8398" y="34.6204" width="3.3557" height="3.3557" fill="#FFDD77"/>
<rect x="47.4834" y="24.5532" width="3.3557" height="3.3557" fill="#FFDD77"/>
<rect x="47.4834" y="27.9089" width="3.3557" height="3.3557" fill="#FFDD77"/>
<rect x="47.4834" y="31.2646" width="3.3557" height="3.3557" fill="#FFDD77"/>
<path d="M80.9844 38.0265C80.9844 37.169 81.0346 37.0212 81.1134 37.3561C81.6866 36.0502 84.0028 36.4123 84.6315 37.6697C85.1895 38.7857 85.2658 39.6106 85.2658 40.861C85.2658 42.3887 86.3362 43.8412 86.3362 45.519C86.3362 48.5014 85.5473 51.5286 84.354 54.2405C84.2307 54.5209 82.673 57.4559 82.134 56.857C81.2294 55.8518 82.0547 50.3955 82.0547 49.186C82.0547 46.0859 81.398 38.5668 81.1134 37.3561C81.0308 37.5442 80.9844 37.7669 80.9844 38.0265Z" fill="#FFC277" stroke="#FFC277" stroke-width="3" stroke-linecap="round"/>
<rect x="77.6836" y="35.627" width="3.3557" height="3.3557" fill="#FFC277"/>
<rect x="81.0391" y="35.627" width="3.3557" height="3.3557" fill="#FFC277"/>
<rect x="81.0391" y="38.9827" width="3.3557" height="3.3557" fill="#FFC277"/>
<rect x="81.0391" y="42.3384" width="3.3557" height="3.3557" fill="#FFC277"/>
<rect x="81.0391" y="45.6941" width="3.3557" height="3.3557" fill="#FFC277"/>
<rect x="81.0391" y="49.0498" width="3.3557" height="3.3557" fill="#FFC277"/>
<rect x="81.0391" y="52.4055" width="3.3557" height="3.3557" fill="#FFC277"/>
<rect x="81.0391" y="55.7612" width="3.3557" height="3.3557" fill="#FFC277"/>
<rect x="84.3945" y="45.6941" width="3.3557" height="3.3557" fill="#FFC277"/>
<rect x="84.3945" y="49.0498" width="3.3557" height="3.3557" fill="#FFC277"/>
<rect x="84.3945" y="52.4055" width="3.3557" height="3.3557" fill="#FFC277"/>
<rect x="84.3945" y="42.3384" width="3.3557" height="3.3557" fill="#FFC277"/>
<rect x="84.3945" y="38.9827" width="3.3557" height="3.3557" fill="#FFC277"/>
<rect x="84.3945" y="35.627" width="3.3557" height="3.3557" fill="#FFC277"/>
<path d="M98.4868 66.3779C95.4014 68.1135 95.9695 66.0025 95.9695 64.0588C95.9695 62.9635 94.9244 57.9733 95.7911 57.2799C96.8092 56.4654 98.6418 53.5186 100.172 55.2184C101.475 56.6661 101.012 60.181 100.788 61.8804L100.786 61.8983C100.491 64.1408 100.472 65.2612 98.4868 66.3779Z" fill="#FFDD77" stroke="#FFDD77" stroke-width="3" stroke-linecap="round"/>
<rect x="97.8184" y="64.8218" width="3.3557" height="3.3557" fill="#FFDD77"/>
<rect x="94.4629" y="64.8218" width="3.3557" height="3.3557" fill="#FFDD77"/>
<rect x="94.4629" y="61.4661" width="3.3557" height="3.3557" fill="#FFDD77"/>
<rect x="97.8184" y="61.4661" width="3.3557" height="3.3557" fill="#FFDD77"/>
<rect x="97.8184" y="54.7546" width="3.3557" height="3.3557" fill="#FFDD77"/>
<rect x="97.8184" y="58.1104" width="3.3557" height="3.3557" fill="#FFDD77"/>
<rect x="94.4629" y="54.7546" width="3.3557" height="3.3557" fill="#FFDD77"/>
<rect x="97.8184" y="51.3989" width="3.3557" height="3.3557" fill="#FFDD77"/>
<rect x="94.4629" y="58.1104" width="3.3557" height="3.3557" fill="#FFDD77"/>
<path d="M20.739 105.541C19.4602 106.045 18.7016 106.911 17.3016 107.067C14.7312 107.067 14.9856 108.667 14.9856 110.706C14.9856 112.744 13.2193 120.148 15.9782 120.302C17.1327 120.366 18.0328 121.439 19.1214 121.607C20.9514 121.888 22.9792 121.076 24.7277 120.632C35.1189 117.998 45.7862 116.81 56.16 113.831C61.7768 112.219 67.0527 109.891 72.4827 107.802C73.798 107.296 72.5693 102.045 72.3908 101.093C71.7722 97.7939 70.7207 95.6945 68.9902 92.9133C68.1952 91.6356 67.6008 90.3032 65.9205 91.0383C64.207 91.788 62.6215 92.8485 61.3068 94.1632C60.0246 95.4454 57.8389 95.6435 56.1416 95.983C48.8915 97.433 41.6249 99.3541 34.4331 101.111C29.7593 102.253 25.2148 103.78 20.739 105.541Z" fill="#813014" stroke="#371F00" stroke-width="3" stroke-linecap="round"/>
<rect x="17.1133" y="105.09" width="3.3557" height="3.3557" fill="#371F00"/>
<rect x="20.4688" y="105.09" width="3.3557" height="3.3557" fill="#371F00"/>
<rect x="23.8252" y="101.734" width="3.3557" height="3.3557" fill="#371F00"/>
<rect x="20.4688" y="101.734" width="3.3557" height="3.3557" fill="#371F00"/>
<rect x="27.1797" y="101.734" width="3.3557" height="3.3557" fill="#371F00"/>
<rect x="30.5361" y="98.3787" width="3.3557" height="3.3557" fill="#371F00"/>
<rect x="33.8926" y="98.3787" width="3.3557" height="3.3557" fill="#371F00"/>
<rect x="50.6699" y="95.0229" width="3.3557" height="3.3557" fill="#371F00"/>
<rect x="37.2471" y="98.3787" width="3.3557" height="3.3557" fill="#371F00"/>
<rect x="40.6035" y="98.3787" width="3.3557" height="3.3557" fill="#371F00"/>
<rect x="43.959" y="95.0229" width="3.3557" height="3.3557" fill="#371F00"/>
<rect x="47.3145" y="95.0229" width="3.3557" height="3.3557" fill="#371F00"/>
<rect x="54.0264" y="95.0229" width="3.3557" height="3.3557" fill="#371F00"/>
<rect x="57.3818" y="95.0229" width="3.3557" height="3.3557" fill="#371F00"/>
<rect x="60.7373" y="91.6672" width="3.3557" height="3.3557" fill="#371F00"/>
<rect x="64.0938" y="88.3115" width="3.3557" height="3.3557" fill="#371F00"/>
<rect x="67.4492" y="91.6672" width="3.3557" height="3.3557" fill="#371F00"/>
<rect x="70.8047" y="95.0229" width="3.3557" height="3.3557" fill="#371F00"/>
<rect x="70.8047" y="98.3787" width="3.3557" height="3.3557" fill="#371F00"/>
<rect x="70.8047" y="101.734" width="3.3557" height="3.3557" fill="#371F00"/>
<rect x="70.8047" y="105.09" width="3.3557" height="3.3557" fill="#371F00"/>
<rect x="64.0938" y="108.446" width="3.3557" height="3.3557" fill="#371F00"/>
<rect x="54.0264" y="111.802" width="3.3557" height="3.3557" fill="#371F00"/>
<rect x="57.3818" y="111.802" width="3.3557" height="3.3557" fill="#371F00"/>
<rect x="60.7373" y="108.446" width="3.3557" height="3.3557" fill="#371F00"/>
<rect x="67.4492" y="108.446" width="3.3557" height="3.3557" fill="#371F00"/>
<rect x="40.6035" y="115.157" width="3.3557" height="3.3557" fill="#371F00"/>
<rect x="23.8252" y="118.513" width="3.3557" height="3.3557" fill="#371F00"/>
<rect x="27.1797" y="118.513" width="3.3557" height="3.3557" fill="#371F00"/>
<rect x="30.5361" y="118.513" width="3.3557" height="3.3557" fill="#371F00"/>
<rect x="33.8926" y="115.157" width="3.3557" height="3.3557" fill="#371F00"/>
<rect x="37.2471" y="115.157" width="3.3557" height="3.3557" fill="#371F00"/>
<rect x="43.959" y="115.157" width="3.3557" height="3.3557" fill="#371F00"/>
<rect x="47.3145" y="115.157" width="3.3557" height="3.3557" fill="#371F00"/>
<rect x="50.6699" y="111.802" width="3.3557" height="3.3557" fill="#371F00"/>
<rect x="20.4688" y="118.513" width="3.3557" height="3.3557" fill="#371F00"/>
<rect x="17.1133" y="118.513" width="3.3557" height="3.3557" fill="#371F00"/>
<rect x="13.7578" y="118.513" width="3.3557" height="3.3557" fill="#371F00"/>
<rect x="13.7578" y="111.802" width="3.3557" height="3.3557" fill="#371F00"/>
<rect x="13.7578" y="115.157" width="3.3557" height="3.3557" fill="#371F00"/>
<rect x="13.7578" y="108.446" width="3.3557" height="3.3557" fill="#371F00"/>
<rect x="13.7578" y="105.09" width="3.3557" height="3.3557" fill="#371F00"/>
<path d="M49.6361 98.9818C54.3504 98.3644 58.8779 95.8387 63.5756 95.6767C65.592 95.6767 68.8248 94.9384 68.8248 97.6014C68.8248 101.963 63.025 104.775 59.2013 104.775C57.0569 104.775 55.1614 103.725 53.0578 103.725C50.6569 103.725 48.9601 104.004 46.7782 105.125C45.0221 106.028 43.4571 107.796 41.5095 106.7C40.0065 105.855 38.4118 104.796 37.0575 103.725C35.8237 102.75 35.7953 102.562 36.9797 101.801C37.9399 101.184 38.8085 100.422 39.9348 100.148C43.0785 99.3836 46.4373 99.4007 49.6361 98.9818Z" fill="#B16145"/>
<rect x="57.0459" y="95.1907" width="3.3557" height="3.3557" fill="#B16145"/>
<rect x="50.335" y="95.1907" width="3.3557" height="3.3557" fill="#B16145"/>
<rect x="53.6904" y="95.1907" width="3.3557" height="3.3557" fill="#B16145"/>
<rect x="60.4023" y="95.1907" width="3.3557" height="3.3557" fill="#B16145"/>
<rect x="46.9785" y="98.5464" width="3.3557" height="3.3557" fill="#B16145"/>
<rect x="40.2676" y="98.5464" width="3.3557" height="3.3557" fill="#B16145"/>
<rect x="43.623" y="98.5464" width="3.3557" height="3.3557" fill="#B16145"/>
<rect x="36.9121" y="98.5464" width="3.3557" height="3.3557" fill="#B16145"/>
<rect x="33.5566" y="101.902" width="3.3557" height="3.3557" fill="#B16145"/>
<rect x="36.9121" y="101.902" width="3.3557" height="3.3557" fill="#B16145"/>
<rect x="40.2676" y="105.258" width="3.3557" height="3.3557" fill="#B16145"/>
<rect x="43.623" y="105.258" width="3.3557" height="3.3557" fill="#B16145"/>
<rect x="43.623" y="101.902" width="3.3557" height="3.3557" fill="#B16145"/>
<rect x="46.9785" y="101.902" width="3.3557" height="3.3557" fill="#B16145"/>
<rect x="50.335" y="101.902" width="3.3557" height="3.3557" fill="#B16145"/>
<rect x="53.6904" y="101.902" width="3.3557" height="3.3557" fill="#B16145"/>
<rect x="57.0459" y="101.902" width="3.3557" height="3.3557" fill="#B16145"/>
<rect x="67.1133" y="98.5464" width="3.3557" height="3.3557" fill="#B16145"/>
<rect x="63.7578" y="101.902" width="3.3557" height="3.3557" fill="#B16145"/>
<rect x="60.4023" y="101.902" width="3.3557" height="3.3557" fill="#B16145"/>
<rect x="67.1133" y="95.1907" width="3.3557" height="3.3557" fill="#B16145"/>
<rect x="63.7578" y="95.1907" width="3.3557" height="3.3557" fill="#B16145"/>
<path d="M34.8601 104.607C38.6374 103.541 42.7714 104.665 46.6198 104.42C47.0789 104.994 47.1673 106.392 46.8793 107.146C46.1026 109.181 41.8785 108.211 42.8404 112.003C40.9559 112.896 39.5318 108.623 37.4534 107.85C35.5106 107.128 31.5815 109.925 31.0413 107.753C30.7838 106.718 34.0643 104.831 34.8601 104.607Z" fill="#B3844A"/>
<rect x="43.791" y="101.602" width="3.3557" height="3.3557" transform="rotate(51.3561 43.791 101.602)" fill="#B3844A"/>
<rect x="39.0742" y="101.076" width="3.3557" height="3.3557" transform="rotate(51.3561 39.0742 101.076)" fill="#B3844A"/>
<rect x="36.4541" y="103.172" width="3.3557" height="3.3557" transform="rotate(51.3561 36.4541 103.172)" fill="#B3844A"/>
<rect x="48.5088" y="102.127" width="3.3557" height="3.3557" transform="rotate(51.3561 48.5088 102.127)" fill="#B3844A"/>
<rect x="31.7373" y="102.647" width="3.3557" height="3.3557" transform="rotate(51.3561 31.7373 102.647)" fill="#B3844A"/>
<rect x="31.2119" y="107.363" width="3.3557" height="3.3557" transform="rotate(51.3561 31.2119 107.363)" fill="#B3844A"/>
<rect x="33.833" y="105.268" width="3.3557" height="3.3557" transform="rotate(51.3561 33.833 105.268)" fill="#B3844A"/>
<rect x="38.5498" y="105.793" width="3.3557" height="3.3557" transform="rotate(51.3561 38.5498 105.793)" fill="#B3844A"/>
<rect x="40.6445" y="108.414" width="3.3557" height="3.3557" transform="rotate(51.3561 40.6445 108.414)" fill="#B3844A"/>
<rect x="42.7402" y="111.035" width="3.3557" height="3.3557" transform="rotate(51.3561 42.7402 111.035)" fill="#B3844A"/>
<rect x="45.8867" y="104.223" width="3.3557" height="3.3557" transform="rotate(51.3561 45.8867 104.223)" fill="#B3844A"/>
<rect x="43.2666" y="106.318" width="3.3557" height="3.3557" transform="rotate(51.3561 43.2666 106.318)" fill="#B3844A"/>
<path d="M133.359 89.3974C137.235 90.0195 140.512 92.7782 144.107 94.1741C144.282 94.8882 143.774 96.1934 143.196 96.7568C141.635 98.2764 138.211 95.619 137.489 99.4638C135.403 99.4814 135.909 95.006 134.348 93.4308C132.889 91.9584 128.148 92.8435 128.571 90.6459C128.773 89.5984 132.543 89.2663 133.359 89.3974Z" fill="#B3844A"/>
<rect x="142.727" y="90.4275" width="3.3557" height="3.3557" transform="rotate(76.23 142.727 90.4275)" fill="#B3844A"/>
<rect x="138.668" y="87.967" width="3.3557" height="3.3557" transform="rotate(76.23 138.668 87.967)" fill="#B3844A"/>
<rect x="135.41" y="88.7659" width="3.3557" height="3.3557" transform="rotate(76.23 135.41 88.7659)" fill="#B3844A"/>
<rect x="146.785" y="92.8879" width="3.3557" height="3.3557" transform="rotate(76.23 146.785 92.8879)" fill="#B3844A"/>
<rect x="131.352" y="86.3052" width="3.3557" height="3.3557" transform="rotate(76.23 131.352 86.3052)" fill="#B3844A"/>
<rect x="128.891" y="90.3633" width="3.3557" height="3.3557" transform="rotate(76.23 128.891 90.3633)" fill="#B3844A"/>
<rect x="132.15" y="89.5645" width="3.3557" height="3.3557" transform="rotate(76.23 132.15 89.5645)" fill="#B3844A"/>
<rect x="136.209" y="92.0249" width="3.3557" height="3.3557" transform="rotate(76.23 136.209 92.0249)" fill="#B3844A"/>
<rect x="137.008" y="95.2842" width="3.3557" height="3.3557" transform="rotate(76.23 137.008 95.2842)" fill="#B3844A"/>
<rect x="137.807" y="98.5435" width="3.3557" height="3.3557" transform="rotate(76.23 137.807 98.5435)" fill="#B3844A"/>
<rect x="143.525" y="93.6868" width="3.3557" height="3.3557" transform="rotate(76.23 143.525 93.6868)" fill="#B3844A"/>
<rect x="140.266" y="94.4856" width="3.3557" height="3.3557" transform="rotate(76.23 140.266 94.4856)" fill="#B3844A"/>
<rect x="22.5596" y="40.4678" width="7.44235" height="13.0241" fill="#F67321"/>
<rect x="53.4922" width="7.44235" height="13.0241" fill="#CE1818"/>
<rect x="116.984" y="62.0972" width="7.44235" height="13.0241" fill="#FFC277"/>
</svg>
