<svg width="22" height="22" viewBox="0 0 22 22" fill="none" xmlns="http://www.w3.org/2000/svg">
<path d="M9.50732 12.92L7.18732 10.6C6.99176 10.4045 6.75176 10.3067 6.46732 10.3067C6.18287 10.3067 5.93398 10.4134 5.72065 10.6267C5.5251 10.8223 5.42732 11.0712 5.42732 11.3734C5.42732 11.6756 5.5251 11.9245 5.72065 12.12L8.76065 15.16C8.95621 15.3556 9.2051 15.4534 9.50732 15.4534C9.80954 15.4534 10.0584 15.3556 10.254 15.16L16.3073 9.10671C16.5029 8.91115 16.6007 8.67115 16.6007 8.38671C16.6007 8.10226 16.494 7.85337 16.2807 7.64004C16.0851 7.44449 15.8362 7.34671 15.534 7.34671C15.2318 7.34671 14.9829 7.44449 14.7873 7.64004L9.50732 12.92ZM11.0007 21.6667C9.5251 21.6667 8.13843 21.3867 6.84065 20.8267C5.54287 20.2667 4.41398 19.5067 3.45398 18.5467C2.49398 17.5867 1.73398 16.4578 1.17398 15.16C0.613984 13.8623 0.333984 12.4756 0.333984 11C0.333984 9.52449 0.613984 8.13782 1.17398 6.84004C1.73398 5.54226 2.49398 4.41337 3.45398 3.45337C4.41398 2.49337 5.54287 1.73337 6.84065 1.17337C8.13843 0.613374 9.5251 0.333374 11.0007 0.333374C12.4762 0.333374 13.8629 0.613374 15.1607 1.17337C16.4584 1.73337 17.5873 2.49337 18.5473 3.45337C19.5073 4.41337 20.2673 5.54226 20.8273 6.84004C21.3873 8.13782 21.6673 9.52449 21.6673 11C21.6673 12.4756 21.3873 13.8623 20.8273 15.16C20.2673 16.4578 19.5073 17.5867 18.5473 18.5467C17.5873 19.5067 16.4584 20.2667 15.1607 20.8267C13.8629 21.3867 12.4762 21.6667 11.0007 21.6667Z" fill="#007A46"/>
</svg>
