<svg width="513" height="133" viewBox="0 0 513 133" fill="none" xmlns="http://www.w3.org/2000/svg">
<g filter="url(#filter0_d_1_95430)">
<path d="M260.047 43.1418C249.476 42.6445 240.761 43.732 230.197 43.0867C227.448 45.1633 224.453 46.2014 220.838 45.8654C218.37 45.6359 215.575 44.6157 213.293 43.8688C206.579 41.6722 199.914 39.1582 193.056 37.3278C186.351 35.5384 177.339 34.1541 170.45 35.7375C166.144 36.7273 162.298 38.8174 158.408 40.586C154.356 42.4285 150.687 44.807 146.671 46.6862C141.647 49.037 136.086 50.7559 130.572 52.0779C107.983 57.4937 82.8137 57.0034 59.4744 56.9485C43.2539 56.9104 9.21726 54.2064 6.71855 74.0147C5.91334 80.3979 6.62564 88.779 11.6995 93.9562C20.387 102.821 36.3029 103.743 48.5309 104.35C81.2621 105.972 112.67 102.383 144.272 95.7492C168.926 90.5739 193.011 83.383 217.799 78.6955C234.564 75.5253 251.542 75.9425 268.314 79.6174C289.197 84.193 308.555 93.1382 328.892 99.1859C356.963 107.533 386.621 109.975 416.023 110.465C435.17 110.784 454.328 109.991 471.59 102.575C483.335 97.5286 492.383 90.5202 499.335 81.0026C503.922 74.724 505.771 68.0286 506.829 60.7062C507.236 57.8833 509.02 50.1837 505.704 47.957C503.053 46.1766 497.55 47.4065 494.584 47.5104C487.64 47.7538 480.479 47.3573 473.836 45.3356C468.553 43.7277 464.398 40.2682 460.855 36.6319C455.287 30.9188 448.611 27.5535 439.842 26.7628C427.379 25.639 414.263 26.9422 401.961 28.218C386.45 29.8267 371.536 33.1874 356.392 36.2303C339.429 39.6387 322.357 42.5655 304.884 43.554C289.982 44.397 274.973 43.8438 260.047 43.1418Z" fill="white" fill-opacity="0.1"/>
<rect x="255.295" y="41.762" width="2.84091" height="2.43111" transform="rotate(3.49562 255.295 41.762)" fill="white" fill-opacity="0.1"/>
<rect x="229.626" y="42.6296" width="2.84091" height="2.43111" transform="rotate(3.49562 229.626 42.6296)" fill="white" fill-opacity="0.1"/>
<rect x="232.461" y="42.8027" width="2.84091" height="2.43111" transform="rotate(3.49562 232.461 42.8027)" fill="white" fill-opacity="0.1"/>
<rect x="235.297" y="42.9761" width="2.84091" height="2.43111" transform="rotate(3.49562 235.297 42.9761)" fill="white" fill-opacity="0.1"/>
<rect x="238.133" y="43.1492" width="2.84091" height="2.43111" transform="rotate(3.49562 238.133 43.1492)" fill="white" fill-opacity="0.1"/>
<rect x="241.116" y="40.8958" width="2.84091" height="2.43111" transform="rotate(3.49562 241.116 40.8958)" fill="white" fill-opacity="0.1"/>
<rect x="243.952" y="41.0691" width="2.84091" height="2.43111" transform="rotate(3.49562 243.952 41.0691)" fill="white" fill-opacity="0.1"/>
<rect x="246.788" y="41.2422" width="2.84091" height="2.43111" transform="rotate(3.49562 246.788 41.2422)" fill="white" fill-opacity="0.1"/>
<rect x="249.623" y="41.4155" width="2.84091" height="2.43111" transform="rotate(3.49562 249.623 41.4155)" fill="white" fill-opacity="0.1"/>
<rect x="252.459" y="41.5886" width="2.84091" height="2.43111" transform="rotate(3.49562 252.459 41.5886)" fill="white" fill-opacity="0.1"/>
<rect x="258.13" y="41.9351" width="2.84091" height="2.43111" transform="rotate(3.49562 258.13 41.9351)" fill="white" fill-opacity="0.1"/>
<rect x="303.648" y="42.28" width="2.84091" height="2.43111" transform="rotate(3.49562 303.648 42.28)" fill="white" fill-opacity="0.1"/>
<rect x="260.966" y="42.1084" width="2.84091" height="2.43111" transform="rotate(3.49562 260.966 42.1084)" fill="white" fill-opacity="0.1"/>
<rect x="263.802" y="42.2815" width="2.84091" height="2.43111" transform="rotate(3.49562 263.802 42.2815)" fill="white" fill-opacity="0.1"/>
<rect x="266.637" y="42.4548" width="2.84091" height="2.43111" transform="rotate(3.49562 266.637 42.4548)" fill="white" fill-opacity="0.1"/>
<rect x="269.473" y="42.6279" width="2.84091" height="2.43111" transform="rotate(3.49562 269.473 42.6279)" fill="white" fill-opacity="0.1"/>
<rect x="272.309" y="42.8013" width="2.84091" height="2.43111" transform="rotate(3.49562 272.309 42.8013)" fill="white" fill-opacity="0.1"/>
<rect x="275.144" y="42.9744" width="2.84091" height="2.43111" transform="rotate(3.49562 275.144 42.9744)" fill="white" fill-opacity="0.1"/>
<rect x="277.979" y="43.1477" width="2.84091" height="2.43111" transform="rotate(3.49562 277.979 43.1477)" fill="white" fill-opacity="0.1"/>
<rect x="280.815" y="43.3208" width="2.84091" height="2.43111" transform="rotate(3.49562 280.815 43.3208)" fill="white" fill-opacity="0.1"/>
<rect x="283.651" y="43.4941" width="2.84091" height="2.43111" transform="rotate(3.49562 283.651 43.4941)" fill="white" fill-opacity="0.1"/>
<rect x="286.486" y="43.6672" width="2.84091" height="2.43111" transform="rotate(3.49562 286.486 43.6672)" fill="white" fill-opacity="0.1"/>
<rect x="289.322" y="43.8406" width="2.84091" height="2.43111" transform="rotate(3.49562 289.322 43.8406)" fill="white" fill-opacity="0.1"/>
<rect x="292.306" y="41.5872" width="2.84091" height="2.43111" transform="rotate(3.49562 292.306 41.5872)" fill="white" fill-opacity="0.1"/>
<rect x="295.142" y="41.7605" width="2.84091" height="2.43111" transform="rotate(3.49562 295.142 41.7605)" fill="white" fill-opacity="0.1"/>
<rect x="297.978" y="41.9336" width="2.84091" height="2.43111" transform="rotate(3.49562 297.978 41.9336)" fill="white" fill-opacity="0.1"/>
<rect x="300.812" y="42.1069" width="2.84091" height="2.43111" transform="rotate(3.49562 300.812 42.1069)" fill="white" fill-opacity="0.1"/>
<rect x="352.447" y="35.5183" width="2.84091" height="2.43111" transform="rotate(3.49562 352.447 35.5183)" fill="white" fill-opacity="0.1"/>
<rect x="343.792" y="37.4253" width="2.84091" height="2.43111" transform="rotate(3.49562 343.792 37.4253)" fill="white" fill-opacity="0.1"/>
<rect x="332.301" y="39.1589" width="2.84091" height="2.43111" transform="rotate(3.49562 332.301 39.1589)" fill="white" fill-opacity="0.1"/>
<rect x="320.811" y="40.8928" width="2.84091" height="2.43111" transform="rotate(3.49562 320.811 40.8928)" fill="white" fill-opacity="0.1"/>
<rect x="306.484" y="42.4531" width="2.84091" height="2.43111" transform="rotate(3.49562 306.484 42.4531)" fill="white" fill-opacity="0.1"/>
<rect x="309.319" y="42.6265" width="2.84091" height="2.43111" transform="rotate(3.49562 309.319 42.6265)" fill="white" fill-opacity="0.1"/>
<rect x="312.155" y="42.7996" width="2.84091" height="2.43111" transform="rotate(3.49562 312.155 42.7996)" fill="white" fill-opacity="0.1"/>
<rect x="315.139" y="40.5464" width="2.84091" height="2.43111" transform="rotate(3.49562 315.139 40.5464)" fill="white" fill-opacity="0.1"/>
<rect x="317.975" y="40.7195" width="2.84091" height="2.43111" transform="rotate(3.49562 317.975 40.7195)" fill="white" fill-opacity="0.1"/>
<rect x="323.646" y="41.0659" width="2.84091" height="2.43111" transform="rotate(3.49562 323.646 41.0659)" fill="white" fill-opacity="0.1"/>
<rect x="326.63" y="38.8125" width="2.84091" height="2.43111" transform="rotate(3.49562 326.63 38.8125)" fill="white" fill-opacity="0.1"/>
<rect x="329.466" y="38.9858" width="2.84091" height="2.43111" transform="rotate(3.49562 329.466 38.9858)" fill="white" fill-opacity="0.1"/>
<rect x="335.137" y="39.3323" width="2.84091" height="2.43111" transform="rotate(3.49562 335.137 39.3323)" fill="white" fill-opacity="0.1"/>
<rect x="338.121" y="37.0789" width="2.84091" height="2.43111" transform="rotate(3.49562 338.121 37.0789)" fill="white" fill-opacity="0.1"/>
<rect x="340.956" y="37.252" width="2.84091" height="2.43111" transform="rotate(3.49562 340.956 37.252)" fill="white" fill-opacity="0.1"/>
<rect x="346.628" y="37.5986" width="2.84091" height="2.43111" transform="rotate(3.49562 346.628 37.5986)" fill="white" fill-opacity="0.1"/>
<rect x="349.611" y="35.3452" width="2.84091" height="2.43111" transform="rotate(3.49562 349.611 35.3452)" fill="white" fill-opacity="0.1"/>
<rect x="355.282" y="35.6917" width="2.84091" height="2.43111" transform="rotate(3.49562 355.282 35.6917)" fill="white" fill-opacity="0.1"/>
<rect x="389.903" y="28.0637" width="2.84091" height="2.43111" transform="rotate(3.49562 389.903 28.0637)" fill="white" fill-opacity="0.1"/>
<rect x="381.248" y="29.9707" width="2.84091" height="2.43111" transform="rotate(3.49562 381.248 29.9707)" fill="white" fill-opacity="0.1"/>
<rect x="369.757" y="31.7046" width="2.84091" height="2.43111" transform="rotate(3.49562 369.757 31.7046)" fill="white" fill-opacity="0.1"/>
<rect x="361.103" y="33.6113" width="2.84091" height="2.43111" transform="rotate(3.49562 361.103 33.6113)" fill="white" fill-opacity="0.1"/>
<rect x="358.267" y="33.4382" width="2.84091" height="2.43111" transform="rotate(3.49562 358.267 33.4382)" fill="white" fill-opacity="0.1"/>
<rect x="363.938" y="33.7847" width="2.84091" height="2.43111" transform="rotate(3.49562 363.938 33.7847)" fill="white" fill-opacity="0.1"/>
<rect x="366.922" y="31.5312" width="2.84091" height="2.43111" transform="rotate(3.49562 366.922 31.5312)" fill="white" fill-opacity="0.1"/>
<rect x="372.593" y="31.8777" width="2.84091" height="2.43111" transform="rotate(3.49562 372.593 31.8777)" fill="white" fill-opacity="0.1"/>
<rect x="375.576" y="29.6243" width="2.84091" height="2.43111" transform="rotate(3.49562 375.576 29.6243)" fill="white" fill-opacity="0.1"/>
<rect x="378.412" y="29.7976" width="2.84091" height="2.43111" transform="rotate(3.49562 378.412 29.7976)" fill="white" fill-opacity="0.1"/>
<rect x="384.084" y="30.144" width="2.84091" height="2.43111" transform="rotate(3.49562 384.084 30.144)" fill="white" fill-opacity="0.1"/>
<rect x="387.067" y="27.8906" width="2.84091" height="2.43111" transform="rotate(3.49562 387.067 27.8906)" fill="white" fill-opacity="0.1"/>
<rect x="392.738" y="28.2371" width="2.84091" height="2.43111" transform="rotate(3.49562 392.738 28.2371)" fill="white" fill-opacity="0.1"/>
<rect x="395.574" y="28.4102" width="2.84091" height="2.43111" transform="rotate(3.49562 395.574 28.4102)" fill="white" fill-opacity="0.1"/>
<rect x="398.559" y="26.157" width="2.84091" height="2.43111" transform="rotate(3.49562 398.559 26.157)" fill="white" fill-opacity="0.1"/>
<rect x="401.394" y="26.3301" width="2.84091" height="2.43111" transform="rotate(3.49562 401.394 26.3301)" fill="white" fill-opacity="0.1"/>
<rect x="421.392" y="25.116" width="2.84091" height="2.43111" transform="rotate(3.49562 421.392 25.116)" fill="white" fill-opacity="0.1"/>
<rect x="404.229" y="26.5034" width="2.84091" height="2.43111" transform="rotate(3.49562 404.229 26.5034)" fill="white" fill-opacity="0.1"/>
<rect x="407.065" y="26.6765" width="2.84091" height="2.43111" transform="rotate(3.49562 407.065 26.6765)" fill="white" fill-opacity="0.1"/>
<rect x="409.9" y="26.8499" width="2.84091" height="2.43111" transform="rotate(3.49562 409.9 26.8499)" fill="white" fill-opacity="0.1"/>
<rect x="412.885" y="24.5964" width="2.84091" height="2.43111" transform="rotate(3.49562 412.885 24.5964)" fill="white" fill-opacity="0.1"/>
<rect x="415.72" y="24.7695" width="2.84091" height="2.43111" transform="rotate(3.49562 415.72 24.7695)" fill="white" fill-opacity="0.1"/>
<rect x="418.556" y="24.9429" width="2.84091" height="2.43111" transform="rotate(3.49562 418.556 24.9429)" fill="white" fill-opacity="0.1"/>
<rect x="424.227" y="25.2893" width="2.84091" height="2.43111" transform="rotate(3.49562 424.227 25.2893)" fill="white" fill-opacity="0.1"/>
<rect x="427.062" y="25.4624" width="2.84091" height="2.43111" transform="rotate(3.49562 427.062 25.4624)" fill="white" fill-opacity="0.1"/>
<rect x="429.898" y="25.6357" width="2.84091" height="2.43111" transform="rotate(3.49562 429.898 25.6357)" fill="white" fill-opacity="0.1"/>
<rect x="432.733" y="25.8088" width="2.84091" height="2.43111" transform="rotate(3.49562 432.733 25.8088)" fill="white" fill-opacity="0.1"/>
<rect x="435.569" y="25.9822" width="2.84091" height="2.43111" transform="rotate(3.49562 435.569 25.9822)" fill="white" fill-opacity="0.1"/>
<rect x="438.405" y="26.1553" width="2.84091" height="2.43111" transform="rotate(3.49562 438.405 26.1553)" fill="white" fill-opacity="0.1"/>
<rect x="444.076" y="26.5017" width="2.84091" height="2.43111" transform="rotate(3.49562 444.076 26.5017)" fill="white" fill-opacity="0.1"/>
<rect x="452.435" y="29.448" width="2.84091" height="2.43111" transform="rotate(3.49562 452.435 29.448)" fill="white" fill-opacity="0.1"/>
<rect x="455.122" y="32.0479" width="2.84091" height="2.43111" transform="rotate(3.49562 455.122 32.0479)" fill="white" fill-opacity="0.1"/>
<rect x="457.81" y="34.6477" width="2.84091" height="2.43111" transform="rotate(3.49562 457.81 34.6477)" fill="white" fill-opacity="0.1"/>
<rect x="441.24" y="26.3286" width="2.84091" height="2.43111" transform="rotate(3.49562 441.24 26.3286)" fill="white" fill-opacity="0.1"/>
<rect x="446.912" y="26.675" width="2.84091" height="2.43111" transform="rotate(3.49562 446.912 26.675)" fill="white" fill-opacity="0.1"/>
<rect x="449.6" y="29.2747" width="2.84091" height="2.43111" transform="rotate(3.49562 449.6 29.2747)" fill="white" fill-opacity="0.1"/>
<rect x="460.646" y="34.8208" width="2.84091" height="2.43111" transform="rotate(3.49562 460.646 34.8208)" fill="white" fill-opacity="0.1"/>
<rect x="460.497" y="37.2476" width="2.84091" height="2.43111" transform="rotate(3.49562 460.497 37.2476)" fill="white" fill-opacity="0.1"/>
<rect x="466.021" y="40.0205" width="2.84091" height="2.43111" transform="rotate(3.49562 466.021 40.0205)" fill="white" fill-opacity="0.1"/>
<rect x="468.707" y="42.6201" width="2.84091" height="2.43111" transform="rotate(3.49562 468.707 42.6201)" fill="white" fill-opacity="0.1"/>
<rect x="463.185" y="39.8472" width="2.84091" height="2.43111" transform="rotate(3.49562 463.185 39.8472)" fill="white" fill-opacity="0.1"/>
<rect x="471.543" y="42.7935" width="2.84091" height="2.43111" transform="rotate(3.49562 471.543 42.7935)" fill="white" fill-opacity="0.1"/>
<rect x="482.737" y="45.9128" width="2.84091" height="2.43111" transform="rotate(3.49562 482.737 45.9128)" fill="white" fill-opacity="0.1"/>
<rect x="488.408" y="46.2593" width="2.84091" height="2.43111" transform="rotate(3.49562 488.408 46.2593)" fill="white" fill-opacity="0.1"/>
<rect x="474.23" y="45.3933" width="2.84091" height="2.43111" transform="rotate(3.49562 474.23 45.3933)" fill="white" fill-opacity="0.1"/>
<rect x="477.066" y="45.5664" width="2.84091" height="2.43111" transform="rotate(3.49562 477.066 45.5664)" fill="white" fill-opacity="0.1"/>
<rect x="479.901" y="45.7397" width="2.84091" height="2.43111" transform="rotate(3.49562 479.901 45.7397)" fill="white" fill-opacity="0.1"/>
<rect x="485.573" y="46.0862" width="2.84091" height="2.43111" transform="rotate(3.49562 485.573 46.0862)" fill="white" fill-opacity="0.1"/>
<rect x="491.244" y="46.4326" width="2.84091" height="2.43111" transform="rotate(3.49562 491.244 46.4326)" fill="white" fill-opacity="0.1"/>
<rect x="494.08" y="46.6057" width="2.84091" height="2.43111" transform="rotate(3.49562 494.08 46.6057)" fill="white" fill-opacity="0.1"/>
<rect x="496.915" y="46.7791" width="2.84091" height="2.43111" transform="rotate(3.49562 496.915 46.7791)" fill="white" fill-opacity="0.1"/>
<rect x="499.899" y="44.5256" width="2.84091" height="2.43111" transform="rotate(3.49562 499.899 44.5256)" fill="white" fill-opacity="0.1"/>
<rect x="502.587" y="47.1255" width="2.84091" height="2.43111" transform="rotate(3.49562 502.587 47.1255)" fill="white" fill-opacity="0.1"/>
<rect x="505.423" y="47.2986" width="2.84091" height="2.43111" transform="rotate(3.49562 505.423 47.2986)" fill="white" fill-opacity="0.1"/>
<rect x="505.274" y="49.7251" width="2.84091" height="2.43111" transform="rotate(3.49562 505.274 49.7251)" fill="white" fill-opacity="0.1"/>
<rect x="505.126" y="52.1519" width="2.84091" height="2.43111" transform="rotate(3.49562 505.126 52.1519)" fill="white" fill-opacity="0.1"/>
<rect x="504.978" y="54.5784" width="2.84091" height="2.43111" transform="rotate(3.49562 504.978 54.5784)" fill="white" fill-opacity="0.1"/>
<rect x="504.829" y="57.0049" width="2.84091" height="2.43111" transform="rotate(3.49562 504.829 57.0049)" fill="white" fill-opacity="0.1"/>
<rect x="504.682" y="59.4316" width="2.84091" height="2.43111" transform="rotate(3.49562 504.682 59.4316)" fill="white" fill-opacity="0.1"/>
<rect x="504.533" y="61.8582" width="2.84091" height="2.43111" transform="rotate(3.49562 504.533 61.8582)" fill="white" fill-opacity="0.1"/>
<rect x="504.385" y="64.2847" width="2.84091" height="2.43111" transform="rotate(3.49562 504.385 64.2847)" fill="white" fill-opacity="0.1"/>
<rect x="504.236" y="66.7114" width="2.84091" height="2.43111" transform="rotate(3.49562 504.236 66.7114)" fill="white" fill-opacity="0.1"/>
<rect x="504.088" y="69.1379" width="2.84091" height="2.43111" transform="rotate(3.49562 504.088 69.1379)" fill="white" fill-opacity="0.1"/>
<rect x="501.104" y="71.3914" width="2.84091" height="2.43111" transform="rotate(3.49562 501.104 71.3914)" fill="white" fill-opacity="0.1"/>
<rect x="500.956" y="73.8179" width="2.84091" height="2.43111" transform="rotate(3.49562 500.956 73.8179)" fill="white" fill-opacity="0.1"/>
<rect x="500.808" y="76.2444" width="2.84091" height="2.43111" transform="rotate(3.49562 500.808 76.2444)" fill="white" fill-opacity="0.1"/>
<rect x="497.824" y="78.4978" width="2.84091" height="2.43111" transform="rotate(3.49562 497.824 78.4978)" fill="white" fill-opacity="0.1"/>
<rect x="497.676" y="80.9243" width="2.84091" height="2.43111" transform="rotate(3.49562 497.676 80.9243)" fill="white" fill-opacity="0.1"/>
<rect x="494.692" y="83.1777" width="2.84091" height="2.43111" transform="rotate(3.49562 494.692 83.1777)" fill="white" fill-opacity="0.1"/>
<rect x="494.544" y="85.6042" width="2.84091" height="2.43111" transform="rotate(3.49562 494.544 85.6042)" fill="white" fill-opacity="0.1"/>
<rect x="491.56" y="87.8577" width="2.84091" height="2.43111" transform="rotate(3.49562 491.56 87.8577)" fill="white" fill-opacity="0.1"/>
<rect x="488.576" y="90.1111" width="2.84091" height="2.43111" transform="rotate(3.49562 488.576 90.1111)" fill="white" fill-opacity="0.1"/>
<rect x="485.593" y="92.3645" width="2.84091" height="2.43111" transform="rotate(3.49562 485.593 92.3645)" fill="white" fill-opacity="0.1"/>
<rect x="482.608" y="94.6179" width="2.84091" height="2.43111" transform="rotate(3.49562 482.608 94.6179)" fill="white" fill-opacity="0.1"/>
<rect x="479.625" y="96.8713" width="2.84091" height="2.43111" transform="rotate(3.49562 479.625 96.8713)" fill="white" fill-opacity="0.1"/>
<rect x="473.805" y="98.9514" width="2.84091" height="2.43111" transform="rotate(3.49562 473.805 98.9514)" fill="white" fill-opacity="0.1"/>
<rect x="470.821" y="101.205" width="2.84091" height="2.43111" transform="rotate(3.49562 470.821 101.205)" fill="white" fill-opacity="0.1"/>
<rect x="476.641" y="99.1248" width="2.84091" height="2.43111" transform="rotate(3.49562 476.641 99.1248)" fill="white" fill-opacity="0.1"/>
<rect x="465.002" y="103.285" width="2.84091" height="2.43111" transform="rotate(3.49562 465.002 103.285)" fill="white" fill-opacity="0.1"/>
<rect x="459.183" y="105.365" width="2.84091" height="2.43111" transform="rotate(3.49562 459.183 105.365)" fill="white" fill-opacity="0.1"/>
<rect x="450.527" y="107.272" width="2.84091" height="2.43111" transform="rotate(3.49562 450.527 107.272)" fill="white" fill-opacity="0.1"/>
<rect x="436.201" y="108.833" width="2.84091" height="2.43111" transform="rotate(3.49562 436.201 108.833)" fill="white" fill-opacity="0.1"/>
<rect x="416.203" y="110.047" width="2.84091" height="2.43111" transform="rotate(3.49562 416.203 110.047)" fill="white" fill-opacity="0.1"/>
<rect x="419.039" y="110.22" width="2.84091" height="2.43111" transform="rotate(3.49562 419.039 110.22)" fill="white" fill-opacity="0.1"/>
<rect x="421.875" y="110.393" width="2.84091" height="2.43111" transform="rotate(3.49562 421.875 110.393)" fill="white" fill-opacity="0.1"/>
<rect x="424.858" y="108.14" width="2.84091" height="2.43111" transform="rotate(3.49562 424.858 108.14)" fill="white" fill-opacity="0.1"/>
<rect x="427.694" y="108.313" width="2.84091" height="2.43111" transform="rotate(3.49562 427.694 108.313)" fill="white" fill-opacity="0.1"/>
<rect x="430.529" y="108.486" width="2.84091" height="2.43111" transform="rotate(3.49562 430.529 108.486)" fill="white" fill-opacity="0.1"/>
<rect x="433.365" y="108.659" width="2.84091" height="2.43111" transform="rotate(3.49562 433.365 108.659)" fill="white" fill-opacity="0.1"/>
<rect x="439.036" y="109.006" width="2.84091" height="2.43111" transform="rotate(3.49562 439.036 109.006)" fill="white" fill-opacity="0.1"/>
<rect x="441.872" y="109.179" width="2.84091" height="2.43111" transform="rotate(3.49562 441.872 109.179)" fill="white" fill-opacity="0.1"/>
<rect x="444.855" y="106.926" width="2.84091" height="2.43111" transform="rotate(3.49562 444.855 106.926)" fill="white" fill-opacity="0.1"/>
<rect x="447.691" y="107.099" width="2.84091" height="2.43111" transform="rotate(3.49562 447.691 107.099)" fill="white" fill-opacity="0.1"/>
<rect x="453.363" y="107.445" width="2.84091" height="2.43111" transform="rotate(3.49562 453.363 107.445)" fill="white" fill-opacity="0.1"/>
<rect x="456.347" y="105.192" width="2.84091" height="2.43111" transform="rotate(3.49562 456.347 105.192)" fill="white" fill-opacity="0.1"/>
<rect x="462.166" y="103.112" width="2.84091" height="2.43111" transform="rotate(3.49562 462.166 103.112)" fill="white" fill-opacity="0.1"/>
<rect x="467.985" y="101.032" width="2.84091" height="2.43111" transform="rotate(3.49562 467.985 101.032)" fill="white" fill-opacity="0.1"/>
<rect x="413.368" y="109.874" width="2.84091" height="2.43111" transform="rotate(3.49562 413.368 109.874)" fill="white" fill-opacity="0.1"/>
<rect x="337.103" y="100.344" width="2.84091" height="2.43111" transform="rotate(3.49562 337.103 100.344)" fill="white" fill-opacity="0.1"/>
<rect x="351.132" y="103.636" width="2.84091" height="2.43111" transform="rotate(3.49562 351.132 103.636)" fill="white" fill-opacity="0.1"/>
<rect x="328.744" y="97.3972" width="2.84091" height="2.43111" transform="rotate(3.49562 328.744 97.3972)" fill="white" fill-opacity="0.1"/>
<rect x="331.432" y="99.9971" width="2.84091" height="2.43111" transform="rotate(3.49562 331.432 99.9971)" fill="white" fill-opacity="0.1"/>
<rect x="334.267" y="100.17" width="2.84091" height="2.43111" transform="rotate(3.49562 334.267 100.17)" fill="white" fill-opacity="0.1"/>
<rect x="339.938" y="100.517" width="2.84091" height="2.43111" transform="rotate(3.49562 339.938 100.517)" fill="white" fill-opacity="0.1"/>
<rect x="342.773" y="100.69" width="2.84091" height="2.43111" transform="rotate(3.49562 342.773 100.69)" fill="white" fill-opacity="0.1"/>
<rect x="345.461" y="103.29" width="2.84091" height="2.43111" transform="rotate(3.49562 345.461 103.29)" fill="white" fill-opacity="0.1"/>
<rect x="348.297" y="103.463" width="2.84091" height="2.43111" transform="rotate(3.49562 348.297 103.463)" fill="white" fill-opacity="0.1"/>
<rect x="353.968" y="103.809" width="2.84091" height="2.43111" transform="rotate(3.49562 353.968 103.809)" fill="white" fill-opacity="0.1"/>
<rect x="356.804" y="103.982" width="2.84091" height="2.43111" transform="rotate(3.49562 356.804 103.982)" fill="white" fill-opacity="0.1"/>
<rect x="359.639" y="104.156" width="2.84091" height="2.43111" transform="rotate(3.49562 359.639 104.156)" fill="white" fill-opacity="0.1"/>
<rect x="362.475" y="104.329" width="2.84091" height="2.43111" transform="rotate(3.49562 362.475 104.329)" fill="white" fill-opacity="0.1"/>
<rect x="365.162" y="106.929" width="2.84091" height="2.43111" transform="rotate(3.49562 365.162 106.929)" fill="white" fill-opacity="0.1"/>
<rect x="367.998" y="107.102" width="2.84091" height="2.43111" transform="rotate(3.49562 367.998 107.102)" fill="white" fill-opacity="0.1"/>
<rect x="370.833" y="107.275" width="2.84091" height="2.43111" transform="rotate(3.49562 370.833 107.275)" fill="white" fill-opacity="0.1"/>
<rect x="373.669" y="107.448" width="2.84091" height="2.43111" transform="rotate(3.49562 373.669 107.448)" fill="white" fill-opacity="0.1"/>
<rect x="376.505" y="107.622" width="2.84091" height="2.43111" transform="rotate(3.49562 376.505 107.622)" fill="white" fill-opacity="0.1"/>
<rect x="379.34" y="107.795" width="2.84091" height="2.43111" transform="rotate(3.49562 379.34 107.795)" fill="white" fill-opacity="0.1"/>
<rect x="382.176" y="107.968" width="2.84091" height="2.43111" transform="rotate(3.49562 382.176 107.968)" fill="white" fill-opacity="0.1"/>
<rect x="385.012" y="108.141" width="2.84091" height="2.43111" transform="rotate(3.49562 385.012 108.141)" fill="white" fill-opacity="0.1"/>
<rect x="387.847" y="108.314" width="2.84091" height="2.43111" transform="rotate(3.49562 387.847 108.314)" fill="white" fill-opacity="0.1"/>
<rect x="390.683" y="108.488" width="2.84091" height="2.43111" transform="rotate(3.49562 390.683 108.488)" fill="white" fill-opacity="0.1"/>
<rect x="393.519" y="108.661" width="2.84091" height="2.43111" transform="rotate(3.49562 393.519 108.661)" fill="white" fill-opacity="0.1"/>
<rect x="396.354" y="108.834" width="2.84091" height="2.43111" transform="rotate(3.49562 396.354 108.834)" fill="white" fill-opacity="0.1"/>
<rect x="399.189" y="109.007" width="2.84091" height="2.43111" transform="rotate(3.49562 399.189 109.007)" fill="white" fill-opacity="0.1"/>
<rect x="402.025" y="109.181" width="2.84091" height="2.43111" transform="rotate(3.49562 402.025 109.181)" fill="white" fill-opacity="0.1"/>
<rect x="404.86" y="109.354" width="2.84091" height="2.43111" transform="rotate(3.49562 404.86 109.354)" fill="white" fill-opacity="0.1"/>
<rect x="407.696" y="109.527" width="2.84091" height="2.43111" transform="rotate(3.49562 407.696 109.527)" fill="white" fill-opacity="0.1"/>
<rect x="410.532" y="109.7" width="2.84091" height="2.43111" transform="rotate(3.49562 410.532 109.7)" fill="white" fill-opacity="0.1"/>
<rect x="270.085" y="79.2002" width="2.84091" height="2.43111" transform="rotate(3.49562 270.085 79.2002)" fill="white" fill-opacity="0.1"/>
<rect x="281.279" y="82.3196" width="2.84091" height="2.43111" transform="rotate(3.49562 281.279 82.3196)" fill="white" fill-opacity="0.1"/>
<rect x="292.474" y="85.439" width="2.84091" height="2.43111" transform="rotate(3.49562 292.474 85.439)" fill="white" fill-opacity="0.1"/>
<rect x="300.832" y="88.3853" width="2.84091" height="2.43111" transform="rotate(3.49562 300.832 88.3853)" fill="white" fill-opacity="0.1"/>
<rect x="306.355" y="91.1582" width="2.84091" height="2.43111" transform="rotate(3.49562 306.355 91.1582)" fill="white" fill-opacity="0.1"/>
<rect x="314.714" y="94.1045" width="2.84091" height="2.43111" transform="rotate(3.49562 314.714 94.1045)" fill="white" fill-opacity="0.1"/>
<rect x="325.908" y="97.2239" width="2.84091" height="2.43111" transform="rotate(3.49562 325.908 97.2239)" fill="white" fill-opacity="0.1"/>
<rect x="267.249" y="79.0269" width="2.84091" height="2.43111" transform="rotate(3.49562 267.249 79.0269)" fill="white" fill-opacity="0.1"/>
<rect x="272.921" y="79.3733" width="2.84091" height="2.43111" transform="rotate(3.49562 272.921 79.3733)" fill="white" fill-opacity="0.1"/>
<rect x="275.756" y="79.5466" width="2.84091" height="2.43111" transform="rotate(3.49562 275.756 79.5466)" fill="white" fill-opacity="0.1"/>
<rect x="278.443" y="82.1462" width="2.84091" height="2.43111" transform="rotate(3.49562 278.443 82.1462)" fill="white" fill-opacity="0.1"/>
<rect x="284.115" y="82.4927" width="2.84091" height="2.43111" transform="rotate(3.49562 284.115 82.4927)" fill="white" fill-opacity="0.1"/>
<rect x="286.803" y="85.0925" width="2.84091" height="2.43111" transform="rotate(3.49562 286.803 85.0925)" fill="white" fill-opacity="0.1"/>
<rect x="289.638" y="85.2659" width="2.84091" height="2.43111" transform="rotate(3.49562 289.638 85.2659)" fill="white" fill-opacity="0.1"/>
<rect x="295.31" y="85.6123" width="2.84091" height="2.43111" transform="rotate(3.49562 295.31 85.6123)" fill="white" fill-opacity="0.1"/>
<rect x="297.997" y="88.2122" width="2.84091" height="2.43111" transform="rotate(3.49562 297.997 88.2122)" fill="white" fill-opacity="0.1"/>
<rect x="303.668" y="88.5583" width="2.84091" height="2.43111" transform="rotate(3.49562 303.668 88.5583)" fill="white" fill-opacity="0.1"/>
<rect x="309.19" y="91.3315" width="2.84091" height="2.43111" transform="rotate(3.49562 309.19 91.3315)" fill="white" fill-opacity="0.1"/>
<rect x="311.878" y="93.9312" width="2.84091" height="2.43111" transform="rotate(3.49562 311.878 93.9312)" fill="white" fill-opacity="0.1"/>
<rect x="317.55" y="94.2776" width="2.84091" height="2.43111" transform="rotate(3.49562 317.55 94.2776)" fill="white" fill-opacity="0.1"/>
<rect x="320.385" y="94.4509" width="2.84091" height="2.43111" transform="rotate(3.49562 320.385 94.4509)" fill="white" fill-opacity="0.1"/>
<rect x="323.072" y="97.0508" width="2.84091" height="2.43111" transform="rotate(3.49562 323.072 97.0508)" fill="white" fill-opacity="0.1"/>
<rect x="221.88" y="76.2554" width="2.84091" height="2.43111" transform="rotate(3.49562 221.88 76.2554)" fill="white" fill-opacity="0.1"/>
<rect x="219.044" y="76.0823" width="2.84091" height="2.43111" transform="rotate(3.49562 219.044 76.0823)" fill="white" fill-opacity="0.1"/>
<rect x="224.715" y="76.4287" width="2.84091" height="2.43111" transform="rotate(3.49562 224.715 76.4287)" fill="white" fill-opacity="0.1"/>
<rect x="227.551" y="76.6018" width="2.84091" height="2.43111" transform="rotate(3.49562 227.551 76.6018)" fill="white" fill-opacity="0.1"/>
<rect x="230.387" y="76.7751" width="2.84091" height="2.43111" transform="rotate(3.49562 230.387 76.7751)" fill="white" fill-opacity="0.1"/>
<rect x="233.37" y="74.5217" width="2.84091" height="2.43111" transform="rotate(3.49562 233.37 74.5217)" fill="white" fill-opacity="0.1"/>
<rect x="236.206" y="74.6948" width="2.84091" height="2.43111" transform="rotate(3.49562 236.206 74.6948)" fill="white" fill-opacity="0.1"/>
<rect x="239.041" y="74.8682" width="2.84091" height="2.43111" transform="rotate(3.49562 239.041 74.8682)" fill="white" fill-opacity="0.1"/>
<rect x="241.877" y="75.0413" width="2.84091" height="2.43111" transform="rotate(3.49562 241.877 75.0413)" fill="white" fill-opacity="0.1"/>
<rect x="244.713" y="75.2144" width="2.84091" height="2.43111" transform="rotate(3.49562 244.713 75.2144)" fill="white" fill-opacity="0.1"/>
<rect x="247.548" y="75.3877" width="2.84091" height="2.43111" transform="rotate(3.49562 247.548 75.3877)" fill="white" fill-opacity="0.1"/>
<rect x="250.384" y="75.5608" width="2.84091" height="2.43111" transform="rotate(3.49562 250.384 75.5608)" fill="white" fill-opacity="0.1"/>
<rect x="253.22" y="75.7341" width="2.84091" height="2.43111" transform="rotate(3.49562 253.22 75.7341)" fill="white" fill-opacity="0.1"/>
<rect x="256.055" y="75.9072" width="2.84091" height="2.43111" transform="rotate(3.49562 256.055 75.9072)" fill="white" fill-opacity="0.1"/>
<rect x="258.891" y="76.0806" width="2.84091" height="2.43111" transform="rotate(3.49562 258.891 76.0806)" fill="white" fill-opacity="0.1"/>
<rect x="261.727" y="76.2537" width="2.84091" height="2.43111" transform="rotate(3.49562 261.727 76.2537)" fill="white" fill-opacity="0.1"/>
<rect x="264.414" y="78.8538" width="2.84091" height="2.43111" transform="rotate(3.49562 264.414 78.8538)" fill="white" fill-opacity="0.1"/>
<rect x="216.06" y="78.3357" width="2.84091" height="2.43111" transform="rotate(3.49562 216.06 78.3357)" fill="white" fill-opacity="0.1"/>
<rect x="213.225" y="78.1624" width="2.84091" height="2.43111" transform="rotate(3.49562 213.225 78.1624)" fill="white" fill-opacity="0.1"/>
<rect x="204.569" y="80.0693" width="2.84091" height="2.43111" transform="rotate(3.49562 204.569 80.0693)" fill="white" fill-opacity="0.1"/>
<rect x="195.914" y="81.9763" width="2.84091" height="2.43111" transform="rotate(3.49562 195.914 81.9763)" fill="white" fill-opacity="0.1"/>
<rect x="187.259" y="83.8831" width="2.84091" height="2.43111" transform="rotate(3.49562 187.259 83.8831)" fill="white" fill-opacity="0.1"/>
<rect x="178.604" y="85.79" width="2.84091" height="2.43111" transform="rotate(3.49562 178.604 85.79)" fill="white" fill-opacity="0.1"/>
<rect x="172.784" y="87.8701" width="2.84091" height="2.43111" transform="rotate(3.49562 172.784 87.8701)" fill="white" fill-opacity="0.1"/>
<rect x="164.129" y="89.7771" width="2.84091" height="2.43111" transform="rotate(3.49562 164.129 89.7771)" fill="white" fill-opacity="0.1"/>
<rect x="155.475" y="91.6841" width="2.84091" height="2.43111" transform="rotate(3.49562 155.475 91.6841)" fill="white" fill-opacity="0.1"/>
<rect x="146.819" y="93.5911" width="2.84091" height="2.43111" transform="rotate(3.49562 146.819 93.5911)" fill="white" fill-opacity="0.1"/>
<rect x="143.983" y="93.4177" width="2.84091" height="2.43111" transform="rotate(3.49562 143.983 93.4177)" fill="white" fill-opacity="0.1"/>
<rect x="149.654" y="93.7642" width="2.84091" height="2.43111" transform="rotate(3.49562 149.654 93.7642)" fill="white" fill-opacity="0.1"/>
<rect x="152.639" y="91.511" width="2.84091" height="2.43111" transform="rotate(3.49562 152.639 91.511)" fill="white" fill-opacity="0.1"/>
<rect x="158.31" y="91.8574" width="2.84091" height="2.43111" transform="rotate(3.49562 158.31 91.8574)" fill="white" fill-opacity="0.1"/>
<rect x="161.294" y="89.604" width="2.84091" height="2.43111" transform="rotate(3.49562 161.294 89.604)" fill="white" fill-opacity="0.1"/>
<rect x="166.965" y="89.9504" width="2.84091" height="2.43111" transform="rotate(3.49562 166.965 89.9504)" fill="white" fill-opacity="0.1"/>
<rect x="169.949" y="87.697" width="2.84091" height="2.43111" transform="rotate(3.49562 169.949 87.697)" fill="white" fill-opacity="0.1"/>
<rect x="175.769" y="85.6169" width="2.84091" height="2.43111" transform="rotate(3.49562 175.769 85.6169)" fill="white" fill-opacity="0.1"/>
<rect x="181.439" y="85.9634" width="2.84091" height="2.43111" transform="rotate(3.49562 181.439 85.9634)" fill="white" fill-opacity="0.1"/>
<rect x="184.424" y="83.71" width="2.84091" height="2.43111" transform="rotate(3.49562 184.424 83.71)" fill="white" fill-opacity="0.1"/>
<rect x="190.095" y="84.0564" width="2.84091" height="2.43111" transform="rotate(3.49562 190.095 84.0564)" fill="white" fill-opacity="0.1"/>
<rect x="193.078" y="81.803" width="2.84091" height="2.43111" transform="rotate(3.49562 193.078 81.803)" fill="white" fill-opacity="0.1"/>
<rect x="198.75" y="82.1494" width="2.84091" height="2.43111" transform="rotate(3.49562 198.75 82.1494)" fill="white" fill-opacity="0.1"/>
<rect x="201.733" y="79.896" width="2.84091" height="2.43111" transform="rotate(3.49562 201.733 79.896)" fill="white" fill-opacity="0.1"/>
<rect x="207.405" y="80.2424" width="2.84091" height="2.43111" transform="rotate(3.49562 207.405 80.2424)" fill="white" fill-opacity="0.1"/>
<rect x="210.389" y="77.9893" width="2.84091" height="2.43111" transform="rotate(3.49562 210.389 77.9893)" fill="white" fill-opacity="0.1"/>
<rect x="138.164" y="95.498" width="2.84091" height="2.43111" transform="rotate(3.49562 138.164 95.498)" fill="white" fill-opacity="0.1"/>
<rect x="129.509" y="97.405" width="2.84091" height="2.43111" transform="rotate(3.49562 129.509 97.405)" fill="white" fill-opacity="0.1"/>
<rect x="118.019" y="99.1387" width="2.84091" height="2.43111" transform="rotate(3.49562 118.019 99.1387)" fill="white" fill-opacity="0.1"/>
<rect x="106.527" y="100.872" width="2.84091" height="2.43111" transform="rotate(3.49562 106.527 100.872)" fill="white" fill-opacity="0.1"/>
<rect x="89.3652" y="102.26" width="2.84091" height="2.43111" transform="rotate(3.49562 89.3652 102.26)" fill="white" fill-opacity="0.1"/>
<rect x="69.3682" y="103.474" width="2.84091" height="2.43111" transform="rotate(3.49562 69.3682 103.474)" fill="white" fill-opacity="0.1"/>
<rect x="49.5186" y="102.261" width="2.84091" height="2.43111" transform="rotate(3.49562 49.5186 102.261)" fill="white" fill-opacity="0.1"/>
<rect x="52.3545" y="102.434" width="2.84091" height="2.43111" transform="rotate(3.49562 52.3545 102.434)" fill="white" fill-opacity="0.1"/>
<rect x="55.1895" y="102.608" width="2.84091" height="2.43111" transform="rotate(3.49562 55.1895 102.608)" fill="white" fill-opacity="0.1"/>
<rect x="58.0254" y="102.781" width="2.84091" height="2.43111" transform="rotate(3.49562 58.0254 102.781)" fill="white" fill-opacity="0.1"/>
<rect x="60.8613" y="102.954" width="2.84091" height="2.43111" transform="rotate(3.49562 60.8613 102.954)" fill="white" fill-opacity="0.1"/>
<rect x="63.6963" y="103.127" width="2.84091" height="2.43111" transform="rotate(3.49562 63.6963 103.127)" fill="white" fill-opacity="0.1"/>
<rect x="66.5322" y="103.301" width="2.84091" height="2.43111" transform="rotate(3.49562 66.5322 103.301)" fill="white" fill-opacity="0.1"/>
<rect x="72.2031" y="103.647" width="2.84091" height="2.43111" transform="rotate(3.49562 72.2031 103.647)" fill="white" fill-opacity="0.1"/>
<rect x="75.0391" y="103.82" width="2.84091" height="2.43111" transform="rotate(3.49562 75.0391 103.82)" fill="white" fill-opacity="0.1"/>
<rect x="77.875" y="103.993" width="2.84091" height="2.43111" transform="rotate(3.49562 77.875 103.993)" fill="white" fill-opacity="0.1"/>
<rect x="80.8584" y="101.74" width="2.84091" height="2.43111" transform="rotate(3.49562 80.8584 101.74)" fill="white" fill-opacity="0.1"/>
<rect x="83.6943" y="101.913" width="2.84091" height="2.43111" transform="rotate(3.49562 83.6943 101.913)" fill="white" fill-opacity="0.1"/>
<rect x="86.5303" y="102.086" width="2.84091" height="2.43111" transform="rotate(3.49562 86.5303 102.086)" fill="white" fill-opacity="0.1"/>
<rect x="92.2012" y="102.433" width="2.84091" height="2.43111" transform="rotate(3.49562 92.2012 102.433)" fill="white" fill-opacity="0.1"/>
<rect x="95.0371" y="102.606" width="2.84091" height="2.43111" transform="rotate(3.49562 95.0371 102.606)" fill="white" fill-opacity="0.1"/>
<rect x="97.8721" y="102.779" width="2.84091" height="2.43111" transform="rotate(3.49562 97.8721 102.779)" fill="white" fill-opacity="0.1"/>
<rect x="100.856" y="100.526" width="2.84091" height="2.43111" transform="rotate(3.49562 100.856 100.526)" fill="white" fill-opacity="0.1"/>
<rect x="103.692" y="100.699" width="2.84091" height="2.43111" transform="rotate(3.49562 103.692 100.699)" fill="white" fill-opacity="0.1"/>
<rect x="109.363" y="101.046" width="2.84091" height="2.43111" transform="rotate(3.49562 109.363 101.046)" fill="white" fill-opacity="0.1"/>
<rect x="112.347" y="98.7922" width="2.84091" height="2.43111" transform="rotate(3.49562 112.347 98.7922)" fill="white" fill-opacity="0.1"/>
<rect x="115.183" y="98.9656" width="2.84091" height="2.43111" transform="rotate(3.49562 115.183 98.9656)" fill="white" fill-opacity="0.1"/>
<rect x="120.854" y="99.3118" width="2.84091" height="2.43111" transform="rotate(3.49562 120.854 99.3118)" fill="white" fill-opacity="0.1"/>
<rect x="123.838" y="97.0586" width="2.84091" height="2.43111" transform="rotate(3.49562 123.838 97.0586)" fill="white" fill-opacity="0.1"/>
<rect x="126.673" y="97.2317" width="2.84091" height="2.43111" transform="rotate(3.49562 126.673 97.2317)" fill="white" fill-opacity="0.1"/>
<rect x="132.345" y="97.5781" width="2.84091" height="2.43111" transform="rotate(3.49562 132.345 97.5781)" fill="white" fill-opacity="0.1"/>
<rect x="135.328" y="95.3247" width="2.84091" height="2.43111" transform="rotate(3.49562 135.328 95.3247)" fill="white" fill-opacity="0.1"/>
<rect x="141" y="95.6711" width="2.84091" height="2.43111" transform="rotate(3.49562 141 95.6711)" fill="white" fill-opacity="0.1"/>
<rect x="46.6826" y="102.088" width="2.84091" height="2.43111" transform="rotate(3.49562 46.6826 102.088)" fill="white" fill-opacity="0.1"/>
<rect x="12.9521" y="95.1562" width="2.84091" height="2.43111" transform="rotate(3.49562 12.9521 95.1562)" fill="white" fill-opacity="0.1"/>
<rect x="18.4746" y="97.9292" width="2.84091" height="2.43111" transform="rotate(3.49562 18.4746 97.9292)" fill="white" fill-opacity="0.1"/>
<rect x="26.834" y="100.875" width="2.84091" height="2.43111" transform="rotate(3.49562 26.834 100.875)" fill="white" fill-opacity="0.1"/>
<rect x="15.6396" y="97.7561" width="2.84091" height="2.43111" transform="rotate(3.49562 15.6396 97.7561)" fill="white" fill-opacity="0.1"/>
<rect x="21.3105" y="98.1025" width="2.84091" height="2.43111" transform="rotate(3.49562 21.3105 98.1025)" fill="white" fill-opacity="0.1"/>
<rect x="23.998" y="100.702" width="2.84091" height="2.43111" transform="rotate(3.49562 23.998 100.702)" fill="white" fill-opacity="0.1"/>
<rect x="29.6689" y="101.049" width="2.84091" height="2.43111" transform="rotate(3.49562 29.6689 101.049)" fill="white" fill-opacity="0.1"/>
<rect x="32.5049" y="101.222" width="2.84091" height="2.43111" transform="rotate(3.49562 32.5049 101.222)" fill="white" fill-opacity="0.1"/>
<rect x="35.3408" y="101.395" width="2.84091" height="2.43111" transform="rotate(3.49562 35.3408 101.395)" fill="white" fill-opacity="0.1"/>
<rect x="38.1758" y="101.568" width="2.84091" height="2.43111" transform="rotate(3.49562 38.1758 101.568)" fill="white" fill-opacity="0.1"/>
<rect x="41.0117" y="101.741" width="2.84091" height="2.43111" transform="rotate(3.49562 41.0117 101.741)" fill="white" fill-opacity="0.1"/>
<rect x="43.8477" y="101.915" width="2.84091" height="2.43111" transform="rotate(3.49562 43.8477 101.915)" fill="white" fill-opacity="0.1"/>
<rect x="10.2646" y="92.5564" width="2.84091" height="2.43111" transform="rotate(3.49562 10.2646 92.5564)" fill="white" fill-opacity="0.1"/>
<rect x="5.7793" y="72.7974" width="2.84091" height="2.43111" transform="rotate(3.49562 5.7793 72.7974)" fill="white" fill-opacity="0.1"/>
<rect x="5.63086" y="75.2239" width="2.84091" height="2.43111" transform="rotate(3.49562 5.63086 75.2239)" fill="white" fill-opacity="0.1"/>
<rect x="5.48242" y="77.6504" width="2.84091" height="2.43111" transform="rotate(3.49562 5.48242 77.6504)" fill="white" fill-opacity="0.1"/>
<rect x="5.33496" y="80.0771" width="2.84091" height="2.43111" transform="rotate(3.49562 5.33496 80.0771)" fill="white" fill-opacity="0.1"/>
<rect x="5.18652" y="82.5037" width="2.84091" height="2.43111" transform="rotate(3.49562 5.18652 82.5037)" fill="white" fill-opacity="0.1"/>
<rect x="5.03809" y="84.9302" width="2.84091" height="2.43111" transform="rotate(3.49562 5.03809 84.9302)" fill="white" fill-opacity="0.1"/>
<rect x="7.72559" y="87.53" width="2.84091" height="2.43111" transform="rotate(3.49562 7.72559 87.53)" fill="white" fill-opacity="0.1"/>
<rect x="7.57715" y="89.9565" width="2.84091" height="2.43111" transform="rotate(3.49562 7.57715 89.9565)" fill="white" fill-opacity="0.1"/>
<rect x="40.9922" y="55.4631" width="2.84091" height="2.43111" transform="rotate(3.49562 40.9922 55.4631)" fill="white" fill-opacity="0.1"/>
<rect x="26.666" y="57.0237" width="2.84091" height="2.43111" transform="rotate(3.49562 26.666 57.0237)" fill="white" fill-opacity="0.1"/>
<rect x="18.0107" y="58.9307" width="2.84091" height="2.43111" transform="rotate(3.49562 18.0107 58.9307)" fill="white" fill-opacity="0.1"/>
<rect x="12.1914" y="61.0107" width="2.84091" height="2.43111" transform="rotate(3.49562 12.1914 61.0107)" fill="white" fill-opacity="0.1"/>
<rect x="9.20801" y="63.2642" width="2.84091" height="2.43111" transform="rotate(3.49562 9.20801 63.2642)" fill="white" fill-opacity="0.1"/>
<rect x="9.05957" y="65.6907" width="2.84091" height="2.43111" transform="rotate(3.49562 9.05957 65.6907)" fill="white" fill-opacity="0.1"/>
<rect x="6.0752" y="67.9441" width="2.84091" height="2.43111" transform="rotate(3.49562 6.0752 67.9441)" fill="white" fill-opacity="0.1"/>
<rect x="5.92773" y="70.3706" width="2.84091" height="2.43111" transform="rotate(3.49562 5.92773 70.3706)" fill="white" fill-opacity="0.1"/>
<rect x="15.0273" y="61.1838" width="2.84091" height="2.43111" transform="rotate(3.49562 15.0273 61.1838)" fill="white" fill-opacity="0.1"/>
<rect x="20.8467" y="59.1038" width="2.84091" height="2.43111" transform="rotate(3.49562 20.8467 59.1038)" fill="white" fill-opacity="0.1"/>
<rect x="23.8301" y="56.8503" width="2.84091" height="2.43111" transform="rotate(3.49562 23.8301 56.8503)" fill="white" fill-opacity="0.1"/>
<rect x="29.502" y="57.1968" width="2.84091" height="2.43111" transform="rotate(3.49562 29.502 57.1968)" fill="white" fill-opacity="0.1"/>
<rect x="32.4854" y="54.9436" width="2.84091" height="2.43111" transform="rotate(3.49562 32.4854 54.9436)" fill="white" fill-opacity="0.1"/>
<rect x="35.3213" y="55.1167" width="2.84091" height="2.43111" transform="rotate(3.49562 35.3213 55.1167)" fill="white" fill-opacity="0.1"/>
<rect x="38.1572" y="55.29" width="2.84091" height="2.43111" transform="rotate(3.49562 38.1572 55.29)" fill="white" fill-opacity="0.1"/>
<rect x="43.8281" y="55.6365" width="2.84091" height="2.43111" transform="rotate(3.49562 43.8281 55.6365)" fill="white" fill-opacity="0.1"/>
<rect x="46.6641" y="55.8096" width="2.84091" height="2.43111" transform="rotate(3.49562 46.6641 55.8096)" fill="white" fill-opacity="0.1"/>
<rect x="49.499" y="55.9829" width="2.84091" height="2.43111" transform="rotate(3.49562 49.499 55.9829)" fill="white" fill-opacity="0.1"/>
<rect x="52.335" y="56.156" width="2.84091" height="2.43111" transform="rotate(3.49562 52.335 56.156)" fill="white" fill-opacity="0.1"/>
<rect x="55.1709" y="56.3293" width="2.84091" height="2.43111" transform="rotate(3.49562 55.1709 56.3293)" fill="white" fill-opacity="0.1"/>
<rect x="58.0059" y="56.5024" width="2.84091" height="2.43111" transform="rotate(3.49562 58.0059 56.5024)" fill="white" fill-opacity="0.1"/>
<rect x="129.489" y="51.1265" width="2.84091" height="2.43111" transform="rotate(3.49562 129.489 51.1265)" fill="white" fill-opacity="0.1"/>
<rect x="117.999" y="52.8604" width="2.84091" height="2.43111" transform="rotate(3.49562 117.999 52.8604)" fill="white" fill-opacity="0.1"/>
<rect x="106.508" y="54.594" width="2.84091" height="2.43111" transform="rotate(3.49562 106.508 54.594)" fill="white" fill-opacity="0.1"/>
<rect x="83.6748" y="55.6348" width="2.84091" height="2.43111" transform="rotate(3.49562 83.6748 55.6348)" fill="white" fill-opacity="0.1"/>
<rect x="60.8418" y="56.6755" width="2.84091" height="2.43111" transform="rotate(3.49562 60.8418 56.6755)" fill="white" fill-opacity="0.1"/>
<rect x="63.6777" y="56.8489" width="2.84091" height="2.43111" transform="rotate(3.49562 63.6777 56.8489)" fill="white" fill-opacity="0.1"/>
<rect x="66.6611" y="54.5955" width="2.84091" height="2.43111" transform="rotate(3.49562 66.6611 54.5955)" fill="white" fill-opacity="0.1"/>
<rect x="69.4971" y="54.7688" width="2.84091" height="2.43111" transform="rotate(3.49562 69.4971 54.7688)" fill="white" fill-opacity="0.1"/>
<rect x="72.333" y="54.9419" width="2.84091" height="2.43111" transform="rotate(3.49562 72.333 54.9419)" fill="white" fill-opacity="0.1"/>
<rect x="75.168" y="55.1152" width="2.84091" height="2.43111" transform="rotate(3.49562 75.168 55.1152)" fill="white" fill-opacity="0.1"/>
<rect x="78.0039" y="55.2883" width="2.84091" height="2.43111" transform="rotate(3.49562 78.0039 55.2883)" fill="white" fill-opacity="0.1"/>
<rect x="80.8389" y="55.4617" width="2.84091" height="2.43111" transform="rotate(3.49562 80.8389 55.4617)" fill="white" fill-opacity="0.1"/>
<rect x="86.5107" y="55.8081" width="2.84091" height="2.43111" transform="rotate(3.49562 86.5107 55.8081)" fill="white" fill-opacity="0.1"/>
<rect x="89.3467" y="55.9812" width="2.84091" height="2.43111" transform="rotate(3.49562 89.3467 55.9812)" fill="white" fill-opacity="0.1"/>
<rect x="92.1816" y="56.1545" width="2.84091" height="2.43111" transform="rotate(3.49562 92.1816 56.1545)" fill="white" fill-opacity="0.1"/>
<rect x="95.0176" y="56.3276" width="2.84091" height="2.43111" transform="rotate(3.49562 95.0176 56.3276)" fill="white" fill-opacity="0.1"/>
<rect x="98.001" y="54.0742" width="2.84091" height="2.43111" transform="rotate(3.49562 98.001 54.0742)" fill="white" fill-opacity="0.1"/>
<rect x="100.837" y="54.2476" width="2.84091" height="2.43111" transform="rotate(3.49562 100.837 54.2476)" fill="white" fill-opacity="0.1"/>
<rect x="103.673" y="54.4207" width="2.84091" height="2.43111" transform="rotate(3.49562 103.673 54.4207)" fill="white" fill-opacity="0.1"/>
<rect x="109.344" y="54.7671" width="2.84091" height="2.43111" transform="rotate(3.49562 109.344 54.7671)" fill="white" fill-opacity="0.1"/>
<rect x="112.18" y="54.9404" width="2.84091" height="2.43111" transform="rotate(3.49562 112.18 54.9404)" fill="white" fill-opacity="0.1"/>
<rect x="115.163" y="52.687" width="2.84091" height="2.43111" transform="rotate(3.49562 115.163 52.687)" fill="white" fill-opacity="0.1"/>
<rect x="120.835" y="53.0334" width="2.84091" height="2.43111" transform="rotate(3.49562 120.835 53.0334)" fill="white" fill-opacity="0.1"/>
<rect x="123.818" y="50.78" width="2.84091" height="2.43111" transform="rotate(3.49562 123.818 50.78)" fill="white" fill-opacity="0.1"/>
<rect x="126.654" y="50.9534" width="2.84091" height="2.43111" transform="rotate(3.49562 126.654 50.9534)" fill="white" fill-opacity="0.1"/>
<rect x="141.129" y="46.9663" width="2.84091" height="2.43111" transform="rotate(3.49562 141.129 46.9663)" fill="white" fill-opacity="0.1"/>
<rect x="135.309" y="49.0464" width="2.84091" height="2.43111" transform="rotate(3.49562 135.309 49.0464)" fill="white" fill-opacity="0.1"/>
<rect x="132.474" y="48.873" width="2.84091" height="2.43111" transform="rotate(3.49562 132.474 48.873)" fill="white" fill-opacity="0.1"/>
<rect x="138.145" y="49.2195" width="2.84091" height="2.43111" transform="rotate(3.49562 138.145 49.2195)" fill="white" fill-opacity="0.1"/>
<rect x="143.964" y="47.1394" width="2.84091" height="2.43111" transform="rotate(3.49562 143.964 47.1394)" fill="white" fill-opacity="0.1"/>
<rect x="144.112" y="44.7129" width="2.84091" height="2.43111" transform="rotate(3.49562 144.112 44.7129)" fill="white" fill-opacity="0.1"/>
<rect x="155.751" y="40.5525" width="2.84091" height="2.43111" transform="rotate(3.49562 155.751 40.5525)" fill="white" fill-opacity="0.1"/>
<rect x="149.932" y="42.6326" width="2.84091" height="2.43111" transform="rotate(3.49562 149.932 42.6326)" fill="white" fill-opacity="0.1"/>
<rect x="146.948" y="44.886" width="2.84091" height="2.43111" transform="rotate(3.49562 146.948 44.886)" fill="white" fill-opacity="0.1"/>
<rect x="152.916" y="40.3794" width="2.84091" height="2.43111" transform="rotate(3.49562 152.916 40.3794)" fill="white" fill-opacity="0.1"/>
<rect x="155.899" y="38.126" width="2.84091" height="2.43111" transform="rotate(3.49562 155.899 38.126)" fill="white" fill-opacity="0.1"/>
<rect x="164.555" y="36.219" width="2.84091" height="2.43111" transform="rotate(3.49562 164.555 36.219)" fill="white" fill-opacity="0.1"/>
<rect x="158.735" y="38.2991" width="2.84091" height="2.43111" transform="rotate(3.49562 158.735 38.2991)" fill="white" fill-opacity="0.1"/>
<rect x="161.719" y="36.0459" width="2.84091" height="2.43111" transform="rotate(3.49562 161.719 36.0459)" fill="white" fill-opacity="0.1"/>
<rect x="167.538" y="33.9656" width="2.84091" height="2.43111" transform="rotate(3.49562 167.538 33.9656)" fill="white" fill-opacity="0.1"/>
<rect x="170.374" y="34.1389" width="2.84091" height="2.43111" transform="rotate(3.49562 170.374 34.1389)" fill="white" fill-opacity="0.1"/>
<rect x="187.388" y="35.1782" width="2.84091" height="2.43111" transform="rotate(3.49562 187.388 35.1782)" fill="white" fill-opacity="0.1"/>
<rect x="173.21" y="34.312" width="2.84091" height="2.43111" transform="rotate(3.49562 173.21 34.312)" fill="white" fill-opacity="0.1"/>
<rect x="176.046" y="34.4854" width="2.84091" height="2.43111" transform="rotate(3.49562 176.046 34.4854)" fill="white" fill-opacity="0.1"/>
<rect x="178.881" y="34.6584" width="2.84091" height="2.43111" transform="rotate(3.49562 178.881 34.6584)" fill="white" fill-opacity="0.1"/>
<rect x="181.717" y="34.8318" width="2.84091" height="2.43111" transform="rotate(3.49562 181.717 34.8318)" fill="white" fill-opacity="0.1"/>
<rect x="184.553" y="35.0049" width="2.84091" height="2.43111" transform="rotate(3.49562 184.553 35.0049)" fill="white" fill-opacity="0.1"/>
<rect x="190.224" y="35.3513" width="2.84091" height="2.43111" transform="rotate(3.49562 190.224 35.3513)" fill="white" fill-opacity="0.1"/>
<rect x="193.06" y="35.5247" width="2.84091" height="2.43111" transform="rotate(3.49562 193.06 35.5247)" fill="white" fill-opacity="0.1"/>
<rect x="198.582" y="38.2976" width="2.84091" height="2.43111" transform="rotate(3.49562 198.582 38.2976)" fill="white" fill-opacity="0.1"/>
<rect x="206.94" y="41.2439" width="2.84091" height="2.43111" transform="rotate(3.49562 206.94 41.2439)" fill="white" fill-opacity="0.1"/>
<rect x="195.746" y="38.1245" width="2.84091" height="2.43111" transform="rotate(3.49562 195.746 38.1245)" fill="white" fill-opacity="0.1"/>
<rect x="201.418" y="38.4709" width="2.84091" height="2.43111" transform="rotate(3.49562 201.418 38.4709)" fill="white" fill-opacity="0.1"/>
<rect x="204.105" y="41.0706" width="2.84091" height="2.43111" transform="rotate(3.49562 204.105 41.0706)" fill="white" fill-opacity="0.1"/>
<rect x="209.776" y="41.417" width="2.84091" height="2.43111" transform="rotate(3.49562 209.776 41.417)" fill="white" fill-opacity="0.1"/>
<rect x="212.612" y="41.5903" width="2.84091" height="2.43111" transform="rotate(3.49562 212.612 41.5903)" fill="white" fill-opacity="0.1"/>
<rect x="218.135" y="44.3633" width="2.84091" height="2.43111" transform="rotate(3.49562 218.135 44.3633)" fill="white" fill-opacity="0.1"/>
<rect x="215.3" y="44.1899" width="2.84091" height="2.43111" transform="rotate(3.49562 215.3 44.1899)" fill="white" fill-opacity="0.1"/>
<rect x="226.79" y="42.4563" width="2.84091" height="2.43111" transform="rotate(3.49562 226.79 42.4563)" fill="white" fill-opacity="0.1"/>
<rect x="220.971" y="44.5364" width="2.84091" height="2.43111" transform="rotate(3.49562 220.971 44.5364)" fill="white" fill-opacity="0.1"/>
<rect x="223.807" y="44.7097" width="2.84091" height="2.43111" transform="rotate(3.49562 223.807 44.7097)" fill="white" fill-opacity="0.1"/>
</g>
<defs>
<filter id="filter0_d_1_95430" x="0.889648" y="24.5964" width="511.369" height="96.3965" filterUnits="userSpaceOnUse" color-interpolation-filters="sRGB">
<feFlood flood-opacity="0" result="BackgroundImageFix"/>
<feColorMatrix in="SourceAlpha" type="matrix" values="0 0 0 0 0 0 0 0 0 0 0 0 0 0 0 0 0 0 127 0" result="hardAlpha"/>
<feOffset dy="4"/>
<feGaussianBlur stdDeviation="2"/>
<feComposite in2="hardAlpha" operator="out"/>
<feColorMatrix type="matrix" values="0 0 0 0 0 0 0 0 0 0 0 0 0 0 0 0 0 0 0.25 0"/>
<feBlend mode="normal" in2="BackgroundImageFix" result="effect1_dropShadow_1_95430"/>
<feBlend mode="normal" in="SourceGraphic" in2="effect1_dropShadow_1_95430" result="shape"/>
</filter>
</defs>
</svg>
