<svg width="104" height="57" viewBox="0 0 104 57" fill="none" xmlns="http://www.w3.org/2000/svg">
<path d="M32.6399 50.3603C27.5407 50.3289 36.0581 53.4721 30.9586 53.4721C27.4954 55.6088 22.5956 55.7762 18.3763 55.9203L18.181 55.927C16.6296 55.9802 10.5452 56.8294 9.18616 55.8233C0.82093 49.63 -1.36779 42.479 0.905897 33.3142C4.44831 19.0352 12.5293 -1.13183 34.153 1.33114C40.7674 2.08452 47.0468 4.88156 53.6978 5.86063C77.6223 9.38246 101.34 9.79529 124.69 16.2681C138.082 19.9808 155.49 25.1075 164.956 34.5243C166.938 36.4961 167.192 39.1343 166.973 41.5779C166.628 45.4344 163.804 48.8176 159.45 50.3257C152.875 52.6031 144.482 51.677 137.635 50.9826C126.627 49.8661 115.826 47.369 104.682 47.2484C95.9765 47.1542 87.6476 48.5363 79.3792 50.6369C72.3484 52.423 65.1139 52.3834 57.8169 52.1928C49.37 51.9722 41.1226 50.4123 32.6399 50.3603Z" fill="white" fill-opacity="0.2"/>
<rect x="29.8623" y="50.6663" width="1.8664" height="1.53534" fill="white" fill-opacity="0.2"/>
<rect x="31.7285" y="52.2014" width="1.8664" height="1.53534" fill="white" fill-opacity="0.2"/>
<rect x="29.8623" y="52.2014" width="1.8664" height="1.53534" fill="white" fill-opacity="0.2"/>
<rect x="31.7285" y="49.1309" width="1.8664" height="1.53534" fill="white" fill-opacity="0.2"/>
<rect x="46.6602" y="50.6663" width="1.8664" height="1.53534" fill="white" fill-opacity="0.2"/>
<rect x="33.5947" y="49.1309" width="1.8664" height="1.53534" fill="white" fill-opacity="0.2"/>
<rect x="35.4619" y="49.1309" width="1.8664" height="1.53534" fill="white" fill-opacity="0.2"/>
<rect x="37.3281" y="49.1309" width="1.8664" height="1.53534" fill="white" fill-opacity="0.2"/>
<rect x="39.1943" y="50.6663" width="1.8664" height="1.53534" fill="white" fill-opacity="0.2"/>
<rect x="41.0605" y="50.6663" width="1.8664" height="1.53534" fill="white" fill-opacity="0.2"/>
<rect x="42.9268" y="50.6663" width="1.8664" height="1.53534" fill="white" fill-opacity="0.2"/>
<rect x="44.7939" y="50.6663" width="1.8664" height="1.53534" fill="white" fill-opacity="0.2"/>
<rect x="48.5264" y="50.6663" width="1.8664" height="1.53534" fill="white" fill-opacity="0.2"/>
<rect x="50.3926" y="50.6663" width="1.8664" height="1.53534" fill="white" fill-opacity="0.2"/>
<rect x="52.2588" y="50.6663" width="1.8664" height="1.53534" fill="white" fill-opacity="0.2"/>
<rect x="54.126" y="50.6663" width="1.8664" height="1.53534" fill="white" fill-opacity="0.2"/>
<rect x="55.9922" y="50.6663" width="1.8664" height="1.53534" fill="white" fill-opacity="0.2"/>
<rect x="74.6562" y="50.6663" width="1.8664" height="1.53534" fill="white" fill-opacity="0.2"/>
<rect x="57.8584" y="52.2014" width="1.8664" height="1.53534" fill="white" fill-opacity="0.2"/>
<rect x="59.7246" y="52.2014" width="1.8664" height="1.53534" fill="white" fill-opacity="0.2"/>
<rect x="61.5908" y="52.2014" width="1.8664" height="1.53534" fill="white" fill-opacity="0.2"/>
<rect x="63.457" y="52.2014" width="1.8664" height="1.53534" fill="white" fill-opacity="0.2"/>
<rect x="65.3242" y="52.2014" width="1.8664" height="1.53534" fill="white" fill-opacity="0.2"/>
<rect x="67.1904" y="50.6663" width="1.8664" height="1.53534" fill="white" fill-opacity="0.2"/>
<rect x="69.0566" y="50.6663" width="1.8664" height="1.53534" fill="white" fill-opacity="0.2"/>
<rect x="70.9229" y="50.6663" width="1.8664" height="1.53534" fill="white" fill-opacity="0.2"/>
<rect x="72.7891" y="50.6663" width="1.8664" height="1.53534" fill="white" fill-opacity="0.2"/>
<rect x="76.5225" y="50.6663" width="1.8664" height="1.53534" fill="white" fill-opacity="0.2"/>
<rect x="78.3887" y="49.1309" width="1.8664" height="1.53534" fill="white" fill-opacity="0.2"/>
<rect x="89.5869" y="47.5955" width="1.8664" height="1.53534" fill="white" fill-opacity="0.2"/>
<rect x="82.1211" y="49.1309" width="1.8664" height="1.53534" fill="white" fill-opacity="0.2"/>
<rect x="80.2549" y="49.1309" width="1.8664" height="1.53534" fill="white" fill-opacity="0.2"/>
<rect x="83.9883" y="49.1309" width="1.8664" height="1.53534" fill="white" fill-opacity="0.2"/>
<rect x="85.8545" y="47.5955" width="1.8664" height="1.53534" fill="white" fill-opacity="0.2"/>
<rect x="87.7207" y="47.5955" width="1.8664" height="1.53534" fill="white" fill-opacity="0.2"/>
<rect x="91.4531" y="47.5955" width="1.8664" height="1.53534" fill="white" fill-opacity="0.2"/>
<rect x="93.3203" y="47.5955" width="1.8664" height="1.53534" fill="white" fill-opacity="0.2"/>
<rect x="95.1865" y="47.5955" width="1.8664" height="1.53534" fill="white" fill-opacity="0.2"/>
<rect x="97.0527" y="46.0601" width="1.8664" height="1.53534" fill="white" fill-opacity="0.2"/>
<rect x="98.9189" y="46.0601" width="1.8664" height="1.53534" fill="white" fill-opacity="0.2"/>
<rect x="100.785" y="46.0601" width="1.8664" height="1.53534" fill="white" fill-opacity="0.2"/>
<rect x="102.652" y="46.0601" width="1.8664" height="1.53534" fill="white" fill-opacity="0.2"/>
<rect x="59.7246" y="6.14136" width="1.8664" height="1.53534" fill="white" fill-opacity="0.2"/>
<rect x="74.6562" y="7.67676" width="1.8664" height="1.53534" fill="white" fill-opacity="0.2"/>
<rect x="89.5869" y="9.21216" width="1.8664" height="1.53534" fill="white" fill-opacity="0.2"/>
<rect x="100.785" y="10.7473" width="1.8664" height="1.53534" fill="white" fill-opacity="0.2"/>
<rect x="54.126" y="4.60596" width="1.8664" height="1.53534" fill="white" fill-opacity="0.2"/>
<rect x="55.9922" y="6.14136" width="1.8664" height="1.53534" fill="white" fill-opacity="0.2"/>
<rect x="57.8584" y="6.14136" width="1.8664" height="1.53534" fill="white" fill-opacity="0.2"/>
<rect x="61.5908" y="6.14136" width="1.8664" height="1.53534" fill="white" fill-opacity="0.2"/>
<rect x="63.457" y="6.14136" width="1.8664" height="1.53534" fill="white" fill-opacity="0.2"/>
<rect x="65.3242" y="6.14136" width="1.8664" height="1.53534" fill="white" fill-opacity="0.2"/>
<rect x="67.1904" y="7.67676" width="1.8664" height="1.53534" fill="white" fill-opacity="0.2"/>
<rect x="69.0566" y="7.67676" width="1.8664" height="1.53534" fill="white" fill-opacity="0.2"/>
<rect x="70.9229" y="7.67676" width="1.8664" height="1.53534" fill="white" fill-opacity="0.2"/>
<rect x="72.7891" y="7.67676" width="1.8664" height="1.53534" fill="white" fill-opacity="0.2"/>
<rect x="76.5225" y="7.67676" width="1.8664" height="1.53534" fill="white" fill-opacity="0.2"/>
<rect x="78.3887" y="7.67676" width="1.8664" height="1.53534" fill="white" fill-opacity="0.2"/>
<rect x="80.2549" y="7.67676" width="1.8664" height="1.53534" fill="white" fill-opacity="0.2"/>
<rect x="82.1211" y="9.21216" width="1.8664" height="1.53534" fill="white" fill-opacity="0.2"/>
<rect x="83.9883" y="9.21216" width="1.8664" height="1.53534" fill="white" fill-opacity="0.2"/>
<rect x="85.8545" y="9.21216" width="1.8664" height="1.53534" fill="white" fill-opacity="0.2"/>
<rect x="87.7207" y="9.21216" width="1.8664" height="1.53534" fill="white" fill-opacity="0.2"/>
<rect x="91.4531" y="9.21216" width="1.8664" height="1.53534" fill="white" fill-opacity="0.2"/>
<rect x="93.3203" y="9.21216" width="1.8664" height="1.53534" fill="white" fill-opacity="0.2"/>
<rect x="95.1865" y="10.7473" width="1.8664" height="1.53534" fill="white" fill-opacity="0.2"/>
<rect x="97.0527" y="10.7473" width="1.8664" height="1.53534" fill="white" fill-opacity="0.2"/>
<rect x="98.9189" y="10.7473" width="1.8664" height="1.53534" fill="white" fill-opacity="0.2"/>
<rect x="102.652" y="10.7473" width="1.8664" height="1.53534" fill="white" fill-opacity="0.2"/>
<rect x="52.2588" y="4.60596" width="1.8664" height="1.53534" fill="white" fill-opacity="0.2"/>
<rect x="39.1943" y="1.5354" width="1.8664" height="1.53534" fill="white" fill-opacity="0.2"/>
<rect x="44.7939" y="3.0708" width="1.8664" height="1.53534" fill="white" fill-opacity="0.2"/>
<rect x="50.3926" y="4.60596" width="1.8664" height="1.53534" fill="white" fill-opacity="0.2"/>
<rect x="33.5947" width="1.8664" height="1.53534" fill="white" fill-opacity="0.2"/>
<rect x="35.4619" y="1.5354" width="1.8664" height="1.53534" fill="white" fill-opacity="0.2"/>
<rect x="37.3281" y="1.5354" width="1.8664" height="1.53534" fill="white" fill-opacity="0.2"/>
<rect x="41.0605" y="1.5354" width="1.8664" height="1.53534" fill="white" fill-opacity="0.2"/>
<rect x="42.9268" y="3.0708" width="1.8664" height="1.53534" fill="white" fill-opacity="0.2"/>
<rect x="46.6602" y="3.0708" width="1.8664" height="1.53534" fill="white" fill-opacity="0.2"/>
<rect x="48.5264" y="4.60596" width="1.8664" height="1.53534" fill="white" fill-opacity="0.2"/>
<rect x="22.3965" y="1.5354" width="1.8664" height="1.53534" fill="white" fill-opacity="0.2"/>
<rect x="18.6641" y="3.0708" width="1.8664" height="1.53534" fill="white" fill-opacity="0.2"/>
<rect x="14.9316" y="4.60596" width="1.8664" height="1.53534" fill="white" fill-opacity="0.2"/>
<rect x="13.0645" y="6.14136" width="1.8664" height="1.53534" fill="white" fill-opacity="0.2"/>
<rect x="11.1982" y="7.67676" width="1.8664" height="1.53534" fill="white" fill-opacity="0.2"/>
<rect x="11.1982" y="9.21216" width="1.8664" height="1.53534" fill="white" fill-opacity="0.2"/>
<rect x="9.33203" y="10.7473" width="1.8664" height="1.53534" fill="white" fill-opacity="0.2"/>
<rect x="7.46582" y="12.2827" width="1.8664" height="1.53534" fill="white" fill-opacity="0.2"/>
<rect x="7.46582" y="13.8181" width="1.8664" height="1.53534" fill="white" fill-opacity="0.2"/>
<rect x="5.59961" y="15.3535" width="1.8664" height="1.53534" fill="white" fill-opacity="0.2"/>
<rect x="5.59961" y="16.8887" width="1.8664" height="1.53534" fill="white" fill-opacity="0.2"/>
<rect x="5.59961" y="18.4241" width="1.8664" height="1.53534" fill="white" fill-opacity="0.2"/>
<rect x="3.7334" y="19.9595" width="1.8664" height="1.53534" fill="white" fill-opacity="0.2"/>
<rect x="3.7334" y="21.4949" width="1.8664" height="1.53534" fill="white" fill-opacity="0.2"/>
<rect x="3.7334" y="23.03" width="1.8664" height="1.53534" fill="white" fill-opacity="0.2"/>
<rect x="1.86621" y="24.5654" width="1.8664" height="1.53534" fill="white" fill-opacity="0.2"/>
<rect x="1.86621" y="26.1008" width="1.8664" height="1.53534" fill="white" fill-opacity="0.2"/>
<rect x="1.86621" y="27.6362" width="1.8664" height="1.53534" fill="white" fill-opacity="0.2"/>
<rect y="29.1714" width="1.8664" height="1.53534" fill="white" fill-opacity="0.2"/>
<rect y="30.7068" width="1.8664" height="1.53534" fill="white" fill-opacity="0.2"/>
<rect y="32.2422" width="1.8664" height="1.53534" fill="white" fill-opacity="0.2"/>
<rect x="16.7979" y="4.60596" width="1.8664" height="1.53534" fill="white" fill-opacity="0.2"/>
<rect x="20.5303" y="1.5354" width="1.8664" height="1.53534" fill="white" fill-opacity="0.2"/>
<rect x="24.2627" y="1.5354" width="1.8664" height="1.53534" fill="white" fill-opacity="0.2"/>
<rect x="26.1299" width="1.8664" height="1.53534" fill="white" fill-opacity="0.2"/>
<rect x="27.9961" width="1.8664" height="1.53534" fill="white" fill-opacity="0.2"/>
<rect x="29.8623" width="1.8664" height="1.53534" fill="white" fill-opacity="0.2"/>
<rect x="31.7285" width="1.8664" height="1.53534" fill="white" fill-opacity="0.2"/>
<rect y="33.7773" width="1.8664" height="1.53534" fill="white" fill-opacity="0.2"/>
<rect y="35.3127" width="1.8664" height="1.53534" fill="white" fill-opacity="0.2"/>
<rect y="36.8481" width="1.8664" height="1.53534" fill="white" fill-opacity="0.2"/>
<rect y="38.3835" width="1.8664" height="1.53534" fill="white" fill-opacity="0.2"/>
<rect y="39.9187" width="1.8664" height="1.53534" fill="white" fill-opacity="0.2"/>
<rect y="41.4541" width="1.8664" height="1.53534" fill="white" fill-opacity="0.2"/>
<rect y="42.9895" width="1.8664" height="1.53534" fill="white" fill-opacity="0.2"/>
<rect y="44.5247" width="1.8664" height="1.53534" fill="white" fill-opacity="0.2"/>
<rect y="46.0601" width="1.8664" height="1.53534" fill="white" fill-opacity="0.2"/>
<rect x="1.86621" y="47.5955" width="1.8664" height="1.53534" fill="white" fill-opacity="0.2"/>
<rect x="1.86621" y="49.1309" width="1.8664" height="1.53534" fill="white" fill-opacity="0.2"/>
<rect x="3.7334" y="50.6663" width="1.8664" height="1.53534" fill="white" fill-opacity="0.2"/>
<rect x="5.59961" y="52.2014" width="1.8664" height="1.53534" fill="white" fill-opacity="0.2"/>
<rect x="7.46582" y="53.7368" width="1.8664" height="1.53534" fill="white" fill-opacity="0.2"/>
<rect x="7.46582" y="55.2722" width="1.8664" height="1.53534" fill="white" fill-opacity="0.2"/>
<rect x="9.33203" y="55.2722" width="1.8664" height="1.53534" fill="white" fill-opacity="0.2"/>
<rect x="14.9316" y="55.2722" width="1.8664" height="1.53534" fill="white" fill-opacity="0.2"/>
<rect x="11.1982" y="55.2722" width="1.8664" height="1.53534" fill="white" fill-opacity="0.2"/>
<rect x="13.0645" y="55.2722" width="1.8664" height="1.53534" fill="white" fill-opacity="0.2"/>
<rect x="16.7979" y="55.2722" width="1.8664" height="1.53534" fill="white" fill-opacity="0.2"/>
<rect x="27.9961" y="53.7368" width="1.8664" height="1.53534" fill="white" fill-opacity="0.2"/>
<rect x="18.6641" y="55.2722" width="1.8664" height="1.53534" fill="white" fill-opacity="0.2"/>
<rect x="20.5303" y="55.2722" width="1.8664" height="1.53534" fill="white" fill-opacity="0.2"/>
<rect x="22.3965" y="55.2722" width="1.8664" height="1.53534" fill="white" fill-opacity="0.2"/>
<rect x="24.2627" y="55.2722" width="1.8664" height="1.53534" fill="white" fill-opacity="0.2"/>
<rect x="26.1299" y="53.7368" width="1.8664" height="1.53534" fill="white" fill-opacity="0.2"/>
</svg>
