<svg width="300" height="161" viewBox="0 0 300 161" fill="none" xmlns="http://www.w3.org/2000/svg">
<path d="M256.049 71.142C245.478 70.6448 236.763 71.7322 226.199 71.0869C223.45 73.1635 220.455 74.2016 216.84 73.8656C214.371 73.6361 211.577 72.616 209.294 71.8691C202.581 69.6724 195.916 67.1585 189.058 65.328C182.353 63.5386 173.341 62.1543 166.452 63.7377C162.146 64.7276 158.299 66.8176 154.41 68.5862C150.358 70.4288 146.689 72.8072 142.673 74.6864C137.649 77.0373 132.088 78.7561 126.574 80.0781C103.985 85.494 78.8157 85.0036 55.4763 84.9488C39.2559 84.9107 5.21921 82.2067 2.7205 102.015C1.9153 108.398 2.6276 116.779 7.70143 121.956C16.389 130.821 32.3048 131.743 44.5329 132.35C77.2641 133.973 108.672 130.383 140.274 123.749C164.928 118.574 189.013 111.383 213.801 106.696C230.566 103.526 247.544 103.943 264.316 107.618C285.199 112.193 304.557 121.138 324.894 127.186C352.965 135.534 382.623 137.975 412.025 138.465C431.172 138.784 450.33 137.991 467.592 130.575C479.337 125.529 488.385 118.52 495.337 109.003C499.924 102.724 501.773 96.0288 502.831 88.7064C503.238 85.8836 505.022 78.184 501.706 75.9573C499.055 74.1769 493.552 75.4067 490.586 75.5107C483.642 75.7541 476.481 75.3576 469.838 73.3358C464.555 71.7279 460.4 68.2684 456.857 64.6321C451.289 58.9191 444.613 55.5537 435.844 54.7631C423.381 53.6392 410.265 54.9424 397.963 56.2183C382.451 57.8269 367.538 61.1877 352.394 64.2305C335.431 67.639 318.359 70.5657 300.886 71.5542C285.984 72.3972 270.975 71.8441 256.049 71.142Z" fill="white" fill-opacity="0.2"/>
<rect x="251.297" y="69.7625" width="2.84091" height="2.43111" transform="rotate(3.49562 251.297 69.7625)" fill="white" fill-opacity="0.2"/>
<rect x="225.627" y="70.6301" width="2.84091" height="2.43111" transform="rotate(3.49562 225.627 70.6301)" fill="white" fill-opacity="0.2"/>
<rect x="228.463" y="70.8032" width="2.84091" height="2.43111" transform="rotate(3.49562 228.463 70.8032)" fill="white" fill-opacity="0.2"/>
<rect x="231.299" y="70.9763" width="2.84091" height="2.43111" transform="rotate(3.49562 231.299 70.9763)" fill="white" fill-opacity="0.2"/>
<rect x="234.135" y="71.1497" width="2.84091" height="2.43111" transform="rotate(3.49562 234.135 71.1497)" fill="white" fill-opacity="0.2"/>
<rect x="237.117" y="68.8962" width="2.84091" height="2.43111" transform="rotate(3.49562 237.117 68.8962)" fill="white" fill-opacity="0.2"/>
<rect x="239.953" y="69.0696" width="2.84091" height="2.43111" transform="rotate(3.49562 239.953 69.0696)" fill="white" fill-opacity="0.2"/>
<rect x="242.789" y="69.2427" width="2.84091" height="2.43111" transform="rotate(3.49562 242.789 69.2427)" fill="white" fill-opacity="0.2"/>
<rect x="245.625" y="69.416" width="2.84091" height="2.43111" transform="rotate(3.49562 245.625 69.416)" fill="white" fill-opacity="0.2"/>
<rect x="248.461" y="69.5891" width="2.84091" height="2.43111" transform="rotate(3.49562 248.461 69.5891)" fill="white" fill-opacity="0.2"/>
<rect x="254.131" y="69.9355" width="2.84091" height="2.43111" transform="rotate(3.49562 254.131 69.9355)" fill="white" fill-opacity="0.2"/>
<rect x="299.65" y="70.2805" width="2.84091" height="2.43111" transform="rotate(3.49562 299.65 70.2805)" fill="white" fill-opacity="0.2"/>
<rect x="256.967" y="70.1086" width="2.84091" height="2.43111" transform="rotate(3.49562 256.967 70.1086)" fill="white" fill-opacity="0.2"/>
<rect x="259.803" y="70.282" width="2.84091" height="2.43111" transform="rotate(3.49562 259.803 70.282)" fill="white" fill-opacity="0.2"/>
<rect x="262.639" y="70.4553" width="2.84091" height="2.43111" transform="rotate(3.49562 262.639 70.4553)" fill="white" fill-opacity="0.2"/>
<rect x="265.475" y="70.6284" width="2.84091" height="2.43111" transform="rotate(3.49562 265.475 70.6284)" fill="white" fill-opacity="0.2"/>
<rect x="268.311" y="70.8018" width="2.84091" height="2.43111" transform="rotate(3.49562 268.311 70.8018)" fill="white" fill-opacity="0.2"/>
<rect x="271.145" y="70.9749" width="2.84091" height="2.43111" transform="rotate(3.49562 271.145 70.9749)" fill="white" fill-opacity="0.2"/>
<rect x="273.98" y="71.1482" width="2.84091" height="2.43111" transform="rotate(3.49562 273.98 71.1482)" fill="white" fill-opacity="0.2"/>
<rect x="276.816" y="71.3213" width="2.84091" height="2.43111" transform="rotate(3.49562 276.816 71.3213)" fill="white" fill-opacity="0.2"/>
<rect x="279.652" y="71.4946" width="2.84091" height="2.43111" transform="rotate(3.49562 279.652 71.4946)" fill="white" fill-opacity="0.2"/>
<rect x="282.488" y="71.6677" width="2.84091" height="2.43111" transform="rotate(3.49562 282.488 71.6677)" fill="white" fill-opacity="0.2"/>
<rect x="285.324" y="71.8411" width="2.84091" height="2.43111" transform="rotate(3.49562 285.324 71.8411)" fill="white" fill-opacity="0.2"/>
<rect x="288.307" y="69.5876" width="2.84091" height="2.43111" transform="rotate(3.49562 288.307 69.5876)" fill="white" fill-opacity="0.2"/>
<rect x="291.143" y="69.7607" width="2.84091" height="2.43111" transform="rotate(3.49562 291.143 69.7607)" fill="white" fill-opacity="0.2"/>
<rect x="293.979" y="69.9341" width="2.84091" height="2.43111" transform="rotate(3.49562 293.979 69.9341)" fill="white" fill-opacity="0.2"/>
<rect x="296.814" y="70.1072" width="2.84091" height="2.43111" transform="rotate(3.49562 296.814 70.1072)" fill="white" fill-opacity="0.2"/>
<rect x="266.086" y="107.2" width="2.84091" height="2.43111" transform="rotate(3.49562 266.086 107.2)" fill="white" fill-opacity="0.2"/>
<rect x="277.281" y="110.32" width="2.84091" height="2.43111" transform="rotate(3.49562 277.281 110.32)" fill="white" fill-opacity="0.2"/>
<rect x="288.475" y="113.439" width="2.84091" height="2.43111" transform="rotate(3.49562 288.475 113.439)" fill="white" fill-opacity="0.2"/>
<rect x="296.834" y="116.386" width="2.84091" height="2.43111" transform="rotate(3.49562 296.834 116.386)" fill="white" fill-opacity="0.2"/>
<rect x="263.25" y="107.027" width="2.84091" height="2.43111" transform="rotate(3.49562 263.25 107.027)" fill="white" fill-opacity="0.2"/>
<rect x="268.922" y="107.374" width="2.84091" height="2.43111" transform="rotate(3.49562 268.922 107.374)" fill="white" fill-opacity="0.2"/>
<rect x="271.758" y="107.547" width="2.84091" height="2.43111" transform="rotate(3.49562 271.758 107.547)" fill="white" fill-opacity="0.2"/>
<rect x="274.445" y="110.147" width="2.84091" height="2.43111" transform="rotate(3.49562 274.445 110.147)" fill="white" fill-opacity="0.2"/>
<rect x="280.117" y="110.493" width="2.84091" height="2.43111" transform="rotate(3.49562 280.117 110.493)" fill="white" fill-opacity="0.2"/>
<rect x="282.803" y="113.093" width="2.84091" height="2.43111" transform="rotate(3.49562 282.803 113.093)" fill="white" fill-opacity="0.2"/>
<rect x="285.639" y="113.266" width="2.84091" height="2.43111" transform="rotate(3.49562 285.639 113.266)" fill="white" fill-opacity="0.2"/>
<rect x="291.311" y="113.613" width="2.84091" height="2.43111" transform="rotate(3.49562 291.311 113.613)" fill="white" fill-opacity="0.2"/>
<rect x="293.998" y="116.212" width="2.84091" height="2.43111" transform="rotate(3.49562 293.998 116.212)" fill="white" fill-opacity="0.2"/>
<rect x="299.67" y="116.559" width="2.84091" height="2.43111" transform="rotate(3.49562 299.67 116.559)" fill="white" fill-opacity="0.2"/>
<rect x="217.881" y="104.256" width="2.84091" height="2.43111" transform="rotate(3.49562 217.881 104.256)" fill="white" fill-opacity="0.2"/>
<rect x="215.045" y="104.083" width="2.84091" height="2.43111" transform="rotate(3.49562 215.045 104.083)" fill="white" fill-opacity="0.2"/>
<rect x="220.717" y="104.429" width="2.84091" height="2.43111" transform="rotate(3.49562 220.717 104.429)" fill="white" fill-opacity="0.2"/>
<rect x="223.553" y="104.602" width="2.84091" height="2.43111" transform="rotate(3.49562 223.553 104.602)" fill="white" fill-opacity="0.2"/>
<rect x="226.387" y="104.775" width="2.84091" height="2.43111" transform="rotate(3.49562 226.387 104.775)" fill="white" fill-opacity="0.2"/>
<rect x="229.371" y="102.522" width="2.84091" height="2.43111" transform="rotate(3.49562 229.371 102.522)" fill="white" fill-opacity="0.2"/>
<rect x="232.207" y="102.695" width="2.84091" height="2.43111" transform="rotate(3.49562 232.207 102.695)" fill="white" fill-opacity="0.2"/>
<rect x="235.043" y="102.868" width="2.84091" height="2.43111" transform="rotate(3.49562 235.043 102.868)" fill="white" fill-opacity="0.2"/>
<rect x="237.879" y="103.042" width="2.84091" height="2.43111" transform="rotate(3.49562 237.879 103.042)" fill="white" fill-opacity="0.2"/>
<rect x="240.713" y="103.215" width="2.84091" height="2.43111" transform="rotate(3.49562 240.713 103.215)" fill="white" fill-opacity="0.2"/>
<rect x="243.549" y="103.388" width="2.84091" height="2.43111" transform="rotate(3.49562 243.549 103.388)" fill="white" fill-opacity="0.2"/>
<rect x="246.385" y="103.561" width="2.84091" height="2.43111" transform="rotate(3.49562 246.385 103.561)" fill="white" fill-opacity="0.2"/>
<rect x="249.221" y="103.735" width="2.84091" height="2.43111" transform="rotate(3.49562 249.221 103.735)" fill="white" fill-opacity="0.2"/>
<rect x="252.057" y="103.908" width="2.84091" height="2.43111" transform="rotate(3.49562 252.057 103.908)" fill="white" fill-opacity="0.2"/>
<rect x="254.893" y="104.081" width="2.84091" height="2.43111" transform="rotate(3.49562 254.893 104.081)" fill="white" fill-opacity="0.2"/>
<rect x="257.729" y="104.254" width="2.84091" height="2.43111" transform="rotate(3.49562 257.729 104.254)" fill="white" fill-opacity="0.2"/>
<rect x="260.416" y="106.854" width="2.84091" height="2.43111" transform="rotate(3.49562 260.416 106.854)" fill="white" fill-opacity="0.2"/>
<rect x="212.061" y="106.336" width="2.84091" height="2.43111" transform="rotate(3.49562 212.061 106.336)" fill="white" fill-opacity="0.2"/>
<rect x="209.227" y="106.163" width="2.84091" height="2.43111" transform="rotate(3.49562 209.227 106.163)" fill="white" fill-opacity="0.2"/>
<rect x="200.57" y="108.07" width="2.84091" height="2.43111" transform="rotate(3.49562 200.57 108.07)" fill="white" fill-opacity="0.2"/>
<rect x="191.916" y="109.977" width="2.84091" height="2.43111" transform="rotate(3.49562 191.916 109.977)" fill="white" fill-opacity="0.2"/>
<rect x="183.26" y="111.884" width="2.84091" height="2.43111" transform="rotate(3.49562 183.26 111.884)" fill="white" fill-opacity="0.2"/>
<rect x="174.605" y="113.791" width="2.84091" height="2.43111" transform="rotate(3.49562 174.605 113.791)" fill="white" fill-opacity="0.2"/>
<rect x="168.785" y="115.871" width="2.84091" height="2.43111" transform="rotate(3.49562 168.785 115.871)" fill="white" fill-opacity="0.2"/>
<rect x="160.131" y="117.778" width="2.84091" height="2.43111" transform="rotate(3.49562 160.131 117.778)" fill="white" fill-opacity="0.2"/>
<rect x="151.475" y="119.685" width="2.84091" height="2.43111" transform="rotate(3.49562 151.475 119.685)" fill="white" fill-opacity="0.2"/>
<rect x="142.82" y="121.592" width="2.84091" height="2.43111" transform="rotate(3.49562 142.82 121.592)" fill="white" fill-opacity="0.2"/>
<rect x="139.984" y="121.418" width="2.84091" height="2.43111" transform="rotate(3.49562 139.984 121.418)" fill="white" fill-opacity="0.2"/>
<rect x="145.656" y="121.765" width="2.84091" height="2.43111" transform="rotate(3.49562 145.656 121.765)" fill="white" fill-opacity="0.2"/>
<rect x="148.641" y="119.511" width="2.84091" height="2.43111" transform="rotate(3.49562 148.641 119.511)" fill="white" fill-opacity="0.2"/>
<rect x="154.311" y="119.858" width="2.84091" height="2.43111" transform="rotate(3.49562 154.311 119.858)" fill="white" fill-opacity="0.2"/>
<rect x="157.295" y="117.604" width="2.84091" height="2.43111" transform="rotate(3.49562 157.295 117.604)" fill="white" fill-opacity="0.2"/>
<rect x="162.967" y="117.951" width="2.84091" height="2.43111" transform="rotate(3.49562 162.967 117.951)" fill="white" fill-opacity="0.2"/>
<rect x="165.949" y="115.698" width="2.84091" height="2.43111" transform="rotate(3.49562 165.949 115.698)" fill="white" fill-opacity="0.2"/>
<rect x="171.77" y="113.617" width="2.84091" height="2.43111" transform="rotate(3.49562 171.77 113.617)" fill="white" fill-opacity="0.2"/>
<rect x="177.441" y="113.964" width="2.84091" height="2.43111" transform="rotate(3.49562 177.441 113.964)" fill="white" fill-opacity="0.2"/>
<rect x="180.424" y="111.71" width="2.84091" height="2.43111" transform="rotate(3.49562 180.424 111.71)" fill="white" fill-opacity="0.2"/>
<rect x="186.096" y="112.057" width="2.84091" height="2.43111" transform="rotate(3.49562 186.096 112.057)" fill="white" fill-opacity="0.2"/>
<rect x="189.08" y="109.803" width="2.84091" height="2.43111" transform="rotate(3.49562 189.08 109.803)" fill="white" fill-opacity="0.2"/>
<rect x="194.752" y="110.15" width="2.84091" height="2.43111" transform="rotate(3.49562 194.752 110.15)" fill="white" fill-opacity="0.2"/>
<rect x="197.734" y="107.896" width="2.84091" height="2.43111" transform="rotate(3.49562 197.734 107.896)" fill="white" fill-opacity="0.2"/>
<rect x="203.406" y="108.243" width="2.84091" height="2.43111" transform="rotate(3.49562 203.406 108.243)" fill="white" fill-opacity="0.2"/>
<rect x="206.391" y="105.99" width="2.84091" height="2.43111" transform="rotate(3.49562 206.391 105.99)" fill="white" fill-opacity="0.2"/>
<rect x="134.166" y="123.498" width="2.84091" height="2.43111" transform="rotate(3.49562 134.166 123.498)" fill="white" fill-opacity="0.2"/>
<rect x="125.51" y="125.405" width="2.84091" height="2.43111" transform="rotate(3.49562 125.51 125.405)" fill="white" fill-opacity="0.2"/>
<rect x="114.02" y="127.139" width="2.84091" height="2.43111" transform="rotate(3.49562 114.02 127.139)" fill="white" fill-opacity="0.2"/>
<rect x="102.529" y="128.873" width="2.84091" height="2.43111" transform="rotate(3.49562 102.529 128.873)" fill="white" fill-opacity="0.2"/>
<rect x="85.3672" y="130.26" width="2.84091" height="2.43111" transform="rotate(3.49562 85.3672 130.26)" fill="white" fill-opacity="0.2"/>
<rect x="65.3691" y="131.474" width="2.84091" height="2.43111" transform="rotate(3.49562 65.3691 131.474)" fill="white" fill-opacity="0.2"/>
<rect x="45.5195" y="130.262" width="2.84091" height="2.43111" transform="rotate(3.49562 45.5195 130.262)" fill="white" fill-opacity="0.2"/>
<rect x="48.3555" y="130.435" width="2.84091" height="2.43111" transform="rotate(3.49562 48.3555 130.435)" fill="white" fill-opacity="0.2"/>
<rect x="51.1914" y="130.608" width="2.84091" height="2.43111" transform="rotate(3.49562 51.1914 130.608)" fill="white" fill-opacity="0.2"/>
<rect x="54.0273" y="130.781" width="2.84091" height="2.43111" transform="rotate(3.49562 54.0273 130.781)" fill="white" fill-opacity="0.2"/>
<rect x="56.8633" y="130.955" width="2.84091" height="2.43111" transform="rotate(3.49562 56.8633 130.955)" fill="white" fill-opacity="0.2"/>
<rect x="59.6973" y="131.128" width="2.84091" height="2.43111" transform="rotate(3.49562 59.6973 131.128)" fill="white" fill-opacity="0.2"/>
<rect x="62.5332" y="131.301" width="2.84091" height="2.43111" transform="rotate(3.49562 62.5332 131.301)" fill="white" fill-opacity="0.2"/>
<rect x="68.2051" y="131.647" width="2.84091" height="2.43111" transform="rotate(3.49562 68.2051 131.647)" fill="white" fill-opacity="0.2"/>
<rect x="71.041" y="131.821" width="2.84091" height="2.43111" transform="rotate(3.49562 71.041 131.821)" fill="white" fill-opacity="0.2"/>
<rect x="73.877" y="131.994" width="2.84091" height="2.43111" transform="rotate(3.49562 73.877 131.994)" fill="white" fill-opacity="0.2"/>
<rect x="76.8594" y="129.74" width="2.84091" height="2.43111" transform="rotate(3.49562 76.8594 129.74)" fill="white" fill-opacity="0.2"/>
<rect x="79.6953" y="129.914" width="2.84091" height="2.43111" transform="rotate(3.49562 79.6953 129.914)" fill="white" fill-opacity="0.2"/>
<rect x="82.5312" y="130.087" width="2.84091" height="2.43111" transform="rotate(3.49562 82.5312 130.087)" fill="white" fill-opacity="0.2"/>
<rect x="88.2031" y="130.433" width="2.84091" height="2.43111" transform="rotate(3.49562 88.2031 130.433)" fill="white" fill-opacity="0.2"/>
<rect x="91.0391" y="130.606" width="2.84091" height="2.43111" transform="rotate(3.49562 91.0391 130.606)" fill="white" fill-opacity="0.2"/>
<rect x="93.873" y="130.78" width="2.84091" height="2.43111" transform="rotate(3.49562 93.873 130.78)" fill="white" fill-opacity="0.2"/>
<rect x="96.8574" y="128.526" width="2.84091" height="2.43111" transform="rotate(3.49562 96.8574 128.526)" fill="white" fill-opacity="0.2"/>
<rect x="99.6934" y="128.7" width="2.84091" height="2.43111" transform="rotate(3.49562 99.6934 128.7)" fill="white" fill-opacity="0.2"/>
<rect x="105.365" y="129.046" width="2.84091" height="2.43111" transform="rotate(3.49562 105.365 129.046)" fill="white" fill-opacity="0.2"/>
<rect x="108.348" y="126.793" width="2.84091" height="2.43111" transform="rotate(3.49562 108.348 126.793)" fill="white" fill-opacity="0.2"/>
<rect x="111.184" y="126.966" width="2.84091" height="2.43111" transform="rotate(3.49562 111.184 126.966)" fill="white" fill-opacity="0.2"/>
<rect x="116.855" y="127.312" width="2.84091" height="2.43111" transform="rotate(3.49562 116.855 127.312)" fill="white" fill-opacity="0.2"/>
<rect x="119.84" y="125.059" width="2.84091" height="2.43111" transform="rotate(3.49562 119.84 125.059)" fill="white" fill-opacity="0.2"/>
<rect x="122.674" y="125.232" width="2.84091" height="2.43111" transform="rotate(3.49562 122.674 125.232)" fill="white" fill-opacity="0.2"/>
<rect x="128.346" y="125.579" width="2.84091" height="2.43111" transform="rotate(3.49562 128.346 125.579)" fill="white" fill-opacity="0.2"/>
<rect x="131.33" y="123.325" width="2.84091" height="2.43111" transform="rotate(3.49562 131.33 123.325)" fill="white" fill-opacity="0.2"/>
<rect x="137" y="123.672" width="2.84091" height="2.43111" transform="rotate(3.49562 137 123.672)" fill="white" fill-opacity="0.2"/>
<rect x="42.6836" y="130.088" width="2.84091" height="2.43111" transform="rotate(3.49562 42.6836 130.088)" fill="white" fill-opacity="0.2"/>
<rect x="8.95312" y="123.157" width="2.84091" height="2.43111" transform="rotate(3.49562 8.95312 123.157)" fill="white" fill-opacity="0.2"/>
<rect x="14.4766" y="125.93" width="2.84091" height="2.43111" transform="rotate(3.49562 14.4766 125.93)" fill="white" fill-opacity="0.2"/>
<rect x="22.834" y="128.876" width="2.84091" height="2.43111" transform="rotate(3.49562 22.834 128.876)" fill="white" fill-opacity="0.2"/>
<rect x="11.6406" y="125.756" width="2.84091" height="2.43111" transform="rotate(3.49562 11.6406 125.756)" fill="white" fill-opacity="0.2"/>
<rect x="17.3125" y="126.103" width="2.84091" height="2.43111" transform="rotate(3.49562 17.3125 126.103)" fill="white" fill-opacity="0.2"/>
<rect x="20" y="128.703" width="2.84091" height="2.43111" transform="rotate(3.49562 20 128.703)" fill="white" fill-opacity="0.2"/>
<rect x="25.6699" y="129.049" width="2.84091" height="2.43111" transform="rotate(3.49562 25.6699 129.049)" fill="white" fill-opacity="0.2"/>
<rect x="28.5059" y="129.222" width="2.84091" height="2.43111" transform="rotate(3.49562 28.5059 129.222)" fill="white" fill-opacity="0.2"/>
<rect x="31.3418" y="129.396" width="2.84091" height="2.43111" transform="rotate(3.49562 31.3418 129.396)" fill="white" fill-opacity="0.2"/>
<rect x="34.1777" y="129.569" width="2.84091" height="2.43111" transform="rotate(3.49562 34.1777 129.569)" fill="white" fill-opacity="0.2"/>
<rect x="37.0137" y="129.742" width="2.84091" height="2.43111" transform="rotate(3.49562 37.0137 129.742)" fill="white" fill-opacity="0.2"/>
<rect x="39.8477" y="129.915" width="2.84091" height="2.43111" transform="rotate(3.49562 39.8477 129.915)" fill="white" fill-opacity="0.2"/>
<rect x="6.26562" y="120.557" width="2.84091" height="2.43111" transform="rotate(3.49562 6.26562 120.557)" fill="white" fill-opacity="0.2"/>
<rect x="1.78125" y="100.798" width="2.84091" height="2.43111" transform="rotate(3.49562 1.78125 100.798)" fill="white" fill-opacity="0.2"/>
<rect x="1.63281" y="103.224" width="2.84091" height="2.43111" transform="rotate(3.49562 1.63281 103.224)" fill="white" fill-opacity="0.2"/>
<rect x="1.48438" y="105.651" width="2.84091" height="2.43111" transform="rotate(3.49562 1.48438 105.651)" fill="white" fill-opacity="0.2"/>
<rect x="1.33594" y="108.077" width="2.84091" height="2.43111" transform="rotate(3.49562 1.33594 108.077)" fill="white" fill-opacity="0.2"/>
<rect x="1.1875" y="110.504" width="2.84091" height="2.43111" transform="rotate(3.49562 1.1875 110.504)" fill="white" fill-opacity="0.2"/>
<rect x="1.03906" y="112.931" width="2.84091" height="2.43111" transform="rotate(3.49562 1.03906 112.931)" fill="white" fill-opacity="0.2"/>
<rect x="3.72656" y="115.531" width="2.84091" height="2.43111" transform="rotate(3.49562 3.72656 115.531)" fill="white" fill-opacity="0.2"/>
<rect x="3.57812" y="117.957" width="2.84091" height="2.43111" transform="rotate(3.49562 3.57812 117.957)" fill="white" fill-opacity="0.2"/>
<rect x="36.9941" y="83.4636" width="2.84091" height="2.43111" transform="rotate(3.49562 36.9941 83.4636)" fill="white" fill-opacity="0.2"/>
<rect x="22.668" y="85.0242" width="2.84091" height="2.43111" transform="rotate(3.49562 22.668 85.0242)" fill="white" fill-opacity="0.2"/>
<rect x="14.0117" y="86.9312" width="2.84091" height="2.43111" transform="rotate(3.49562 14.0117 86.9312)" fill="white" fill-opacity="0.2"/>
<rect x="8.19336" y="89.0112" width="2.84091" height="2.43111" transform="rotate(3.49562 8.19336 89.0112)" fill="white" fill-opacity="0.2"/>
<rect x="5.20898" y="91.2646" width="2.84091" height="2.43111" transform="rotate(3.49562 5.20898 91.2646)" fill="white" fill-opacity="0.2"/>
<rect x="5.06055" y="93.6912" width="2.84091" height="2.43111" transform="rotate(3.49562 5.06055 93.6912)" fill="white" fill-opacity="0.2"/>
<rect x="2.07617" y="95.9446" width="2.84091" height="2.43111" transform="rotate(3.49562 2.07617 95.9446)" fill="white" fill-opacity="0.2"/>
<rect x="1.92773" y="98.3711" width="2.84091" height="2.43111" transform="rotate(3.49562 1.92773 98.3711)" fill="white" fill-opacity="0.2"/>
<rect x="11.0293" y="89.1843" width="2.84091" height="2.43111" transform="rotate(3.49562 11.0293 89.1843)" fill="white" fill-opacity="0.2"/>
<rect x="16.8477" y="87.1042" width="2.84091" height="2.43111" transform="rotate(3.49562 16.8477 87.1042)" fill="white" fill-opacity="0.2"/>
<rect x="19.832" y="84.8508" width="2.84091" height="2.43111" transform="rotate(3.49562 19.832 84.8508)" fill="white" fill-opacity="0.2"/>
<rect x="25.5039" y="85.1973" width="2.84091" height="2.43111" transform="rotate(3.49562 25.5039 85.1973)" fill="white" fill-opacity="0.2"/>
<rect x="28.4863" y="82.9438" width="2.84091" height="2.43111" transform="rotate(3.49562 28.4863 82.9438)" fill="white" fill-opacity="0.2"/>
<rect x="31.3223" y="83.1172" width="2.84091" height="2.43111" transform="rotate(3.49562 31.3223 83.1172)" fill="white" fill-opacity="0.2"/>
<rect x="34.1582" y="83.2903" width="2.84091" height="2.43111" transform="rotate(3.49562 34.1582 83.2903)" fill="white" fill-opacity="0.2"/>
<rect x="39.8301" y="83.6367" width="2.84091" height="2.43111" transform="rotate(3.49562 39.8301 83.6367)" fill="white" fill-opacity="0.2"/>
<rect x="42.666" y="83.8101" width="2.84091" height="2.43111" transform="rotate(3.49562 42.666 83.8101)" fill="white" fill-opacity="0.2"/>
<rect x="45.5" y="83.9832" width="2.84091" height="2.43111" transform="rotate(3.49562 45.5 83.9832)" fill="white" fill-opacity="0.2"/>
<rect x="48.3359" y="84.1565" width="2.84091" height="2.43111" transform="rotate(3.49562 48.3359 84.1565)" fill="white" fill-opacity="0.2"/>
<rect x="51.1719" y="84.3296" width="2.84091" height="2.43111" transform="rotate(3.49562 51.1719 84.3296)" fill="white" fill-opacity="0.2"/>
<rect x="54.0078" y="84.5029" width="2.84091" height="2.43111" transform="rotate(3.49562 54.0078 84.5029)" fill="white" fill-opacity="0.2"/>
<rect x="125.49" y="79.127" width="2.84091" height="2.43111" transform="rotate(3.49562 125.49 79.127)" fill="white" fill-opacity="0.2"/>
<rect x="114" y="80.8606" width="2.84091" height="2.43111" transform="rotate(3.49562 114 80.8606)" fill="white" fill-opacity="0.2"/>
<rect x="102.51" y="82.5945" width="2.84091" height="2.43111" transform="rotate(3.49562 102.51 82.5945)" fill="white" fill-opacity="0.2"/>
<rect x="79.6758" y="83.6353" width="2.84091" height="2.43111" transform="rotate(3.49562 79.6758 83.6353)" fill="white" fill-opacity="0.2"/>
<rect x="56.8438" y="84.676" width="2.84091" height="2.43111" transform="rotate(3.49562 56.8438 84.676)" fill="white" fill-opacity="0.2"/>
<rect x="59.6797" y="84.8494" width="2.84091" height="2.43111" transform="rotate(3.49562 59.6797 84.8494)" fill="white" fill-opacity="0.2"/>
<rect x="62.6621" y="82.5959" width="2.84091" height="2.43111" transform="rotate(3.49562 62.6621 82.5959)" fill="white" fill-opacity="0.2"/>
<rect x="65.498" y="82.769" width="2.84091" height="2.43111" transform="rotate(3.49562 65.498 82.769)" fill="white" fill-opacity="0.2"/>
<rect x="68.334" y="82.9424" width="2.84091" height="2.43111" transform="rotate(3.49562 68.334 82.9424)" fill="white" fill-opacity="0.2"/>
<rect x="71.1699" y="83.1157" width="2.84091" height="2.43111" transform="rotate(3.49562 71.1699 83.1157)" fill="white" fill-opacity="0.2"/>
<rect x="74.0059" y="83.2888" width="2.84091" height="2.43111" transform="rotate(3.49562 74.0059 83.2888)" fill="white" fill-opacity="0.2"/>
<rect x="76.8398" y="83.4622" width="2.84091" height="2.43111" transform="rotate(3.49562 76.8398 83.4622)" fill="white" fill-opacity="0.2"/>
<rect x="82.5117" y="83.8083" width="2.84091" height="2.43111" transform="rotate(3.49562 82.5117 83.8083)" fill="white" fill-opacity="0.2"/>
<rect x="85.3477" y="83.9817" width="2.84091" height="2.43111" transform="rotate(3.49562 85.3477 83.9817)" fill="white" fill-opacity="0.2"/>
<rect x="88.1836" y="84.1548" width="2.84091" height="2.43111" transform="rotate(3.49562 88.1836 84.1548)" fill="white" fill-opacity="0.2"/>
<rect x="91.0195" y="84.3281" width="2.84091" height="2.43111" transform="rotate(3.49562 91.0195 84.3281)" fill="white" fill-opacity="0.2"/>
<rect x="94.002" y="82.0747" width="2.84091" height="2.43111" transform="rotate(3.49562 94.002 82.0747)" fill="white" fill-opacity="0.2"/>
<rect x="96.8379" y="82.248" width="2.84091" height="2.43111" transform="rotate(3.49562 96.8379 82.248)" fill="white" fill-opacity="0.2"/>
<rect x="99.6738" y="82.4211" width="2.84091" height="2.43111" transform="rotate(3.49562 99.6738 82.4211)" fill="white" fill-opacity="0.2"/>
<rect x="105.346" y="82.7676" width="2.84091" height="2.43111" transform="rotate(3.49562 105.346 82.7676)" fill="white" fill-opacity="0.2"/>
<rect x="108.182" y="82.9409" width="2.84091" height="2.43111" transform="rotate(3.49562 108.182 82.9409)" fill="white" fill-opacity="0.2"/>
<rect x="111.164" y="80.6875" width="2.84091" height="2.43111" transform="rotate(3.49562 111.164 80.6875)" fill="white" fill-opacity="0.2"/>
<rect x="116.836" y="81.0339" width="2.84091" height="2.43111" transform="rotate(3.49562 116.836 81.0339)" fill="white" fill-opacity="0.2"/>
<rect x="119.82" y="78.7805" width="2.84091" height="2.43111" transform="rotate(3.49562 119.82 78.7805)" fill="white" fill-opacity="0.2"/>
<rect x="122.656" y="78.9536" width="2.84091" height="2.43111" transform="rotate(3.49562 122.656 78.9536)" fill="white" fill-opacity="0.2"/>
<rect x="137.131" y="74.9666" width="2.84091" height="2.43111" transform="rotate(3.49562 137.131 74.9666)" fill="white" fill-opacity="0.2"/>
<rect x="131.311" y="77.0469" width="2.84091" height="2.43111" transform="rotate(3.49562 131.311 77.0469)" fill="white" fill-opacity="0.2"/>
<rect x="128.475" y="76.8735" width="2.84091" height="2.43111" transform="rotate(3.49562 128.475 76.8735)" fill="white" fill-opacity="0.2"/>
<rect x="134.146" y="77.22" width="2.84091" height="2.43111" transform="rotate(3.49562 134.146 77.22)" fill="white" fill-opacity="0.2"/>
<rect x="139.965" y="75.1399" width="2.84091" height="2.43111" transform="rotate(3.49562 139.965 75.1399)" fill="white" fill-opacity="0.2"/>
<rect x="140.113" y="72.7131" width="2.84091" height="2.43111" transform="rotate(3.49562 140.113 72.7131)" fill="white" fill-opacity="0.2"/>
<rect x="151.752" y="68.553" width="2.84091" height="2.43111" transform="rotate(3.49562 151.752 68.553)" fill="white" fill-opacity="0.2"/>
<rect x="145.934" y="70.6331" width="2.84091" height="2.43111" transform="rotate(3.49562 145.934 70.6331)" fill="white" fill-opacity="0.2"/>
<rect x="142.949" y="72.8865" width="2.84091" height="2.43111" transform="rotate(3.49562 142.949 72.8865)" fill="white" fill-opacity="0.2"/>
<rect x="148.918" y="68.3796" width="2.84091" height="2.43111" transform="rotate(3.49562 148.918 68.3796)" fill="white" fill-opacity="0.2"/>
<rect x="151.9" y="66.1265" width="2.84091" height="2.43111" transform="rotate(3.49562 151.9 66.1265)" fill="white" fill-opacity="0.2"/>
<rect x="160.557" y="64.2195" width="2.84091" height="2.43111" transform="rotate(3.49562 160.557 64.2195)" fill="white" fill-opacity="0.2"/>
<rect x="154.736" y="66.2996" width="2.84091" height="2.43111" transform="rotate(3.49562 154.736 66.2996)" fill="white" fill-opacity="0.2"/>
<rect x="157.721" y="64.0461" width="2.84091" height="2.43111" transform="rotate(3.49562 157.721 64.0461)" fill="white" fill-opacity="0.2"/>
<rect x="163.539" y="61.9661" width="2.84091" height="2.43111" transform="rotate(3.49562 163.539 61.9661)" fill="white" fill-opacity="0.2"/>
<rect x="166.375" y="62.1392" width="2.84091" height="2.43111" transform="rotate(3.49562 166.375 62.1392)" fill="white" fill-opacity="0.2"/>
<rect x="183.389" y="63.1785" width="2.84091" height="2.43111" transform="rotate(3.49562 183.389 63.1785)" fill="white" fill-opacity="0.2"/>
<rect x="169.211" y="62.3125" width="2.84091" height="2.43111" transform="rotate(3.49562 169.211 62.3125)" fill="white" fill-opacity="0.2"/>
<rect x="172.047" y="62.4856" width="2.84091" height="2.43111" transform="rotate(3.49562 172.047 62.4856)" fill="white" fill-opacity="0.2"/>
<rect x="174.883" y="62.6589" width="2.84091" height="2.43111" transform="rotate(3.49562 174.883 62.6589)" fill="white" fill-opacity="0.2"/>
<rect x="177.719" y="62.832" width="2.84091" height="2.43111" transform="rotate(3.49562 177.719 62.832)" fill="white" fill-opacity="0.2"/>
<rect x="180.553" y="63.0054" width="2.84091" height="2.43111" transform="rotate(3.49562 180.553 63.0054)" fill="white" fill-opacity="0.2"/>
<rect x="186.225" y="63.3518" width="2.84091" height="2.43111" transform="rotate(3.49562 186.225 63.3518)" fill="white" fill-opacity="0.2"/>
<rect x="189.061" y="63.5249" width="2.84091" height="2.43111" transform="rotate(3.49562 189.061 63.5249)" fill="white" fill-opacity="0.2"/>
<rect x="194.584" y="66.2981" width="2.84091" height="2.43111" transform="rotate(3.49562 194.584 66.2981)" fill="white" fill-opacity="0.2"/>
<rect x="202.941" y="69.2441" width="2.84091" height="2.43111" transform="rotate(3.49562 202.941 69.2441)" fill="white" fill-opacity="0.2"/>
<rect x="191.748" y="66.1248" width="2.84091" height="2.43111" transform="rotate(3.49562 191.748 66.1248)" fill="white" fill-opacity="0.2"/>
<rect x="197.42" y="66.4712" width="2.84091" height="2.43111" transform="rotate(3.49562 197.42 66.4712)" fill="white" fill-opacity="0.2"/>
<rect x="200.107" y="69.071" width="2.84091" height="2.43111" transform="rotate(3.49562 200.107 69.071)" fill="white" fill-opacity="0.2"/>
<rect x="205.777" y="69.4175" width="2.84091" height="2.43111" transform="rotate(3.49562 205.777 69.4175)" fill="white" fill-opacity="0.2"/>
<rect x="208.613" y="69.5906" width="2.84091" height="2.43111" transform="rotate(3.49562 208.613 69.5906)" fill="white" fill-opacity="0.2"/>
<rect x="214.137" y="72.3638" width="2.84091" height="2.43111" transform="rotate(3.49562 214.137 72.3638)" fill="white" fill-opacity="0.2"/>
<rect x="211.301" y="72.1904" width="2.84091" height="2.43111" transform="rotate(3.49562 211.301 72.1904)" fill="white" fill-opacity="0.2"/>
<rect x="222.791" y="70.4568" width="2.84091" height="2.43111" transform="rotate(3.49562 222.791 70.4568)" fill="white" fill-opacity="0.2"/>
<rect x="216.973" y="72.5369" width="2.84091" height="2.43111" transform="rotate(3.49562 216.973 72.5369)" fill="white" fill-opacity="0.2"/>
<rect x="219.809" y="72.7102" width="2.84091" height="2.43111" transform="rotate(3.49562 219.809 72.7102)" fill="white" fill-opacity="0.2"/>
<path d="M102.027 100.99C121.668 91.331 143.12 93.9491 163.434 94.0923C165.175 93.9888 170.811 92.6039 170.936 96.3536C171.132 102.228 177.444 100.113 179.619 100.113C189.013 100.113 202.075 96.5207 210.335 105.793C219.489 116.068 199.297 122.809 196.834 123.419C180.015 127.58 162.86 130.327 145.867 131.145C129.301 131.943 111.459 132.643 95.201 126.384C92.5807 125.375 84.8178 123.162 86.3176 115.9C88.1289 107.13 97.5948 103.169 102.027 100.99Z" fill="white" fill-opacity="0.2"/>
<rect x="112.896" y="94.3723" width="2.62696" height="4.37226" fill="white" fill-opacity="0.2"/>
<rect x="99.7617" y="98.7446" width="2.62696" height="4.37226" fill="white" fill-opacity="0.2"/>
<rect x="102.389" y="98.7446" width="2.62696" height="4.37226" fill="white" fill-opacity="0.2"/>
<rect x="105.016" y="98.7446" width="2.62696" height="4.37226" fill="white" fill-opacity="0.2"/>
<rect x="107.643" y="94.3723" width="2.62696" height="4.37226" fill="white" fill-opacity="0.2"/>
<rect x="110.27" y="94.3723" width="2.62696" height="4.37226" fill="white" fill-opacity="0.2"/>
<rect x="115.523" y="94.3723" width="2.62696" height="4.37226" fill="white" fill-opacity="0.2"/>
<rect x="118.15" y="94.3723" width="2.62696" height="4.37226" fill="white" fill-opacity="0.2"/>
<rect x="120.777" y="94.3723" width="2.62696" height="4.37226" fill="white" fill-opacity="0.2"/>
<rect x="123.404" y="94.3723" width="2.62696" height="4.37226" fill="white" fill-opacity="0.2"/>
<rect x="126.031" y="90" width="2.62696" height="4.37226" fill="white" fill-opacity="0.2"/>
<rect x="128.658" y="90" width="2.62696" height="4.37226" fill="white" fill-opacity="0.2"/>
<rect x="131.285" y="90" width="2.62696" height="4.37226" fill="white" fill-opacity="0.2"/>
<rect x="133.912" y="90" width="2.62696" height="4.37226" fill="white" fill-opacity="0.2"/>
<rect x="136.539" y="90" width="2.62696" height="4.37226" fill="white" fill-opacity="0.2"/>
<rect x="139.166" y="90" width="2.62696" height="4.37226" fill="white" fill-opacity="0.2"/>
<rect x="141.793" y="90" width="2.62696" height="4.37226" fill="white" fill-opacity="0.2"/>
<rect x="144.42" y="90" width="2.62696" height="4.37226" fill="white" fill-opacity="0.2"/>
<rect x="147.047" y="90" width="2.62696" height="4.37226" fill="white" fill-opacity="0.2"/>
<rect x="149.674" y="90" width="2.62696" height="4.37226" fill="white" fill-opacity="0.2"/>
<rect x="152.301" y="90" width="2.62696" height="4.37226" fill="white" fill-opacity="0.2"/>
<rect x="154.928" y="90" width="2.62696" height="4.37226" fill="white" fill-opacity="0.2"/>
<rect x="157.555" y="90" width="2.62696" height="4.37226" fill="white" fill-opacity="0.2"/>
<rect x="160.182" y="90" width="2.62696" height="4.37226" fill="white" fill-opacity="0.2"/>
<rect x="162.809" y="90" width="2.62696" height="4.37226" fill="white" fill-opacity="0.2"/>
<rect x="91.8809" y="103.117" width="2.62696" height="4.37226" fill="white" fill-opacity="0.2"/>
<rect x="89.2539" y="107.489" width="2.62696" height="4.37226" fill="white" fill-opacity="0.2"/>
<rect x="86.627" y="111.861" width="2.62696" height="4.37226" fill="white" fill-opacity="0.2"/>
<rect x="86.627" y="107.489" width="2.62696" height="4.37226" fill="white" fill-opacity="0.2"/>
<rect x="94.5078" y="103.117" width="2.62696" height="4.37226" fill="white" fill-opacity="0.2"/>
<rect x="97.1348" y="98.7446" width="2.62696" height="4.37226" fill="white" fill-opacity="0.2"/>
<rect x="84" y="111.861" width="2.62696" height="4.37226" fill="white" fill-opacity="0.2"/>
<rect x="84" y="116.234" width="2.62696" height="4.37226" fill="white" fill-opacity="0.2"/>
<rect x="86.627" y="120.606" width="2.62696" height="4.37226" fill="white" fill-opacity="0.2"/>
<rect x="89.2539" y="120.606" width="2.62696" height="4.37226" fill="white" fill-opacity="0.2"/>
<rect x="91.8809" y="124.978" width="2.62696" height="4.37226" fill="white" fill-opacity="0.2"/>
<rect x="94.5078" y="124.978" width="2.62696" height="4.37226" fill="white" fill-opacity="0.2"/>
<rect x="97.1348" y="124.978" width="2.62696" height="4.37226" fill="white" fill-opacity="0.2"/>
<rect x="120.777" y="129.35" width="2.62696" height="4.37226" fill="white" fill-opacity="0.2"/>
<rect x="133.912" y="129.35" width="2.62696" height="4.37226" fill="white" fill-opacity="0.2"/>
<rect x="99.7617" y="124.978" width="2.62696" height="4.37226" fill="white" fill-opacity="0.2"/>
<rect x="102.389" y="124.978" width="2.62696" height="4.37226" fill="white" fill-opacity="0.2"/>
<rect x="105.016" y="129.35" width="2.62696" height="4.37226" fill="white" fill-opacity="0.2"/>
<rect x="107.643" y="129.35" width="2.62696" height="4.37226" fill="white" fill-opacity="0.2"/>
<rect x="110.27" y="129.35" width="2.62696" height="4.37226" fill="white" fill-opacity="0.2"/>
<rect x="112.896" y="129.35" width="2.62696" height="4.37226" fill="white" fill-opacity="0.2"/>
<rect x="115.523" y="129.35" width="2.62696" height="4.37226" fill="white" fill-opacity="0.2"/>
<rect x="118.15" y="129.35" width="2.62696" height="4.37226" fill="white" fill-opacity="0.2"/>
<rect x="123.404" y="129.35" width="2.62696" height="4.37226" fill="white" fill-opacity="0.2"/>
<rect x="126.031" y="129.35" width="2.62696" height="4.37226" fill="white" fill-opacity="0.2"/>
<rect x="128.658" y="129.35" width="2.62696" height="4.37226" fill="white" fill-opacity="0.2"/>
<rect x="131.285" y="129.35" width="2.62696" height="4.37226" fill="white" fill-opacity="0.2"/>
<rect x="136.539" y="129.35" width="2.62696" height="4.37226" fill="white" fill-opacity="0.2"/>
<rect x="139.166" y="129.35" width="2.62696" height="4.37226" fill="white" fill-opacity="0.2"/>
<rect x="141.793" y="129.35" width="2.62696" height="4.37226" fill="white" fill-opacity="0.2"/>
<rect x="144.42" y="129.35" width="2.62696" height="4.37226" fill="white" fill-opacity="0.2"/>
<rect x="178.57" y="124.978" width="2.62696" height="4.37226" fill="white" fill-opacity="0.2"/>
<rect x="147.047" y="129.35" width="2.62696" height="4.37226" fill="white" fill-opacity="0.2"/>
<rect x="149.674" y="129.35" width="2.62696" height="4.37226" fill="white" fill-opacity="0.2"/>
<rect x="152.301" y="129.35" width="2.62696" height="4.37226" fill="white" fill-opacity="0.2"/>
<rect x="154.928" y="129.35" width="2.62696" height="4.37226" fill="white" fill-opacity="0.2"/>
<rect x="157.555" y="129.35" width="2.62696" height="4.37226" fill="white" fill-opacity="0.2"/>
<rect x="160.182" y="129.35" width="2.62696" height="4.37226" fill="white" fill-opacity="0.2"/>
<rect x="162.809" y="129.35" width="2.62696" height="4.37226" fill="white" fill-opacity="0.2"/>
<rect x="165.436" y="124.978" width="2.62696" height="4.37226" fill="white" fill-opacity="0.2"/>
<rect x="168.062" y="124.978" width="2.62696" height="4.37226" fill="white" fill-opacity="0.2"/>
<rect x="170.689" y="124.978" width="2.62696" height="4.37226" fill="white" fill-opacity="0.2"/>
<rect x="173.316" y="124.978" width="2.62696" height="4.37226" fill="white" fill-opacity="0.2"/>
<rect x="175.943" y="124.978" width="2.62696" height="4.37226" fill="white" fill-opacity="0.2"/>
<rect x="181.197" y="124.978" width="2.62696" height="4.37226" fill="white" fill-opacity="0.2"/>
<rect x="183.824" y="124.978" width="2.62696" height="4.37226" fill="white" fill-opacity="0.2"/>
<rect x="186.451" y="124.978" width="2.62696" height="4.37226" fill="white" fill-opacity="0.2"/>
<rect x="189.078" y="120.606" width="2.62696" height="4.37226" fill="white" fill-opacity="0.2"/>
<rect x="191.705" y="120.606" width="2.62696" height="4.37226" fill="white" fill-opacity="0.2"/>
<rect x="194.332" y="120.606" width="2.62696" height="4.37226" fill="white" fill-opacity="0.2"/>
<rect x="210.094" y="107.489" width="2.62696" height="4.37226" fill="white" fill-opacity="0.2"/>
<rect x="210.094" y="111.861" width="2.62696" height="4.37226" fill="white" fill-opacity="0.2"/>
<rect x="207.467" y="116.234" width="2.62696" height="4.37226" fill="white" fill-opacity="0.2"/>
<rect x="196.959" y="120.606" width="2.62696" height="4.37226" fill="white" fill-opacity="0.2"/>
<rect x="199.586" y="120.606" width="2.62696" height="4.37226" fill="white" fill-opacity="0.2"/>
<rect x="202.213" y="120.606" width="2.62696" height="4.37226" fill="white" fill-opacity="0.2"/>
<rect x="204.84" y="116.234" width="2.62696" height="4.37226" fill="white" fill-opacity="0.2"/>
<rect x="210.094" y="103.117" width="2.62696" height="4.37226" fill="white" fill-opacity="0.2"/>
<rect x="202.213" y="98.7446" width="2.62696" height="4.37226" fill="white" fill-opacity="0.2"/>
<rect x="207.467" y="103.117" width="2.62696" height="4.37226" fill="white" fill-opacity="0.2"/>
<rect x="178.57" y="98.7446" width="2.62696" height="4.37226" fill="white" fill-opacity="0.2"/>
<rect x="181.197" y="98.7446" width="2.62696" height="4.37226" fill="white" fill-opacity="0.2"/>
<rect x="183.824" y="98.7446" width="2.62696" height="4.37226" fill="white" fill-opacity="0.2"/>
<rect x="186.451" y="98.7446" width="2.62696" height="4.37226" fill="white" fill-opacity="0.2"/>
<rect x="189.078" y="98.7446" width="2.62696" height="4.37226" fill="white" fill-opacity="0.2"/>
<rect x="191.705" y="98.7446" width="2.62696" height="4.37226" fill="white" fill-opacity="0.2"/>
<rect x="194.332" y="98.7446" width="2.62696" height="4.37226" fill="white" fill-opacity="0.2"/>
<rect x="196.959" y="98.7446" width="2.62696" height="4.37226" fill="white" fill-opacity="0.2"/>
<rect x="199.586" y="98.7446" width="2.62696" height="4.37226" fill="white" fill-opacity="0.2"/>
<rect x="204.84" y="98.7446" width="2.62696" height="4.37226" fill="white" fill-opacity="0.2"/>
<rect x="170.689" y="94.3723" width="2.62696" height="4.37226" fill="white" fill-opacity="0.2"/>
<rect x="170.689" y="98.7446" width="2.62696" height="4.37226" fill="white" fill-opacity="0.2"/>
<rect x="173.316" y="98.7446" width="2.62696" height="4.37226" fill="white" fill-opacity="0.2"/>
<rect x="175.943" y="98.7446" width="2.62696" height="4.37226" fill="white" fill-opacity="0.2"/>
<rect x="165.436" y="90" width="2.62696" height="4.37226" fill="white" fill-opacity="0.2"/>
<rect x="168.062" y="90" width="2.62696" height="4.37226" fill="white" fill-opacity="0.2"/>
<path d="M172.371 12.556C170.359 12.556 170.704 12.5538 172.371 12.5513C172.379 4.67146 192.147 6.27606 197.465 5.09431C202.501 3.97528 207.962 3.7618 213.079 3.10452C224.125 1.6858 235.234 1.61217 246.353 1.61217C260.839 1.61217 275.472 1.02416 289.935 1.9438C297.7 2.43753 308.731 2.93081 315.167 8.079C317.657 10.0715 317.745 13.3922 314.807 14.9327C312.464 16.1617 309.594 16.3078 307.014 16.4251C300.716 16.7113 294.353 16.5778 288.056 16.4251C256.338 15.6558 224.732 12.6754 192.988 12.556C188.129 12.5378 176.397 12.5453 172.371 12.5513C172.371 12.5529 172.371 12.5545 172.371 12.556Z" fill="white" fill-opacity="0.2"/>
<rect x="170" y="10.6382" width="2.12762" height="2.12762" fill="white" fill-opacity="0.2"/>
<rect x="172.127" y="10.6382" width="2.12762" height="2.12762" fill="white" fill-opacity="0.2"/>
<rect x="174.256" y="10.6382" width="2.12762" height="2.12762" fill="white" fill-opacity="0.2"/>
<rect x="176.383" y="10.6382" width="2.12762" height="2.12762" fill="white" fill-opacity="0.2"/>
<rect x="178.51" y="10.6382" width="2.12762" height="2.12762" fill="white" fill-opacity="0.2"/>
<rect x="180.639" y="10.6382" width="2.12762" height="2.12762" fill="white" fill-opacity="0.2"/>
<rect x="182.766" y="10.6382" width="2.12762" height="2.12762" fill="white" fill-opacity="0.2"/>
<rect x="184.893" y="10.6382" width="2.12762" height="2.12762" fill="white" fill-opacity="0.2"/>
<rect x="187.021" y="10.6382" width="2.12762" height="2.12762" fill="white" fill-opacity="0.2"/>
<rect x="189.148" y="10.6382" width="2.12762" height="2.12762" fill="white" fill-opacity="0.2"/>
<rect x="191.275" y="10.6382" width="2.12762" height="2.12762" fill="white" fill-opacity="0.2"/>
<rect x="231.701" y="12.7657" width="2.12762" height="2.12762" fill="white" fill-opacity="0.2"/>
<rect x="272.125" y="14.8934" width="2.12762" height="2.12762" fill="white" fill-opacity="0.2"/>
<rect x="193.404" y="10.6382" width="2.12762" height="2.12762" fill="white" fill-opacity="0.2"/>
<rect x="195.531" y="10.6382" width="2.12762" height="2.12762" fill="white" fill-opacity="0.2"/>
<rect x="197.658" y="10.6382" width="2.12762" height="2.12762" fill="white" fill-opacity="0.2"/>
<rect x="199.787" y="10.6382" width="2.12762" height="2.12762" fill="white" fill-opacity="0.2"/>
<rect x="201.914" y="10.6382" width="2.12762" height="2.12762" fill="white" fill-opacity="0.2"/>
<rect x="204.041" y="10.6382" width="2.12762" height="2.12762" fill="white" fill-opacity="0.2"/>
<rect x="206.17" y="12.7657" width="2.12762" height="2.12762" fill="white" fill-opacity="0.2"/>
<rect x="208.297" y="12.7657" width="2.12762" height="2.12762" fill="white" fill-opacity="0.2"/>
<rect x="210.424" y="12.7657" width="2.12762" height="2.12762" fill="white" fill-opacity="0.2"/>
<rect x="212.553" y="12.7657" width="2.12762" height="2.12762" fill="white" fill-opacity="0.2"/>
<rect x="214.68" y="12.7657" width="2.12762" height="2.12762" fill="white" fill-opacity="0.2"/>
<rect x="216.809" y="12.7657" width="2.12762" height="2.12762" fill="white" fill-opacity="0.2"/>
<rect x="218.936" y="12.7657" width="2.12762" height="2.12762" fill="white" fill-opacity="0.2"/>
<rect x="221.062" y="12.7657" width="2.12762" height="2.12762" fill="white" fill-opacity="0.2"/>
<rect x="223.189" y="12.7657" width="2.12762" height="2.12762" fill="white" fill-opacity="0.2"/>
<rect x="225.318" y="12.7657" width="2.12762" height="2.12762" fill="white" fill-opacity="0.2"/>
<rect x="227.445" y="12.7657" width="2.12762" height="2.12762" fill="white" fill-opacity="0.2"/>
<rect x="229.572" y="12.7657" width="2.12762" height="2.12762" fill="white" fill-opacity="0.2"/>
<rect x="233.828" y="12.7657" width="2.12762" height="2.12762" fill="white" fill-opacity="0.2"/>
<rect x="235.957" y="12.7657" width="2.12762" height="2.12762" fill="white" fill-opacity="0.2"/>
<rect x="238.084" y="12.7657" width="2.12762" height="2.12762" fill="white" fill-opacity="0.2"/>
<rect x="240.211" y="12.7657" width="2.12762" height="2.12762" fill="white" fill-opacity="0.2"/>
<rect x="242.34" y="12.7657" width="2.12762" height="2.12762" fill="white" fill-opacity="0.2"/>
<rect x="244.467" y="12.7657" width="2.12762" height="2.12762" fill="white" fill-opacity="0.2"/>
<rect x="246.594" y="12.7657" width="2.12762" height="2.12762" fill="white" fill-opacity="0.2"/>
<rect x="248.723" y="12.7657" width="2.12762" height="2.12762" fill="white" fill-opacity="0.2"/>
<rect x="250.85" y="12.7657" width="2.12762" height="2.12762" fill="white" fill-opacity="0.2"/>
<rect x="252.977" y="14.8934" width="2.12762" height="2.12762" fill="white" fill-opacity="0.2"/>
<rect x="255.105" y="14.8934" width="2.12762" height="2.12762" fill="white" fill-opacity="0.2"/>
<rect x="257.232" y="14.8934" width="2.12762" height="2.12762" fill="white" fill-opacity="0.2"/>
<rect x="259.359" y="14.8934" width="2.12762" height="2.12762" fill="white" fill-opacity="0.2"/>
<rect x="261.488" y="14.8934" width="2.12762" height="2.12762" fill="white" fill-opacity="0.2"/>
<rect x="263.615" y="14.8934" width="2.12762" height="2.12762" fill="white" fill-opacity="0.2"/>
<rect x="265.742" y="14.8934" width="2.12762" height="2.12762" fill="white" fill-opacity="0.2"/>
<rect x="267.871" y="14.8934" width="2.12762" height="2.12762" fill="white" fill-opacity="0.2"/>
<rect x="269.998" y="14.8934" width="2.12762" height="2.12762" fill="white" fill-opacity="0.2"/>
<rect x="274.254" y="14.8934" width="2.12762" height="2.12762" fill="white" fill-opacity="0.2"/>
<rect x="276.381" y="14.8934" width="2.12762" height="2.12762" fill="white" fill-opacity="0.2"/>
<rect x="278.508" y="14.8934" width="2.12762" height="2.12762" fill="white" fill-opacity="0.2"/>
<rect x="280.637" y="14.8934" width="2.12762" height="2.12762" fill="white" fill-opacity="0.2"/>
<rect x="282.764" y="14.8934" width="2.12762" height="2.12762" fill="white" fill-opacity="0.2"/>
<rect x="284.891" y="14.8934" width="2.12762" height="2.12762" fill="white" fill-opacity="0.2"/>
<rect x="287.02" y="14.8934" width="2.12762" height="2.12762" fill="white" fill-opacity="0.2"/>
<rect x="289.146" y="14.8934" width="2.12762" height="2.12762" fill="white" fill-opacity="0.2"/>
<rect x="291.275" y="14.8934" width="2.12762" height="2.12762" fill="white" fill-opacity="0.2"/>
<rect x="293.402" y="14.8934" width="2.12762" height="2.12762" fill="white" fill-opacity="0.2"/>
<rect x="295.529" y="14.8934" width="2.12762" height="2.12762" fill="white" fill-opacity="0.2"/>
<rect x="297.658" y="14.8934" width="2.12762" height="2.12762" fill="white" fill-opacity="0.2"/>
<rect x="299.785" y="14.8934" width="2.12762" height="2.12762" fill="white" fill-opacity="0.2"/>
<rect x="289.146" width="2.12762" height="2.12762" fill="white" fill-opacity="0.2"/>
<rect x="291.275" width="2.12762" height="2.12762" fill="white" fill-opacity="0.2"/>
<rect x="293.402" y="2.12769" width="2.12762" height="2.12762" fill="white" fill-opacity="0.2"/>
<rect x="295.529" y="2.12769" width="2.12762" height="2.12762" fill="white" fill-opacity="0.2"/>
<rect x="297.658" y="2.12769" width="2.12762" height="2.12762" fill="white" fill-opacity="0.2"/>
<rect x="299.785" y="2.12769" width="2.12762" height="2.12762" fill="white" fill-opacity="0.2"/>
<rect x="246.594" width="2.12762" height="2.12762" fill="white" fill-opacity="0.2"/>
<rect x="248.723" width="2.12762" height="2.12762" fill="white" fill-opacity="0.2"/>
<rect x="250.85" width="2.12762" height="2.12762" fill="white" fill-opacity="0.2"/>
<rect x="252.977" width="2.12762" height="2.12762" fill="white" fill-opacity="0.2"/>
<rect x="255.105" width="2.12762" height="2.12762" fill="white" fill-opacity="0.2"/>
<rect x="257.232" width="2.12762" height="2.12762" fill="white" fill-opacity="0.2"/>
<rect x="259.359" width="2.12762" height="2.12762" fill="white" fill-opacity="0.2"/>
<rect x="261.488" width="2.12762" height="2.12762" fill="white" fill-opacity="0.2"/>
<rect x="263.615" width="2.12762" height="2.12762" fill="white" fill-opacity="0.2"/>
<rect x="265.742" width="2.12762" height="2.12762" fill="white" fill-opacity="0.2"/>
<rect x="267.871" width="2.12762" height="2.12762" fill="white" fill-opacity="0.2"/>
<rect x="269.998" width="2.12762" height="2.12762" fill="white" fill-opacity="0.2"/>
<rect x="272.125" width="2.12762" height="2.12762" fill="white" fill-opacity="0.2"/>
<rect x="274.254" width="2.12762" height="2.12762" fill="white" fill-opacity="0.2"/>
<rect x="276.381" width="2.12762" height="2.12762" fill="white" fill-opacity="0.2"/>
<rect x="278.508" width="2.12762" height="2.12762" fill="white" fill-opacity="0.2"/>
<rect x="280.637" width="2.12762" height="2.12762" fill="white" fill-opacity="0.2"/>
<rect x="282.764" width="2.12762" height="2.12762" fill="white" fill-opacity="0.2"/>
<rect x="284.891" width="2.12762" height="2.12762" fill="white" fill-opacity="0.2"/>
<rect x="287.02" width="2.12762" height="2.12762" fill="white" fill-opacity="0.2"/>
<rect x="244.467" width="2.12762" height="2.12762" fill="white" fill-opacity="0.2"/>
<rect x="212.553" y="2.12769" width="2.12762" height="2.12762" fill="white" fill-opacity="0.2"/>
<rect x="214.68" y="2.12769" width="2.12762" height="2.12762" fill="white" fill-opacity="0.2"/>
<rect x="216.809" y="2.12769" width="2.12762" height="2.12762" fill="white" fill-opacity="0.2"/>
<rect x="218.936" y="2.12769" width="2.12762" height="2.12762" fill="white" fill-opacity="0.2"/>
<rect x="221.062" y="2.12769" width="2.12762" height="2.12762" fill="white" fill-opacity="0.2"/>
<rect x="223.189" width="2.12762" height="2.12762" fill="white" fill-opacity="0.2"/>
<rect x="225.318" width="2.12762" height="2.12762" fill="white" fill-opacity="0.2"/>
<rect x="227.445" width="2.12762" height="2.12762" fill="white" fill-opacity="0.2"/>
<rect x="229.572" width="2.12762" height="2.12762" fill="white" fill-opacity="0.2"/>
<rect x="231.701" width="2.12762" height="2.12762" fill="white" fill-opacity="0.2"/>
<rect x="233.828" width="2.12762" height="2.12762" fill="white" fill-opacity="0.2"/>
<rect x="235.957" width="2.12762" height="2.12762" fill="white" fill-opacity="0.2"/>
<rect x="238.084" width="2.12762" height="2.12762" fill="white" fill-opacity="0.2"/>
<rect x="240.211" width="2.12762" height="2.12762" fill="white" fill-opacity="0.2"/>
<rect x="242.34" width="2.12762" height="2.12762" fill="white" fill-opacity="0.2"/>
<rect x="210.424" y="2.12769" width="2.12762" height="2.12762" fill="white" fill-opacity="0.2"/>
<rect x="197.658" y="4.25525" width="2.12762" height="2.12762" fill="white" fill-opacity="0.2"/>
<rect x="199.787" y="4.25525" width="2.12762" height="2.12762" fill="white" fill-opacity="0.2"/>
<rect x="201.914" y="2.12769" width="2.12762" height="2.12762" fill="white" fill-opacity="0.2"/>
<rect x="204.041" y="2.12769" width="2.12762" height="2.12762" fill="white" fill-opacity="0.2"/>
<rect x="206.17" y="2.12769" width="2.12762" height="2.12762" fill="white" fill-opacity="0.2"/>
<rect x="208.297" y="2.12769" width="2.12762" height="2.12762" fill="white" fill-opacity="0.2"/>
<rect x="195.531" y="4.25525" width="2.12762" height="2.12762" fill="white" fill-opacity="0.2"/>
<rect x="176.383" y="6.38293" width="2.12762" height="2.12762" fill="white" fill-opacity="0.2"/>
<rect x="172.127" y="8.5105" width="2.12762" height="2.12762" fill="white" fill-opacity="0.2"/>
<rect x="174.256" y="6.38293" width="2.12762" height="2.12762" fill="white" fill-opacity="0.2"/>
<rect x="178.51" y="6.38293" width="2.12762" height="2.12762" fill="white" fill-opacity="0.2"/>
<rect x="180.639" y="6.38293" width="2.12762" height="2.12762" fill="white" fill-opacity="0.2"/>
<rect x="182.766" y="4.25525" width="2.12762" height="2.12762" fill="white" fill-opacity="0.2"/>
<rect x="184.893" y="4.25525" width="2.12762" height="2.12762" fill="white" fill-opacity="0.2"/>
<rect x="187.021" y="4.25525" width="2.12762" height="2.12762" fill="white" fill-opacity="0.2"/>
<rect x="189.148" y="4.25525" width="2.12762" height="2.12762" fill="white" fill-opacity="0.2"/>
<rect x="191.275" y="4.25525" width="2.12762" height="2.12762" fill="white" fill-opacity="0.2"/>
<rect x="193.404" y="4.25525" width="2.12762" height="2.12762" fill="white" fill-opacity="0.2"/>
</svg>
