<svg width="47" height="192" viewBox="0 0 47 192" fill="none" xmlns="http://www.w3.org/2000/svg">
<rect x="-35" y="38" width="77" height="3" fill="#0C4F20"/>
<rect x="16" y="38" width="4" height="3" fill="#052B27"/>
<rect x="7" y="38" width="4" height="3" fill="#052B27"/>
<rect x="-2" y="5" width="8" height="6" fill="#0C4F20"/>
<rect x="25" width="6" height="6" fill="#0C4F20"/>
<rect x="5" y="1" width="11" height="6" fill="#0C4F20"/>
<rect x="-35" y="6" width="77" height="33" fill="#287753"/>
<rect x="15" y="6" width="10" height="5" fill="#0C4F20"/>
<rect x="34" y="20" width="5" height="5" fill="#0C4F20"/>
<rect x="4" y="6" width="5" height="5" fill="#0C4F20"/>
<rect x="29" y="2" width="5" height="10" fill="#0C4F20"/>
<rect x="-2" y="22" width="6" height="6" fill="#0C4F20"/>
<rect x="12" y="2" width="4" height="5" fill="#052B27"/>
<rect x="7" y="7" width="2" height="5" fill="#052B27"/>
<rect x="25" y="1" width="4" height="5" fill="#287753"/>
<rect x="34" y="5" width="8" height="5" fill="#052B27"/>
<rect x="-35" y="41" width="77" height="77" fill="#53353C"/>
<rect x="16" y="41" width="5" height="5" fill="#391C28"/>
<rect x="21" y="51" width="5" height="5" fill="#391C28"/>
<rect x="-3" y="69" width="8" height="5" fill="#391C28"/>
<rect x="12" y="76" width="5" height="5" fill="#3B1836"/>
<rect x="-3" y="97" width="5" height="5" fill="#3B1836"/>
<rect x="-3" y="92" width="5" height="5" fill="#3B1836"/>
<rect x="2" y="87" width="5" height="5" fill="#3B1836"/>
<rect x="21" y="46" width="5" height="5" fill="#3B1836"/>
<rect x="21" y="56" width="5" height="5" fill="#3B1836"/>
<rect x="37" y="108" width="5" height="5" fill="#3B1836"/>
<rect x="33" y="88" width="5" height="5" fill="#3B1836"/>
<rect x="25" y="94" width="5" height="5" fill="#3B1836"/>
<rect x="16" y="56" width="5" height="5" fill="#3B1836"/>
<rect x="-6" y="41" width="10" height="5" fill="#3B1836"/>
<rect x="26" y="41" width="16" height="5" fill="#3B1836"/>
<rect x="32" y="68" width="5" height="5" fill="#605154"/>
<rect x="20" y="94" width="5" height="5" fill="#605154"/>
<rect x="23" y="72" width="5" height="5" fill="#391C28"/>
<rect x="-3" y="102" width="8" height="5" fill="#391C28"/>
<rect x="13" y="113" width="8" height="5" fill="#391C28"/>
<rect x="34" y="113" width="8" height="5" fill="#391C28"/>
<rect x="25" y="99" width="9" height="5" fill="#391C28"/>
<rect x="12" y="81" width="5" height="5" fill="#391C28"/>
<rect x="37" y="73" width="5" height="5" fill="#3B1836"/>
<rect width="2.12766" height="2.12766" transform="matrix(1 0 0 -1 37.5107 117.383)" fill="#755663"/>
<rect width="2.12766" height="2.12766" transform="matrix(1 0 0 -1 35.3828 117.383)" fill="#755663"/>
<rect width="2.12766" height="2.12766" transform="matrix(1 0 0 -1 41.7656 117.383)" fill="#755663"/>
<rect width="2.12766" height="2.12766" transform="matrix(1 0 0 -1 39.6387 117.383)" fill="#755663"/>
<rect width="2.12766" height="2.12766" transform="matrix(1 0 0 -1 43.8936 117.383)" fill="#755663"/>
<rect width="2.12766" height="2.12766" transform="matrix(1 0 0 -1 29 117.383)" fill="#755663"/>
<rect width="2.12766" height="2.12766" transform="matrix(1 0 0 -1 31.1279 117.383)" fill="#755663"/>
<rect width="2.12766" height="2.12766" transform="matrix(1 0 0 -1 33.2559 117.383)" fill="#755663"/>
<rect width="2.12766" height="2.12766" transform="matrix(1 0 0 -1 29 119.511)" fill="#755663"/>
<rect width="2.12766" height="2.12766" transform="matrix(1 0 0 -1 31.1279 119.511)" fill="#755663"/>
<rect width="2.12766" height="2.12766" transform="matrix(1 0 0 -1 35.3828 119.511)" fill="#755663"/>
<rect width="2.12766" height="2.12766" transform="matrix(1 0 0 -1 33.2559 119.511)" fill="#755663"/>
<rect width="2.12766" height="2.12766" transform="matrix(1 0 0 -1 37.5107 119.511)" fill="#755663"/>
<rect width="2.12766" height="2.12766" transform="matrix(1 0 0 -1 35.3828 125.894)" fill="#755663"/>
<rect width="2.12766" height="2.12766" transform="matrix(1 0 0 -1 37.5107 123.766)" fill="#755663"/>
<rect width="2.12766" height="2.12766" transform="matrix(1 0 0 -1 37.5107 121.638)" fill="#755663"/>
<rect width="2.12766" height="2.12766" transform="matrix(1 0 0 -1 35.3828 130.149)" fill="#755663"/>
<rect width="2.12766" height="2.12766" transform="matrix(1 0 0 -1 35.3828 128.021)" fill="#755663"/>
<rect width="2.12766" height="2.12766" transform="matrix(1 0 0 -1 35.3828 132.277)" fill="#755663"/>
<rect width="2.12766" height="2.12766" transform="matrix(1 0 0 -1 33.2559 130.149)" fill="#755663"/>
<rect width="2.12766" height="2.12766" transform="matrix(1 0 0 -1 33.2559 128.021)" fill="#755663"/>
<rect width="2.12766" height="2.12766" transform="matrix(1 0 0 -1 33.2559 125.894)" fill="#755663"/>
<rect width="2.12766" height="2.12766" transform="matrix(1 0 0 -1 31.1279 123.766)" fill="#755663"/>
<rect width="2.12766" height="2.12766" transform="matrix(1 0 0 -1 35.3828 134.404)" fill="#755663"/>
<rect width="2.12766" height="2.12766" transform="matrix(1 0 0 -1 33.2559 136.532)" fill="#755663"/>
<rect width="2.12766" height="2.12766" transform="matrix(1 0 0 -1 35.3828 136.532)" fill="#755663"/>
<rect width="2.12766" height="2.12766" transform="matrix(1 0 0 -1 31.1279 134.404)" fill="#755663"/>
<rect width="2.12766" height="2.12766" transform="matrix(1 0 0 -1 29 134.404)" fill="#755663"/>
<rect width="2.12766" height="2.12766" transform="matrix(1 0 0 -1 31.1279 136.532)" fill="#755663"/>
<rect width="2.12766" height="2.12766" transform="matrix(1 0 0 -1 37.5107 145.043)" fill="#755663"/>
<rect width="2.12766" height="2.12766" transform="matrix(1 0 0 -1 35.3828 142.915)" fill="#755663"/>
<rect width="2.12766" height="2.12766" transform="matrix(1 0 0 -1 33.2559 140.787)" fill="#755663"/>
<rect width="2.12766" height="2.12766" transform="matrix(1 0 0 -1 31.1279 138.66)" fill="#755663"/>
<rect width="2.12766" height="2.12766" transform="matrix(1 0 0 -1 37.5107 142.915)" fill="#755663"/>
<rect width="2.12766" height="2.12766" transform="matrix(1 0 0 -1 37.5107 140.787)" fill="#755663"/>
<rect width="2.12766" height="2.12766" transform="matrix(1 0 0 -1 37.5107 138.66)" fill="#755663"/>
<rect width="2.12766" height="2.12766" transform="matrix(1 0 0 -1 37.5107 153.553)" fill="#755663"/>
<rect width="2.12766" height="2.12766" transform="matrix(1 0 0 -1 37.5107 151.426)" fill="#755663"/>
<rect width="2.12766" height="2.12766" transform="matrix(1 0 0 -1 37.5107 149.298)" fill="#755663"/>
<rect width="2.12766" height="2.12766" transform="matrix(1 0 0 -1 37.5107 147.17)" fill="#755663"/>
<rect width="2.12766" height="2.12766" transform="matrix(1 0 0 -1 37.5107 136.532)" fill="#755663"/>
<rect width="2.12766" height="2.12766" transform="matrix(1 0 0 -1 37.5107 134.404)" fill="#755663"/>
<rect width="2.12766" height="2.12766" transform="matrix(1 0 0 -1 35.3828 138.66)" fill="#755663"/>
<rect width="2.12766" height="2.12766" transform="matrix(1 0 0 -1 35.3828 140.787)" fill="#755663"/>
<rect width="2.12766" height="2.12766" transform="matrix(1 0 0 -1 33.2559 123.766)" fill="#755663"/>
<rect width="2.12766" height="2.12766" transform="matrix(1 0 0 -1 33.2559 121.638)" fill="#755663"/>
<rect width="2.12766" height="2.12766" transform="matrix(1 0 0 -1 33.2559 115.255)" fill="#755663"/>
<rect width="2.12766" height="2.12766" transform="matrix(1 0 0 -1 33.2559 113.128)" fill="#755663"/>
<rect width="2.12766" height="2.12766" transform="matrix(1 0 0 -1 33.2559 134.404)" fill="#755663"/>
<rect width="2.12766" height="2.12766" transform="matrix(1 0 0 -1 33.2559 132.277)" fill="#755663"/>
<rect width="2.12766" height="2.12766" transform="matrix(1 0 0 -1 33.2559 155.681)" fill="#755663"/>
<rect width="2.12766" height="2.12766" transform="matrix(1 0 0 -1 33.2559 153.553)" fill="#755663"/>
<rect width="2.12766" height="2.12766" transform="matrix(1 0 0 -1 33.2559 151.426)" fill="#755663"/>
<rect width="2.12766" height="2.12766" transform="matrix(1 0 0 -1 33.2559 149.298)" fill="#755663"/>
<rect width="2.12766" height="2.12766" transform="matrix(1 0 0 -1 33.2559 147.17)" fill="#755663"/>
<rect width="2.12766" height="2.12766" transform="matrix(1 0 0 -1 33.2559 145.043)" fill="#755663"/>
<rect width="2.12766" height="2.12766" transform="matrix(1 0 0 -1 33.2559 142.915)" fill="#755663"/>
<rect width="2.12766" height="2.12766" transform="matrix(1 0 0 -1 33.2559 138.66)" fill="#755663"/>
<rect width="2.12766" height="2.12766" transform="matrix(1 0 0 -1 33.2559 157.809)" fill="#755663"/>
<rect width="2.12766" height="2.12766" transform="matrix(1 0 0 -1 35.3828 168.447)" fill="#755663"/>
<rect width="2.12766" height="2.12766" transform="matrix(1 0 0 -1 35.3828 166.319)" fill="#755663"/>
<rect width="2.12766" height="2.12766" transform="matrix(1 0 0 -1 35.3828 164.192)" fill="#755663"/>
<rect width="2.12766" height="2.12766" transform="matrix(1 0 0 -1 35.3828 162.064)" fill="#755663"/>
<rect width="2.12766" height="2.12766" transform="matrix(1 0 0 -1 33.2559 159.936)" fill="#755663"/>
<rect width="2.12766" height="2.12766" transform="matrix(1 0 0 -1 35.3828 170.574)" fill="#755663"/>
<rect width="2.12766" height="2.12766" transform="matrix(1 0 0 -1 37.5107 181.213)" fill="#755663"/>
<rect width="2.12766" height="2.12766" transform="matrix(1 0 0 -1 37.5107 179.085)" fill="#755663"/>
<rect width="2.12766" height="2.12766" transform="matrix(1 0 0 -1 37.5107 176.958)" fill="#755663"/>
<rect width="2.12766" height="2.12766" transform="matrix(1 0 0 -1 37.5107 174.83)" fill="#755663"/>
<rect width="2.12766" height="2.12766" transform="matrix(1 0 0 -1 37.5107 172.702)" fill="#755663"/>
<rect width="2.12766" height="2.12766" transform="matrix(1 0 0 -1 37.5107 170.574)" fill="#755663"/>
<rect width="2.12766" height="2.12766" transform="matrix(1 0 0 -1 35.3828 181.213)" fill="#755663"/>
<rect width="2.12766" height="2.12766" transform="matrix(1 0 0 -1 33.2559 179.085)" fill="#755663"/>
<rect width="2.12766" height="2.12766" transform="matrix(1 0 0 -1 41.7656 187.596)" fill="#755663"/>
<rect width="2.12766" height="2.12766" transform="matrix(1 0 0 -1 41.7656 185.468)" fill="#755663"/>
<rect width="2.12766" height="2.12766" transform="matrix(1 0 0 -1 39.6387 183.34)" fill="#755663"/>
<rect width="2.12766" height="2.12766" transform="matrix(1 0 0 -1 41.7656 189.724)" fill="#755663"/>
<rect width="2.12766" height="2.12766" transform="matrix(1 0 0 -1 35.3828 187.596)" fill="#755663"/>
<rect width="2.12766" height="2.12766" transform="matrix(1 0 0 -1 37.5107 189.724)" fill="#755663"/>
<rect width="2.12766" height="2.12766" transform="matrix(1 0 0 -1 39.6387 189.724)" fill="#755663"/>
<rect width="2.12766" height="2.12766" transform="matrix(1 0 0 -1 33.2559 189.724)" fill="#755663"/>
<rect width="2.12766" height="2.12766" transform="matrix(1 0 0 -1 33.2559 187.596)" fill="#755663"/>
<rect width="2.12766" height="2.12766" transform="matrix(1 0 0 -1 33.2559 191.851)" fill="#755663"/>
<path d="M21.3004 103.4L-10.1996 111.2L-12.5996 116.6L-3.29961 132.5H23.4004L40.5004 121.7L42.9004 113.6L21.3004 103.4Z" fill="#866E63" stroke="#866E63"/>
<rect x="12" y="104" width="3" height="3" fill="#866E63"/>
<rect y="107" width="3" height="3" fill="#866E63"/>
<rect x="3" y="107" width="3" height="3" fill="#866E63"/>
<rect x="6" y="104" width="3" height="3" fill="#866E63"/>
<rect x="9" y="104" width="3" height="3" fill="#866E63"/>
<rect x="15" y="104" width="3" height="3" fill="#866E63"/>
<rect x="18" y="101" width="3" height="3" fill="#866E63"/>
<rect x="21" y="101" width="3" height="3" fill="#866E63"/>
<rect x="24" y="104" width="3" height="3" fill="#866E63"/>
<rect x="30" y="107" width="3" height="3" fill="#866E63"/>
<rect x="36" y="110" width="3" height="3" fill="#866E63"/>
<rect x="27" y="104" width="3" height="3" fill="#866E63"/>
<rect x="33" y="107" width="3" height="3" fill="#866E63"/>
<rect x="39" y="110" width="3" height="3" fill="#866E63"/>
<rect x="42" y="113" width="3" height="3" fill="#866E63"/>
<rect x="39" y="116" width="3" height="3" fill="#866E63"/>
<rect x="39" y="119" width="3" height="3" fill="#866E63"/>
<rect x="36" y="122" width="3" height="3" fill="#866E63"/>
<rect x="30" y="125" width="3" height="3" fill="#866E63"/>
<rect x="27" y="128" width="3" height="3" fill="#866E63"/>
<rect x="21" y="131" width="3" height="3" fill="#866E63"/>
<rect x="24" y="131" width="3" height="3" fill="#866E63"/>
<rect x="33" y="125" width="3" height="3" fill="#866E63"/>
<rect y="131" width="3" height="3" fill="#866E63"/>
<rect x="3" y="131" width="3" height="3" fill="#866E63"/>
<rect x="6" y="131" width="3" height="3" fill="#866E63"/>
<rect x="9" y="131" width="3" height="3" fill="#866E63"/>
<rect x="12" y="131" width="3" height="3" fill="#866E63"/>
<rect x="15" y="131" width="3" height="3" fill="#866E63"/>
<rect x="18" y="131" width="3" height="3" fill="#866E63"/>
<path d="M-4.7998 118.1L1.5002 120.5L13.2002 113.6L8.4002 129.5L23.004 120.5M23.004 120.5L34.2002 113.6L21.9002 111.5V106.4V116.6L27.9002 120.5L21.9002 128L15.0002 118.1L21.9002 125L23.004 120.5Z" stroke="#554A59"/>
<rect y="119" width="3" height="3" fill="#554A59"/>
<rect x="9" y="113" width="3" height="3" fill="#554A59"/>
<rect x="6" y="116" width="3" height="3" fill="#554A59"/>
<rect x="3" y="116" width="3" height="3" fill="#554A59"/>
<rect x="12" y="113" width="3" height="3" fill="#554A59"/>
<rect x="12" y="116" width="3" height="3" fill="#554A59"/>
<rect x="9" y="119" width="3" height="3" fill="#554A59"/>
<rect x="9" y="122" width="3" height="3" fill="#554A59"/>
<rect x="9" y="125" width="3" height="3" fill="#554A59"/>
<rect x="6" y="128" width="3" height="3" fill="#554A59"/>
<rect x="21" y="110" width="3" height="3" fill="#554A59"/>
<rect x="24" y="110" width="3" height="3" fill="#554A59"/>
<rect x="27" y="110" width="3" height="3" fill="#554A59"/>
<rect x="30" y="113" width="3" height="3" fill="#554A59"/>
<rect x="33" y="113" width="3" height="3" fill="#554A59"/>
<rect x="21" y="107" width="3" height="3" fill="#554A59"/>
<rect x="21" y="104" width="3" height="3" fill="#554A59"/>
<rect x="21" y="113" width="3" height="3" fill="#554A59"/>
<rect x="21" y="116" width="3" height="3" fill="#554A59"/>
<rect x="27" y="119" width="3" height="3" fill="#554A59"/>
<rect x="24" y="116" width="3" height="3" fill="#554A59"/>
<rect x="24" y="122" width="3" height="3" fill="#554A59"/>
<rect x="21" y="125" width="3" height="3" fill="#554A59"/>
<rect x="21" y="128" width="3" height="3" fill="#554A59"/>
<rect x="15" y="119" width="3" height="3" fill="#554A59"/>
<rect x="18" y="122" width="3" height="3" fill="#554A59"/>
<rect x="18" y="125" width="3" height="3" fill="#554A59"/>
<rect x="15" y="116" width="3" height="3" fill="#554A59"/>
<rect x="21" y="119" width="3" height="3" fill="#554A59"/>
<rect x="12" y="125" width="3" height="3" fill="#554A59"/>
<rect x="9" y="128" width="3" height="3" fill="#554A59"/>
<rect x="15" y="122" width="3" height="3" fill="#554A59"/>
<rect x="27" y="116" width="3" height="3" fill="#554A59"/>
<rect x="21" y="122" width="3" height="3" fill="#554A59"/>
<path d="M19.4996 120.8L13.7996 123.2L5.99961 127.1L2.09961 129.2L4.19961 130.7L20.3996 131.3L15.5996 129.2L17.9996 127.1" stroke="#554A59"/>
<rect x="15" y="122" width="3" height="3" fill="#554A59"/>
<rect x="18" y="119" width="3" height="3" fill="#554A59"/>
<rect x="12" y="122" width="3" height="3" fill="#554A59"/>
<rect x="6" y="125" width="3" height="3" fill="#554A59"/>
<rect x="9" y="122" width="3" height="3" fill="#554A59"/>
<rect x="3" y="125" width="3" height="3" fill="#554A59"/>
<rect y="128" width="3" height="3" fill="#554A59"/>
<rect x="3" y="128" width="3" height="3" fill="#554A59"/>
<rect x="6" y="128" width="3" height="3" fill="#554A59"/>
<rect x="9" y="128" width="3" height="3" fill="#554A59"/>
<rect x="12" y="131" width="3" height="3" fill="#554A59"/>
<rect x="15" y="131" width="3" height="3" fill="#554A59"/>
<rect x="18" y="131" width="3" height="3" fill="#554A59"/>
<rect x="15" y="128" width="3" height="3" fill="#554A59"/>
<rect x="18" y="128" width="3" height="3" fill="#554A59"/>
<rect x="18" y="125" width="3" height="3" fill="#554A59"/>
<path d="M40.4996 113.3V119L34.7996 124.4L27.8996 127.7L24.5996 132.5" stroke="#2A2235"/>
<rect x="39" y="113" width="3" height="3" fill="#2A2235"/>
<rect x="39" y="116" width="3" height="3" fill="#2A2235"/>
<rect x="39" y="119" width="3" height="3" fill="#2A2235"/>
<rect x="36" y="119" width="3" height="3" fill="#2A2235"/>
<rect x="33" y="122" width="3" height="3" fill="#2A2235"/>
<rect x="30" y="125" width="3" height="3" fill="#2A2235"/>
<rect x="27" y="125" width="3" height="3" fill="#2A2235"/>
<rect x="24" y="128" width="3" height="3" fill="#2A2235"/>
<rect x="24" y="131" width="3" height="3" fill="#2A2235"/>
<path d="M10.1998 125L5.69981 121.7L0.299805 123.2" stroke="#2A2235"/>
<rect x="6" y="122" width="3" height="3" fill="#554A59"/>
<rect x="9" y="125" width="3" height="3" fill="#554A59"/>
<rect x="3" y="119" width="3" height="3" fill="#554A59"/>
<rect y="122" width="3" height="3" fill="#554A59"/>
<rect x="3" y="122" width="3" height="3" fill="#554A59"/>
<path d="M13.2006 124.7H8.10059V121.4" stroke="#2A2235"/>
<rect x="9" y="122" width="3" height="3" fill="#2A2235"/>
<rect x="12" y="122" width="3" height="3" fill="#2A2235"/>
<rect x="6" y="122" width="3" height="3" fill="#2A2235"/>
<rect x="6" y="119" width="3" height="3" fill="#2A2235"/>
<path d="M15 105.5C14.28 105.74 10.7 105.6 9.00001 105.5L6.3 109.4L-3 108.5" stroke="#2A2235"/>
<rect x="9" y="104" width="3" height="3" fill="#2A2235"/>
<rect x="12" y="104" width="3" height="3" fill="#2A2235"/>
<rect x="15" y="104" width="3" height="3" fill="#2A2235"/>
<rect x="6" y="107" width="3" height="3" fill="#2A2235"/>
<rect y="107" width="3" height="3" fill="#2A2235"/>
<rect x="3" y="107" width="3" height="3" fill="#2A2235"/>
<path d="M20.0996 121.4L21.5996 115.4L23.0996 116.6H26.3996L29.0996 114.2" stroke="#2A2235"/>
<rect x="21" y="116" width="3" height="3" fill="#2A2235"/>
<rect x="18" y="119" width="3" height="3" fill="#2A2235"/>
<rect x="21" y="113" width="3" height="3" fill="#2A2235"/>
<rect x="24" y="116" width="3" height="3" fill="#2A2235"/>
<rect x="27" y="113" width="3" height="3" fill="#2A2235"/>
<path d="M-8.40039 122.3L-7.20039 126.2L-4.50039 127.7V130.7L-2.10039 133.4H2.09961" stroke="#2A2235"/>
<rect y="131" width="3" height="3" fill="#2A2235"/>
<path d="M21.6004 131.9L25.2004 127.4L32.1004 123.8H27.6004L21.6004 127.4L18.9004 133.7H15.9004" stroke="#2A2235"/>
<rect x="21" y="128" width="3" height="3" fill="#2A2235"/>
<rect x="21" y="131" width="3" height="3" fill="#2A2235"/>
<rect x="24" y="125" width="3" height="3" fill="#2A2235"/>
<rect x="27" y="125" width="3" height="3" fill="#2A2235"/>
<rect x="30" y="122" width="3" height="3" fill="#2A2235"/>
<rect x="27" y="122" width="3" height="3" fill="#2A2235"/>
<rect x="21" y="125" width="3" height="3" fill="#2A2235"/>
<rect x="18" y="128" width="3" height="3" fill="#2A2235"/>
<rect x="18" y="131" width="3" height="3" fill="#2A2235"/>
<rect x="15" y="131" width="3" height="3" fill="#2A2235"/>
<path d="M-8.9998 108.5L-13.7998 116L-11.0998 121.4V125L-6.5998 128.9C-6.2998 130.7 -5.3998 134.3 -4.1998 134.3H25.2002L28.5002 130.7L35.1002 127.4L39.3002 123.2L44.1002 116L41.7002 112.7L33.9002 108.5L27.0002 103.1C25.2002 102.5 21.3002 101.3 20.1002 101.3C18.9002 101.3 17.4002 102.5 16.8002 103.1L6.00021 104.6C3.7002 105.1 -1.1998 106.1 -2.3998 106.1C-3.5998 106.1 -7.2998 107.7 -8.9998 108.5Z" stroke="#36312F"/>
<rect y="104" width="3" height="3" fill="#36312F"/>
<rect x="3" y="104" width="3" height="3" fill="#36312F"/>
<rect x="6" y="104" width="3" height="3" fill="#36312F"/>
<rect x="9" y="101" width="3" height="3" fill="#36312F"/>
<rect x="12" y="101" width="3" height="3" fill="#36312F"/>
<rect x="15" y="101" width="3" height="3" fill="#36312F"/>
<rect x="18" y="101" width="3" height="3" fill="#36312F"/>
<rect x="24" y="101" width="3" height="3" fill="#36312F"/>
<rect x="21" y="101" width="3" height="3" fill="#36312F"/>
<rect x="27" y="101" width="3" height="3" fill="#36312F"/>
<rect x="30" y="104" width="3" height="3" fill="#36312F"/>
<rect x="33" y="107" width="3" height="3" fill="#36312F"/>
<rect x="27" y="104" width="3" height="3" fill="#36312F"/>
<rect x="39" y="110" width="3" height="3" fill="#36312F"/>
<rect x="36" y="110" width="3" height="3" fill="#36312F"/>
<rect x="42" y="113" width="3" height="3" fill="#36312F"/>
<rect x="42" y="116" width="3" height="3" fill="#36312F"/>
<rect x="39" y="119" width="3" height="3" fill="#36312F"/>
<rect x="39" y="122" width="3" height="3" fill="#36312F"/>
<rect x="36" y="125" width="3" height="3" fill="#36312F"/>
<rect x="36" y="122" width="3" height="3" fill="#36312F"/>
<rect x="33" y="125" width="3" height="3" fill="#36312F"/>
<rect x="30" y="128" width="3" height="3" fill="#36312F"/>
<rect x="27" y="128" width="3" height="3" fill="#36312F"/>
<rect x="24" y="131" width="3" height="3" fill="#36312F"/>
<rect x="24" y="134" width="3" height="3" fill="#36312F"/>
<rect y="134" width="3" height="3" fill="#36312F"/>
<rect x="3" y="134" width="3" height="3" fill="#36312F"/>
<rect x="6" y="134" width="3" height="3" fill="#36312F"/>
<rect x="9" y="134" width="3" height="3" fill="#36312F"/>
<rect x="12" y="134" width="3" height="3" fill="#36312F"/>
<rect x="15" y="134" width="3" height="3" fill="#36312F"/>
<rect x="18" y="134" width="3" height="3" fill="#36312F"/>
<rect x="21" y="134" width="3" height="3" fill="#36312F"/>
</svg>
