<svg width="65" height="118" viewBox="0 0 65 118" fill="none" xmlns="http://www.w3.org/2000/svg">
<rect x="-12" y="38" width="77" height="3" fill="#0C4F20"/>
<rect x="4" y="38" width="4" height="3" fill="#052B27"/>
<rect x="39" y="38" width="4" height="3" fill="#052B27"/>
<rect x="30" y="38" width="4" height="3" fill="#052B27"/>
<rect x="8" y="38" width="4" height="3" fill="#052B27"/>
<rect x="-1" width="6" height="6" fill="#0C4F20"/>
<rect x="21" y="5" width="8" height="6" fill="#0C4F20"/>
<rect x="13" y="3" width="8" height="6" fill="#0C4F20"/>
<rect x="48" width="6" height="6" fill="#0C4F20"/>
<rect x="28" y="1" width="11" height="6" fill="#0C4F20"/>
<rect y="1" width="4" height="5" fill="#287753"/>
<rect x="-12" y="6" width="77" height="33" fill="#287753"/>
<rect x="38" y="6" width="10" height="5" fill="#0C4F20"/>
<rect x="57" y="20" width="5" height="5" fill="#0C4F20"/>
<rect x="5" y="5" width="5" height="5" fill="#052B27"/>
<rect x="4" y="2" width="5" height="5" fill="#0C4F20"/>
<rect x="27" y="6" width="5" height="5" fill="#0C4F20"/>
<rect x="52" y="2" width="5" height="10" fill="#0C4F20"/>
<rect x="10" y="10" width="5" height="5" fill="#0C4F20"/>
<rect x="21" y="22" width="6" height="6" fill="#0C4F20"/>
<rect x="35" y="2" width="4" height="5" fill="#052B27"/>
<rect x="30" y="7" width="2" height="5" fill="#052B27"/>
<rect x="48" y="1" width="4" height="5" fill="#287753"/>
<rect x="57" y="5" width="8" height="5" fill="#052B27"/>
<rect x="-12" y="41" width="77" height="77" fill="#53353C"/>
<rect x="-4" y="41" width="8" height="5" fill="#391C28"/>
<rect x="39" y="41" width="5" height="5" fill="#391C28"/>
<rect x="9" y="56" width="8" height="5" fill="#391C28"/>
<rect x="1" y="89" width="8" height="5" fill="#391C28"/>
<rect x="44" y="51" width="5" height="5" fill="#391C28"/>
<rect x="-4" y="68" width="8" height="5" fill="#391C28"/>
<rect x="20" y="69" width="8" height="5" fill="#391C28"/>
<rect x="15" y="69" width="5" height="5" fill="#3B1836"/>
<rect x="-4" y="63" width="5" height="5" fill="#3B1836"/>
<rect x="35" y="76" width="5" height="5" fill="#3B1836"/>
<rect x="20" y="97" width="5" height="5" fill="#3B1836"/>
<rect x="20" y="92" width="5" height="5" fill="#3B1836"/>
<rect x="25" y="87" width="5" height="5" fill="#3B1836"/>
<rect x="44" y="46" width="5" height="5" fill="#3B1836"/>
<rect x="44" y="56" width="5" height="5" fill="#3B1836"/>
<rect x="12" y="46" width="5" height="5" fill="#3B1836"/>
<rect x="7" y="113" width="5" height="5" fill="#3B1836"/>
<rect x="60" y="108" width="5" height="5" fill="#3B1836"/>
<rect x="56" y="88" width="5" height="5" fill="#3B1836"/>
<rect x="48" y="94" width="5" height="5" fill="#3B1836"/>
<rect x="-4" y="97" width="5" height="5" fill="#3B1836"/>
<rect x="39" y="56" width="5" height="5" fill="#3B1836"/>
<rect x="17" y="41" width="10" height="5" fill="#3B1836"/>
<rect x="49" y="41" width="16" height="5" fill="#3B1836"/>
<rect x="4" y="51" width="5" height="5" fill="#605154"/>
<rect x="55" y="68" width="5" height="5" fill="#605154"/>
<rect x="15" y="92" width="5" height="5" fill="#605154"/>
<rect x="43" y="94" width="5" height="5" fill="#605154"/>
<rect x="12" y="64" width="8" height="5" fill="#605154"/>
<rect x="46" y="72" width="5" height="5" fill="#391C28"/>
<rect x="20" y="102" width="8" height="5" fill="#391C28"/>
<rect x="36" y="113" width="8" height="5" fill="#391C28"/>
<rect x="57" y="113" width="8" height="5" fill="#391C28"/>
<rect x="48" y="99" width="9" height="5" fill="#391C28"/>
<rect x="35" y="81" width="5" height="5" fill="#391C28"/>
<rect x="60" y="73" width="5" height="5" fill="#3B1836"/>
</svg>
