<svg width="72" height="92" viewBox="0 0 72 77" fill="none" xmlns="http://www.w3.org/2000/svg">
<rect x="-5" width="77" height="92" fill="#5A413B"/>
<rect x="3" width="8" height="5" fill="#3B211D"/>
<rect x="46" width="5" height="5" fill="#3B211D"/>
<rect x="16" y="15" width="8" height="5" fill="#3B211D"/>
<rect x="8" y="48" width="8" height="5" fill="#3B211D"/>
<rect x="51" y="10" width="5" height="5" fill="#3B211D"/>
<rect x="3" y="27" width="8" height="5" fill="#3B211D"/>
<rect x="27" y="28" width="8" height="5" fill="#3B211D"/>
<rect x="22" y="28" width="5" height="5" fill="#502F2A"/>
<rect x="3" y="22" width="5" height="5" fill="#502F2A"/>
<rect x="42" y="35" width="5" height="5" fill="#502F2A"/>
<rect x="27" y="56" width="5" height="5" fill="#502F2A"/>
<rect x="27" y="51" width="5" height="5" fill="#502F2A"/>
<rect x="32" y="46" width="5" height="5" fill="#502F2A"/>
<rect x="51" y="5" width="5" height="5" fill="#502F2A"/>
<rect x="51" y="15" width="5" height="5" fill="#502F2A"/>
<rect x="19" y="5" width="5" height="5" fill="#502F2A"/>
<rect x="14" y="72" width="5" height="5" fill="#502F2A"/>
<rect x="67" y="67" width="5" height="5" fill="#502F2A"/>
<rect x="63" y="47" width="5" height="5" fill="#502F2A"/>
<rect x="55" y="53" width="5" height="5" fill="#502F2A"/>
<rect x="3" y="56" width="5" height="5" fill="#502F2A"/>
<rect x="46" y="15" width="5" height="5" fill="#502F2A"/>
<rect x="24" width="10" height="5" fill="#502F2A"/>
<rect x="56" width="16" height="5" fill="#502F2A"/>
<rect x="11" y="10" width="5" height="5" fill="#6D5D5A"/>
<rect x="62" y="27" width="5" height="5" fill="#6D5D5A"/>
<rect x="22" y="51" width="5" height="5" fill="#6D5D5A"/>
<rect x="50" y="53" width="5" height="5" fill="#6D5D5A"/>
<rect x="-5" y="22" width="8" height="5" fill="#6D5D5A"/>
<rect x="19" y="23" width="8" height="5" fill="#6D5D5A"/>
<rect x="53" y="31" width="5" height="5" fill="#3B211D"/>
<rect x="27" y="61" width="8" height="5" fill="#3B211D"/>
<rect x="43" y="72" width="8" height="5" fill="#3B211D"/>
<rect y="72" width="5" height="5" fill="#3B211D"/>
<rect x="64" y="72" width="8" height="5" fill="#3B211D"/>
<rect x="55" y="58" width="9" height="5" fill="#3B211D"/>
<rect x="42" y="40" width="5" height="5" fill="#3B211D"/>
<rect x="67" y="32" width="5" height="5" fill="#502F2A"/>
</svg>
