<svg width="22" height="22" viewBox="0 0 22 22" fill="none" xmlns="http://www.w3.org/2000/svg">
<path fill-rule="evenodd" clip-rule="evenodd" d="M21.6673 11.0002C21.6673 16.8912 16.8917 21.6668 11.0007 21.6668C5.10961 21.6668 0.333984 16.8912 0.333984 11.0002C0.333984 5.10913 5.10961 0.333496 11.0007 0.333496C16.8917 0.333496 21.6673 5.10913 21.6673 11.0002ZM11.0032 4.8953C11.6295 4.8953 12.1331 5.41057 12.1188 6.03667L11.9719 12.4749C11.9599 13.0025 11.5287 13.4239 11.001 13.4239C10.473 13.4239 10.0417 13.0021 10.0301 12.4742L9.88757 6.0359C9.87372 5.41009 10.3772 4.8953 11.0032 4.8953ZM10.0806 16.7268C10.3361 16.9784 10.6428 17.1043 11.0007 17.1043C11.2366 17.1043 11.4509 17.0472 11.6435 16.9332C11.8401 16.8152 11.9974 16.658 12.1154 16.4614C12.2373 16.2648 12.2982 16.0465 12.2982 15.8067C12.2982 15.4528 12.1685 15.15 11.9089 14.8984C11.6534 14.6467 11.3506 14.5209 11.0007 14.5209C10.6428 14.5209 10.3361 14.6467 10.0806 14.8984C9.82891 15.15 9.70308 15.4528 9.70308 15.8067C9.70308 16.1684 9.82891 16.4751 10.0806 16.7268Z" fill="#F58120"/>
</svg>
