<svg width="471" height="471" viewBox="0 0 471 471" fill="none" xmlns="http://www.w3.org/2000/svg">
<rect x="35" y="36" width="400" height="400" fill="#EBA867"/>
<rect x="8" y="436" width="20" height="8" fill="#20140C"/>
<rect x="8" y="36" width="20" height="400" fill="#9D4512"/>
<rect y="36" width="8" height="400" fill="#6E3615"/>
<rect x="28" y="36" width="8" height="400" fill="#20140C"/>
<rect x="8" y="28" width="20" height="8" fill="#6E3615"/>
<rect x="8" y="436" width="20" height="8" fill="#20140C"/>
<rect x="8" y="36" width="20" height="400" fill="#9D4512"/>
<rect y="36" width="8" height="400" fill="#6E3615"/>
<rect x="28" y="36" width="8" height="400" fill="#20140C"/>
<rect x="8" y="28" width="20" height="8" fill="#6E3615"/>
<rect x="443" y="435" width="20" height="8" fill="#20140C"/>
<rect x="443" y="35" width="20" height="400" fill="#9D4512"/>
<rect x="435" y="35" width="8" height="400" fill="#6E3615"/>
<rect x="463" y="35" width="8" height="400" fill="#20140C"/>
<rect x="443" y="27" width="20" height="8" fill="#6E3615"/>
<rect x="36" y="8" width="20" height="8" transform="rotate(90 36 8)" fill="#20140C"/>
<rect x="436" y="8" width="20" height="400" transform="rotate(90 436 8)" fill="#9D4512"/>
<rect x="436" width="8" height="400" transform="rotate(90 436 0)" fill="#6E3615"/>
<rect x="436" y="28" width="8" height="400" transform="rotate(90 436 28)" fill="#20140C"/>
<rect x="444" y="8" width="20" height="8" transform="rotate(90 444 8)" fill="#6E3615"/>
<rect x="35" y="443" width="20" height="8" transform="rotate(90 35 443)" fill="#20140C"/>
<rect x="435" y="443" width="20" height="400" transform="rotate(90 435 443)" fill="#9D4512"/>
<rect x="435" y="435" width="8" height="400" transform="rotate(90 435 435)" fill="#6E3615"/>
<rect x="435" y="463" width="8" height="400" transform="rotate(90 435 463)" fill="#20140C"/>
<rect x="443" y="443" width="20" height="8" transform="rotate(90 443 443)" fill="#6E3615"/>
</svg>
