<svg width="200" height="84" viewBox="0 0 200 84" fill="none" xmlns="http://www.w3.org/2000/svg">
<path d="M1.67015 20.58C1.67015 9.44594 10.6431 0.42 21.7119 0.42H178.288C189.357 0.42 198.33 9.44594 198.33 20.58V61.74C198.33 72.8741 189.357 81.9 178.288 81.9H21.7119C10.6431 81.9 1.67015 72.8741 1.67015 61.74V20.58Z" fill="#E7B980"/>
<path d="M21.2944 0H23.382V2.1H21.2944V0Z" fill="#E7B980"/>
<path d="M23.382 0H25.4697V2.1H23.382V0Z" fill="#E7B980"/>
<path d="M25.4697 0H27.5574V2.1H25.4697V0Z" fill="#E7B980"/>
<path d="M27.5574 0H29.6451V2.1H27.5574V0Z" fill="#E7B980"/>
<path d="M29.6451 0H31.7328V2.1H29.6451V0Z" fill="#E7B980"/>
<path d="M31.7328 0H33.8205V2.1H31.7328V0Z" fill="#E7B980"/>
<path d="M33.8205 0H35.9081V2.1H33.8205V0Z" fill="#E7B980"/>
<path d="M35.9081 0H37.9958V2.1H35.9081V0Z" fill="#E7B980"/>
<path d="M37.9958 0H40.0835V2.1H37.9958V0Z" fill="#E7B980"/>
<path d="M40.0835 0H42.1712V2.1H40.0835V0Z" fill="#E7B980"/>
<path d="M42.1712 0H44.2589V2.1H42.1712V0Z" fill="#E7B980"/>
<path d="M44.2589 0H46.3466V2.1H44.2589V0Z" fill="#E7B980"/>
<path d="M46.3466 0H48.4342V2.1H46.3466V0Z" fill="#E7B980"/>
<path d="M48.4342 0H50.5219V2.1H48.4342V0Z" fill="#E7B980"/>
<path d="M50.5219 0H52.6096V2.1H50.5219V0Z" fill="#E7B980"/>
<path d="M52.6096 0H54.6973V2.1H52.6096V0Z" fill="#E7B980"/>
<path d="M54.6973 0H56.785V2.1H54.6973V0Z" fill="#E7B980"/>
<path d="M56.785 0H58.8727V2.1H56.785V0Z" fill="#E7B980"/>
<path d="M58.8727 0H60.9603V2.1H58.8727V0Z" fill="#E7B980"/>
<path d="M60.9603 0H63.048V2.1H60.9603V0Z" fill="#E7B980"/>
<path d="M63.048 0H65.1357V2.1H63.048V0Z" fill="#E7B980"/>
<path d="M65.1357 0H67.2234V2.1H65.1357V0Z" fill="#E7B980"/>
<path d="M67.2234 0H69.3111V2.1H67.2234V0Z" fill="#E7B980"/>
<path d="M69.3111 0H71.3987V2.1H69.3111V0Z" fill="#E7B980"/>
<path d="M71.3987 0H73.4864V2.1H71.3987V0Z" fill="#E7B980"/>
<path d="M73.4864 0H75.5741V2.1H73.4864V0Z" fill="#E7B980"/>
<path d="M75.5741 0H77.6618V2.1H75.5741V0Z" fill="#E7B980"/>
<path d="M77.6618 0H79.7495V2.1H77.6618V0Z" fill="#E7B980"/>
<path d="M79.7495 0H81.8372V2.1H79.7495V0Z" fill="#E7B980"/>
<path d="M81.8372 0H83.9248V2.1H81.8372V0Z" fill="#E7B980"/>
<path d="M83.9248 0H86.0125V2.1H83.9248V0Z" fill="#E7B980"/>
<path d="M86.0125 0H88.1002V2.1H86.0125V0Z" fill="#E7B980"/>
<path d="M88.1002 0H90.1879V2.1H88.1002V0Z" fill="#E7B980"/>
<path d="M90.1879 0H92.2756V2.1H90.1879V0Z" fill="#E7B980"/>
<path d="M92.2756 0H94.3633V2.1H92.2756V0Z" fill="#E7B980"/>
<path d="M94.3633 0H96.4509V2.1H94.3633V0Z" fill="#E7B980"/>
<path d="M96.4509 0H98.5386V2.1H96.4509V0Z" fill="#E7B980"/>
<path d="M98.5386 0H100.626V2.1H98.5386V0Z" fill="#E7B980"/>
<path d="M100.626 0H102.714V2.1H100.626V0Z" fill="#E7B980"/>
<path d="M102.714 0H104.802V2.1H102.714V0Z" fill="#E7B980"/>
<path d="M104.802 0H106.889V2.1H104.802V0Z" fill="#E7B980"/>
<path d="M106.889 0H108.977V2.1H106.889V0Z" fill="#E7B980"/>
<path d="M108.977 0H111.065V2.1H108.977V0Z" fill="#E7B980"/>
<path d="M111.065 0H113.152V2.1H111.065V0Z" fill="#E7B980"/>
<path d="M113.152 0H115.24V2.1H113.152V0Z" fill="#E7B980"/>
<path d="M115.24 0H117.328V2.1H115.24V0Z" fill="#E7B980"/>
<path d="M117.328 0H119.415V2.1H117.328V0Z" fill="#E7B980"/>
<path d="M119.415 0H121.503V2.1H119.415V0Z" fill="#E7B980"/>
<path d="M121.503 0H123.591V2.1H121.503V0Z" fill="#E7B980"/>
<path d="M123.591 0H125.678V2.1H123.591V0Z" fill="#E7B980"/>
<path d="M125.678 0H127.766V2.1H125.678V0Z" fill="#E7B980"/>
<path d="M127.766 0H129.854V2.1H127.766V0Z" fill="#E7B980"/>
<path d="M129.854 0H131.942V2.1H129.854V0Z" fill="#E7B980"/>
<path d="M131.942 0H134.029V2.1H131.942V0Z" fill="#E7B980"/>
<path d="M134.029 0H136.117V2.1H134.029V0Z" fill="#E7B980"/>
<path d="M136.117 0H138.205V2.1H136.117V0Z" fill="#E7B980"/>
<path d="M138.205 0H140.292V2.1H138.205V0Z" fill="#E7B980"/>
<path d="M140.292 0H142.38V2.1H140.292V0Z" fill="#E7B980"/>
<path d="M142.38 0H144.468V2.1H142.38V0Z" fill="#E7B980"/>
<path d="M144.468 0H146.555V2.1H144.468V0Z" fill="#E7B980"/>
<path d="M146.555 0H148.643V2.1H146.555V0Z" fill="#E7B980"/>
<path d="M148.643 0H150.731V2.1H148.643V0Z" fill="#E7B980"/>
<path d="M150.731 0H152.818V2.1H150.731V0Z" fill="#E7B980"/>
<path d="M152.818 0H154.906V2.1H152.818V0Z" fill="#E7B980"/>
<path d="M154.906 0H156.994V2.1H154.906V0Z" fill="#E7B980"/>
<path d="M156.994 0H159.081V2.1H156.994V0Z" fill="#E7B980"/>
<path d="M159.081 0H161.169V2.1H159.081V0Z" fill="#E7B980"/>
<path d="M161.169 0H163.257V2.1H161.169V0Z" fill="#E7B980"/>
<path d="M163.257 0H165.344V2.1H163.257V0Z" fill="#E7B980"/>
<path d="M165.344 0H167.432V2.1H165.344V0Z" fill="#E7B980"/>
<path d="M167.432 0H169.52V2.1H167.432V0Z" fill="#E7B980"/>
<path d="M169.52 0H171.608V2.1H169.52V0Z" fill="#E7B980"/>
<path d="M171.608 0H173.695V2.1H171.608V0Z" fill="#E7B980"/>
<path d="M173.695 0H175.783V2.1H173.695V0Z" fill="#E7B980"/>
<path d="M175.783 0H177.871V2.1H175.783V0Z" fill="#E7B980"/>
<path d="M177.871 0H179.958V2.1H177.871V0Z" fill="#E7B980"/>
<path d="M196.66 21H198.747V23.1H196.66V21Z" fill="#E7B980"/>
<path d="M196.66 23.1H198.747V25.2H196.66V23.1Z" fill="#E7B980"/>
<path d="M196.66 25.2H198.747V27.3H196.66V25.2Z" fill="#E7B980"/>
<path d="M196.66 27.3H198.747V29.4H196.66V27.3Z" fill="#E7B980"/>
<path d="M196.66 29.4H198.747V31.5H196.66V29.4Z" fill="#E7B980"/>
<path d="M196.66 31.5H198.747V33.6H196.66V31.5Z" fill="#E7B980"/>
<path d="M196.66 33.6H198.747V35.7H196.66V33.6Z" fill="#E7B980"/>
<path d="M196.66 35.7H198.747V37.8H196.66V35.7Z" fill="#E7B980"/>
<path d="M196.66 37.8H198.747V39.9H196.66V37.8Z" fill="#E7B980"/>
<path d="M196.66 39.9H198.747V42H196.66V39.9Z" fill="#E7B980"/>
<path d="M196.66 42H198.747V44.1H196.66V42Z" fill="#E7B980"/>
<path d="M196.66 44.1H198.747V46.2H196.66V44.1Z" fill="#E7B980"/>
<path d="M196.66 46.2H198.747V48.3H196.66V46.2Z" fill="#E7B980"/>
<path d="M196.66 48.3H198.747V50.4H196.66V48.3Z" fill="#E7B980"/>
<path d="M196.66 50.4H198.747V52.5H196.66V50.4Z" fill="#E7B980"/>
<path d="M196.66 52.5H198.747V54.6H196.66V52.5Z" fill="#E7B980"/>
<path d="M196.66 54.6H198.747V56.7H196.66V54.6Z" fill="#E7B980"/>
<path d="M196.66 56.7H198.747V58.8H196.66V56.7Z" fill="#E7B980"/>
<path d="M196.66 58.8H198.747V60.9H196.66V58.8Z" fill="#E7B980"/>
<path d="M196.66 18.9H198.747V21H196.66V18.9Z" fill="#E7B980"/>
<path d="M196.66 60.9H198.747V63H196.66V60.9Z" fill="#E7B980"/>
<path d="M21.2944 81.9H23.382V84H21.2944V81.9Z" fill="#E7B980"/>
<path d="M23.382 81.9H25.4697V84H23.382V81.9Z" fill="#E7B980"/>
<path d="M25.4697 81.9H27.5574V84H25.4697V81.9Z" fill="#E7B980"/>
<path d="M27.5574 81.9H29.6451V84H27.5574V81.9Z" fill="#E7B980"/>
<path d="M29.6451 81.9H31.7328V84H29.6451V81.9Z" fill="#E7B980"/>
<path d="M31.7328 81.9H33.8205V84H31.7328V81.9Z" fill="#E7B980"/>
<path d="M33.8205 81.9H35.9081V84H33.8205V81.9Z" fill="#E7B980"/>
<path d="M35.9081 81.9H37.9958V84H35.9081V81.9Z" fill="#E7B980"/>
<path d="M37.9958 81.9H40.0835V84H37.9958V81.9Z" fill="#E7B980"/>
<path d="M40.0835 81.9H42.1712V84H40.0835V81.9Z" fill="#E7B980"/>
<path d="M42.1712 81.9H44.2589V84H42.1712V81.9Z" fill="#E7B980"/>
<path d="M44.2589 79.8H46.3466V81.9H44.2589V79.8Z" fill="#E7B980"/>
<path d="M46.3466 81.9H48.4342V84H46.3466V81.9Z" fill="#E7B980"/>
<path d="M48.4342 79.8H50.5219V81.9H48.4342V79.8Z" fill="#E7B980"/>
<path d="M50.5219 81.9H52.6096V84H50.5219V81.9Z" fill="#E7B980"/>
<path d="M52.6096 81.9H54.6973V84H52.6096V81.9Z" fill="#E7B980"/>
<path d="M54.6973 79.8H56.785V81.9H54.6973V79.8Z" fill="#E7B980"/>
<path d="M56.785 81.9H58.8727V84H56.785V81.9Z" fill="#E7B980"/>
<path d="M58.8727 81.9H60.9603V84H58.8727V81.9Z" fill="#E7B980"/>
<path d="M60.9603 81.9H63.048V84H60.9603V81.9Z" fill="#E7B980"/>
<path d="M63.048 81.9H65.1357V84H63.048V81.9Z" fill="#E7B980"/>
<path d="M65.1357 81.9H67.2234V84H65.1357V81.9Z" fill="#E7B980"/>
<path d="M67.2234 81.9H69.3111V84H67.2234V81.9Z" fill="#E7B980"/>
<path d="M69.3111 81.9H71.3987V84H69.3111V81.9Z" fill="#E7B980"/>
<path d="M71.3987 79.8H73.4864V81.9H71.3987V79.8Z" fill="#E7B980"/>
<path d="M73.4864 81.9H75.5741V84H73.4864V81.9Z" fill="#E7B980"/>
<path d="M75.5741 81.9H77.6618V84H75.5741V81.9Z" fill="#E7B980"/>
<path d="M77.6618 81.9H79.7495V84H77.6618V81.9Z" fill="#E7B980"/>
<path d="M79.7495 81.9H81.8372V84H79.7495V81.9Z" fill="#E7B980"/>
<path d="M81.8372 79.8H83.9248V81.9H81.8372V79.8Z" fill="#E7B980"/>
<path d="M83.9248 81.9H86.0125V84H83.9248V81.9Z" fill="#E7B980"/>
<path d="M86.0125 81.9H88.1002V84H86.0125V81.9Z" fill="#E7B980"/>
<path d="M88.1002 81.9H90.1879V84H88.1002V81.9Z" fill="#E7B980"/>
<path d="M90.1879 81.9H92.2756V84H90.1879V81.9Z" fill="#E7B980"/>
<path d="M92.2756 81.9H94.3633V84H92.2756V81.9Z" fill="#E7B980"/>
<path d="M94.3633 79.8H96.4509V81.9H94.3633V79.8Z" fill="#E7B980"/>
<path d="M96.4509 81.9H98.5386V84H96.4509V81.9Z" fill="#E7B980"/>
<path d="M98.5386 81.9H100.626V84H98.5386V81.9Z" fill="#E7B980"/>
<path d="M100.626 79.8H102.714V81.9H100.626V79.8Z" fill="#E7B980"/>
<path d="M102.714 81.9H104.802V84H102.714V81.9Z" fill="#E7B980"/>
<path d="M104.802 81.9H106.889V84H104.802V81.9Z" fill="#E7B980"/>
<path d="M106.889 81.9H108.977V84H106.889V81.9Z" fill="#E7B980"/>
<path d="M108.977 81.9H111.065V84H108.977V81.9Z" fill="#E7B980"/>
<path d="M111.065 79.8H113.152V81.9H111.065V79.8Z" fill="#E7B980"/>
<path d="M113.152 81.9H115.24V84H113.152V81.9Z" fill="#E7B980"/>
<path d="M115.24 81.9H117.328V84H115.24V81.9Z" fill="#E7B980"/>
<path d="M117.328 81.9H119.415V84H117.328V81.9Z" fill="#E7B980"/>
<path d="M119.415 81.9H121.503V84H119.415V81.9Z" fill="#E7B980"/>
<path d="M121.503 81.9H123.591V84H121.503V81.9Z" fill="#E7B980"/>
<path d="M123.591 81.9H125.678V84H123.591V81.9Z" fill="#E7B980"/>
<path d="M125.678 79.8H127.766V81.9H125.678V79.8Z" fill="#E7B980"/>
<path d="M127.766 81.9H129.854V84H127.766V81.9Z" fill="#E7B980"/>
<path d="M129.854 81.9H131.942V84H129.854V81.9Z" fill="#E7B980"/>
<path d="M131.942 81.9H134.029V84H131.942V81.9Z" fill="#E7B980"/>
<path d="M134.029 79.8H136.117V81.9H134.029V79.8Z" fill="#E7B980"/>
<path d="M136.117 81.9H138.205V84H136.117V81.9Z" fill="#E7B980"/>
<path d="M138.205 81.9H140.292V84H138.205V81.9Z" fill="#E7B980"/>
<path d="M140.292 79.8H142.38V81.9H140.292V79.8Z" fill="#E7B980"/>
<path d="M142.38 81.9H144.468V84H142.38V81.9Z" fill="#E7B980"/>
<path d="M144.468 79.8H146.555V81.9H144.468V79.8Z" fill="#E7B980"/>
<path d="M146.555 81.9H148.643V84H146.555V81.9Z" fill="#E7B980"/>
<path d="M148.643 81.9H150.731V84H148.643V81.9Z" fill="#E7B980"/>
<path d="M150.731 81.9H152.818V84H150.731V81.9Z" fill="#E7B980"/>
<path d="M152.818 81.9H154.906V84H152.818V81.9Z" fill="#E7B980"/>
<path d="M154.906 81.9H156.994V84H154.906V81.9Z" fill="#E7B980"/>
<path d="M156.994 81.9H159.081V84H156.994V81.9Z" fill="#E7B980"/>
<path d="M159.081 81.9H161.169V84H159.081V81.9Z" fill="#E7B980"/>
<path d="M161.169 79.8H163.257V81.9H161.169V79.8Z" fill="#E7B980"/>
<path d="M163.257 79.8H165.344V81.9H163.257V79.8Z" fill="#E7B980"/>
<path d="M165.344 81.9H167.432V84H165.344V81.9Z" fill="#E7B980"/>
<path d="M167.432 81.9H169.52V84H167.432V81.9Z" fill="#E7B980"/>
<path d="M169.52 81.9H171.608V84H169.52V81.9Z" fill="#E7B980"/>
<path d="M171.608 79.8H173.695V81.9H171.608V79.8Z" fill="#E7B980"/>
<path d="M173.695 79.8H175.783V81.9H173.695V79.8Z" fill="#E7B980"/>
<path d="M175.783 79.8H177.871V81.9H175.783V79.8Z" fill="#E7B980"/>
<path d="M177.871 81.9H179.958V84H177.871V81.9Z" fill="#E7B980"/>
<path d="M0.417537 21H2.50522V23.1H0.417537V21Z" fill="#E7B980"/>
<path d="M0.417537 23.1H2.50522V25.2H0.417537V23.1Z" fill="#E7B980"/>
<path d="M0.417537 25.2H2.50522V27.3H0.417537V25.2Z" fill="#E7B980"/>
<path d="M0.417537 27.3H2.50522V29.4H0.417537V27.3Z" fill="#E7B980"/>
<path d="M0.417537 29.4H2.50522V31.5H0.417537V29.4Z" fill="#E7B980"/>
<path d="M0.417537 31.5H2.50522V33.6H0.417537V31.5Z" fill="#E7B980"/>
<path d="M0.417537 33.6H2.50522V35.7H0.417537V33.6Z" fill="#E7B980"/>
<path d="M0.417537 35.7H2.50522V37.8H0.417537V35.7Z" fill="#E7B980"/>
<path d="M0.417537 37.8H2.50522V39.9H0.417537V37.8Z" fill="#E7B980"/>
<path d="M0.417537 39.9H2.50522V42H0.417537V39.9Z" fill="#E7B980"/>
<path d="M0.417537 42H2.50522V44.1H0.417537V42Z" fill="#E7B980"/>
<path d="M0.417537 44.1H2.50522V46.2H0.417537V44.1Z" fill="#E7B980"/>
<path d="M0.417537 46.2H2.50522V48.3H0.417537V46.2Z" fill="#E7B980"/>
<path d="M0.417537 48.3H2.50522V50.4H0.417537V48.3Z" fill="#E7B980"/>
<path d="M0.417537 50.4H2.50522V52.5H0.417537V50.4Z" fill="#E7B980"/>
<path d="M0.417537 52.5H2.50522V54.6H0.417537V52.5Z" fill="#E7B980"/>
<path d="M0.417537 54.6H2.50522V56.7H0.417537V54.6Z" fill="#E7B980"/>
<path d="M0.417537 56.7H2.50522V58.8H0.417537V56.7Z" fill="#E7B980"/>
<path d="M0.417537 58.8H2.50522V60.9H0.417537V58.8Z" fill="#E7B980"/>
<path d="M0.417537 60.9H2.50522V63H0.417537V60.9Z" fill="#E7B980"/>
<path d="M0.417537 18.9H2.50522V21H0.417537V18.9Z" fill="#E7B980"/>
<path d="M0.417537 63H2.50522V65.1H0.417537V63Z" fill="#E7B980"/>
<path d="M0.417537 65.1H2.50522V67.2H0.417537V65.1Z" fill="#E7B980"/>
<path d="M2.50522 67.2H4.5929V69.3H2.50522V67.2Z" fill="#E7B980"/>
<path d="M2.50522 69.3H4.5929V71.4H2.50522V69.3Z" fill="#E7B980"/>
<path d="M4.5929 71.4H6.68058V73.5H4.5929V71.4Z" fill="#E7B980"/>
<path d="M4.5929 73.5H6.68058V75.6H4.5929V73.5Z" fill="#E7B980"/>
<path d="M6.68058 75.6H8.76827V77.7H6.68058V75.6Z" fill="#E7B980"/>
<path d="M10.8559 77.7H12.9436V79.8H10.8559V77.7Z" fill="#E7B980"/>
<path d="M15.0313 79.8H17.119V81.9H15.0313V79.8Z" fill="#E7B980"/>
<path d="M8.76827 77.7H10.8559V79.8H8.76827V77.7Z" fill="#E7B980"/>
<path d="M12.9436 79.8H15.0313V81.9H12.9436V79.8Z" fill="#E7B980"/>
<path d="M17.119 79.8H19.2067V81.9H17.119V79.8Z" fill="#E7B980"/>
<path d="M19.2067 79.8H21.2944V81.9H19.2067V79.8Z" fill="#E7B980"/>
<path d="M196.66 63H198.747V65.1H196.66V63Z" fill="#E7B980"/>
<path d="M196.66 65.1H198.747V67.2H196.66V65.1Z" fill="#E7B980"/>
<path d="M196.66 67.2H198.747V69.3H196.66V67.2Z" fill="#E7B980"/>
<path d="M194.572 69.3H196.66V71.4H194.572V69.3Z" fill="#E7B980"/>
<path d="M194.572 71.4H196.66V73.5H194.572V71.4Z" fill="#E7B980"/>
<path d="M192.484 73.5H194.572V75.6H192.484V73.5Z" fill="#E7B980"/>
<path d="M190.397 75.6H192.484V77.7H190.397V75.6Z" fill="#E7B980"/>
<path d="M188.309 77.7H190.397V79.8H188.309V77.7Z" fill="#E7B980"/>
<path d="M184.134 79.8H186.221V81.9H184.134V79.8Z" fill="#E7B980"/>
<path d="M177.871 79.8H179.958V81.9H177.871V79.8Z" fill="#E7B980"/>
<path d="M179.958 79.8H182.046V81.9H179.958V79.8Z" fill="#E7B980"/>
<path d="M182.046 79.8H184.134V81.9H182.046V79.8Z" fill="#E7B980"/>
<path d="M186.221 77.7H188.309V79.8H186.221V77.7Z" fill="#E7B980"/>
<path d="M182.046 0H184.134V2.1H182.046V0Z" fill="#E7B980"/>
<path d="M188.309 2.1H190.397V4.2H188.309V2.1Z" fill="#E7B980"/>
<path d="M190.397 4.2H192.484V6.3H190.397V4.2Z" fill="#E7B980"/>
<path d="M192.484 6.3H194.572V8.4H192.484V6.3Z" fill="#E7B980"/>
<path d="M194.572 8.4H196.66V10.5H194.572V8.4Z" fill="#E7B980"/>
<path d="M194.572 10.5H196.66V12.6H194.572V10.5Z" fill="#E7B980"/>
<path d="M196.66 12.6H198.747V14.7H196.66V12.6Z" fill="#E7B980"/>
<path d="M196.66 14.7H198.747V16.8H196.66V14.7Z" fill="#E7B980"/>
<path d="M196.66 16.8H198.747V18.9H196.66V16.8Z" fill="#E7B980"/>
<path d="M179.958 0H182.046V2.1H179.958V0Z" fill="#E7B980"/>
<path d="M184.134 0H186.221V2.1H184.134V0Z" fill="#E7B980"/>
<path d="M186.221 2.1H188.309V4.2H186.221V2.1Z" fill="#E7B980"/>
<path d="M15.0313 0H17.119V2.1H15.0313V0Z" fill="#E7B980"/>
<path d="M10.8559 2.1H12.9436V4.2H10.8559V2.1Z" fill="#E7B980"/>
<path d="M6.68058 4.2H8.76827V6.3H6.68058V4.2Z" fill="#E7B980"/>
<path d="M4.5929 6.3H6.68058V8.4H4.5929V6.3Z" fill="#E7B980"/>
<path d="M4.5929 8.4H6.68058V10.5H4.5929V8.4Z" fill="#E7B980"/>
<path d="M2.50522 10.5H4.5929V12.6H2.50522V10.5Z" fill="#E7B980"/>
<path d="M2.50522 12.6H4.5929V14.7H2.50522V12.6Z" fill="#E7B980"/>
<path d="M0.417537 14.7H2.50522V16.8H0.417537V14.7Z" fill="#E7B980"/>
<path d="M0.417537 16.8H2.50522V18.9H0.417537V16.8Z" fill="#E7B980"/>
<path d="M8.76827 4.2H10.8559V6.3H8.76827V4.2Z" fill="#E7B980"/>
<path d="M12.9436 0H15.0313V2.1H12.9436V0Z" fill="#E7B980"/>
<path d="M17.119 0H19.2067V2.1H17.119V0Z" fill="#E7B980"/>
<path d="M19.2067 0H21.2944V2.1H19.2067V0Z" fill="#E7B980"/>
<path d="M9.1858 28.56H113.57V36.12H9.1858V28.56Z" fill="#DBA25B" fill-opacity="0.42"/>
<path d="M67.2234 36.12H129.854V43.26H67.2234V36.12Z" fill="#DBA25B" fill-opacity="0.42"/>
<path d="M129.854 25.2H149.896V33.18H129.854V25.2Z" fill="#DBA25B" fill-opacity="0.42"/>
<path d="M69.3111 6.3H89.3528V14.28H69.3111V6.3Z" fill="#DBA25B" fill-opacity="0.42"/>
<path d="M129.019 69.3H190.397V75.18H129.019V69.3Z" fill="#DBA25B" fill-opacity="0.42"/>
<path d="M103.132 63H129.019V69.3H103.132V63Z" fill="#DBA25B" fill-opacity="0.42"/>
<path d="M167.015 41.16H192.902V46.2H167.015V41.16Z" fill="#DBA25B" fill-opacity="0.42"/>
<path d="M25.4697 69.3H66.8058V74.76H25.4697V69.3Z" fill="#DBA25B" fill-opacity="0.42"/>
<path d="M6.68058 55.44H8.76827V57.54H6.68058V55.44Z" fill="#E0AD6D"/>
<path d="M8.76827 55.44H10.8559V57.54H8.76827V55.44Z" fill="#E0AD6D"/>
<path d="M10.8559 55.44H12.9436V57.54H10.8559V55.44Z" fill="#E0AD6D"/>
<path d="M12.9436 55.44H15.0313V57.54H12.9436V55.44Z" fill="#E0AD6D"/>
<path d="M15.0313 55.44H17.119V57.54H15.0313V55.44Z" fill="#E0AD6D"/>
<path d="M17.119 55.44H19.2067V57.54H17.119V55.44Z" fill="#E0AD6D"/>
<path d="M19.2067 55.44H21.2944V57.54H19.2067V55.44Z" fill="#E0AD6D"/>
<path d="M21.2944 55.44H23.382V57.54H21.2944V55.44Z" fill="#E0AD6D"/>
<path d="M23.382 55.44H25.4697V57.54H23.382V55.44Z" fill="#E0AD6D"/>
<path d="M25.4697 55.44H27.5574V57.54H25.4697V55.44Z" fill="#E0AD6D"/>
<path d="M27.5574 55.44H29.6451V57.54H27.5574V55.44Z" fill="#E0AD6D"/>
<path d="M29.6451 55.44H31.7328V57.54H29.6451V55.44Z" fill="#E0AD6D"/>
<path d="M31.7328 55.44H33.8205V57.54H31.7328V55.44Z" fill="#E0AD6D"/>
<path d="M33.8205 55.44H35.9081V57.54H33.8205V55.44Z" fill="#E0AD6D"/>
<path d="M35.9081 55.44H37.9958V57.54H35.9081V55.44Z" fill="#E0AD6D"/>
<path d="M37.9958 55.44H40.0835V57.54H37.9958V55.44Z" fill="#E0AD6D"/>
<path d="M50.5219 53.34H52.6096V55.44H50.5219V53.34Z" fill="#E0AD6D"/>
<path d="M40.0835 55.44H42.1712V57.54H40.0835V55.44Z" fill="#E0AD6D"/>
<path d="M42.1712 55.44H44.2589V57.54H42.1712V55.44Z" fill="#E0AD6D"/>
<path d="M44.2589 55.44H46.7641V57.54H44.2589V55.44Z" fill="#E0AD6D"/>
<path d="M44.6764 53.34H48.4342V55.44H44.6764V53.34Z" fill="#E0AD6D"/>
<path d="M48.4342 53.34H50.5219V55.44H48.4342V53.34Z" fill="#E0AD6D"/>
<path d="M52.6096 53.34H54.6973V55.44H52.6096V53.34Z" fill="#E0AD6D"/>
<path d="M52.6096 55.44H54.6973V57.54H52.6096V55.44Z" fill="#E0AD6D"/>
<path d="M52.6096 57.54H54.6973V59.64H52.6096V57.54Z" fill="#E0AD6D"/>
<path d="M54.6973 57.54H56.785V59.64H54.6973V57.54Z" fill="#E0AD6D"/>
<path d="M56.785 57.54H58.8727V59.64H56.785V57.54Z" fill="#E0AD6D"/>
<path d="M58.8727 57.54H60.9603V59.64H58.8727V57.54Z" fill="#E0AD6D"/>
<path d="M60.9603 57.54H63.048V59.64H60.9603V57.54Z" fill="#E0AD6D"/>
<path d="M63.048 57.54H65.1357V59.64H63.048V57.54Z" fill="#E0AD6D"/>
<path d="M77.6618 53.34H79.7495V55.44H77.6618V53.34Z" fill="#E0AD6D"/>
<path d="M71.3987 55.44H73.4864V57.54H71.3987V55.44Z" fill="#E0AD6D"/>
<path d="M65.1357 57.54H67.2234V59.64H65.1357V57.54Z" fill="#E0AD6D"/>
<path d="M67.2234 57.54H69.3111V59.64H67.2234V57.54Z" fill="#E0AD6D"/>
<path d="M68.0585 55.44H71.3987V57.54H68.0585V55.44Z" fill="#E0AD6D"/>
<path d="M73.4864 55.44H75.5741V57.54H73.4864V55.44Z" fill="#E0AD6D"/>
<path d="M74.3215 53.34H77.6618V55.44H74.3215V53.34Z" fill="#E0AD6D"/>
<path d="M79.7495 53.34H81.8372V55.44H79.7495V53.34Z" fill="#E0AD6D"/>
<path d="M79.7495 55.44H83.0898V57.54H79.7495V55.44Z" fill="#E0AD6D"/>
<path d="M81.8372 57.54H83.9248V59.64H81.8372V57.54Z" fill="#E0AD6D"/>
<path d="M83.9248 57.54H86.0125V59.64H83.9248V57.54Z" fill="#E0AD6D"/>
<path d="M86.0125 57.54H88.1002V59.64H86.0125V57.54Z" fill="#E0AD6D"/>
<path d="M88.1002 57.54H90.1879V59.64H88.1002V57.54Z" fill="#E0AD6D"/>
<path d="M90.1879 57.54H92.2756V59.64H90.1879V57.54Z" fill="#E0AD6D"/>
<path d="M92.2756 57.12H94.3633V59.64H92.2756V57.12Z" fill="#E0AD6D"/>
<path d="M94.3633 55.44H96.4509V57.96H94.3633V55.44Z" fill="#E0AD6D"/>
<path d="M96.4509 55.44H98.5386V57.96H96.4509V55.44Z" fill="#E0AD6D"/>
<path d="M98.5386 55.44H100.626V57.54H98.5386V55.44Z" fill="#E0AD6D"/>
<path d="M159.081 11.34H161.169V13.44H159.081V11.34Z" fill="#E0AD6D"/>
<path d="M152.818 11.34H154.906V13.44H152.818V11.34Z" fill="#E0AD6D"/>
<path d="M154.906 11.34H156.994V13.44H154.906V11.34Z" fill="#E0AD6D"/>
<path d="M156.994 11.34H159.081V13.44H156.994V11.34Z" fill="#E0AD6D"/>
<path d="M161.169 11.34H163.257V13.44H161.169V11.34Z" fill="#E0AD6D"/>
<path d="M163.257 11.34H165.344V13.44H163.257V11.34Z" fill="#E0AD6D"/>
<path d="M165.344 11.34H167.432V13.44H165.344V11.34Z" fill="#E0AD6D"/>
<path d="M167.432 11.34H169.52V13.44H167.432V11.34Z" fill="#E0AD6D"/>
<path d="M169.52 11.34H171.608V13.44H169.52V11.34Z" fill="#E0AD6D"/>
<path d="M171.608 11.34H173.695V13.44H171.608V11.34Z" fill="#E0AD6D"/>
<path d="M173.695 11.34H175.783V13.44H173.695V11.34Z" fill="#E0AD6D"/>
<path d="M175.783 11.34H177.871V13.44H175.783V11.34Z" fill="#E0AD6D"/>
<path d="M176.618 10.92H179.958V13.44H176.618V10.92Z" fill="#E0AD6D"/>
<path d="M179.958 9.24H184.551V11.76H179.958V9.24Z" fill="#E0AD6D"/>
<path d="M182.046 9.24H184.134V11.34H182.046V9.24Z" fill="#E0AD6D"/>
<path d="M184.134 9.24H186.221V11.34H184.134V9.24Z" fill="#E0AD6D"/>
<path d="M186.221 9.24H188.309V11.34H186.221V9.24Z" fill="#E0AD6D"/>
<path d="M188.309 9.24H190.397V11.34H188.309V9.24Z" fill="#E0AD6D"/>
<path d="M190.397 9.24H192.484V11.34H190.397V9.24Z" fill="#E0AD6D"/>
<path d="M192.484 9.24H194.572V11.34H192.484V9.24Z" fill="#E0AD6D"/>
<path d="M194.572 9.24H196.66V11.34H194.572V9.24Z" fill="#E0AD6D"/>
<path d="M196.66 9.24H198.747V11.34H196.66V9.24Z" fill="#E0AD6D"/>
<path d="M150.731 11.34H152.818V13.44H150.731V11.34Z" fill="#E0AD6D"/>
<path d="M144.468 9.24H147.39V11.34H144.468V9.24Z" fill="#E0AD6D"/>
<path d="M146.555 11.34H148.643V13.44H146.555V11.34Z" fill="#E0AD6D"/>
<path d="M148.643 11.34H150.731V13.44H148.643V11.34Z" fill="#E0AD6D"/>
<path d="M142.38 9.24H144.468V11.34H142.38V9.24Z" fill="#E0AD6D"/>
<path d="M136.117 11.34H138.205V13.44H136.117V11.34Z" fill="#E0AD6D"/>
<path d="M138.205 11.34H140.292V13.44H138.205V11.34Z" fill="#E0AD6D"/>
<path d="M140.292 9.24H142.38V11.76H140.292V9.24Z" fill="#E0AD6D"/>
<path d="M134.029 11.34H136.117V13.44H134.029V11.34Z" fill="#E0AD6D"/>
<path d="M125.678 9.24H127.766V11.34H125.678V9.24Z" fill="#E0AD6D"/>
<path d="M127.766 9.24H131.106V12.18H127.766V9.24Z" fill="#E0AD6D"/>
<path d="M129.854 11.34H131.942V13.44H129.854V11.34Z" fill="#E0AD6D"/>
<path d="M131.942 11.34H134.029V13.44H131.942V11.34Z" fill="#E0AD6D"/>
<path d="M83.9248 9.24H86.0125V11.34H83.9248V9.24Z" fill="#E0AD6D"/>
<path d="M86.0125 9.24H88.1002V11.34H86.0125V9.24Z" fill="#E0AD6D"/>
<path d="M88.1002 9.24H90.1879V11.34H88.1002V9.24Z" fill="#E0AD6D"/>
<path d="M90.1879 9.24H92.2756V11.34H90.1879V9.24Z" fill="#E0AD6D"/>
<path d="M92.2756 9.24H94.3633V11.34H92.2756V9.24Z" fill="#E0AD6D"/>
<path d="M94.3633 9.24H96.4509V11.34H94.3633V9.24Z" fill="#E0AD6D"/>
<path d="M96.4509 9.24H98.5386V11.34H96.4509V9.24Z" fill="#E0AD6D"/>
<path d="M98.5386 9.24H100.626V11.34H98.5386V9.24Z" fill="#E0AD6D"/>
<path d="M100.626 9.24H102.714V11.34H100.626V9.24Z" fill="#E0AD6D"/>
<path d="M102.714 9.24H104.802V11.34H102.714V9.24Z" fill="#E0AD6D"/>
<path d="M104.802 9.24H106.889V11.34H104.802V9.24Z" fill="#E0AD6D"/>
<path d="M106.889 9.24H108.977V11.34H106.889V9.24Z" fill="#E0AD6D"/>
<path d="M108.977 9.24H111.065V11.34H108.977V9.24Z" fill="#E0AD6D"/>
<path d="M111.065 9.24H113.152V11.34H111.065V9.24Z" fill="#E0AD6D"/>
<path d="M113.152 9.24H115.24V11.34H113.152V9.24Z" fill="#E0AD6D"/>
<path d="M115.24 9.24H117.328V11.34H115.24V9.24Z" fill="#E0AD6D"/>
<path d="M117.328 9.24H119.415V11.34H117.328V9.24Z" fill="#E0AD6D"/>
<path d="M119.415 9.24H121.503V11.34H119.415V9.24Z" fill="#E0AD6D"/>
<path d="M121.503 9.24H123.591V11.34H121.503V9.24Z" fill="#E0AD6D"/>
<path d="M123.591 9.24H125.678V11.34H123.591V9.24Z" fill="#E0AD6D"/>
<path d="M81.8372 9.24H83.9248V11.34H81.8372V9.24Z" fill="#E0AD6D"/>
<path d="M80.0328 74.34H80.853V76.44H80.0328V74.34Z" fill="#E0AD6D"/>
<path d="M77.5723 74.34H78.3925V76.44H77.5723V74.34Z" fill="#E0AD6D"/>
<path d="M78.3925 74.34H79.2126V76.44H78.3925V74.34Z" fill="#E0AD6D"/>
<path d="M79.2126 74.34H80.0328V76.44H79.2126V74.34Z" fill="#E0AD6D"/>
<path d="M80.853 74.34H81.6731V76.44H80.853V74.34Z" fill="#E0AD6D"/>
<path d="M81.6731 74.34H82.4933V76.44H81.6731V74.34Z" fill="#E0AD6D"/>
<path d="M82.4933 74.34H83.3135V76.44H82.4933V74.34Z" fill="#E0AD6D"/>
<path d="M83.3135 74.34H84.1336V76.44H83.3135V74.34Z" fill="#E0AD6D"/>
<path d="M84.1336 74.34H84.9538V76.44H84.1336V74.34Z" fill="#E0AD6D"/>
<path d="M84.9538 74.34H85.7739V76.44H84.9538V74.34Z" fill="#E0AD6D"/>
<path d="M85.7739 74.34H86.5941V76.44H85.7739V74.34Z" fill="#E0AD6D"/>
<path d="M86.5941 74.34H87.4143V76.44H86.5941V74.34Z" fill="#E0AD6D"/>
<path d="M86.9222 73.92H88.2344V76.44H86.9222V73.92Z" fill="#E0AD6D"/>
<path d="M88.2344 72.24H90.0388V74.76H88.2344V72.24Z" fill="#E0AD6D"/>
<path d="M89.0546 72.24H89.8747V74.34H89.0546V72.24Z" fill="#E0AD6D"/>
<path d="M89.8747 72.24H90.6949V74.34H89.8747V72.24Z" fill="#E0AD6D"/>
<path d="M90.6949 72.24H91.5151V74.34H90.6949V72.24Z" fill="#E0AD6D"/>
<path d="M91.5151 72.24H92.3352V74.34H91.5151V72.24Z" fill="#E0AD6D"/>
<path d="M92.3352 72.24H93.1554V74.34H92.3352V72.24Z" fill="#E0AD6D"/>
<path d="M93.1554 72.24H93.9755V74.34H93.1554V72.24Z" fill="#E0AD6D"/>
<path d="M93.9755 72.24H94.7957V74.34H93.9755V72.24Z" fill="#E0AD6D"/>
<path d="M94.7957 72.24H95.6159V74.34H94.7957V72.24Z" fill="#E0AD6D"/>
<path d="M76.7522 74.34H77.5723V76.44H76.7522V74.34Z" fill="#E0AD6D"/>
<path d="M74.2917 72.24H75.4399V74.34H74.2917V72.24Z" fill="#E0AD6D"/>
<path d="M75.1118 74.34H75.932V76.44H75.1118V74.34Z" fill="#E0AD6D"/>
<path d="M75.932 74.34H76.7522V76.44H75.932V74.34Z" fill="#E0AD6D"/>
<path d="M73.4715 72.24H74.2917V74.34H73.4715V72.24Z" fill="#E0AD6D"/>
<path d="M71.011 74.34H71.8312V76.44H71.011V74.34Z" fill="#E0AD6D"/>
<path d="M71.8312 74.34H72.6514V76.44H71.8312V74.34Z" fill="#E0AD6D"/>
<path d="M72.6514 72.24H73.4715V74.76H72.6514V72.24Z" fill="#E0AD6D"/>
<path d="M70.1909 74.34H71.011V76.44H70.1909V74.34Z" fill="#E0AD6D"/>
<path d="M66.9102 72.24H67.7304V74.34H66.9102V72.24Z" fill="#E0AD6D"/>
<path d="M67.7304 72.24H69.0426V75.18H67.7304V72.24Z" fill="#E0AD6D"/>
<path d="M68.5506 74.34H69.3707V76.44H68.5506V74.34Z" fill="#E0AD6D"/>
<path d="M69.3707 74.34H70.1909V76.44H69.3707V74.34Z" fill="#E0AD6D"/>
<path d="M50.507 72.24H51.3272V74.34H50.507V72.24Z" fill="#E0AD6D"/>
<path d="M51.3272 72.24H52.1473V74.34H51.3272V72.24Z" fill="#E0AD6D"/>
<path d="M52.1473 72.24H52.9675V74.34H52.1473V72.24Z" fill="#E0AD6D"/>
<path d="M52.9675 72.24H53.7877V74.34H52.9675V72.24Z" fill="#E0AD6D"/>
<path d="M53.7877 72.24H54.6078V74.34H53.7877V72.24Z" fill="#E0AD6D"/>
<path d="M54.6078 72.24H55.428V74.34H54.6078V72.24Z" fill="#E0AD6D"/>
<path d="M55.428 72.24H56.2481V74.34H55.428V72.24Z" fill="#E0AD6D"/>
<path d="M56.2481 72.24H57.0683V74.34H56.2481V72.24Z" fill="#E0AD6D"/>
<path d="M57.0683 72.24H57.8885V74.34H57.0683V72.24Z" fill="#E0AD6D"/>
<path d="M57.8885 72.24H58.7086V74.34H57.8885V72.24Z" fill="#E0AD6D"/>
<path d="M58.7086 72.24H59.5288V74.34H58.7086V72.24Z" fill="#E0AD6D"/>
<path d="M59.5288 72.24H60.3489V74.34H59.5288V72.24Z" fill="#E0AD6D"/>
<path d="M60.3489 72.24H61.1691V74.34H60.3489V72.24Z" fill="#E0AD6D"/>
<path d="M61.1691 72.24H61.9893V74.34H61.1691V72.24Z" fill="#E0AD6D"/>
<path d="M61.9893 72.24H62.8094V74.34H61.9893V72.24Z" fill="#E0AD6D"/>
<path d="M62.8094 72.24H63.6296V74.34H62.8094V72.24Z" fill="#E0AD6D"/>
<path d="M63.6296 72.24H64.4497V74.34H63.6296V72.24Z" fill="#E0AD6D"/>
<path d="M64.4497 72.24H65.2699V74.34H64.4497V72.24Z" fill="#E0AD6D"/>
<path d="M65.2699 72.24H66.0901V74.34H65.2699V72.24Z" fill="#E0AD6D"/>
<path d="M66.0901 72.24H66.9102V74.34H66.0901V72.24Z" fill="#E0AD6D"/>
<path d="M49.6868 72.24H50.507V74.34H49.6868V72.24Z" fill="#E0AD6D"/>
<path d="M75.5741 36.54H77.6618V38.64H75.5741V36.54Z" fill="#E0AD6D"/>
<path d="M77.6618 36.54H79.7495V38.64H77.6618V36.54Z" fill="#E0AD6D"/>
<path d="M79.7495 36.54H81.8372V38.64H79.7495V36.54Z" fill="#E0AD6D"/>
<path d="M81.8372 36.54H83.9248V38.64H81.8372V36.54Z" fill="#E0AD6D"/>
<path d="M83.9248 36.54H86.0125V38.64H83.9248V36.54Z" fill="#E0AD6D"/>
<path d="M86.0125 36.54H88.1002V38.64H86.0125V36.54Z" fill="#E0AD6D"/>
<path d="M88.1002 36.54H90.1879V38.64H88.1002V36.54Z" fill="#E0AD6D"/>
<path d="M90.1879 36.54H92.2756V38.64H90.1879V36.54Z" fill="#E0AD6D"/>
<path d="M92.2756 36.54H94.3633V38.64H92.2756V36.54Z" fill="#E0AD6D"/>
<path d="M94.3633 36.54H96.4509V38.64H94.3633V36.54Z" fill="#E0AD6D"/>
<path d="M96.4509 36.54H98.5386V38.64H96.4509V36.54Z" fill="#E0AD6D"/>
<path d="M98.5386 36.54H100.626V38.64H98.5386V36.54Z" fill="#E0AD6D"/>
<path d="M100.626 36.54H102.714V38.64H100.626V36.54Z" fill="#E0AD6D"/>
<path d="M102.714 36.54H104.802V38.64H102.714V36.54Z" fill="#E0AD6D"/>
<path d="M104.802 36.54H106.889V38.64H104.802V36.54Z" fill="#E0AD6D"/>
<path d="M106.889 36.54H108.977V38.64H106.889V36.54Z" fill="#E0AD6D"/>
<path d="M108.977 36.54H111.065V38.64H108.977V36.54Z" fill="#E0AD6D"/>
<path d="M111.065 36.54H113.152V38.64H111.065V36.54Z" fill="#E0AD6D"/>
<path d="M73.4864 36.54H75.5741V38.64H73.4864V36.54Z" fill="#E0AD6D"/>
<path d="M113.152 36.54H115.24V38.64H113.152V36.54Z" fill="#E0AD6D"/>
<path d="M115.24 36.54H117.328V38.64H115.24V36.54Z" fill="#E0AD6D"/>
<path d="M117.328 36.54H120.668V38.64H117.328V36.54Z" fill="#E0AD6D"/>
<path d="M121.503 38.64H123.591V40.74H121.503V38.64Z" fill="#E0AD6D"/>
<path d="M119.415 38.64H121.503V40.74H119.415V38.64Z" fill="#E0AD6D"/>
<path d="M123.591 38.64H125.678V40.74H123.591V38.64Z" fill="#E0AD6D"/>
<path d="M125.678 38.64H127.766V40.74H125.678V38.64Z" fill="#E0AD6D"/>
<path d="M127.766 38.64H129.854V40.74H127.766V38.64Z" fill="#E0AD6D"/>
<path d="M129.854 38.64H131.942V40.74H129.854V38.64Z" fill="#E0AD6D"/>
<path d="M138.205 36.54H140.292V38.64H138.205V36.54Z" fill="#E0AD6D"/>
<path d="M131.942 38.64H134.029V40.74H131.942V38.64Z" fill="#E0AD6D"/>
<path d="M134.029 38.64H136.117V40.74H134.029V38.64Z" fill="#E0AD6D"/>
<path d="M136.117 36.54H138.205V38.64H136.117V36.54Z" fill="#E0AD6D"/>
<path d="M140.292 36.54H142.38V38.64H140.292V36.54Z" fill="#E0AD6D"/>
<path d="M142.38 36.54H144.468V38.64H142.38V36.54Z" fill="#E0AD6D"/>
<path d="M144.468 36.54H146.555V38.64H144.468V36.54Z" fill="#E0AD6D"/>
<path d="M146.555 36.54H148.643V38.64H146.555V36.54Z" fill="#E0AD6D"/>
<path d="M148.643 36.54H150.731V38.64H148.643V36.54Z" fill="#E0AD6D"/>
<path d="M150.731 36.54H152.818V38.64H150.731V36.54Z" fill="#E0AD6D"/>
<path d="M152.818 36.54H154.906V38.64H152.818V36.54Z" fill="#E0AD6D"/>
<path d="M154.906 36.54H156.994V38.64H154.906V36.54Z" fill="#E0AD6D"/>
<path d="M154.906 42.84H156.994V44.94H154.906V42.84Z" fill="#E0AD6D"/>
<path d="M156.994 42.84H159.081V44.94H156.994V42.84Z" fill="#E0AD6D"/>
<path d="M159.081 42.84H161.169V44.94H159.081V42.84Z" fill="#E0AD6D"/>
<path d="M161.169 42.84H163.257V44.94H161.169V42.84Z" fill="#E0AD6D"/>
<path d="M163.257 42.84H165.344V44.94H163.257V42.84Z" fill="#E0AD6D"/>
<path d="M165.344 42.84H167.432V44.94H165.344V42.84Z" fill="#E0AD6D"/>
<path d="M167.432 42.84H169.52V44.94H167.432V42.84Z" fill="#E0AD6D"/>
<path d="M169.52 42.84H171.608V44.94H169.52V42.84Z" fill="#E0AD6D"/>
<path d="M171.608 42.84H173.695V44.94H171.608V42.84Z" fill="#E0AD6D"/>
<path d="M152.818 42.84H154.906V44.94H152.818V42.84Z" fill="#E0AD6D"/>
<path d="M2.50522 9.24H4.5929V11.34H2.50522V9.24Z" fill="#E0AD6D"/>
<path d="M10.8559 11.34H12.9436V13.44H10.8559V11.34Z" fill="#E0AD6D"/>
<path d="M4.5929 9.24H6.68058V11.34H4.5929V9.24Z" fill="#E0AD6D"/>
<path d="M6.68058 9.24H8.76827V11.34H6.68058V9.24Z" fill="#E0AD6D"/>
<path d="M8.76827 11.34H10.8559V13.44H8.76827V11.34Z" fill="#E0AD6D"/>
<path d="M19.2067 9.24H21.2944V11.34H19.2067V9.24Z" fill="#E0AD6D"/>
<path d="M12.9436 11.34H15.0313V13.44H12.9436V11.34Z" fill="#E0AD6D"/>
<path d="M15.0313 11.34H17.119V13.44H15.0313V11.34Z" fill="#E0AD6D"/>
<path d="M17.119 9.24H19.2067V11.34H17.119V9.24Z" fill="#E0AD6D"/>
<path d="M40.0835 11.34H42.1712V13.44H40.0835V11.34Z" fill="#E0AD6D"/>
<path d="M21.2944 9.24H23.382V11.34H21.2944V9.24Z" fill="#E0AD6D"/>
<path d="M23.382 9.24H25.4697V11.34H23.382V9.24Z" fill="#E0AD6D"/>
<path d="M25.4697 9.24H27.5574V11.34H25.4697V9.24Z" fill="#E0AD6D"/>
<path d="M27.5574 9.24H29.6451V11.34H27.5574V9.24Z" fill="#E0AD6D"/>
<path d="M29.6451 11.34H31.7328V13.44H29.6451V11.34Z" fill="#E0AD6D"/>
<path d="M31.7328 11.34H33.8205V13.44H31.7328V11.34Z" fill="#E0AD6D"/>
<path d="M33.8205 11.34H35.9081V13.44H33.8205V11.34Z" fill="#E0AD6D"/>
<path d="M35.9081 11.34H37.9958V13.44H35.9081V11.34Z" fill="#E0AD6D"/>
<path d="M37.9958 11.34H40.0835V13.44H37.9958V11.34Z" fill="#E0AD6D"/>
<path d="M42.1712 11.34H44.2589V13.44H42.1712V11.34Z" fill="#E0AD6D"/>
<path d="M44.2589 11.34H46.3466V13.44H44.2589V11.34Z" fill="#E0AD6D"/>
<path d="M46.3466 11.34H48.4342V13.44H46.3466V11.34Z" fill="#E0AD6D"/>
<path d="M48.4342 11.34H50.5219V13.44H48.4342V11.34Z" fill="#E0AD6D"/>
<path d="M50.5219 13.44H52.6096V15.54H50.5219V13.44Z" fill="#E0AD6D"/>
<path d="M157.133 70.14H159.36V72.24H157.133V70.14Z" fill="#E0AD6D"/>
<path d="M154.906 70.14H157.133V72.24H154.906V70.14Z" fill="#E0AD6D"/>
<path d="M159.36 70.14H161.587V72.24H159.36V70.14Z" fill="#E0AD6D"/>
<path d="M161.587 70.14H163.814V72.24H161.587V70.14Z" fill="#E0AD6D"/>
<path d="M163.814 70.14H166.04V72.24H163.814V70.14Z" fill="#E0AD6D"/>
<path d="M166.04 70.14H168.267V72.24H166.04V70.14Z" fill="#E0AD6D"/>
<path d="M168.267 70.14H170.494V72.24H168.267V70.14Z" fill="#E0AD6D"/>
<path d="M170.494 70.14H172.721V72.24H170.494V70.14Z" fill="#E0AD6D"/>
<path d="M172.721 70.14H174.948V72.24H172.721V70.14Z" fill="#E0AD6D"/>
<path d="M174.948 70.14H177.175V72.24H174.948V70.14Z" fill="#E0AD6D"/>
<path d="M177.175 70.14H179.402V72.24H177.175V70.14Z" fill="#E0AD6D"/>
<path d="M179.402 70.14H181.628V72.24H179.402V70.14Z" fill="#E0AD6D"/>
<path d="M181.628 72.24H183.855V74.34H181.628V72.24Z" fill="#E0AD6D"/>
<path d="M183.855 72.24H186.082V74.34H183.855V72.24Z" fill="#E0AD6D"/>
<path d="M186.082 72.24H188.309V74.34H186.082V72.24Z" fill="#E0AD6D"/>
<path d="M152.679 70.14H154.906V72.24H152.679V70.14Z" fill="#E0AD6D"/>
<path d="M145.999 70.14H148.225V72.24H145.999V70.14Z" fill="#E0AD6D"/>
<path d="M148.225 70.14H150.452V72.24H148.225V70.14Z" fill="#E0AD6D"/>
<path d="M150.452 70.14H152.679V72.24H150.452V70.14Z" fill="#E0AD6D"/>
<path d="M142.38 70.14H146.138V72.24H142.38V70.14Z" fill="#E0AD6D"/>
<path d="M141.545 72.24H143.772V74.34H141.545V72.24Z" fill="#E0AD6D"/>
<path d="M121.503 72.24H123.73V74.34H121.503V72.24Z" fill="#E0AD6D"/>
<path d="M123.73 72.24H125.957V74.34H123.73V72.24Z" fill="#E0AD6D"/>
<path d="M125.957 72.24H128.184V74.34H125.957V72.24Z" fill="#E0AD6D"/>
<path d="M128.184 72.24H130.411V74.34H128.184V72.24Z" fill="#E0AD6D"/>
<path d="M130.411 72.24H132.637V74.34H130.411V72.24Z" fill="#E0AD6D"/>
<path d="M132.637 72.24H134.864V74.34H132.637V72.24Z" fill="#E0AD6D"/>
<path d="M134.864 72.24H137.091V74.34H134.864V72.24Z" fill="#E0AD6D"/>
<path d="M137.091 72.24H139.318V74.34H137.091V72.24Z" fill="#E0AD6D"/>
<path d="M139.318 72.24H141.545V74.34H139.318V72.24Z" fill="#E0AD6D"/>
<path d="M48.4342 30.24H50.5219V32.34H48.4342V30.24Z" fill="#E0AD6D"/>
<path d="M50.5219 30.24H52.6096V32.34H50.5219V30.24Z" fill="#E0AD6D"/>
<path d="M52.6096 30.24H54.6973V32.34H52.6096V30.24Z" fill="#E0AD6D"/>
<path d="M54.6973 30.24H56.785V32.34H54.6973V30.24Z" fill="#E0AD6D"/>
<path d="M56.785 30.24H58.8727V32.34H56.785V30.24Z" fill="#E0AD6D"/>
<path d="M58.8727 30.24H60.9603V32.34H58.8727V30.24Z" fill="#E0AD6D"/>
<path d="M60.9603 30.24H63.048V32.34H60.9603V30.24Z" fill="#E0AD6D"/>
<path d="M63.048 30.24H65.1357V32.34H63.048V30.24Z" fill="#E0AD6D"/>
<path d="M65.1357 30.24H67.2234V32.34H65.1357V30.24Z" fill="#E0AD6D"/>
<path d="M67.2234 30.24H69.3111V32.34H67.2234V30.24Z" fill="#E0AD6D"/>
<path d="M69.3111 30.24H71.3987V32.34H69.3111V30.24Z" fill="#E0AD6D"/>
<path d="M71.3987 30.24H73.4864V32.34H71.3987V30.24Z" fill="#E0AD6D"/>
<path d="M46.3466 30.24H48.4342V32.34H46.3466V30.24Z" fill="#E0AD6D"/>
<path d="M73.4864 30.24H75.5741V32.34H73.4864V30.24Z" fill="#E0AD6D"/>
<path d="M94.3633 7.14H96.4509V9.24H94.3633V7.14Z" fill="#DDA361"/>
<path d="M96.4509 7.14H98.5386V9.24H96.4509V7.14Z" fill="#DDA361"/>
<path d="M98.5386 7.14H100.626V9.24H98.5386V7.14Z" fill="#DDA361"/>
<path d="M100.626 7.14H102.714V9.24H100.626V7.14Z" fill="#DDA361"/>
<path d="M102.714 7.14H104.802V9.24H102.714V7.14Z" fill="#DDA361"/>
<path d="M104.802 7.14H106.889V9.24H104.802V7.14Z" fill="#DDA361"/>
<path d="M106.889 7.14H108.977V9.24H106.889V7.14Z" fill="#DDA361"/>
<path d="M108.977 7.14H111.065V9.24H108.977V7.14Z" fill="#DDA361"/>
<path d="M111.065 7.14H113.152V9.24H111.065V7.14Z" fill="#DDA361"/>
<path d="M113.152 7.14H115.24V9.24H113.152V7.14Z" fill="#DDA361"/>
<path d="M115.24 7.14H117.328V9.24H115.24V7.14Z" fill="#DDA361"/>
<path d="M117.328 7.14H119.415V9.24H117.328V7.14Z" fill="#DDA361"/>
<path d="M119.415 7.14H121.503V9.24H119.415V7.14Z" fill="#DDA361"/>
<path d="M121.503 7.14H123.591V9.24H121.503V7.14Z" fill="#DDA361"/>
<path d="M123.591 7.14H125.678V9.24H123.591V7.14Z" fill="#DDA361"/>
<path d="M125.678 7.14H127.766V9.24H125.678V7.14Z" fill="#DDA361"/>
<path d="M92.2756 7.14H94.3633V9.24H92.2756V7.14Z" fill="#DDA361"/>
<path d="M127.766 7.14H129.854V9.24H127.766V7.14Z" fill="#DDA361"/>
<path d="M48.5975 28.14H48.7608V30.24H48.5975V28.14Z" fill="#DDA361"/>
<path d="M48.7608 28.14H48.9241V30.24H48.7608V28.14Z" fill="#DDA361"/>
<path d="M48.9241 28.14H49.0873V30.24H48.9241V28.14Z" fill="#DDA361"/>
<path d="M49.0873 28.14H49.2506V30.24H49.0873V28.14Z" fill="#DDA361"/>
<path d="M49.2506 28.14H49.4139V30.24H49.2506V28.14Z" fill="#DDA361"/>
<path d="M49.4139 28.14H49.5772V30.24H49.4139V28.14Z" fill="#DDA361"/>
<path d="M49.5772 28.14H49.7405V30.24H49.5772V28.14Z" fill="#DDA361"/>
<path d="M49.7405 28.14H49.9037V30.24H49.7405V28.14Z" fill="#DDA361"/>
<path d="M49.9037 28.14H50.067V30.24H49.9037V28.14Z" fill="#DDA361"/>
<path d="M50.067 28.14H50.2303V30.24H50.067V28.14Z" fill="#DDA361"/>
<path d="M50.2303 28.14H50.3936V30.24H50.2303V28.14Z" fill="#DDA361"/>
<path d="M50.3936 28.14H50.5568V30.24H50.3936V28.14Z" fill="#DDA361"/>
<path d="M50.5568 28.14H50.7201V30.24H50.5568V28.14Z" fill="#DDA361"/>
<path d="M50.7201 28.14H50.8834V30.24H50.7201V28.14Z" fill="#DDA361"/>
<path d="M50.8834 28.14H51.0467V30.24H50.8834V28.14Z" fill="#DDA361"/>
<path d="M51.0467 28.14H51.2099V30.24H51.0467V28.14Z" fill="#DDA361"/>
<path d="M48.4342 28.14H48.5975V30.24H48.4342V28.14Z" fill="#DDA361"/>
<path d="M51.2099 28.14H51.3732V30.24H51.2099V28.14Z" fill="#DDA361"/>
<path d="M77.6618 36.54H79.7495V38.64H77.6618V36.54Z" fill="#DDA361"/>
<path d="M79.7495 36.54H81.8372V38.64H79.7495V36.54Z" fill="#DDA361"/>
<path d="M81.8372 36.54H83.9248V38.64H81.8372V36.54Z" fill="#DDA361"/>
<path d="M83.9248 36.54H86.0125V38.64H83.9248V36.54Z" fill="#DDA361"/>
<path d="M86.0125 36.54H88.1002V38.64H86.0125V36.54Z" fill="#DDA361"/>
<path d="M88.1002 36.54H90.1879V38.64H88.1002V36.54Z" fill="#DDA361"/>
<path d="M90.1879 36.54H92.2756V38.64H90.1879V36.54Z" fill="#DDA361"/>
<path d="M92.2756 36.54H94.3633V38.64H92.2756V36.54Z" fill="#DDA361"/>
<path d="M94.3633 36.54H96.4509V38.64H94.3633V36.54Z" fill="#DDA361"/>
<path d="M96.4509 36.54H98.5386V38.64H96.4509V36.54Z" fill="#DDA361"/>
<path d="M98.5386 36.54H100.626V38.64H98.5386V36.54Z" fill="#DDA361"/>
<path d="M23.382 53.34H25.4697V55.44H23.382V53.34Z" fill="#DDA361"/>
<path d="M25.4697 53.34H27.5574V55.44H25.4697V53.34Z" fill="#DDA361"/>
<path d="M27.5574 53.34H29.6451V55.44H27.5574V53.34Z" fill="#DDA361"/>
<path d="M29.6451 53.34H31.7328V55.44H29.6451V53.34Z" fill="#DDA361"/>
<path d="M31.7328 53.34H33.8205V55.44H31.7328V53.34Z" fill="#DDA361"/>
<path d="M33.8205 53.34H35.9081V55.44H33.8205V53.34Z" fill="#DDA361"/>
<path d="M35.9081 53.34H37.9958V55.44H35.9081V53.34Z" fill="#DDA361"/>
<path d="M37.9958 53.34H40.0835V55.44H37.9958V53.34Z" fill="#DDA361"/>
<path d="M40.0835 53.34H42.1712V55.44H40.0835V53.34Z" fill="#DDA361"/>
<path d="M42.1712 53.34H44.2589V55.44H42.1712V53.34Z" fill="#DDA361"/>
<path d="M21.2944 53.34H23.382V55.44H21.2944V53.34Z" fill="#DDA361"/>
<path d="M77.6618 36.54H79.7495V38.64H77.6618V36.54Z" fill="#DDA361"/>
<path d="M79.7495 36.54H81.8372V38.64H79.7495V36.54Z" fill="#DDA361"/>
<path d="M81.8372 36.54H83.9248V38.64H81.8372V36.54Z" fill="#DDA361"/>
<path d="M83.9248 36.54H86.0125V38.64H83.9248V36.54Z" fill="#DDA361"/>
<path d="M86.0125 36.54H88.1002V38.64H86.0125V36.54Z" fill="#DDA361"/>
<path d="M88.1002 36.54H90.1879V38.64H88.1002V36.54Z" fill="#DDA361"/>
<path d="M90.1879 36.54H92.2756V38.64H90.1879V36.54Z" fill="#DDA361"/>
<path d="M92.2756 36.54H94.3633V38.64H92.2756V36.54Z" fill="#DDA361"/>
<path d="M94.3633 36.54H96.4509V38.64H94.3633V36.54Z" fill="#DDA361"/>
<path d="M96.4509 36.54H98.5386V38.64H96.4509V36.54Z" fill="#DDA361"/>
<path d="M98.5386 36.54H100.626V38.64H98.5386V36.54Z" fill="#DDA361"/>
<path d="M23.382 53.34H25.4697V55.44H23.382V53.34Z" fill="#DDA361"/>
<path d="M25.4697 53.34H27.5574V55.44H25.4697V53.34Z" fill="#DDA361"/>
<path d="M27.5574 53.34H29.6451V55.44H27.5574V53.34Z" fill="#DDA361"/>
<path d="M29.6451 53.34H31.7328V55.44H29.6451V53.34Z" fill="#DDA361"/>
<path d="M31.7328 53.34H33.8205V55.44H31.7328V53.34Z" fill="#DDA361"/>
<path d="M33.8205 53.34H35.9081V55.44H33.8205V53.34Z" fill="#DDA361"/>
<path d="M35.9081 53.34H37.9958V55.44H35.9081V53.34Z" fill="#DDA361"/>
<path d="M37.9958 53.34H40.0835V55.44H37.9958V53.34Z" fill="#DDA361"/>
<path d="M40.0835 53.34H42.1712V55.44H40.0835V53.34Z" fill="#DDA361"/>
<path d="M42.1712 53.34H44.2589V55.44H42.1712V53.34Z" fill="#DDA361"/>
<path d="M21.2944 53.34H23.382V55.44H21.2944V53.34Z" fill="#DDA361"/>
<path d="M159.081 40.74H161.169V42.84H159.081V40.74Z" fill="#DDA361"/>
<path d="M161.169 40.74H163.257V42.84H161.169V40.74Z" fill="#DDA361"/>
<path d="M163.257 40.74H165.344V42.84H163.257V40.74Z" fill="#DDA361"/>
<path d="M82.2547 72.24H84.3424V74.34H82.2547V72.24Z" fill="#DDA361"/>
<path d="M84.3424 72.24H86.4301V74.34H84.3424V72.24Z" fill="#DDA361"/>
<path d="M86.4301 72.24H88.5177V74.34H86.4301V72.24Z" fill="#DDA361"/>
<path d="M87.6827 70.14H89.7704V72.24H87.6827V70.14Z" fill="#DDA361"/>
<path d="M89.7704 70.14H91.858V72.24H89.7704V70.14Z" fill="#DDA361"/>
<path d="M91.858 70.14H93.9457V72.24H91.858V70.14Z" fill="#DDA361"/>
<path d="M146.138 68.04H149.061V70.14H146.138V68.04Z" fill="#DDA361"/>
<path d="M149.061 68.04H151.983V70.14H149.061V68.04Z" fill="#DDA361"/>
<path d="M151.983 68.04H154.906V70.14H151.983V68.04Z" fill="#DDA361"/>
<path d="M157.411 68.04H158.582V70.14H157.411V68.04Z" fill="#DDA361"/>
<path d="M158.582 68.04H159.752V70.14H158.582V68.04Z" fill="#DDA361"/>
<path d="M159.752 68.04H160.923V70.14H159.752V68.04Z" fill="#DDA361"/>
<path d="M163.674 13.44H165.762V15.54H163.674V13.44Z" fill="#DDA361"/>
<path d="M165.762 13.44H167.85V15.54H165.762V13.44Z" fill="#DDA361"/>
<path d="M167.85 13.44H169.937V15.54H167.85V13.44Z" fill="#DDA361"/>
<path d="M169.52 9.24H171.608V11.34H169.52V9.24Z" fill="#DDA361"/>
<path d="M171.608 9.24H173.695V11.34H171.608V9.24Z" fill="#DDA361"/>
<path d="M173.695 9.24H175.783V11.34H173.695V9.24Z" fill="#DDA361"/>
<path d="M147.39 9.24H152.122V11.34H147.39V9.24Z" fill="#DDA361"/>
<path d="M152.122 9.24H156.855V11.34H152.122V9.24Z" fill="#DDA361"/>
<path d="M156.855 9.24H161.587V11.34H156.855V9.24Z" fill="#DDA361"/>
<path d="M167.432 44.94H169.52V47.04H167.432V44.94Z" fill="#DDA361"/>
<path d="M169.52 44.94H171.608V47.04H169.52V44.94Z" fill="#DDA361"/>
<path d="M171.608 44.94H173.695V47.04H171.608V44.94Z" fill="#DDA361"/>
<path d="M173.695 44.94H175.783V47.04H173.695V44.94Z" fill="#DDA361"/>
<path d="M29.6451 13.44H33.4029V15.54H29.6451V13.44Z" fill="#DDA361"/>
<path d="M33.4029 13.44H37.1608V15.54H33.4029V13.44Z" fill="#DDA361"/>
<path d="M37.1608 13.44H40.9186V15.54H37.1608V13.44Z" fill="#DDA361"/>
<path d="M40.9186 13.44H44.6764V15.54H40.9186V13.44Z" fill="#DDA361"/>
<path d="M12.9436 7.14H16.7015V9.24H12.9436V7.14Z" fill="#DDA361"/>
<path d="M16.7015 7.14H20.4593V9.24H16.7015V7.14Z" fill="#DDA361"/>
<path d="M20.4593 7.14H24.2171V9.24H20.4593V7.14Z" fill="#DDA361"/>
<path d="M24.2171 7.14H27.9749V9.24H24.2171V7.14Z" fill="#DDA361"/>
<path d="M12.1086 0H16.7015V2.1H12.1086V0Z" fill="#504439"/>
<path d="M16.4948 0H18.5567V2.04878H16.4948V0Z" fill="#504439"/>
<path d="M18.5567 0H20.6186V2.04878H18.5567V0Z" fill="#504439"/>
<path d="M20.6186 0H22.6804V2.04878H20.6186V0Z" fill="#504439"/>
<path d="M22.6804 0H24.7423V2.04878H22.6804V0Z" fill="#504439"/>
<path d="M24.7423 0H26.8041V2.04878H24.7423V0Z" fill="#504439"/>
<path d="M26.8041 0H28.866V2.04878H26.8041V0Z" fill="#504439"/>
<path d="M28.866 0H30.9278V2.04878H28.866V0Z" fill="#504439"/>
<path d="M30.9278 0H32.9897V2.04878H30.9278V0Z" fill="#504439"/>
<path d="M32.9897 0H35.0515V2.04878H32.9897V0Z" fill="#504439"/>
<path d="M35.0515 0H37.1134V2.04878H35.0515V0Z" fill="#504439"/>
<path d="M37.1134 0H39.1753V2.04878H37.1134V0Z" fill="#504439"/>
<path d="M39.1753 0H41.2371V2.04878H39.1753V0Z" fill="#504439"/>
<path d="M41.2371 0H43.299V2.04878H41.2371V0Z" fill="#504439"/>
<path d="M43.299 0H45.3608V2.04878H43.299V0Z" fill="#504439"/>
<path d="M45.3608 0H47.4227V2.04878H45.3608V0Z" fill="#504439"/>
<path d="M47.4227 0H49.4845V2.04878H47.4227V0Z" fill="#504439"/>
<path d="M49.4845 0H51.5464V2.04878H49.4845V0Z" fill="#504439"/>
<path d="M51.5464 0H53.6082V2.04878H51.5464V0Z" fill="#504439"/>
<path d="M53.6082 0H55.6701V2.04878H53.6082V0Z" fill="#504439"/>
<path d="M55.6701 0H57.732V2.04878H55.6701V0Z" fill="#504439"/>
<path d="M57.732 0H59.7938V2.04878H57.732V0Z" fill="#504439"/>
<path d="M59.7938 0H61.8557V2.04878H59.7938V0Z" fill="#504439"/>
<path d="M61.8557 0H63.9175V2.04878H61.8557V0Z" fill="#504439"/>
<path d="M63.9175 0H65.9794V2.04878H63.9175V0Z" fill="#504439"/>
<path d="M65.9794 0H68.0412V2.04878H65.9794V0Z" fill="#504439"/>
<path d="M68.0412 0H70.1031V2.04878H68.0412V0Z" fill="#504439"/>
<path d="M70.1031 0H72.1649V2.04878H70.1031V0Z" fill="#504439"/>
<path d="M72.1649 0H74.2268V2.04878H72.1649V0Z" fill="#504439"/>
<path d="M74.2268 0H76.2887V2.04878H74.2268V0Z" fill="#504439"/>
<path d="M76.2887 0H78.3505V2.04878H76.2887V0Z" fill="#504439"/>
<path d="M78.3505 0H80.4124V2.04878H78.3505V0Z" fill="#504439"/>
<path d="M80.4124 0H82.4742V2.04878H80.4124V0Z" fill="#504439"/>
<path d="M82.4742 0H84.5361V2.04878H82.4742V0Z" fill="#504439"/>
<path d="M84.5361 0H86.5979V2.04878H84.5361V0Z" fill="#504439"/>
<path d="M86.5979 0H88.6598V2.04878H86.5979V0Z" fill="#504439"/>
<path d="M88.6598 0H90.7216V2.04878H88.6598V0Z" fill="#504439"/>
<path d="M90.7216 0H92.7835V2.04878H90.7216V0Z" fill="#504439"/>
<path d="M92.7835 0H94.8454V2.04878H92.7835V0Z" fill="#504439"/>
<path d="M94.8454 0H96.9072V2.04878H94.8454V0Z" fill="#504439"/>
<path d="M96.9072 0H98.9691V2.04878H96.9072V0Z" fill="#504439"/>
<path d="M98.9691 0H101.031V2.04878H98.9691V0Z" fill="#504439"/>
<path d="M101.031 0H103.093V2.04878H101.031V0Z" fill="#504439"/>
<path d="M103.093 0H105.155V2.04878H103.093V0Z" fill="#504439"/>
<path d="M105.155 0H107.216V2.04878H105.155V0Z" fill="#504439"/>
<path d="M107.216 0H109.278V2.04878H107.216V0Z" fill="#504439"/>
<path d="M109.278 0H111.34V2.04878H109.278V0Z" fill="#504439"/>
<path d="M111.34 0H113.402V2.04878H111.34V0Z" fill="#504439"/>
<path d="M113.402 0H115.464V2.04878H113.402V0Z" fill="#504439"/>
<path d="M115.464 0H117.526V2.04878H115.464V0Z" fill="#504439"/>
<path d="M117.526 0H119.588V2.04878H117.526V0Z" fill="#504439"/>
<path d="M119.588 0H121.649V2.04878H119.588V0Z" fill="#504439"/>
<path d="M121.649 0H123.711V2.04878H121.649V0Z" fill="#504439"/>
<path d="M123.711 0H125.773V2.04878H123.711V0Z" fill="#504439"/>
<path d="M125.773 0H127.835V2.04878H125.773V0Z" fill="#504439"/>
<path d="M127.835 0H129.897V2.04878H127.835V0Z" fill="#504439"/>
<path d="M129.897 0H131.959V2.04878H129.897V0Z" fill="#504439"/>
<path d="M131.959 0H134.021V2.04878H131.959V0Z" fill="#504439"/>
<path d="M134.021 0H136.082V2.04878H134.021V0Z" fill="#504439"/>
<path d="M136.082 0H138.144V2.04878H136.082V0Z" fill="#504439"/>
<path d="M138.144 0H140.206V2.04878H138.144V0Z" fill="#504439"/>
<path d="M140.206 0H142.268V2.04878H140.206V0Z" fill="#504439"/>
<path d="M142.268 0H144.33V2.04878H142.268V0Z" fill="#504439"/>
<path d="M144.33 0H146.392V2.04878H144.33V0Z" fill="#504439"/>
<path d="M146.392 0H148.454V2.04878H146.392V0Z" fill="#504439"/>
<path d="M148.454 0H150.515V2.04878H148.454V0Z" fill="#504439"/>
<path d="M150.515 0H152.577V2.04878H150.515V0Z" fill="#504439"/>
<path d="M152.577 0H154.639V2.04878H152.577V0Z" fill="#504439"/>
<path d="M154.639 0H156.701V2.04878H154.639V0Z" fill="#504439"/>
<path d="M156.701 0H158.763V2.04878H156.701V0Z" fill="#504439"/>
<path d="M158.763 0H160.825V2.04878H158.763V0Z" fill="#504439"/>
<path d="M160.825 0H162.887V2.04878H160.825V0Z" fill="#504439"/>
<path d="M162.887 0H164.948V2.04878H162.887V0Z" fill="#504439"/>
<path d="M164.948 0H167.01V2.04878H164.948V0Z" fill="#504439"/>
<path d="M167.01 0H169.072V2.04878H167.01V0Z" fill="#504439"/>
<path d="M169.072 0H171.134V2.04878H169.072V0Z" fill="#504439"/>
<path d="M171.134 0H173.196V2.04878H171.134V0Z" fill="#504439"/>
<path d="M173.196 0H175.258V2.04878H173.196V0Z" fill="#504439"/>
<path d="M175.258 0H177.32V2.04878H175.258V0Z" fill="#504439"/>
<path d="M177.32 0H179.381V2.04878H177.32V0Z" fill="#504439"/>
<path d="M179.381 0H181.443V2.04878H179.381V0Z" fill="#504439"/>
<path d="M181.443 0H183.505V2.04878H181.443V0Z" fill="#504439"/>
<path d="M183.299 0H186.221V2.52H183.299V0Z" fill="#504439"/>
<path d="M187.474 2.1H190.397V4.2H187.474V2.1Z" fill="#504439"/>
<path d="M189.691 4.09756H191.753V6.14634H189.691V4.09756Z" fill="#504439"/>
<path d="M193.737 6.3H196.242V9.66H193.737V6.3Z" fill="#504439"/>
<path d="M195.876 8.19513H197.938V10.2439H195.876V8.19513Z" fill="#504439"/>
<path d="M195.825 9.24H198.747V14.7H195.825V9.24Z" fill="#504439"/>
<path d="M195.876 12.2927H197.938V14.3415L195.876 14.3415V12.2927Z" fill="#504439"/>
<path d="M185.567 2.04878H187.629V4.09756H185.567V2.04878Z" fill="#504439"/>
<path d="M191.649 4.2H194.154V7.56H191.649V4.2Z" fill="#504439"/>
<path d="M197.938 14.3415L200 14.3415V16.3902H197.938V14.3415Z" fill="#504439"/>
<path d="M195.825 16.38H199.165V18.48H195.825V16.38Z" fill="#504439"/>
<path d="M197.938 18.439H200V20.4878H197.938V18.439Z" fill="#504439"/>
<path d="M197.938 20.4878H200V22.5366H197.938V20.4878Z" fill="#504439"/>
<path d="M197.938 22.5366H200V24.5854H197.938V22.5366Z" fill="#504439"/>
<path d="M197.938 24.5854H200V26.6341H197.938V24.5854Z" fill="#504439"/>
<path d="M197.938 26.6341H200V28.6829H197.938V26.6341Z" fill="#504439"/>
<path d="M197.938 28.6829H200V30.7317H197.938V28.6829Z" fill="#504439"/>
<path d="M197.938 30.7317H200V32.7805H197.938V30.7317Z" fill="#504439"/>
<path d="M195.825 32.76H199.165V34.86H195.825V32.76Z" fill="#504439"/>
<path d="M195.825 34.86H199.165V36.96H195.825V34.86Z" fill="#504439"/>
<path d="M197.938 36.878H200V38.9268H197.938V36.878Z" fill="#504439"/>
<path d="M197.938 38.9268H200V40.9756H197.938V38.9268Z" fill="#504439"/>
<path d="M197.912 40.74H200V43.26H197.912V40.74Z" fill="#504439"/>
<path d="M197.938 43.0244H200V45.0732H197.938V43.0244Z" fill="#504439"/>
<path d="M197.938 45.0732H200V47.122H197.938V45.0732Z" fill="#504439"/>
<path d="M197.938 47.122H200V49.1707H197.938V47.122Z" fill="#504439"/>
<path d="M197.938 49.1707H200V51.2195H197.938V49.1707Z" fill="#504439"/>
<path d="M197.938 51.2195H200V53.2683H197.938V51.2195Z" fill="#504439"/>
<path d="M197.938 53.2683H200V55.3171H197.938V53.2683Z" fill="#504439"/>
<path d="M197.938 55.3171H200V57.3658H197.938V55.3171Z" fill="#504439"/>
<path d="M197.938 57.3658H200V59.4146H197.938V57.3658Z" fill="#504439"/>
<path d="M197.938 59.4146H200V61.4634H197.938V59.4146Z" fill="#504439"/>
<path d="M197.938 61.4634H200V63.5122H197.938V61.4634Z" fill="#504439"/>
<path d="M197.938 63.5122H200V65.561H197.938V63.5122Z" fill="#504439"/>
<path d="M197.938 65.561H200V67.6098H197.938V65.561Z" fill="#504439"/>
<path d="M197.938 67.6098H200V69.6586H197.938V67.6098Z" fill="#504439"/>
<path d="M195.825 69.3H198.33V71.82H195.825V69.3Z" fill="#504439"/>
<path d="M195.876 71.7073H197.938V73.7561H195.876V71.7073Z" fill="#504439"/>
<path d="M193.737 73.5H196.66V75.6H193.737V73.5Z" fill="#504439"/>
<path d="M192.484 75.6H195.825V77.7H192.484V75.6Z" fill="#504439"/>
<path d="M190.397 77.7H193.737V79.8H190.397V77.7Z" fill="#504439"/>
<path d="M186.221 79.8H189.562V82.32H186.221V79.8Z" fill="#504439"/>
<path d="M183.505 81.9512H185.567V84H183.505V81.9512Z" fill="#504439"/>
<path d="M181.443 81.9512H183.505V84H181.443V81.9512Z" fill="#504439"/>
<path d="M185.567 81.9512H187.629V84H185.567V81.9512Z" fill="#504439"/>
<path d="M189.562 79.8H191.649V81.9H189.562V79.8Z" fill="#504439"/>
<path d="M179.381 81.9512H181.443V84H179.381V81.9512Z" fill="#504439"/>
<path d="M16.4948 81.9512H18.5567V84H16.4948V81.9512Z" fill="#504439"/>
<path d="M18.5567 81.9512H20.6186V84H18.5567V81.9512Z" fill="#504439"/>
<path d="M20.6186 81.9512H22.6804V84H20.6186V81.9512Z" fill="#504439"/>
<path d="M22.6804 81.9512H24.7423V84H22.6804V81.9512Z" fill="#504439"/>
<path d="M24.7423 81.9512H26.8041V84H24.7423V81.9512Z" fill="#504439"/>
<path d="M26.8041 81.9512H28.866V84H26.8041V81.9512Z" fill="#504439"/>
<path d="M28.866 81.9512H30.9278V84H28.866V81.9512Z" fill="#504439"/>
<path d="M30.9278 81.9512H32.9897V84H30.9278V81.9512Z" fill="#504439"/>
<path d="M32.9897 81.9512H35.0515V84H32.9897V81.9512Z" fill="#504439"/>
<path d="M35.0515 81.9512H37.1134V84H35.0515V81.9512Z" fill="#504439"/>
<path d="M37.1134 81.9512H39.1753V84H37.1134V81.9512Z" fill="#504439"/>
<path d="M39.1753 81.9512H41.2371V84H39.1753V81.9512Z" fill="#504439"/>
<path d="M41.2371 81.9512H43.299V84H41.2371V81.9512Z" fill="#504439"/>
<path d="M43.299 81.9512H45.3608V84H43.299V81.9512Z" fill="#504439"/>
<path d="M45.3608 81.9512H47.4227V84H45.3608V81.9512Z" fill="#504439"/>
<path d="M47.4227 81.9512H49.4845V84H47.4227V81.9512Z" fill="#504439"/>
<path d="M49.4845 81.9512H51.5464V84H49.4845V81.9512Z" fill="#504439"/>
<path d="M51.5464 81.9512H53.6082V84H51.5464V81.9512Z" fill="#504439"/>
<path d="M53.6082 81.9512H55.6701V84H53.6082V81.9512Z" fill="#504439"/>
<path d="M55.6701 81.9512H57.732V84H55.6701V81.9512Z" fill="#504439"/>
<path d="M57.732 81.9512H59.7938V84H57.732V81.9512Z" fill="#504439"/>
<path d="M59.7938 81.9512H61.8557V84H59.7938V81.9512Z" fill="#504439"/>
<path d="M61.8557 81.9512H63.9175V84H61.8557V81.9512Z" fill="#504439"/>
<path d="M63.9175 81.9512H65.9794V84H63.9175V81.9512Z" fill="#504439"/>
<path d="M65.9794 81.9512H68.0412V84H65.9794V81.9512Z" fill="#504439"/>
<path d="M68.0412 81.9512H70.1031V84H68.0412V81.9512Z" fill="#504439"/>
<path d="M70.1031 81.9512H72.1649V84H70.1031V81.9512Z" fill="#504439"/>
<path d="M72.1649 81.9512H74.2268V84H72.1649V81.9512Z" fill="#504439"/>
<path d="M74.2268 81.9512H76.2887V84H74.2268V81.9512Z" fill="#504439"/>
<path d="M76.2887 81.9512H78.3505V84H76.2887V81.9512Z" fill="#504439"/>
<path d="M78.3505 81.9512H80.4124V84H78.3505V81.9512Z" fill="#504439"/>
<path d="M80.4124 81.9512H82.4742V84H80.4124V81.9512Z" fill="#504439"/>
<path d="M82.4742 81.9512H84.5361V84H82.4742V81.9512Z" fill="#504439"/>
<path d="M84.5361 81.9512H86.5979V84H84.5361V81.9512Z" fill="#504439"/>
<path d="M86.5979 81.9512H88.6598V84H86.5979V81.9512Z" fill="#504439"/>
<path d="M88.6598 81.9512H90.7216V84H88.6598V81.9512Z" fill="#504439"/>
<path d="M90.7216 81.9512H92.7835V84H90.7216V81.9512Z" fill="#504439"/>
<path d="M92.7835 81.9512H94.8454V84H92.7835V81.9512Z" fill="#504439"/>
<path d="M94.8454 81.9512H96.9072V84H94.8454V81.9512Z" fill="#504439"/>
<path d="M96.9072 81.9512H98.9691V84H96.9072V81.9512Z" fill="#504439"/>
<path d="M98.9691 81.9512H101.031V84H98.9691V81.9512Z" fill="#504439"/>
<path d="M101.031 81.9512H103.093V84H101.031V81.9512Z" fill="#504439"/>
<path d="M103.093 81.9512H105.155V84H103.093V81.9512Z" fill="#504439"/>
<path d="M105.155 81.9512H107.216V84H105.155V81.9512Z" fill="#504439"/>
<path d="M107.216 81.9512H109.278V84H107.216V81.9512Z" fill="#504439"/>
<path d="M109.278 81.9512H111.34V84H109.278V81.9512Z" fill="#504439"/>
<path d="M111.34 81.9512H113.402V84H111.34V81.9512Z" fill="#504439"/>
<path d="M113.402 81.9512H115.464V84H113.402V81.9512Z" fill="#504439"/>
<path d="M115.464 81.9512H117.526V84H115.464V81.9512Z" fill="#504439"/>
<path d="M117.526 81.9512H119.588V84H117.526V81.9512Z" fill="#504439"/>
<path d="M119.588 81.9512H121.649V84H119.588V81.9512Z" fill="#504439"/>
<path d="M121.649 81.9512H123.711V84H121.649V81.9512Z" fill="#504439"/>
<path d="M123.711 81.9512H125.773V84H123.711V81.9512Z" fill="#504439"/>
<path d="M125.773 81.9512H127.835V84H125.773V81.9512Z" fill="#504439"/>
<path d="M127.835 81.9512H129.897V84H127.835V81.9512Z" fill="#504439"/>
<path d="M129.897 81.9512H131.959V84H129.897V81.9512Z" fill="#504439"/>
<path d="M131.959 81.9512H134.021V84H131.959V81.9512Z" fill="#504439"/>
<path d="M134.021 81.9512H136.082V84H134.021V81.9512Z" fill="#504439"/>
<path d="M136.082 81.9512H138.144V84H136.082V81.9512Z" fill="#504439"/>
<path d="M138.144 81.9512H140.206V84H138.144V81.9512Z" fill="#504439"/>
<path d="M140.206 81.9512H142.268V84H140.206V81.9512Z" fill="#504439"/>
<path d="M142.268 81.9512H144.33V84H142.268V81.9512Z" fill="#504439"/>
<path d="M144.33 81.9512H146.392V84H144.33V81.9512Z" fill="#504439"/>
<path d="M146.392 81.9512H148.454V84H146.392V81.9512Z" fill="#504439"/>
<path d="M148.454 81.9512H150.515V84H148.454V81.9512Z" fill="#504439"/>
<path d="M150.515 81.9512H152.577V84H150.515V81.9512Z" fill="#504439"/>
<path d="M152.577 81.9512H154.639V84H152.577V81.9512Z" fill="#504439"/>
<path d="M154.639 81.9512H156.701V84H154.639V81.9512Z" fill="#504439"/>
<path d="M156.701 81.9512H158.763V84H156.701V81.9512Z" fill="#504439"/>
<path d="M158.763 81.9512H160.825V84H158.763V81.9512Z" fill="#504439"/>
<path d="M160.825 81.9512H162.887V84H160.825V81.9512Z" fill="#504439"/>
<path d="M162.887 81.9512H164.948V84H162.887V81.9512Z" fill="#504439"/>
<path d="M164.948 81.9512H167.01V84H164.948V81.9512Z" fill="#504439"/>
<path d="M167.01 81.9512H169.072V84H167.01V81.9512Z" fill="#504439"/>
<path d="M169.072 81.9512H171.134V84H169.072V81.9512Z" fill="#504439"/>
<path d="M171.134 81.9512H173.196V84H171.134V81.9512Z" fill="#504439"/>
<path d="M173.196 81.9512H175.258V84H173.196V81.9512Z" fill="#504439"/>
<path d="M175.258 81.9512H177.32V84H175.258V81.9512Z" fill="#504439"/>
<path d="M177.32 81.9512H179.381V84H177.32V81.9512Z" fill="#504439"/>
<path d="M1.25261 67.2H4.17537V69.72H1.25261V67.2Z" fill="#504439"/>
<path d="M1.25261 69.72H4.17537V71.82H1.25261V69.72Z" fill="#504439"/>
<path d="M2.08768 70.98H6.26305V73.92H2.08768V70.98Z" fill="#504439"/>
<path d="M4.17537 73.5H6.68058V76.02H4.17537V73.5Z" fill="#504439"/>
<path d="M5.84551 75.18H8.35073V77.7H5.84551V75.18Z" fill="#504439"/>
<path d="M7.51566 76.86H10.8559V80.64H7.51566V76.86Z" fill="#504439"/>
<path d="M12.5261 79.38H14.6138V82.74H12.5261V79.38Z" fill="#504439"/>
<path d="M14.433 81.9512H16.4948V84H14.433V81.9512Z" fill="#504439"/>
<path d="M10.4384 79.38H12.5261V81.9H10.4384V79.38Z" fill="#504439"/>
<path d="M0 65.561H2.06186V67.6098H0V65.561Z" fill="#504439"/>
<path d="M0 14.7H2.50522V18.48H0V14.7Z" fill="#504439"/>
<path d="M0 18.439H2.06186V20.4878H0V18.439Z" fill="#504439"/>
<path d="M0 20.4878H2.06186V22.5366H0V20.4878Z" fill="#504439"/>
<path d="M0 22.5366H2.06186V24.5854H0V22.5366Z" fill="#504439"/>
<path d="M0 24.5854H2.06186V26.6341H0V24.5854Z" fill="#504439"/>
<path d="M0 26.6341H2.06186V28.6829H0V26.6341Z" fill="#504439"/>
<path d="M0 28.6829H2.06186V30.7317H0V28.6829Z" fill="#504439"/>
<path d="M0 30.7317H2.06186V32.7805H0V30.7317Z" fill="#504439"/>
<path d="M0 32.7805H2.06186V34.8293H0V32.7805Z" fill="#504439"/>
<path d="M0 34.8293H2.06186V36.878H0V34.8293Z" fill="#504439"/>
<path d="M0 36.878H2.06186V38.9268H0V36.878Z" fill="#504439"/>
<path d="M0 38.9268H2.06186V40.9756H0V38.9268Z" fill="#504439"/>
<path d="M0 40.9756H2.06186V43.0244H0V40.9756Z" fill="#504439"/>
<path d="M0 43.0244H2.06186V45.0732H0V43.0244Z" fill="#504439"/>
<path d="M0 45.0732H2.06186V47.122H0V45.0732Z" fill="#504439"/>
<path d="M0 47.122H2.06186V49.1707H0V47.122Z" fill="#504439"/>
<path d="M0 49.1707H2.06186V51.2195H0V49.1707Z" fill="#504439"/>
<path d="M0 51.2195H2.06186V53.2683H0V51.2195Z" fill="#504439"/>
<path d="M0 53.2683H2.06186V55.3171H0V53.2683Z" fill="#504439"/>
<path d="M0 55.3171H2.06186V57.3658H0V55.3171Z" fill="#504439"/>
<path d="M0 57.3658H2.06186V59.4146H0V57.3658Z" fill="#504439"/>
<path d="M0 59.4146H2.06186V61.4634H0V59.4146Z" fill="#504439"/>
<path d="M0 61.4634H2.06186V63.5122H0V61.4634Z" fill="#504439"/>
<path d="M0 63.5122H2.06186V65.561H0V63.5122Z" fill="#504439"/>
<path d="M7.93319 2.1H12.5261V4.2H7.93319V2.1Z" fill="#504439"/>
<path d="M8.24742 4.09756H10.3093V6.14634H8.24742V4.09756Z" fill="#504439"/>
<path d="M6.26305 4.2H8.35073V8.4H6.26305V4.2Z" fill="#504439"/>
<path d="M4.17537 6.3H6.26305V10.92H4.17537V6.3Z" fill="#504439"/>
<path d="M4.12371 10.2439H6.18557V12.2927H4.12371V10.2439Z" fill="#504439"/>
<path d="M2.08768 9.24H4.17537V15.54H2.08768V9.24Z" fill="#504439"/>
<path d="M2.06186 14.3415H4.12371V16.3902H2.06186V14.3415Z" fill="#504439"/>
<path d="M12.5261 2.1H14.6138V4.62H12.5261V2.1Z" fill="#504439"/>
</svg>
