<svg width="61" height="52" viewBox="0 0 61 52" fill="none" xmlns="http://www.w3.org/2000/svg">
<path d="M29.7534 10.7516C37.2169 -9.63021 94.2998 1.07695 29.7534 51.0254C-31.9051 0.721029 22.5489 -8.92384 29.7534 10.7516Z" fill="#E93323" stroke="#612604"/>
<rect x="53.1831" y="1" width="2.92683" height="2.67009" fill="#612604"/>
<rect x="38.5488" y="1" width="2.92683" height="2.67009" fill="#612604"/>
<rect x="56.1099" y="3.66992" width="2.92683" height="2.67009" fill="#612604"/>
<rect x="32.6953" y="3.66992" width="2.92683" height="2.67009" fill="#612604"/>
<rect x="57.5732" y="6.36572" width="2.92683" height="2.67009" fill="#612604"/>
<rect x="29.7686" y="6.34033" width="2.92683" height="2.67009" fill="#612604"/>
<rect x="57.5732" y="9" width="2.92683" height="2.67009" fill="#612604"/>
<rect x="29.7686" y="9.01025" width="2.92683" height="2.67009" fill="#612604"/>
<rect x="57.5732" y="11.6343" width="2.92683" height="2.67009" fill="#612604"/>
<rect x="57.5732" y="14.3657" width="2.92683" height="2.67009" fill="#612604"/>
<rect x="57.5732" y="17" width="2.92683" height="2.67009" fill="#612604"/>
<rect x="56.1099" y="19.6904" width="2.92683" height="2.67009" fill="#612604"/>
<rect x="56.1099" y="22.3608" width="2.92683" height="2.67009" fill="#612604"/>
<rect x="53.1831" y="22.4634" width="2.92683" height="5.26829" fill="#612604"/>
<rect x="50.2563" y="27.7007" width="2.92683" height="2.67009" fill="#612604"/>
<rect x="50.2563" y="30.3711" width="2.92683" height="2.67009" fill="#612604"/>
<rect x="47.3291" y="33.041" width="2.92683" height="2.67009" fill="#612604"/>
<rect x="44.4023" y="35.7109" width="2.92683" height="2.67009" fill="#612604"/>
<rect x="41.4756" y="38.3813" width="2.92683" height="2.67009" fill="#612604"/>
<rect x="38.5488" y="41.0513" width="2.92683" height="2.67009" fill="#612604"/>
<rect x="35.6221" y="43.7212" width="2.92683" height="2.67009" fill="#612604"/>
<rect x="32.6953" y="46.3916" width="2.92683" height="2.67009" fill="#612604"/>
<rect x="29.7686" y="49.0615" width="2.92683" height="2.67009" fill="#612604"/>
<rect x="35.6221" y="1" width="2.92683" height="2.67009" fill="#612604"/>
<rect x="41.4756" y="1" width="2.92683" height="2.67009" fill="#612604"/>
<rect x="44.4023" y="1" width="2.92683" height="2.67009" fill="#612604"/>
<rect x="47.3291" y="1" width="2.92683" height="2.67009" fill="#612604"/>
<rect x="50.2563" y="1" width="2.92683" height="2.67009" fill="#612604"/>
<rect x="26.8413" y="9.01025" width="2.92683" height="2.67009" fill="#612604"/>
<rect x="26.8413" y="49.0615" width="2.92683" height="2.67009" fill="#612604"/>
<rect x="6.35352" y="1" width="2.92683" height="2.67009" fill="#612604"/>
<rect x="18.061" y="1" width="2.92683" height="2.67009" fill="#612604"/>
<rect x="3.42676" y="3.66992" width="2.92683" height="2.67009" fill="#612604"/>
<rect x="23.9146" y="3.66992" width="2.92683" height="2.67009" fill="#612604"/>
<rect x="0.5" y="6.34033" width="2.92683" height="2.67009" fill="#612604"/>
<rect x="26.8413" y="6.34033" width="2.92683" height="2.67009" fill="#612604"/>
<rect x="0.5" y="9.01025" width="2.92683" height="2.67009" fill="#612604"/>
<rect x="0.5" y="11.6802" width="2.92683" height="2.67009" fill="#612604"/>
<rect x="0.5" y="14.3506" width="2.92683" height="2.67009" fill="#612604"/>
<rect x="0.5" y="17.0205" width="2.92683" height="2.67009" fill="#612604"/>
<rect x="0.5" y="19.6904" width="2.92683" height="2.67009" fill="#612604"/>
<rect x="3.42676" y="22.3608" width="2.92683" height="2.67009" fill="#612604"/>
<rect x="3.42676" y="25.0308" width="2.92683" height="2.67009" fill="#612604"/>
<rect x="6.35352" y="27.7007" width="2.92683" height="2.67009" fill="#612604"/>
<rect x="9.28027" y="30.3711" width="2.92683" height="2.67009" fill="#612604"/>
<rect x="9.28027" y="33.041" width="2.92683" height="2.67009" fill="#612604"/>
<rect x="12.2075" y="35.7109" width="2.92683" height="2.67009" fill="#612604"/>
<rect x="15.1343" y="38.3813" width="2.92683" height="2.67009" fill="#612604"/>
<rect x="18.061" y="41.0513" width="2.92683" height="2.67009" fill="#612604"/>
<rect x="20.9878" y="43.7212" width="2.92683" height="2.67009" fill="#612604"/>
<rect x="23.9146" y="46.3916" width="2.92683" height="2.67009" fill="#612604"/>
<rect x="9.28027" y="1" width="2.92683" height="2.67009" fill="#612604"/>
<rect x="12.2075" y="1" width="2.92683" height="2.67009" fill="#612604"/>
<rect x="15.1343" y="1" width="2.92683" height="2.67009" fill="#612604"/>
<rect x="20.9878" y="1" width="2.92683" height="2.67009" fill="#612604"/>
<rect x="48.208" y="6.46338" width="2.92683" height="2.92683" fill="white"/>
<rect x="45.2812" y="6.46338" width="2.92683" height="2.92683" fill="white"/>
<rect x="51.1348" y="9.39014" width="2.92683" height="2.92683" fill="white"/>
<rect x="51.1348" y="12.3169" width="2.92683" height="2.92683" fill="white"/>
</svg>
