<svg width="31" height="32" viewBox="0 0 31 32" fill="none" xmlns="http://www.w3.org/2000/svg">
<path d="M12.1001 4.50006C11.3801 8.22006 6.3001 11.8501 3.8501 13.2001C15.8501 21.8401 25.7501 16.8001 29.2001 13.2001C27.2001 11.1501 22.8701 6.54006 21.5501 4.50006C19.9001 1.95006 13.0001 -0.14994 12.1001 4.50006Z" fill="#9781A3" stroke="#9781A3"/>
<rect x="11.5" y="4.5" width="1.5" height="1.5" fill="#9781A3"/>
<rect x="10" y="6" width="1.5" height="1.5" fill="#9781A3"/>
<rect x="10" y="7.5" width="1.5" height="1.5" fill="#9781A3"/>
<rect x="8.5" y="9" width="1.5" height="1.5" fill="#9781A3"/>
<rect x="5.5" y="10.5" width="1.5" height="1.5" fill="#9781A3"/>
<rect x="4" y="12" width="1.5" height="1.5" fill="#9781A3"/>
<rect x="7" y="10.5" width="1.5" height="1.5" fill="#9781A3"/>
<rect x="2.5" y="12" width="1.5" height="1.5" fill="#9781A3"/>
<rect x="11.5" y="3" width="1.5" height="1.5" fill="#9781A3"/>
<rect x="13" y="1.5" width="1.5" height="1.5" fill="#9781A3"/>
<rect x="17.5" y="1.5" width="1.5" height="1.5" fill="#9781A3"/>
<rect x="20.5" y="3" width="1.5" height="1.5" fill="#9781A3"/>
<rect x="14.5" y="1.5" width="1.5" height="1.5" fill="#9781A3"/>
<rect x="16" y="1.5" width="1.5" height="1.5" fill="#9781A3"/>
<rect x="19" y="1.5" width="1.5" height="1.5" fill="#9781A3"/>
<rect x="22" y="4.5" width="1.5" height="1.5" fill="#9781A3"/>
<rect x="22" y="6" width="1.5" height="1.5" fill="#9781A3"/>
<rect x="23.5" y="7.5" width="1.5" height="1.5" fill="#9781A3"/>
<rect x="25" y="9" width="1.5" height="1.5" fill="#9781A3"/>
<rect x="26.5" y="10.5" width="1.5" height="1.5" fill="#9781A3"/>
<rect x="28" y="12" width="1.5" height="1.5" fill="#9781A3"/>
<rect x="4" y="13.5" width="1.5" height="1.5" fill="#9781A3"/>
<rect x="28" y="13.5" width="1.5" height="1.5" fill="#9781A3"/>
<rect x="7" y="15" width="1.5" height="1.5" fill="#9781A3"/>
<rect x="25" y="15" width="1.5" height="1.5" fill="#9781A3"/>
<rect x="11.5" y="16.5" width="1.5" height="1.5" fill="#9781A3"/>
<rect x="22" y="16.5" width="1.5" height="1.5" fill="#9781A3"/>
<rect x="5.5" y="13.5" width="1.5" height="1.5" fill="#9781A3"/>
<rect x="8.5" y="15" width="1.5" height="1.5" fill="#9781A3"/>
<rect x="10" y="16.5" width="1.5" height="1.5" fill="#9781A3"/>
<rect x="13" y="16.5" width="1.5" height="1.5" fill="#9781A3"/>
<rect x="14.5" y="16.5" width="1.5" height="1.5" fill="#9781A3"/>
<rect x="16" y="16.5" width="1.5" height="1.5" fill="#9781A3"/>
<rect x="17.5" y="16.5" width="1.5" height="1.5" fill="#9781A3"/>
<rect x="19" y="16.5" width="1.5" height="1.5" fill="#9781A3"/>
<rect x="20.5" y="16.5" width="1.5" height="1.5" fill="#9781A3"/>
<rect x="23.5" y="16.5" width="1.5" height="1.5" fill="#9781A3"/>
<rect x="26.5" y="13.5" width="1.5" height="1.5" fill="#9781A3"/>
<path d="M12.5498 26.7L15.5498 18.3L20.3498 17.7C22.8498 18.8 27.0998 22.14 24.0998 26.7C21.0998 31.26 15.1498 28.6 12.5498 26.7Z" fill="#F1E9D8" stroke="#F1E9D8"/>
<rect x="14.5" y="18" width="1.5" height="1.5" fill="#F1E9D8"/>
<rect x="14.5" y="19.5" width="1.5" height="1.5" fill="#F1E9D8"/>
<rect x="13" y="21" width="1.5" height="1.5" fill="#F1E9D8"/>
<rect x="13" y="22.5" width="1.5" height="1.5" fill="#F1E9D8"/>
<rect x="13" y="24" width="1.5" height="1.5" fill="#F1E9D8"/>
<rect x="11.5" y="25.5" width="1.5" height="1.5" fill="#F1E9D8"/>
<rect x="22" y="27" width="1.5" height="1.5" fill="#F1E9D8"/>
<rect x="13" y="27" width="1.5" height="1.5" fill="#F1E9D8"/>
<rect x="14.5" y="27" width="1.5" height="1.5" fill="#F1E9D8"/>
<rect x="16" y="28.5" width="1.5" height="1.5" fill="#F1E9D8"/>
<rect x="17.5" y="28.5" width="1.5" height="1.5" fill="#F1E9D8"/>
<rect x="19" y="28.5" width="1.5" height="1.5" fill="#F1E9D8"/>
<rect x="20.5" y="28.5" width="1.5" height="1.5" fill="#F1E9D8"/>
<rect x="23.5" y="25.5" width="1.5" height="1.5" fill="#F1E9D8"/>
<rect x="22" y="18" width="1.5" height="1.5" fill="#F1E9D8"/>
<rect x="23.5" y="19.5" width="1.5" height="1.5" fill="#F1E9D8"/>
<rect x="23.5" y="21" width="1.5" height="1.5" fill="#F1E9D8"/>
<rect x="25" y="22.5" width="1.5" height="1.5" fill="#F1E9D8"/>
<rect x="23.5" y="24" width="1.5" height="1.5" fill="#F1E9D8"/>
<rect x="20.5" y="18" width="1.5" height="1.5" fill="#F1E9D8"/>
<rect x="19" y="16.5" width="1.5" height="1.5" fill="#F1E9D8"/>
<rect x="16" y="18" width="1.5" height="1.5" fill="#F1E9D8"/>
<rect x="17.5" y="16.5" width="1.5" height="1.5" fill="#F1E9D8"/>
<path d="M6.7002 14.0999L14.2002 7.49985L7.3002 15.1499L12.4002 16.9499L16.3002 6.59985L14.2002 17.3999L21.7002 16.9499L18.7002 7.49985L22.6002 16.9499L27.2502 13.6499L23.5002 10.6499M19.4502 29.5499L24.4002 27.2999L23.9502 24.7499H21.7002L23.5002 21.2999L21.7002 19.3499L18.7002 18.5999" stroke="#4C4358"/>
<rect x="13" y="7.5" width="1.5" height="1.5" fill="#4C4358"/>
<rect x="11.5" y="9" width="1.5" height="1.5" fill="#4C4358"/>
<rect x="8.5" y="10.5" width="1.5" height="1.5" fill="#4C4358"/>
<rect x="7" y="12" width="1.5" height="1.5" fill="#4C4358"/>
<rect x="10" y="10.5" width="1.5" height="1.5" fill="#4C4358"/>
<rect x="5.5" y="13.5" width="1.5" height="1.5" fill="#4C4358"/>
<rect x="8.5" y="12" width="1.5" height="1.5" fill="#4C4358"/>
<rect x="7" y="13.5" width="1.5" height="1.5" fill="#4C4358"/>
<rect x="7" y="15" width="1.5" height="1.5" fill="#4C4358"/>
<rect x="8.5" y="15" width="1.5" height="1.5" fill="#4C4358"/>
<rect x="10" y="15" width="1.5" height="1.5" fill="#4C4358"/>
<rect x="11.5" y="16.5" width="1.5" height="1.5" fill="#4C4358"/>
<rect x="16" y="6" width="1.5" height="1.5" fill="#4C4358"/>
<rect x="14.5" y="7.5" width="1.5" height="1.5" fill="#4C4358"/>
<rect x="14.5" y="9" width="1.5" height="1.5" fill="#4C4358"/>
<rect x="14.5" y="10.5" width="1.5" height="1.5" fill="#4C4358"/>
<rect x="13" y="12" width="1.5" height="1.5" fill="#4C4358"/>
<rect x="13" y="13.5" width="1.5" height="1.5" fill="#4C4358"/>
<rect x="11.5" y="15" width="1.5" height="1.5" fill="#4C4358"/>
<rect x="14.5" y="12" width="1.5" height="1.5" fill="#4C4358"/>
<rect x="14.5" y="13.5" width="1.5" height="1.5" fill="#4C4358"/>
<rect x="14.5" y="15" width="1.5" height="1.5" fill="#4C4358"/>
<rect x="13" y="16.5" width="1.5" height="1.5" fill="#4C4358"/>
<rect x="16" y="16.5" width="1.5" height="1.5" fill="#4C4358"/>
<rect x="14.5" y="16.5" width="1.5" height="1.5" fill="#4C4358"/>
<rect x="17.5" y="16.5" width="1.5" height="1.5" fill="#4C4358"/>
<rect x="19" y="16.5" width="1.5" height="1.5" fill="#4C4358"/>
<rect x="20.5" y="16.5" width="1.5" height="1.5" fill="#4C4358"/>
<rect x="17.5" y="7.5" width="1.5" height="1.5" fill="#4C4358"/>
<rect x="19" y="9" width="1.5" height="1.5" fill="#4C4358"/>
<rect x="19" y="10.5" width="1.5" height="1.5" fill="#4C4358"/>
<rect x="19" y="12" width="1.5" height="1.5" fill="#4C4358"/>
<rect x="20.5" y="13.5" width="1.5" height="1.5" fill="#4C4358"/>
<rect x="20.5" y="15" width="1.5" height="1.5" fill="#4C4358"/>
<rect x="19" y="7.5" width="1.5" height="1.5" fill="#4C4358"/>
<rect x="20.5" y="12" width="1.5" height="1.5" fill="#4C4358"/>
<rect x="22" y="15" width="1.5" height="1.5" fill="#4C4358"/>
<rect x="22" y="16.5" width="1.5" height="1.5" fill="#4C4358"/>
<rect x="25" y="13.5" width="1.5" height="1.5" fill="#4C4358"/>
<rect x="23.5" y="15" width="1.5" height="1.5" fill="#4C4358"/>
<rect x="26.5" y="13.5" width="1.5" height="1.5" fill="#4C4358"/>
<rect x="23.5" y="10.5" width="1.5" height="1.5" fill="#4C4358"/>
<rect x="25" y="12" width="1.5" height="1.5" fill="#4C4358"/>
<rect x="22" y="27" width="1.5" height="1.5" fill="#4C4358"/>
<rect x="19" y="28.5" width="1.5" height="1.5" fill="#4C4358"/>
<rect x="20.5" y="28.5" width="1.5" height="1.5" fill="#4C4358"/>
<rect x="23.5" y="27" width="1.5" height="1.5" fill="#4C4358"/>
<rect x="23.5" y="24" width="1.5" height="1.5" fill="#4C4358"/>
<rect x="23.5" y="25.5" width="1.5" height="1.5" fill="#4C4358"/>
<rect x="22" y="24" width="1.5" height="1.5" fill="#4C4358"/>
<rect x="20.5" y="24" width="1.5" height="1.5" fill="#4C4358"/>
<rect x="22" y="21" width="1.5" height="1.5" fill="#4C4358"/>
<rect x="22" y="22.5" width="1.5" height="1.5" fill="#4C4358"/>
<rect x="23.5" y="21" width="1.5" height="1.5" fill="#4C4358"/>
<rect x="22" y="19.5" width="1.5" height="1.5" fill="#4C4358"/>
<rect x="20.5" y="18" width="1.5" height="1.5" fill="#4C4358"/>
<rect x="19" y="18" width="1.5" height="1.5" fill="#4C4358"/>
<rect x="17.5" y="18" width="1.5" height="1.5" fill="#4C4358"/>
<path d="M18.2498 3L20.6498 4.65C23.2998 6.7 28.4798 11.16 27.9998 12.6C27.5198 14.04 24.7998 15.9 23.4998 16.65V13.95L20.6498 9.15V16.65L16.8998 10.8L18.2498 18L12.5498 16.65V12.6" stroke="#6B5F80"/>
<rect x="19" y="3" width="1.5" height="1.5" fill="#6B5F80"/>
<rect x="17.5" y="3" width="1.5" height="1.5" fill="#6B5F80"/>
<rect x="20.5" y="4.5" width="1.5" height="1.5" fill="#6B5F80"/>
<rect x="22" y="6" width="1.5" height="1.5" fill="#6B5F80"/>
<rect x="23.5" y="7.5" width="1.5" height="1.5" fill="#6B5F80"/>
<rect x="25" y="9" width="1.5" height="1.5" fill="#6B5F80"/>
<rect x="26.5" y="10.5" width="1.5" height="1.5" fill="#6B5F80"/>
<rect x="28" y="12" width="1.5" height="1.5" fill="#6B5F80"/>
<rect x="26.5" y="12" width="1.5" height="1.5" fill="#6B5F80"/>
<rect x="26.5" y="13.5" width="1.5" height="1.5" fill="#6B5F80"/>
<rect x="23.5" y="15" width="1.5" height="1.5" fill="#6B5F80"/>
<rect x="25" y="15" width="1.5" height="1.5" fill="#6B5F80"/>
<rect x="23.5" y="16.5" width="1.5" height="1.5" fill="#6B5F80"/>
<rect x="23.5" y="13.5" width="1.5" height="1.5" fill="#6B5F80"/>
<rect x="20.5" y="9" width="1.5" height="1.5" fill="#6B5F80"/>
<rect x="20.5" y="10.5" width="1.5" height="1.5" fill="#6B5F80"/>
<rect x="22" y="12" width="1.5" height="1.5" fill="#6B5F80"/>
<rect x="20.5" y="12" width="1.5" height="1.5" fill="#6B5F80"/>
<rect x="20.5" y="13.5" width="1.5" height="1.5" fill="#6B5F80"/>
<rect x="20.5" y="15" width="1.5" height="1.5" fill="#6B5F80"/>
<rect x="20.5" y="16.5" width="1.5" height="1.5" fill="#6B5F80"/>
<rect x="16" y="10.5" width="1.5" height="1.5" fill="#6B5F80"/>
<rect x="17.5" y="12" width="1.5" height="1.5" fill="#6B5F80"/>
<rect x="19" y="13.5" width="1.5" height="1.5" fill="#6B5F80"/>
<rect x="19" y="15" width="1.5" height="1.5" fill="#6B5F80"/>
<rect x="16" y="12" width="1.5" height="1.5" fill="#6B5F80"/>
<rect x="17.5" y="13.5" width="1.5" height="1.5" fill="#6B5F80"/>
<rect x="17.5" y="15" width="1.5" height="1.5" fill="#6B5F80"/>
<rect x="17.5" y="16.5" width="1.5" height="1.5" fill="#6B5F80"/>
<rect x="17.5" y="18" width="1.5" height="1.5" fill="#6B5F80"/>
<rect x="14.5" y="16.5" width="1.5" height="1.5" fill="#6B5F80"/>
<rect x="13" y="16.5" width="1.5" height="1.5" fill="#6B5F80"/>
<rect x="16" y="16.5" width="1.5" height="1.5" fill="#6B5F80"/>
<rect x="11.5" y="16.5" width="1.5" height="1.5" fill="#6B5F80"/>
<rect x="11.5" y="12" width="1.5" height="1.5" fill="#6B5F80"/>
<rect x="11.5" y="13.5" width="1.5" height="1.5" fill="#6B5F80"/>
<rect x="11.5" y="15" width="1.5" height="1.5" fill="#6B5F80"/>
<path d="M20.2001 1.50005H14.0501L12.8501 1.05005L12.4001 2.85005H11.3501L10.9001 5.40005H9.4001V8.10005L7.0001 10.05H5.5001L4.4501 11.85H2.5001L1.6001 13.05L2.8001 14.1L3.4001 15.3L6.2501 15.6L7.0001 16.8H9.4001L10.0001 18.45H14.0501V20.55L12.4001 21.6L12.1001 25.05L11.3501 26.7L12.4001 27.9L13.3001 29.25H15.1001L16.0001 30.15H22.3001V29.25H24.1001L25.6001 27.9V26.25V24.9L26.3501 24.15V22.35L25.1501 21.6V19.95L24.1001 19.2V18.45H25.1501L25.6001 17.25H26.3501L27.1001 15.6L29.8001 15.3V13.5V12.15L28.7501 10.95L27.5501 10.05L25.6001 8.40005L24.1001 6.60005V4.80005L22.3001 3.90005L21.2501 2.85005L20.2001 1.50005Z" stroke="#504439"/>
<rect x="14.5" y="1.5" width="1.5" height="1.5" fill="#504439"/>
<rect x="16" y="1.5" width="1.5" height="1.5" fill="#504439"/>
<rect x="17.5" y="1.5" width="1.5" height="1.5" fill="#504439"/>
<rect x="19" y="1.5" width="1.5" height="1.5" fill="#504439"/>
<rect x="13" y="1.5" width="1.5" height="1.5" fill="#504439"/>
<rect x="20.5" y="1.5" width="1.5" height="1.5" fill="#504439"/>
<rect x="22" y="3" width="1.5" height="1.5" fill="#504439"/>
<rect x="23.5" y="4.5" width="1.5" height="1.5" fill="#504439"/>
<rect x="23.5" y="6" width="1.5" height="1.5" fill="#504439"/>
<rect x="25" y="7.5" width="1.5" height="1.5" fill="#504439"/>
<rect x="26.5" y="9" width="1.5" height="1.5" fill="#504439"/>
<rect x="28" y="10.5" width="1.5" height="1.5" fill="#504439"/>
<rect x="29.5" y="12" width="1.5" height="1.5" fill="#504439"/>
<rect x="29.5" y="13.5" width="1.5" height="1.5" fill="#504439"/>
<rect x="29.5" y="15" width="1.5" height="1.5" fill="#504439"/>
<rect x="26.5" y="15" width="1.5" height="1.5" fill="#504439"/>
<rect x="28" y="15" width="1.5" height="1.5" fill="#504439"/>
<rect x="25" y="16.5" width="1.5" height="1.5" fill="#504439"/>
<rect x="25" y="18" width="1.5" height="1.5" fill="#504439"/>
<rect x="23.5" y="18" width="1.5" height="1.5" fill="#504439"/>
<rect x="25" y="19.5" width="1.5" height="1.5" fill="#504439"/>
<rect x="25" y="21" width="1.5" height="1.5" fill="#504439"/>
<rect x="25" y="22.5" width="1.5" height="1.5" fill="#504439"/>
<rect x="25" y="24" width="1.5" height="1.5" fill="#504439"/>
<rect x="25" y="25.5" width="1.5" height="1.5" fill="#504439"/>
<rect x="25" y="27" width="1.5" height="1.5" fill="#504439"/>
<rect x="23.5" y="28.5" width="1.5" height="1.5" fill="#504439"/>
<rect x="22" y="28.5" width="1.5" height="1.5" fill="#504439"/>
<rect x="22" y="30" width="1.5" height="1.5" fill="#504439"/>
<rect x="16" y="30" width="1.5" height="1.5" fill="#504439"/>
<rect x="17.5" y="30" width="1.5" height="1.5" fill="#504439"/>
<rect x="19" y="30" width="1.5" height="1.5" fill="#504439"/>
<rect x="20.5" y="30" width="1.5" height="1.5" fill="#504439"/>
<rect x="14.5" y="28.5" width="1.5" height="1.5" fill="#504439"/>
<rect x="13" y="28.5" width="1.5" height="1.5" fill="#504439"/>
<rect x="11.5" y="27" width="1.5" height="1.5" fill="#504439"/>
<rect x="10" y="25.5" width="1.5" height="1.5" fill="#504439"/>
<rect x="11.5" y="25.5" width="1.5" height="1.5" fill="#504439"/>
<rect x="11.5" y="24" width="1.5" height="1.5" fill="#504439"/>
<rect x="11.5" y="21" width="1.5" height="1.5" fill="#504439"/>
<rect x="11.5" y="22.5" width="1.5" height="1.5" fill="#504439"/>
<rect x="13" y="19.5" width="1.5" height="1.5" fill="#504439"/>
<rect x="13" y="18" width="1.5" height="1.5" fill="#504439"/>
<rect x="10" y="18" width="1.5" height="1.5" fill="#504439"/>
<rect x="11.5" y="18" width="1.5" height="1.5" fill="#504439"/>
<rect x="8.5" y="16.5" width="1.5" height="1.5" fill="#504439"/>
<rect x="7" y="16.5" width="1.5" height="1.5" fill="#504439"/>
<rect x="5.5" y="15" width="1.5" height="1.5" fill="#504439"/>
<rect x="4" y="15" width="1.5" height="1.5" fill="#504439"/>
<rect x="2.5" y="15" width="1.5" height="1.5" fill="#504439"/>
<rect x="2.5" y="13.5" width="1.5" height="1.5" fill="#504439"/>
<rect x="1" y="12" width="1.5" height="1.5" fill="#504439"/>
<rect x="2.5" y="10.5" width="1.5" height="1.5" fill="#504439"/>
<rect x="4" y="10.5" width="1.5" height="1.5" fill="#504439"/>
<rect x="5.5" y="9" width="1.5" height="1.5" fill="#504439"/>
<rect x="7" y="9" width="1.5" height="1.5" fill="#504439"/>
<rect x="8.5" y="7.5" width="1.5" height="1.5" fill="#504439"/>
<rect x="8.5" y="6" width="1.5" height="1.5" fill="#504439"/>
<rect x="8.5" y="4.5" width="1.5" height="1.5" fill="#504439"/>
<rect x="10" y="4.5" width="1.5" height="1.5" fill="#504439"/>
<rect x="10" y="3" width="1.5" height="1.5" fill="#504439"/>
<rect x="10" y="1.5" width="1.5" height="1.5" fill="#504439"/>
<rect x="11.5" y="1.5" width="1.5" height="1.5" fill="#504439"/>
<rect x="11.5" width="1.5" height="1.5" fill="#504439"/>
<rect x="13" width="1.5" height="1.5" fill="#504439"/>
</svg>
