<svg width="18" height="15" viewBox="0 0 18 15" fill="none" xmlns="http://www.w3.org/2000/svg">
<path d="M6.7 14.3C6.3134 14.6866 5.6866 14.6866 5.3 14.3L1 10C0.447715 9.44771 0.447715 8.55229 1 8L5.3 3.7C5.6866 3.3134 6.3134 3.3134 6.7 3.7C7.0866 4.0866 7.0866 4.7134 6.7 5.1L4.5 7.3C4.24168 7.55832 4.42463 8 4.78995 8H15C15.5523 8 16 7.55228 16 7V1C16 0.447715 16.4477 0 17 0C17.5523 0 18 0.447715 18 1V9C18 9.55229 17.5523 10 17 10H4.78995C4.42463 10 4.24168 10.4417 4.5 10.7L6.7 12.9C7.0866 13.2866 7.0866 13.9134 6.7 14.3Z" fill="white"/>
</svg>
