<svg width="100" height="83" viewBox="0 0 100 83" fill="none" xmlns="http://www.w3.org/2000/svg">
<path d="M6.07143 81.7856L97.5 81.7856V78.9285L95.7143 69.6428L82.5 59.2856L84.2857 42.4999L62.5 25.3571L50.7143 7.14279L41.4286 22.8571L30.3571 31.0714L25 44.6428L12.5 53.2142L6.07143 81.7856Z" fill="#866E63" stroke="#866E63"/>
<rect x="96.4287" y="82.1428" width="3.57143" height="3.57143" transform="rotate(-180 96.4287 82.1428)" fill="#866E63"/>
<rect x="92.8574" y="82.1428" width="3.57143" height="3.57143" transform="rotate(-180 92.8574 82.1428)" fill="#866E63"/>
<rect x="89.2861" y="82.1428" width="3.57143" height="3.57143" transform="rotate(-180 89.2861 82.1428)" fill="#866E63"/>
<rect x="85.7139" y="82.1428" width="3.57143" height="3.57143" transform="rotate(-180 85.7139 82.1428)" fill="#866E63"/>
<rect x="82.1426" y="82.1428" width="3.57143" height="3.57143" transform="rotate(-180 82.1426 82.1428)" fill="#866E63"/>
<rect x="78.5713" y="82.1428" width="3.57143" height="3.57143" transform="rotate(-180 78.5713 82.1428)" fill="#866E63"/>
<rect x="75" y="82.1428" width="3.57143" height="3.57143" transform="rotate(-180 75 82.1428)" fill="#866E63"/>
<rect x="71.4287" y="82.1428" width="3.57143" height="3.57143" transform="rotate(-180 71.4287 82.1428)" fill="#866E63"/>
<rect x="67.8574" y="82.1428" width="3.57143" height="3.57143" transform="rotate(-180 67.8574 82.1428)" fill="#866E63"/>
<rect x="64.2852" y="82.1428" width="3.57143" height="3.57143" transform="rotate(-180 64.2852 82.1428)" fill="#866E63"/>
<rect x="60.7139" y="82.1428" width="3.57143" height="3.57143" transform="rotate(-180 60.7139 82.1428)" fill="#866E63"/>
<rect x="57.1426" y="82.1428" width="3.57143" height="3.57143" transform="rotate(-180 57.1426 82.1428)" fill="#866E63"/>
<rect x="53.5713" y="82.1428" width="3.57143" height="3.57143" transform="rotate(-180 53.5713 82.1428)" fill="#866E63"/>
<rect x="50" y="82.1428" width="3.57143" height="3.57143" transform="rotate(-180 50 82.1428)" fill="#866E63"/>
<rect x="46.4287" y="82.1428" width="3.57143" height="3.57143" transform="rotate(-180 46.4287 82.1428)" fill="#866E63"/>
<rect x="42.8574" y="82.1428" width="3.57143" height="3.57143" transform="rotate(-180 42.8574 82.1428)" fill="#866E63"/>
<rect x="39.2861" y="82.1428" width="3.57143" height="3.57143" transform="rotate(-180 39.2861 82.1428)" fill="#866E63"/>
<rect x="35.7139" y="82.1428" width="3.57143" height="3.57143" transform="rotate(-180 35.7139 82.1428)" fill="#866E63"/>
<rect x="32.1426" y="82.1428" width="3.57143" height="3.57143" transform="rotate(-180 32.1426 82.1428)" fill="#866E63"/>
<rect x="28.5713" y="82.1428" width="3.57143" height="3.57143" transform="rotate(-180 28.5713 82.1428)" fill="#866E63"/>
<rect x="25" y="82.1428" width="3.57143" height="3.57143" transform="rotate(-180 25 82.1428)" fill="#866E63"/>
<rect x="21.4287" y="82.1428" width="3.57143" height="3.57143" transform="rotate(-180 21.4287 82.1428)" fill="#866E63"/>
<rect x="17.8574" y="82.1428" width="3.57143" height="3.57143" transform="rotate(-180 17.8574 82.1428)" fill="#866E63"/>
<rect x="14.2852" y="82.1428" width="3.57143" height="3.57143" transform="rotate(-180 14.2852 82.1428)" fill="#866E63"/>
<rect x="10.7139" y="82.1428" width="3.57143" height="3.57143" transform="rotate(-180 10.7139 82.1428)" fill="#866E63"/>
<rect x="100" y="82.1428" width="3.57143" height="3.57143" transform="rotate(-180 100 82.1428)" fill="#866E63"/>
<rect x="7.14258" y="82.1428" width="3.57143" height="3.57143" transform="rotate(-180 7.14258 82.1428)" fill="#866E63"/>
<rect x="10.7139" y="78.5713" width="3.57143" height="3.57143" transform="rotate(-180 10.7139 78.5713)" fill="#866E63"/>
<rect x="10.7139" y="75" width="3.57143" height="3.57143" transform="rotate(-180 10.7139 75)" fill="#866E63"/>
<rect x="10.7139" y="71.4285" width="3.57143" height="3.57143" transform="rotate(-180 10.7139 71.4285)" fill="#866E63"/>
<rect x="10.7139" y="67.8572" width="3.57143" height="3.57143" transform="rotate(-180 10.7139 67.8572)" fill="#866E63"/>
<rect x="10.7139" y="64.2856" width="3.57143" height="3.57143" transform="rotate(-180 10.7139 64.2856)" fill="#866E63"/>
<rect x="14.2852" y="60.7144" width="3.57143" height="3.57143" transform="rotate(-180 14.2852 60.7144)" fill="#866E63"/>
<rect x="14.2852" y="57.1428" width="3.57143" height="3.57143" transform="rotate(-180 14.2852 57.1428)" fill="#866E63"/>
<rect x="14.2852" y="53.5713" width="3.57143" height="3.57143" transform="rotate(-180 14.2852 53.5713)" fill="#866E63"/>
<rect x="17.8574" y="53.5713" width="3.57143" height="3.57143" transform="rotate(-180 17.8574 53.5713)" fill="#866E63"/>
<rect x="21.4287" y="50" width="3.57143" height="3.57143" transform="rotate(-180 21.4287 50)" fill="#866E63"/>
<rect x="25" y="46.4285" width="3.57143" height="3.57143" transform="rotate(-180 25 46.4285)" fill="#866E63"/>
<rect x="28.5713" y="42.8572" width="3.57143" height="3.57143" transform="rotate(-180 28.5713 42.8572)" fill="#866E63"/>
<rect x="28.5713" y="39.2856" width="3.57143" height="3.57143" transform="rotate(-180 28.5713 39.2856)" fill="#866E63"/>
<rect x="32.1426" y="35.7144" width="3.57143" height="3.57143" transform="rotate(-180 32.1426 35.7144)" fill="#866E63"/>
<rect x="32.1426" y="32.1428" width="3.57143" height="3.57143" transform="rotate(-180 32.1426 32.1428)" fill="#866E63"/>
<rect x="39.2861" y="28.5713" width="3.57143" height="3.57143" transform="rotate(-180 39.2861 28.5713)" fill="#866E63"/>
<rect x="42.8574" y="25" width="3.57143" height="3.57143" transform="rotate(-180 42.8574 25)" fill="#866E63"/>
<rect x="35.7139" y="28.5713" width="3.57143" height="3.57143" transform="rotate(-180 35.7139 28.5713)" fill="#866E63"/>
<rect x="46.4287" y="21.4285" width="3.57143" height="3.57143" transform="rotate(-180 46.4287 21.4285)" fill="#866E63"/>
<rect x="46.4287" y="17.8572" width="3.57143" height="3.57143" transform="rotate(-180 46.4287 17.8572)" fill="#866E63"/>
<rect x="50" y="14.2856" width="3.57143" height="3.57143" transform="rotate(-180 50 14.2856)" fill="#866E63"/>
<rect x="50" y="10.7144" width="3.57143" height="3.57143" transform="rotate(-180 50 10.7144)" fill="#866E63"/>
<rect x="53.5713" y="7.14282" width="3.57143" height="3.57143" transform="rotate(-180 53.5713 7.14282)" fill="#866E63"/>
<rect x="64.2852" y="25" width="3.57143" height="3.57143" transform="rotate(-180 64.2852 25)" fill="#866E63"/>
<rect x="60.7139" y="21.4285" width="3.57143" height="3.57143" transform="rotate(-180 60.7139 21.4285)" fill="#866E63"/>
<rect x="57.1426" y="17.8572" width="3.57143" height="3.57143" transform="rotate(-180 57.1426 17.8572)" fill="#866E63"/>
<rect x="57.1426" y="14.2856" width="3.57143" height="3.57143" transform="rotate(-180 57.1426 14.2856)" fill="#866E63"/>
<rect x="53.5713" y="10.7144" width="3.57143" height="3.57143" transform="rotate(-180 53.5713 10.7144)" fill="#866E63"/>
<rect x="64.2852" y="28.5713" width="3.57143" height="3.57143" transform="rotate(-180 64.2852 28.5713)" fill="#866E63"/>
<rect x="85.7139" y="42.8572" width="3.57143" height="3.57143" transform="rotate(-180 85.7139 42.8572)" fill="#866E63"/>
<rect x="78.5713" y="39.2856" width="3.57143" height="3.57143" transform="rotate(-180 78.5713 39.2856)" fill="#866E63"/>
<rect x="75" y="35.7144" width="3.57143" height="3.57143" transform="rotate(-180 75 35.7144)" fill="#866E63"/>
<rect x="71.4287" y="32.1428" width="3.57143" height="3.57143" transform="rotate(-180 71.4287 32.1428)" fill="#866E63"/>
<rect x="67.8574" y="28.5713" width="3.57143" height="3.57143" transform="rotate(-180 67.8574 28.5713)" fill="#866E63"/>
<rect x="82.1426" y="42.8572" width="3.57143" height="3.57143" transform="rotate(-180 82.1426 42.8572)" fill="#866E63"/>
<rect x="85.7139" y="60.7144" width="3.57143" height="3.57143" transform="rotate(-180 85.7139 60.7144)" fill="#866E63"/>
<rect x="85.7139" y="57.1428" width="3.57143" height="3.57143" transform="rotate(-180 85.7139 57.1428)" fill="#866E63"/>
<rect x="85.7139" y="53.5713" width="3.57143" height="3.57143" transform="rotate(-180 85.7139 53.5713)" fill="#866E63"/>
<rect x="85.7139" y="50" width="3.57143" height="3.57143" transform="rotate(-180 85.7139 50)" fill="#866E63"/>
<rect x="85.7139" y="46.4285" width="3.57143" height="3.57143" transform="rotate(-180 85.7139 46.4285)" fill="#866E63"/>
<rect x="96.4287" y="71.4285" width="3.57143" height="3.57143" transform="rotate(-180 96.4287 71.4285)" fill="#866E63"/>
<rect x="92.8574" y="67.8572" width="3.57143" height="3.57143" transform="rotate(-180 92.8574 67.8572)" fill="#866E63"/>
<rect x="89.2861" y="64.2856" width="3.57143" height="3.57143" transform="rotate(-180 89.2861 64.2856)" fill="#866E63"/>
<rect x="100" y="78.5713" width="3.57143" height="3.57143" transform="rotate(-180 100 78.5713)" fill="#866E63"/>
<rect x="96.4287" y="75" width="3.57143" height="3.57143" transform="rotate(-180 96.4287 75)" fill="#866E63"/>
<path d="M27.4999 80.3572V71.0715L33.2141 66.7857V55C38.6903 52.8572 49.7856 48.3572 50.357 47.5C50.9284 46.6429 62.9761 39.7619 68.9284 36.4286L71.0713 31.0715H58.5713L52.4999 42.8572C49.7618 42.1429 44.2856 40.2858 44.2856 38.5715C44.2856 36.8572 49.7618 28.8096 52.4999 25L50.357 14.6429" stroke="#554A59"/>
<rect x="28.5713" y="82.1428" width="3.57143" height="3.57143" transform="rotate(-180 28.5713 82.1428)" fill="#554A59"/>
<rect x="28.5713" y="78.5713" width="3.57143" height="3.57143" transform="rotate(-180 28.5713 78.5713)" fill="#554A59"/>
<rect x="28.5713" y="75" width="3.57143" height="3.57143" transform="rotate(-180 28.5713 75)" fill="#554A59"/>
<rect x="28.5713" y="71.4285" width="3.57143" height="3.57143" transform="rotate(-180 28.5713 71.4285)" fill="#554A59"/>
<rect x="32.1426" y="71.4285" width="3.57143" height="3.57143" transform="rotate(-180 32.1426 71.4285)" fill="#554A59"/>
<rect x="35.7139" y="67.8572" width="3.57143" height="3.57143" transform="rotate(-180 35.7139 67.8572)" fill="#554A59"/>
<rect x="35.7139" y="64.2856" width="3.57143" height="3.57143" transform="rotate(-180 35.7139 64.2856)" fill="#554A59"/>
<rect x="35.7139" y="60.7144" width="3.57143" height="3.57143" transform="rotate(-180 35.7139 60.7144)" fill="#554A59"/>
<rect x="35.7139" y="57.1428" width="3.57143" height="3.57143" transform="rotate(-180 35.7139 57.1428)" fill="#554A59"/>
<rect x="42.8574" y="53.5713" width="3.57143" height="3.57143" transform="rotate(-180 42.8574 53.5713)" fill="#554A59"/>
<rect x="50" y="50" width="3.57143" height="3.57143" transform="rotate(-180 50 50)" fill="#554A59"/>
<rect x="46.4287" y="53.5713" width="3.57143" height="3.57143" transform="rotate(-180 46.4287 53.5713)" fill="#554A59"/>
<rect x="39.2861" y="53.5713" width="3.57143" height="3.57143" transform="rotate(-180 39.2861 53.5713)" fill="#554A59"/>
<rect x="53.5713" y="50" width="3.57143" height="3.57143" transform="rotate(-180 53.5713 50)" fill="#554A59"/>
<rect x="57.1426" y="46.4285" width="3.57143" height="3.57143" transform="rotate(-180 57.1426 46.4285)" fill="#554A59"/>
<rect x="64.2852" y="42.8572" width="3.57143" height="3.57143" transform="rotate(-180 64.2852 42.8572)" fill="#554A59"/>
<rect x="67.8574" y="39.2856" width="3.57143" height="3.57143" transform="rotate(-180 67.8574 39.2856)" fill="#554A59"/>
<rect x="60.7139" y="42.8572" width="3.57143" height="3.57143" transform="rotate(-180 60.7139 42.8572)" fill="#554A59"/>
<rect x="71.4287" y="39.2856" width="3.57143" height="3.57143" transform="rotate(-180 71.4287 39.2856)" fill="#554A59"/>
<rect x="71.4287" y="35.7144" width="3.57143" height="3.57143" transform="rotate(-180 71.4287 35.7144)" fill="#554A59"/>
<rect x="71.4287" y="32.1428" width="3.57143" height="3.57143" transform="rotate(-180 71.4287 32.1428)" fill="#554A59"/>
<rect x="67.8574" y="32.1428" width="3.57143" height="3.57143" transform="rotate(-180 67.8574 32.1428)" fill="#554A59"/>
<rect x="64.2852" y="32.1428" width="3.57143" height="3.57143" transform="rotate(-180 64.2852 32.1428)" fill="#554A59"/>
<rect x="60.7139" y="32.1428" width="3.57143" height="3.57143" transform="rotate(-180 60.7139 32.1428)" fill="#554A59"/>
<rect x="53.5713" y="42.8572" width="3.57143" height="3.57143" transform="rotate(-180 53.5713 42.8572)" fill="#554A59"/>
<rect x="57.1426" y="39.2856" width="3.57143" height="3.57143" transform="rotate(-180 57.1426 39.2856)" fill="#554A59"/>
<rect x="57.1426" y="35.7144" width="3.57143" height="3.57143" transform="rotate(-180 57.1426 35.7144)" fill="#554A59"/>
<rect x="50" y="42.8572" width="3.57143" height="3.57143" transform="rotate(-180 50 42.8572)" fill="#554A59"/>
<rect x="46.4287" y="42.8572" width="3.57143" height="3.57143" transform="rotate(-180 46.4287 42.8572)" fill="#554A59"/>
<rect x="46.4287" y="39.2856" width="3.57143" height="3.57143" transform="rotate(-180 46.4287 39.2856)" fill="#554A59"/>
<rect x="50" y="35.7144" width="3.57143" height="3.57143" transform="rotate(-180 50 35.7144)" fill="#554A59"/>
<rect x="50" y="32.1428" width="3.57143" height="3.57143" transform="rotate(-180 50 32.1428)" fill="#554A59"/>
<rect x="53.5713" y="28.5713" width="3.57143" height="3.57143" transform="rotate(-180 53.5713 28.5713)" fill="#554A59"/>
<rect x="53.5713" y="25" width="3.57143" height="3.57143" transform="rotate(-180 53.5713 25)" fill="#554A59"/>
<rect x="53.5713" y="21.4285" width="3.57143" height="3.57143" transform="rotate(-180 53.5713 21.4285)" fill="#554A59"/>
<rect x="53.5713" y="17.8572" width="3.57143" height="3.57143" transform="rotate(-180 53.5713 17.8572)" fill="#554A59"/>
<path d="M20.3571 60.7144L24.6429 43.5715L32.8571 37.1429V32.1429L35.3571 27.5001L43.2143 22.1429L45.3571 16.0715L48.9286 11.4286L50 6.78579" stroke="#554A59"/>
<rect x="21.4287" y="60.7144" width="3.57143" height="3.57143" transform="rotate(-180 21.4287 60.7144)" fill="#554A59"/>
<rect x="25" y="57.1428" width="3.57143" height="3.57143" transform="rotate(-180 25 57.1428)" fill="#554A59"/>
<rect x="25" y="53.5715" width="3.57143" height="3.57143" transform="rotate(-180 25 53.5715)" fill="#554A59"/>
<rect x="25" y="50" width="3.57143" height="3.57143" transform="rotate(-180 25 50)" fill="#554A59"/>
<rect x="25" y="46.4287" width="3.57143" height="3.57143" transform="rotate(-180 25 46.4287)" fill="#554A59"/>
<rect x="28.5713" y="42.8572" width="3.57143" height="3.57143" transform="rotate(-180 28.5713 42.8572)" fill="#554A59"/>
<rect x="35.7139" y="39.2856" width="3.57143" height="3.57143" transform="rotate(-180 35.7139 39.2856)" fill="#554A59"/>
<rect x="32.1426" y="39.2856" width="3.57143" height="3.57143" transform="rotate(-180 32.1426 39.2856)" fill="#554A59"/>
<rect x="35.7139" y="35.7144" width="3.57143" height="3.57143" transform="rotate(-180 35.7139 35.7144)" fill="#554A59"/>
<rect x="35.7139" y="32.1428" width="3.57143" height="3.57143" transform="rotate(-180 35.7139 32.1428)" fill="#554A59"/>
<rect x="35.7139" y="28.5715" width="3.57143" height="3.57143" transform="rotate(-180 35.7139 28.5715)" fill="#554A59"/>
<rect x="39.2852" y="28.5715" width="3.57143" height="3.57143" transform="rotate(-180 39.2852 28.5715)" fill="#554A59"/>
<rect x="42.8574" y="25" width="3.57143" height="3.57143" transform="rotate(-180 42.8574 25)" fill="#554A59"/>
<rect x="46.4287" y="25" width="3.57143" height="3.57143" transform="rotate(-180 46.4287 25)" fill="#554A59"/>
<rect x="46.4287" y="21.4287" width="3.57143" height="3.57143" transform="rotate(-180 46.4287 21.4287)" fill="#554A59"/>
<rect x="46.4287" y="17.8572" width="3.57143" height="3.57143" transform="rotate(-180 46.4287 17.8572)" fill="#554A59"/>
<rect x="50" y="14.2856" width="3.57143" height="3.57143" transform="rotate(-180 50 14.2856)" fill="#554A59"/>
<rect x="50" y="10.7144" width="3.57143" height="3.57143" transform="rotate(-180 50 10.7144)" fill="#554A59"/>
<rect x="50" y="7.14282" width="3.57143" height="3.57143" transform="rotate(-180 50 7.14282)" fill="#554A59"/>
<path d="M66.7853 72.5001H54.6424L48.2139 69.6429L46.7853 62.1429L56.4282 58.9286L64.9996 49.2858L60.7139 58.9286L56.4282 63.5715L63.2139 67.5001M63.2139 67.5001V69.6429L66.7853 65.7144L72.4996 67.5001L75.7139 56.7858C74.1662 58.0953 70.7853 61.0001 69.6424 62.1429C68.4996 63.2858 64.8805 63.5715 63.2139 63.5715V67.5001ZM19.2853 80.7144L12.8567 75.7144C12.3805 73.5715 11.4282 68.9286 11.4282 67.5001C11.4282 66.0715 11.4282 63.3334 11.4282 62.1429L7.14244 63.5715V72.5001L11.4282 77.8572L10.3567 65.7144L7.14244 78.9286L11.4282 80.7144H14.9996L31.4282 65.7144" stroke="#554A59"/>
<rect x="71.4287" y="64.2856" width="3.57143" height="3.57143" transform="rotate(-180 71.4287 64.2856)" fill="#554A59"/>
<rect x="67.8574" y="64.2856" width="3.57143" height="3.57143" transform="rotate(-180 67.8574 64.2856)" fill="#554A59"/>
<rect x="64.2852" y="64.2856" width="3.57143" height="3.57143" transform="rotate(-180 64.2852 64.2856)" fill="#554A59"/>
<rect x="75" y="60.7144" width="3.57143" height="3.57143" transform="rotate(-180 75 60.7144)" fill="#554A59"/>
<rect x="78.5713" y="57.1428" width="3.57143" height="3.57143" transform="rotate(-180 78.5713 57.1428)" fill="#554A59"/>
<rect x="75" y="67.8572" width="3.57143" height="3.57143" transform="rotate(-180 75 67.8572)" fill="#554A59"/>
<rect x="75" y="64.2856" width="3.57143" height="3.57143" transform="rotate(-180 75 64.2856)" fill="#554A59"/>
<rect x="78.5713" y="60.7144" width="3.57143" height="3.57143" transform="rotate(-180 78.5713 60.7144)" fill="#554A59"/>
<rect x="71.4287" y="67.8572" width="3.57143" height="3.57143" transform="rotate(-180 71.4287 67.8572)" fill="#554A59"/>
<rect x="67.8574" y="67.8572" width="3.57143" height="3.57143" transform="rotate(-180 67.8574 67.8572)" fill="#554A59"/>
<rect x="64.2852" y="71.4285" width="3.57143" height="3.57143" transform="rotate(-180 64.2852 71.4285)" fill="#554A59"/>
<rect x="67.8574" y="75" width="3.57143" height="3.57143" transform="rotate(-180 67.8574 75)" fill="#554A59"/>
<rect x="64.2852" y="75" width="3.57143" height="3.57143" transform="rotate(-180 64.2852 75)" fill="#554A59"/>
<rect x="60.7139" y="75" width="3.57143" height="3.57143" transform="rotate(-180 60.7139 75)" fill="#554A59"/>
<rect x="57.1426" y="75" width="3.57143" height="3.57143" transform="rotate(-180 57.1426 75)" fill="#554A59"/>
<rect x="50" y="71.4285" width="3.57143" height="3.57143" transform="rotate(-180 50 71.4285)" fill="#554A59"/>
<rect x="53.5713" y="71.4285" width="3.57143" height="3.57143" transform="rotate(-180 53.5713 71.4285)" fill="#554A59"/>
<rect x="50" y="67.8572" width="3.57143" height="3.57143" transform="rotate(-180 50 67.8572)" fill="#554A59"/>
<rect x="50" y="64.2856" width="3.57143" height="3.57143" transform="rotate(-180 50 64.2856)" fill="#554A59"/>
<rect x="57.1426" y="60.7144" width="3.57143" height="3.57143" transform="rotate(-180 57.1426 60.7144)" fill="#554A59"/>
<rect x="53.5713" y="60.7144" width="3.57143" height="3.57143" transform="rotate(-180 53.5713 60.7144)" fill="#554A59"/>
<rect x="60.7139" y="57.1428" width="3.57143" height="3.57143" transform="rotate(-180 60.7139 57.1428)" fill="#554A59"/>
<rect x="64.2852" y="53.5713" width="3.57143" height="3.57143" transform="rotate(-180 64.2852 53.5713)" fill="#554A59"/>
<rect x="67.8574" y="50" width="3.57143" height="3.57143" transform="rotate(-180 67.8574 50)" fill="#554A59"/>
<rect x="60.7139" y="60.7144" width="3.57143" height="3.57143" transform="rotate(-180 60.7139 60.7144)" fill="#554A59"/>
<rect x="64.2852" y="57.1428" width="3.57143" height="3.57143" transform="rotate(-180 64.2852 57.1428)" fill="#554A59"/>
<rect x="60.7139" y="64.2856" width="3.57143" height="3.57143" transform="rotate(-180 60.7139 64.2856)" fill="#554A59"/>
<rect x="57.1426" y="64.2856" width="3.57143" height="3.57143" transform="rotate(-180 57.1426 64.2856)" fill="#554A59"/>
<rect x="64.2852" y="67.8572" width="3.57143" height="3.57143" transform="rotate(-180 64.2852 67.8572)" fill="#554A59"/>
<rect x="60.7139" y="67.8572" width="3.57143" height="3.57143" transform="rotate(-180 60.7139 67.8572)" fill="#554A59"/>
<rect x="21.4287" y="82.1428" width="3.57143" height="3.57143" transform="rotate(-180 21.4287 82.1428)" fill="#554A59"/>
<rect x="14.2852" y="78.5713" width="3.57143" height="3.57143" transform="rotate(-180 14.2852 78.5713)" fill="#554A59"/>
<rect x="17.8574" y="78.5713" width="3.57143" height="3.57143" transform="rotate(-180 17.8574 78.5713)" fill="#554A59"/>
<rect x="14.2852" y="75" width="3.57143" height="3.57143" transform="rotate(-180 14.2852 75)" fill="#554A59"/>
<rect x="14.2852" y="71.4285" width="3.57143" height="3.57143" transform="rotate(-180 14.2852 71.4285)" fill="#554A59"/>
<rect x="14.2852" y="67.8572" width="3.57143" height="3.57143" transform="rotate(-180 14.2852 67.8572)" fill="#554A59"/>
<rect x="14.2852" y="64.2856" width="3.57143" height="3.57143" transform="rotate(-180 14.2852 64.2856)" fill="#554A59"/>
<rect x="10.7139" y="64.2856" width="3.57143" height="3.57143" transform="rotate(-180 10.7139 64.2856)" fill="#554A59"/>
<rect x="7.14258" y="64.2856" width="3.57143" height="3.57143" transform="rotate(-180 7.14258 64.2856)" fill="#554A59"/>
<rect x="7.14258" y="71.4285" width="3.57143" height="3.57143" transform="rotate(-180 7.14258 71.4285)" fill="#554A59"/>
<rect x="7.14258" y="67.8572" width="3.57143" height="3.57143" transform="rotate(-180 7.14258 67.8572)" fill="#554A59"/>
<rect x="7.14258" y="75" width="3.57143" height="3.57143" transform="rotate(-180 7.14258 75)" fill="#554A59"/>
<rect x="10.7139" y="78.5713" width="3.57143" height="3.57143" transform="rotate(-180 10.7139 78.5713)" fill="#554A59"/>
<rect x="10.7139" y="75" width="3.57143" height="3.57143" transform="rotate(-180 10.7139 75)" fill="#554A59"/>
<rect x="10.7139" y="71.4285" width="3.57143" height="3.57143" transform="rotate(-180 10.7139 71.4285)" fill="#554A59"/>
<rect x="10.7139" y="67.8572" width="3.57143" height="3.57143" transform="rotate(-180 10.7139 67.8572)" fill="#554A59"/>
<rect x="7.14258" y="82.1428" width="3.57143" height="3.57143" transform="rotate(-180 7.14258 82.1428)" fill="#554A59"/>
<rect x="10.7139" y="82.1428" width="3.57143" height="3.57143" transform="rotate(-180 10.7139 82.1428)" fill="#554A59"/>
<rect x="14.2852" y="82.1428" width="3.57143" height="3.57143" transform="rotate(-180 14.2852 82.1428)" fill="#554A59"/>
<rect x="17.8574" y="82.1428" width="3.57143" height="3.57143" transform="rotate(-180 17.8574 82.1428)" fill="#554A59"/>
<rect x="21.4287" y="78.5713" width="3.57143" height="3.57143" transform="rotate(-180 21.4287 78.5713)" fill="#554A59"/>
<rect x="25" y="75" width="3.57143" height="3.57143" transform="rotate(-180 25 75)" fill="#554A59"/>
<rect x="28.5713" y="71.4285" width="3.57143" height="3.57143" transform="rotate(-180 28.5713 71.4285)" fill="#554A59"/>
<rect x="32.1426" y="67.8572" width="3.57143" height="3.57143" transform="rotate(-180 32.1426 67.8572)" fill="#554A59"/>
<path d="M31.4287 30L29.2859 34.2857L24.643 37.5L19.643 46.0714V54.6428" stroke="#554A59"/>
<rect x="32.1426" y="35.7141" width="3.57143" height="3.57143" transform="rotate(-180 32.1426 35.7141)" fill="#554A59"/>
<rect x="32.1426" y="32.1428" width="3.57143" height="3.57143" transform="rotate(-180 32.1426 32.1428)" fill="#554A59"/>
<rect x="25" y="39.2856" width="3.57143" height="3.57143" transform="rotate(-180 25 39.2856)" fill="#554A59"/>
<rect x="28.5713" y="39.2856" width="3.57143" height="3.57143" transform="rotate(-180 28.5713 39.2856)" fill="#554A59"/>
<rect x="21.4287" y="46.4285" width="3.57143" height="3.57143" transform="rotate(-180 21.4287 46.4285)" fill="#554A59"/>
<rect x="25" y="42.8572" width="3.57143" height="3.57143" transform="rotate(-180 25 42.8572)" fill="#554A59"/>
<rect x="21.4287" y="53.5713" width="3.57143" height="3.57143" transform="rotate(-180 21.4287 53.5713)" fill="#554A59"/>
<rect x="21.4287" y="50" width="3.57143" height="3.57143" transform="rotate(-180 21.4287 50)" fill="#554A59"/>
<rect x="21.4287" y="57.1428" width="3.57143" height="3.57143" transform="rotate(-180 21.4287 57.1428)" fill="#554A59"/>
<path d="M38.571 55.7144L36.4282 58.5715V53.9287H43.2139L38.571 58.5715" stroke="#554A59"/>
<rect x="39.2861" y="60.7144" width="3.57143" height="3.57143" transform="rotate(-180 39.2861 60.7144)" fill="#554A59"/>
<rect x="39.2861" y="57.1428" width="3.57143" height="3.57143" transform="rotate(-180 39.2861 57.1428)" fill="#554A59"/>
<rect x="42.8574" y="57.1428" width="3.57143" height="3.57143" transform="rotate(-180 42.8574 57.1428)" fill="#554A59"/>
<rect x="46.4287" y="57.1428" width="3.57143" height="3.57143" transform="rotate(-180 46.4287 57.1428)" fill="#554A59"/>
<rect x="21.4287" y="60.7144" width="3.57143" height="3.57143" transform="rotate(-180 21.4287 60.7144)" fill="#866E63"/>
<rect x="25" y="57.1428" width="3.57143" height="3.57143" transform="rotate(-180 25 57.1428)" fill="#866E63"/>
<rect x="25" y="53.5715" width="3.57143" height="3.57143" transform="rotate(-180 25 53.5715)" fill="#866E63"/>
<rect x="25" y="50" width="3.57143" height="3.57143" transform="rotate(-180 25 50)" fill="#866E63"/>
<rect x="25" y="46.4287" width="3.57143" height="3.57143" transform="rotate(-180 25 46.4287)" fill="#866E63"/>
<rect x="28.5713" y="42.8572" width="3.57143" height="3.57143" transform="rotate(-180 28.5713 42.8572)" fill="#866E63"/>
<rect x="35.7139" y="39.2856" width="3.57143" height="3.57143" transform="rotate(-180 35.7139 39.2856)" fill="#866E63"/>
<rect x="32.1426" y="39.2856" width="3.57143" height="3.57143" transform="rotate(-180 32.1426 39.2856)" fill="#866E63"/>
<rect x="35.7139" y="35.7144" width="3.57143" height="3.57143" transform="rotate(-180 35.7139 35.7144)" fill="#866E63"/>
<rect x="35.7139" y="32.1428" width="3.57143" height="3.57143" transform="rotate(-180 35.7139 32.1428)" fill="#866E63"/>
<rect x="35.7139" y="28.5715" width="3.57143" height="3.57143" transform="rotate(-180 35.7139 28.5715)" fill="#866E63"/>
<rect x="39.2861" y="28.5715" width="3.57143" height="3.57143" transform="rotate(-180 39.2861 28.5715)" fill="#866E63"/>
<rect x="42.8574" y="25" width="3.57143" height="3.57143" transform="rotate(-180 42.8574 25)" fill="#866E63"/>
<rect x="46.4287" y="25" width="3.57143" height="3.57143" transform="rotate(-180 46.4287 25)" fill="#866E63"/>
<rect x="46.4287" y="21.4287" width="3.57143" height="3.57143" transform="rotate(-180 46.4287 21.4287)" fill="#866E63"/>
<rect x="46.4287" y="17.8572" width="3.57143" height="3.57143" transform="rotate(-180 46.4287 17.8572)" fill="#866E63"/>
<rect x="50" y="14.2856" width="3.57143" height="3.57143" transform="rotate(-180 50 14.2856)" fill="#866E63"/>
<rect x="50" y="10.7144" width="3.57143" height="3.57143" transform="rotate(-180 50 10.7144)" fill="#866E63"/>
<rect x="50" y="7.14282" width="3.57143" height="3.57143" transform="rotate(-180 50 7.14282)" fill="#866E63"/>
<rect x="53.5713" y="7.14282" width="3.57143" height="3.57143" transform="rotate(-180 53.5713 7.14282)" fill="#866E63"/>
<rect x="28.5713" y="82.1428" width="3.57143" height="3.57143" transform="rotate(-180 28.5713 82.1428)" fill="#554A59"/>
<rect x="28.5713" y="78.5713" width="3.57143" height="3.57143" transform="rotate(-180 28.5713 78.5713)" fill="#554A59"/>
<rect x="28.5713" y="75" width="3.57143" height="3.57143" transform="rotate(-180 28.5713 75)" fill="#554A59"/>
<rect x="28.5713" y="71.4285" width="3.57143" height="3.57143" transform="rotate(-180 28.5713 71.4285)" fill="#554A59"/>
<rect x="32.1426" y="71.4285" width="3.57143" height="3.57143" transform="rotate(-180 32.1426 71.4285)" fill="#554A59"/>
<rect x="35.7139" y="67.8572" width="3.57143" height="3.57143" transform="rotate(-180 35.7139 67.8572)" fill="#554A59"/>
<rect x="35.7139" y="64.2856" width="3.57143" height="3.57143" transform="rotate(-180 35.7139 64.2856)" fill="#554A59"/>
<rect x="35.7139" y="60.7144" width="3.57143" height="3.57143" transform="rotate(-180 35.7139 60.7144)" fill="#554A59"/>
<rect x="35.7139" y="57.1428" width="3.57143" height="3.57143" transform="rotate(-180 35.7139 57.1428)" fill="#554A59"/>
<rect x="42.8574" y="53.5713" width="3.57143" height="3.57143" transform="rotate(-180 42.8574 53.5713)" fill="#554A59"/>
<rect x="50" y="50" width="3.57143" height="3.57143" transform="rotate(-180 50 50)" fill="#554A59"/>
<rect x="46.4287" y="53.5713" width="3.57143" height="3.57143" transform="rotate(-180 46.4287 53.5713)" fill="#554A59"/>
<rect x="39.2861" y="53.5713" width="3.57143" height="3.57143" transform="rotate(-180 39.2861 53.5713)" fill="#554A59"/>
<rect x="53.5713" y="50" width="3.57143" height="3.57143" transform="rotate(-180 53.5713 50)" fill="#554A59"/>
<rect x="57.1426" y="46.4285" width="3.57143" height="3.57143" transform="rotate(-180 57.1426 46.4285)" fill="#554A59"/>
<rect x="64.2852" y="42.8572" width="3.57143" height="3.57143" transform="rotate(-180 64.2852 42.8572)" fill="#554A59"/>
<rect x="67.8574" y="39.2856" width="3.57143" height="3.57143" transform="rotate(-180 67.8574 39.2856)" fill="#554A59"/>
<rect x="60.7139" y="42.8572" width="3.57143" height="3.57143" transform="rotate(-180 60.7139 42.8572)" fill="#554A59"/>
<rect x="71.4287" y="39.2856" width="3.57143" height="3.57143" transform="rotate(-180 71.4287 39.2856)" fill="#554A59"/>
<rect x="71.4287" y="35.7144" width="3.57143" height="3.57143" transform="rotate(-180 71.4287 35.7144)" fill="#554A59"/>
<rect x="71.4287" y="32.1428" width="3.57143" height="3.57143" transform="rotate(-180 71.4287 32.1428)" fill="#554A59"/>
<rect x="67.8574" y="32.1428" width="3.57143" height="3.57143" transform="rotate(-180 67.8574 32.1428)" fill="#554A59"/>
<rect x="64.2852" y="32.1428" width="3.57143" height="3.57143" transform="rotate(-180 64.2852 32.1428)" fill="#554A59"/>
<rect x="60.7139" y="32.1428" width="3.57143" height="3.57143" transform="rotate(-180 60.7139 32.1428)" fill="#554A59"/>
<rect x="53.5713" y="42.8572" width="3.57143" height="3.57143" transform="rotate(-180 53.5713 42.8572)" fill="#554A59"/>
<rect x="57.1426" y="39.2856" width="3.57143" height="3.57143" transform="rotate(-180 57.1426 39.2856)" fill="#554A59"/>
<rect x="57.1426" y="35.7144" width="3.57143" height="3.57143" transform="rotate(-180 57.1426 35.7144)" fill="#554A59"/>
<rect x="50" y="42.8572" width="3.57143" height="3.57143" transform="rotate(-180 50 42.8572)" fill="#554A59"/>
<rect x="46.4287" y="42.8572" width="3.57143" height="3.57143" transform="rotate(-180 46.4287 42.8572)" fill="#554A59"/>
<rect x="46.4287" y="39.2856" width="3.57143" height="3.57143" transform="rotate(-180 46.4287 39.2856)" fill="#554A59"/>
<rect x="50" y="35.7144" width="3.57143" height="3.57143" transform="rotate(-180 50 35.7144)" fill="#554A59"/>
<rect x="50" y="32.1428" width="3.57143" height="3.57143" transform="rotate(-180 50 32.1428)" fill="#554A59"/>
<rect x="53.5713" y="28.5713" width="3.57143" height="3.57143" transform="rotate(-180 53.5713 28.5713)" fill="#554A59"/>
<rect x="53.5713" y="25" width="3.57143" height="3.57143" transform="rotate(-180 53.5713 25)" fill="#554A59"/>
<rect x="53.5713" y="21.4285" width="3.57143" height="3.57143" transform="rotate(-180 53.5713 21.4285)" fill="#554A59"/>
<rect x="53.5713" y="17.8572" width="3.57143" height="3.57143" transform="rotate(-180 53.5713 17.8572)" fill="#554A59"/>
<rect x="46.4287" y="14.2856" width="3.57143" height="3.57143" transform="rotate(-180 46.4287 14.2856)" fill="#554A59"/>
<rect x="50" y="14.2856" width="3.57143" height="3.57143" transform="rotate(-180 50 14.2856)" fill="#554A59"/>
<path d="M97.1426 78.5713L11.4283 78.5713M11.4283 78.5713H5.35686L7.85686 72.1427L5.35686 64.9999L11.4283 78.5713ZM11.4283 78.5713L94.6426 75.357" stroke="#2A2235"/>
<rect x="7.14258" y="78.5713" width="3.57143" height="3.57143" transform="rotate(-180 7.14258 78.5713)" fill="#2A2235"/>
<rect x="10.7139" y="75" width="3.57143" height="3.57143" transform="rotate(-180 10.7139 75)" fill="#2A2235"/>
<rect x="7.14258" y="71.4285" width="3.57143" height="3.57143" transform="rotate(-180 7.14258 71.4285)" fill="#2A2235"/>
<rect x="7.14258" y="67.8569" width="3.57143" height="3.57143" transform="rotate(-180 7.14258 67.8569)" fill="#2A2235"/>
<rect x="96.4287" y="78.5713" width="3.57143" height="3.57143" transform="rotate(-180 96.4287 78.5713)" fill="#2A2235"/>
<rect x="92.8574" y="78.5713" width="3.57143" height="3.57143" transform="rotate(-180 92.8574 78.5713)" fill="#2A2235"/>
<rect x="89.2861" y="78.5713" width="3.57143" height="3.57143" transform="rotate(-180 89.2861 78.5713)" fill="#2A2235"/>
<rect x="85.7139" y="78.5713" width="3.57143" height="3.57143" transform="rotate(-180 85.7139 78.5713)" fill="#2A2235"/>
<rect x="82.1426" y="78.5713" width="3.57143" height="3.57143" transform="rotate(-180 82.1426 78.5713)" fill="#2A2235"/>
<rect x="78.5713" y="78.5713" width="3.57143" height="3.57143" transform="rotate(-180 78.5713 78.5713)" fill="#2A2235"/>
<rect x="75" y="78.5713" width="3.57143" height="3.57143" transform="rotate(-180 75 78.5713)" fill="#2A2235"/>
<rect x="71.4287" y="78.5713" width="3.57143" height="3.57143" transform="rotate(-180 71.4287 78.5713)" fill="#2A2235"/>
<rect x="67.8574" y="78.5713" width="3.57143" height="3.57143" transform="rotate(-180 67.8574 78.5713)" fill="#2A2235"/>
<rect x="64.2852" y="78.5713" width="3.57143" height="3.57143" transform="rotate(-180 64.2852 78.5713)" fill="#2A2235"/>
<rect x="60.7139" y="78.5713" width="3.57143" height="3.57143" transform="rotate(-180 60.7139 78.5713)" fill="#2A2235"/>
<rect x="57.1426" y="78.5713" width="3.57143" height="3.57143" transform="rotate(-180 57.1426 78.5713)" fill="#2A2235"/>
<rect x="53.5713" y="78.5713" width="3.57143" height="3.57143" transform="rotate(-180 53.5713 78.5713)" fill="#2A2235"/>
<rect x="50" y="78.5713" width="3.57143" height="3.57143" transform="rotate(-180 50 78.5713)" fill="#2A2235"/>
<rect x="46.4287" y="78.5713" width="3.57143" height="3.57143" transform="rotate(-180 46.4287 78.5713)" fill="#2A2235"/>
<rect x="42.8574" y="78.5713" width="3.57143" height="3.57143" transform="rotate(-180 42.8574 78.5713)" fill="#2A2235"/>
<rect x="39.2861" y="78.5713" width="3.57143" height="3.57143" transform="rotate(-180 39.2861 78.5713)" fill="#2A2235"/>
<rect x="35.7139" y="78.5713" width="3.57143" height="3.57143" transform="rotate(-180 35.7139 78.5713)" fill="#2A2235"/>
<rect x="32.1426" y="78.5713" width="3.57143" height="3.57143" transform="rotate(-180 32.1426 78.5713)" fill="#2A2235"/>
<rect x="28.5713" y="78.5713" width="3.57143" height="3.57143" transform="rotate(-180 28.5713 78.5713)" fill="#2A2235"/>
<rect x="25" y="78.5713" width="3.57143" height="3.57143" transform="rotate(-180 25 78.5713)" fill="#2A2235"/>
<rect x="21.4287" y="78.5713" width="3.57143" height="3.57143" transform="rotate(-180 21.4287 78.5713)" fill="#2A2235"/>
<rect x="17.8574" y="78.5713" width="3.57143" height="3.57143" transform="rotate(-180 17.8574 78.5713)" fill="#2A2235"/>
<rect x="14.2852" y="78.5713" width="3.57143" height="3.57143" transform="rotate(-180 14.2852 78.5713)" fill="#2A2235"/>
<rect x="100" y="78.5713" width="3.57143" height="3.57143" transform="rotate(-180 100 78.5713)" fill="#2A2235"/>
<rect x="10.7139" y="78.5713" width="3.57143" height="3.57143" transform="rotate(-180 10.7139 78.5713)" fill="#2A2235"/>
<rect x="10.7139" y="71.4285" width="3.57143" height="3.57143" transform="rotate(-180 10.7139 71.4285)" fill="#2A2235"/>
<path d="M5.35687 81.0713L99.6426 81.0713" stroke="#2A2235"/>
<rect x="100" y="82.1428" width="3.57143" height="3.57143" transform="rotate(-180 100 82.1428)" fill="#2A2235"/>
<rect x="96.4287" y="82.1428" width="3.57143" height="3.57143" transform="rotate(-180 96.4287 82.1428)" fill="#2A2235"/>
<rect x="92.8574" y="82.1428" width="3.57143" height="3.57143" transform="rotate(-180 92.8574 82.1428)" fill="#2A2235"/>
<rect x="89.2861" y="82.1428" width="3.57143" height="3.57143" transform="rotate(-180 89.2861 82.1428)" fill="#2A2235"/>
<rect x="85.7139" y="82.1428" width="3.57143" height="3.57143" transform="rotate(-180 85.7139 82.1428)" fill="#2A2235"/>
<rect x="82.1426" y="82.1428" width="3.57143" height="3.57143" transform="rotate(-180 82.1426 82.1428)" fill="#2A2235"/>
<rect x="78.5713" y="82.1428" width="3.57143" height="3.57143" transform="rotate(-180 78.5713 82.1428)" fill="#2A2235"/>
<rect x="75" y="82.1428" width="3.57143" height="3.57143" transform="rotate(-180 75 82.1428)" fill="#2A2235"/>
<rect x="71.4287" y="82.1428" width="3.57143" height="3.57143" transform="rotate(-180 71.4287 82.1428)" fill="#2A2235"/>
<rect x="67.8574" y="82.1428" width="3.57143" height="3.57143" transform="rotate(-180 67.8574 82.1428)" fill="#2A2235"/>
<rect x="64.2852" y="82.1428" width="3.57143" height="3.57143" transform="rotate(-180 64.2852 82.1428)" fill="#2A2235"/>
<rect x="60.7139" y="82.1428" width="3.57143" height="3.57143" transform="rotate(-180 60.7139 82.1428)" fill="#2A2235"/>
<rect x="57.1426" y="82.1428" width="3.57143" height="3.57143" transform="rotate(-180 57.1426 82.1428)" fill="#2A2235"/>
<rect x="53.5713" y="82.1428" width="3.57143" height="3.57143" transform="rotate(-180 53.5713 82.1428)" fill="#2A2235"/>
<rect x="50" y="82.1428" width="3.57143" height="3.57143" transform="rotate(-180 50 82.1428)" fill="#2A2235"/>
<rect x="46.4287" y="82.1428" width="3.57143" height="3.57143" transform="rotate(-180 46.4287 82.1428)" fill="#2A2235"/>
<rect x="42.8574" y="82.1428" width="3.57143" height="3.57143" transform="rotate(-180 42.8574 82.1428)" fill="#2A2235"/>
<rect x="39.2861" y="82.1428" width="3.57143" height="3.57143" transform="rotate(-180 39.2861 82.1428)" fill="#2A2235"/>
<rect x="35.7139" y="82.1428" width="3.57143" height="3.57143" transform="rotate(-180 35.7139 82.1428)" fill="#2A2235"/>
<rect x="32.1426" y="82.1428" width="3.57143" height="3.57143" transform="rotate(-180 32.1426 82.1428)" fill="#2A2235"/>
<rect x="28.5713" y="82.1428" width="3.57143" height="3.57143" transform="rotate(-180 28.5713 82.1428)" fill="#2A2235"/>
<rect x="25" y="82.1428" width="3.57143" height="3.57143" transform="rotate(-180 25 82.1428)" fill="#2A2235"/>
<rect x="21.4287" y="82.1428" width="3.57143" height="3.57143" transform="rotate(-180 21.4287 82.1428)" fill="#2A2235"/>
<rect x="17.8574" y="82.1428" width="3.57143" height="3.57143" transform="rotate(-180 17.8574 82.1428)" fill="#2A2235"/>
<rect x="14.2852" y="82.1428" width="3.57143" height="3.57143" transform="rotate(-180 14.2852 82.1428)" fill="#2A2235"/>
<rect x="10.7139" y="82.1428" width="3.57143" height="3.57143" transform="rotate(-180 10.7139 82.1428)" fill="#2A2235"/>
<rect x="7.14258" y="82.1428" width="3.57143" height="3.57143" transform="rotate(-180 7.14258 82.1428)" fill="#2A2235"/>
<path d="M20.3574 51.7856H15.0003L15.0003 58.2142L15.0003 71.4285L17.1431 62.1428L20.3574 51.7856Z" stroke="#2A2235"/>
<rect x="21.4287" y="53.5713" width="3.57143" height="3.57143" transform="rotate(-180 21.4287 53.5713)" fill="#2A2235"/>
<rect x="17.8574" y="53.5713" width="3.57143" height="3.57143" transform="rotate(-180 17.8574 53.5713)" fill="#2A2235"/>
<rect x="21.4287" y="60.7141" width="3.57143" height="3.57143" transform="rotate(-180 21.4287 60.7141)" fill="#2A2235"/>
<rect x="21.4287" y="57.1428" width="3.57143" height="3.57143" transform="rotate(-180 21.4287 57.1428)" fill="#2A2235"/>
<rect x="17.8574" y="64.2856" width="3.57143" height="3.57143" transform="rotate(-180 17.8574 64.2856)" fill="#2A2235"/>
<rect x="17.8574" y="71.4285" width="3.57143" height="3.57143" transform="rotate(-180 17.8574 71.4285)" fill="#2A2235"/>
<rect x="17.8574" y="67.8569" width="3.57143" height="3.57143" transform="rotate(-180 17.8574 67.8569)" fill="#2A2235"/>
<rect x="17.8574" y="60.7141" width="3.57143" height="3.57143" transform="rotate(-180 17.8574 60.7141)" fill="#2A2235"/>
<rect x="17.8574" y="57.1428" width="3.57143" height="3.57143" transform="rotate(-180 17.8574 57.1428)" fill="#2A2235"/>
<path d="M51.7857 63.2141L57.5 68.2141" stroke="#2A2235"/>
<rect x="57.1426" y="67.8569" width="3.57143" height="3.57143" transform="rotate(-180 57.1426 67.8569)" fill="#2A2235"/>
<rect x="53.5713" y="64.2856" width="3.57143" height="3.57143" transform="rotate(-180 53.5713 64.2856)" fill="#2A2235"/>
<rect x="60.7139" y="71.4285" width="3.57143" height="3.57143" transform="rotate(-180 60.7139 71.4285)" fill="#2A2235"/>
<path d="M38.9283 26.7857L42.8569 24.2857L45.3569 17.1429H47.1426L45.3569 22.1429V26.7857M38.9283 26.7857L34.9997 29.2857L32.8569 36.7857L27.1426 42.5L39.6426 32.1429L38.9283 26.7857Z" stroke="#2A2235"/>
<rect x="46.4287" y="25" width="3.57143" height="3.57143" transform="rotate(-180 46.4287 25)" fill="#2A2235"/>
<rect x="46.4287" y="21.4287" width="3.57143" height="3.57143" transform="rotate(-180 46.4287 21.4287)" fill="#2A2235"/>
<rect x="46.4287" y="17.8572" width="3.57143" height="3.57143" transform="rotate(-180 46.4287 17.8572)" fill="#2A2235"/>
<rect x="42.8574" y="25" width="3.57143" height="3.57143" transform="rotate(-180 42.8574 25)" fill="#2A2235"/>
<rect x="35.7139" y="35.7144" width="3.57143" height="3.57143" transform="rotate(-180 35.7139 35.7144)" fill="#2A2235"/>
<rect x="35.7139" y="32.1428" width="3.57143" height="3.57143" transform="rotate(-180 35.7139 32.1428)" fill="#2A2235"/>
<rect x="35.7139" y="39.2856" width="3.57143" height="3.57143" transform="rotate(-180 35.7139 39.2856)" fill="#2A2235"/>
<rect x="28.5713" y="42.8572" width="3.57143" height="3.57143" transform="rotate(-180 28.5713 42.8572)" fill="#2A2235"/>
<rect x="32.1426" y="39.2856" width="3.57143" height="3.57143" transform="rotate(-180 32.1426 39.2856)" fill="#2A2235"/>
<rect x="32.1426" y="42.8572" width="3.57143" height="3.57143" transform="rotate(-180 32.1426 42.8572)" fill="#2A2235"/>
<rect x="39.2852" y="35.7144" width="3.57143" height="3.57143" transform="rotate(-180 39.2852 35.7144)" fill="#2A2235"/>
<rect x="42.8574" y="32.1428" width="3.57143" height="3.57143" transform="rotate(-180 42.8574 32.1428)" fill="#2A2235"/>
<rect x="39.2852" y="28.5715" width="3.57143" height="3.57143" transform="rotate(-180 39.2852 28.5715)" fill="#2A2235"/>
<rect x="42.8574" y="28.5715" width="3.57143" height="3.57143" transform="rotate(-180 42.8574 28.5715)" fill="#2A2235"/>
<rect x="46.4287" y="28.5715" width="3.57143" height="3.57143" transform="rotate(-180 46.4287 28.5715)" fill="#2A2235"/>
<rect x="50" y="17.8572" width="3.57143" height="3.57143" transform="rotate(-180 50 17.8572)" fill="#2A2235"/>
<path d="M59.9993 32.1429V37.5H62.8564" stroke="#2A2235"/>
<rect x="60.7139" y="39.2856" width="3.57143" height="3.57143" transform="rotate(-180 60.7139 39.2856)" fill="#2A2235"/>
<rect x="60.7139" y="35.7141" width="3.57143" height="3.57143" transform="rotate(-180 60.7139 35.7141)" fill="#2A2235"/>
<rect x="60.7139" y="32.1428" width="3.57143" height="3.57143" transform="rotate(-180 60.7139 32.1428)" fill="#2A2235"/>
<rect x="64.2852" y="39.2856" width="3.57143" height="3.57143" transform="rotate(-180 64.2852 39.2856)" fill="#2A2235"/>
<path d="M72.143 53.5715L76.4287 50.7144L72.143 46.7858L66.4287 58.5715L72.143 53.5715Z" stroke="#2A2235"/>
<rect x="75" y="53.5715" width="3.57143" height="3.57143" transform="rotate(-180 75 53.5715)" fill="#2A2235"/>
<rect x="78.5713" y="53.5715" width="3.57143" height="3.57143" transform="rotate(-180 78.5713 53.5715)" fill="#2A2235"/>
<rect x="71.4287" y="57.1428" width="3.57143" height="3.57143" transform="rotate(-180 71.4287 57.1428)" fill="#2A2235"/>
<rect x="67.8574" y="60.7144" width="3.57143" height="3.57143" transform="rotate(-180 67.8574 60.7144)" fill="#2A2235"/>
<rect x="71.4287" y="53.5715" width="3.57143" height="3.57143" transform="rotate(-180 71.4287 53.5715)" fill="#2A2235"/>
<rect x="75" y="50" width="3.57143" height="3.57143" transform="rotate(-180 75 50)" fill="#2A2235"/>
<path d="M88.2148 70.7141L78.9291 55.7141L83.572 47.1427L78.9291 38.9284L63.572 45.357" stroke="#2A2235"/>
<rect x="89.2861" y="71.4285" width="3.57143" height="3.57143" transform="rotate(-180 89.2861 71.4285)" fill="#2A2235"/>
<rect x="85.7148" y="67.8569" width="3.57143" height="3.57143" transform="rotate(-180 85.7148 67.8569)" fill="#2A2235"/>
<rect x="85.7148" y="64.2856" width="3.57143" height="3.57143" transform="rotate(-180 85.7148 64.2856)" fill="#2A2235"/>
<rect x="82.1436" y="60.7141" width="3.57143" height="3.57143" transform="rotate(-180 82.1436 60.7141)" fill="#2A2235"/>
<rect x="82.1436" y="57.1428" width="3.57143" height="3.57143" transform="rotate(-180 82.1436 57.1428)" fill="#2A2235"/>
<rect x="82.1436" y="53.5713" width="3.57143" height="3.57143" transform="rotate(-180 82.1436 53.5713)" fill="#2A2235"/>
<rect x="85.7148" y="50" width="3.57143" height="3.57143" transform="rotate(-180 85.7148 50)" fill="#2A2235"/>
<rect x="85.7148" y="46.4285" width="3.57143" height="3.57143" transform="rotate(-180 85.7148 46.4285)" fill="#2A2235"/>
<rect x="82.1436" y="42.8572" width="3.57143" height="3.57143" transform="rotate(-180 82.1436 42.8572)" fill="#2A2235"/>
<rect x="82.1436" y="39.2856" width="3.57143" height="3.57143" transform="rotate(-180 82.1436 39.2856)" fill="#2A2235"/>
<rect x="67.8574" y="46.4285" width="3.57143" height="3.57143" transform="rotate(-180 67.8574 46.4285)" fill="#2A2235"/>
<rect x="75" y="42.8572" width="3.57143" height="3.57143" transform="rotate(-180 75 42.8572)" fill="#2A2235"/>
<rect x="78.5723" y="42.8572" width="3.57143" height="3.57143" transform="rotate(-180 78.5723 42.8572)" fill="#2A2235"/>
<rect x="71.4287" y="42.8572" width="3.57143" height="3.57143" transform="rotate(-180 71.4287 42.8572)" fill="#2A2235"/>
<rect x="64.2861" y="46.4285" width="3.57143" height="3.57143" transform="rotate(-180 64.2861 46.4285)" fill="#2A2235"/>
<path d="M25.7141 47.4999V58.9284H31.0713L28.5713 63.5713" stroke="#554A59"/>
<rect x="28.5713" y="60.7144" width="3.57143" height="3.57143" transform="rotate(-180 28.5713 60.7144)" fill="#554A59"/>
<rect x="28.5713" y="57.1428" width="3.57143" height="3.57143" transform="rotate(-180 28.5713 57.1428)" fill="#554A59"/>
<rect x="28.5713" y="53.5713" width="3.57143" height="3.57143" transform="rotate(-180 28.5713 53.5713)" fill="#554A59"/>
<rect x="28.5713" y="50" width="3.57143" height="3.57143" transform="rotate(-180 28.5713 50)" fill="#554A59"/>
<rect x="32.1426" y="60.7144" width="3.57143" height="3.57143" transform="rotate(-180 32.1426 60.7144)" fill="#554A59"/>
<rect x="32.1426" y="64.2856" width="3.57143" height="3.57143" transform="rotate(-180 32.1426 64.2856)" fill="#554A59"/>
<rect x="28.5713" y="64.2856" width="3.57143" height="3.57143" transform="rotate(-180 28.5713 64.2856)" fill="#554A59"/>
<path d="M2.85756 82.1428L99.2861 82.1428V76.0714L97.8576 75V68.9285C96.6671 68.0952 94.1433 66.2857 93.5718 65.7143C93.0004 65.1428 91.6671 63.5714 91.0718 62.8571L86.7861 60.3571C87.2623 54.7619 87.929 43.2143 86.7861 41.7857C85.6433 40.3571 85.1195 38.8095 85.0004 38.2143C84.8814 37.5 83.929 36.0714 81.0718 36.0714C77.5004 36.0714 79.6433 34.2857 77.8576 34.2857C76.429 34.2857 76.0718 33.3333 76.0718 32.8571C75.0004 31.9047 72.7147 29.8571 72.1433 29.2857C71.429 28.5714 68.5718 27.1428 66.7861 25.3571C65.3576 23.9285 66.1909 22.8571 66.7861 22.5L61.429 18.2143L57.5004 15.7143V9.64283L54.2861 8.5714V5.35711L51.7861 2.14283L46.7861 3.92854L45.3576 8.5714L42.1433 9.64283V14.6428C42.1433 15.7857 41.429 18.4524 41.0718 19.6428L36.0718 22.5L37.5004 27.1428H28.2147V34.2857L20.3576 36.0714V40L17.1433 41.7857L18.2147 48.9285L10.3576 50.3571L9.28613 60.3571H2.85756V82.1428Z" stroke="#36312F"/>
<rect x="100" y="82.1428" width="3.57143" height="3.57143" transform="rotate(-180 100 82.1428)" fill="#36312F"/>
<rect x="96.4287" y="82.1428" width="3.57143" height="3.57143" transform="rotate(-180 96.4287 82.1428)" fill="#36312F"/>
<rect x="92.8574" y="82.1428" width="3.57143" height="3.57143" transform="rotate(-180 92.8574 82.1428)" fill="#36312F"/>
<rect x="89.2861" y="82.1428" width="3.57143" height="3.57143" transform="rotate(-180 89.2861 82.1428)" fill="#36312F"/>
<rect x="85.7139" y="82.1428" width="3.57143" height="3.57143" transform="rotate(-180 85.7139 82.1428)" fill="#36312F"/>
<rect x="82.1426" y="82.1428" width="3.57143" height="3.57143" transform="rotate(-180 82.1426 82.1428)" fill="#36312F"/>
<rect x="78.5713" y="82.1428" width="3.57143" height="3.57143" transform="rotate(-180 78.5713 82.1428)" fill="#36312F"/>
<rect x="75" y="82.1428" width="3.57143" height="3.57143" transform="rotate(-180 75 82.1428)" fill="#36312F"/>
<rect x="71.4287" y="82.1428" width="3.57143" height="3.57143" transform="rotate(-180 71.4287 82.1428)" fill="#36312F"/>
<rect x="67.8574" y="82.1428" width="3.57143" height="3.57143" transform="rotate(-180 67.8574 82.1428)" fill="#36312F"/>
<rect x="64.2852" y="82.1428" width="3.57143" height="3.57143" transform="rotate(-180 64.2852 82.1428)" fill="#36312F"/>
<rect x="60.7139" y="82.1428" width="3.57143" height="3.57143" transform="rotate(-180 60.7139 82.1428)" fill="#36312F"/>
<rect x="57.1426" y="82.1428" width="3.57143" height="3.57143" transform="rotate(-180 57.1426 82.1428)" fill="#36312F"/>
<rect x="53.5713" y="82.1428" width="3.57143" height="3.57143" transform="rotate(-180 53.5713 82.1428)" fill="#36312F"/>
<rect x="50" y="82.1428" width="3.57143" height="3.57143" transform="rotate(-180 50 82.1428)" fill="#36312F"/>
<rect x="46.4287" y="82.1428" width="3.57143" height="3.57143" transform="rotate(-180 46.4287 82.1428)" fill="#36312F"/>
<rect x="42.8574" y="82.1428" width="3.57143" height="3.57143" transform="rotate(-180 42.8574 82.1428)" fill="#36312F"/>
<rect x="39.2861" y="82.1428" width="3.57143" height="3.57143" transform="rotate(-180 39.2861 82.1428)" fill="#36312F"/>
<rect x="35.7139" y="82.1428" width="3.57143" height="3.57143" transform="rotate(-180 35.7139 82.1428)" fill="#36312F"/>
<rect x="32.1426" y="82.1428" width="3.57143" height="3.57143" transform="rotate(-180 32.1426 82.1428)" fill="#36312F"/>
<rect x="28.5713" y="82.1428" width="3.57143" height="3.57143" transform="rotate(-180 28.5713 82.1428)" fill="#36312F"/>
<rect x="25" y="82.1428" width="3.57143" height="3.57143" transform="rotate(-180 25 82.1428)" fill="#36312F"/>
<rect x="21.4287" y="82.1428" width="3.57143" height="3.57143" transform="rotate(-180 21.4287 82.1428)" fill="#36312F"/>
<rect x="17.8574" y="82.1428" width="3.57143" height="3.57143" transform="rotate(-180 17.8574 82.1428)" fill="#36312F"/>
<rect x="14.2852" y="82.1428" width="3.57143" height="3.57143" transform="rotate(-180 14.2852 82.1428)" fill="#36312F"/>
<rect x="10.7139" y="82.1428" width="3.57143" height="3.57143" transform="rotate(-180 10.7139 82.1428)" fill="#36312F"/>
<rect x="7.14258" y="82.1428" width="3.57143" height="3.57143" transform="rotate(-180 7.14258 82.1428)" fill="#36312F"/>
<rect x="3.57129" y="82.1428" width="3.57143" height="3.57143" transform="rotate(-180 3.57129 82.1428)" fill="#36312F"/>
<rect x="3.57129" y="78.5713" width="3.57143" height="3.57143" transform="rotate(-180 3.57129 78.5713)" fill="#36312F"/>
<rect x="3.57129" y="75" width="3.57143" height="3.57143" transform="rotate(-180 3.57129 75)" fill="#36312F"/>
<rect x="3.57129" y="71.4285" width="3.57143" height="3.57143" transform="rotate(-180 3.57129 71.4285)" fill="#36312F"/>
<rect x="3.57129" y="67.8572" width="3.57143" height="3.57143" transform="rotate(-180 3.57129 67.8572)" fill="#36312F"/>
<rect x="3.57129" y="64.2856" width="3.57143" height="3.57143" transform="rotate(-180 3.57129 64.2856)" fill="#36312F"/>
<rect x="3.57129" y="60.7144" width="3.57143" height="3.57143" transform="rotate(-180 3.57129 60.7144)" fill="#36312F"/>
<rect x="10.7139" y="60.7144" width="3.57143" height="3.57143" transform="rotate(-180 10.7139 60.7144)" fill="#36312F"/>
<rect x="7.14258" y="60.7144" width="3.57143" height="3.57143" transform="rotate(-180 7.14258 60.7144)" fill="#36312F"/>
<rect x="10.7139" y="57.1428" width="3.57143" height="3.57143" transform="rotate(-180 10.7139 57.1428)" fill="#36312F"/>
<rect x="10.7139" y="53.5713" width="3.57143" height="3.57143" transform="rotate(-180 10.7139 53.5713)" fill="#36312F"/>
<rect x="17.8574" y="50" width="3.57143" height="3.57143" transform="rotate(-180 17.8574 50)" fill="#36312F"/>
<rect x="14.2852" y="50" width="3.57143" height="3.57143" transform="rotate(-180 14.2852 50)" fill="#36312F"/>
<rect x="21.4287" y="50" width="3.57143" height="3.57143" transform="rotate(-180 21.4287 50)" fill="#36312F"/>
<rect x="17.8574" y="46.4285" width="3.57143" height="3.57143" transform="rotate(-180 17.8574 46.4285)" fill="#36312F"/>
<rect x="17.8574" y="42.8572" width="3.57143" height="3.57143" transform="rotate(-180 17.8574 42.8572)" fill="#36312F"/>
<rect x="21.4287" y="42.8572" width="3.57143" height="3.57143" transform="rotate(-180 21.4287 42.8572)" fill="#36312F"/>
<rect x="21.4287" y="39.2856" width="3.57143" height="3.57143" transform="rotate(-180 21.4287 39.2856)" fill="#36312F"/>
<rect x="28.5713" y="35.7144" width="3.57143" height="3.57143" transform="rotate(-180 28.5713 35.7144)" fill="#36312F"/>
<rect x="25" y="35.7144" width="3.57143" height="3.57143" transform="rotate(-180 25 35.7144)" fill="#36312F"/>
<rect x="28.5713" y="32.1428" width="3.57143" height="3.57143" transform="rotate(-180 28.5713 32.1428)" fill="#36312F"/>
<rect x="28.5713" y="28.5713" width="3.57143" height="3.57143" transform="rotate(-180 28.5713 28.5713)" fill="#36312F"/>
<rect x="39.2861" y="28.5713" width="3.57143" height="3.57143" transform="rotate(-180 39.2861 28.5713)" fill="#36312F"/>
<rect x="35.7139" y="28.5713" width="3.57143" height="3.57143" transform="rotate(-180 35.7139 28.5713)" fill="#36312F"/>
<rect x="32.1426" y="28.5713" width="3.57143" height="3.57143" transform="rotate(-180 32.1426 28.5713)" fill="#36312F"/>
<rect x="39.2861" y="25" width="3.57143" height="3.57143" transform="rotate(-180 39.2861 25)" fill="#36312F"/>
<rect x="42.8574" y="21.4285" width="3.57143" height="3.57143" transform="rotate(-180 42.8574 21.4285)" fill="#36312F"/>
<rect x="42.8574" y="17.8572" width="3.57143" height="3.57143" transform="rotate(-180 42.8574 17.8572)" fill="#36312F"/>
<rect x="42.8574" y="14.2856" width="3.57143" height="3.57143" transform="rotate(-180 42.8574 14.2856)" fill="#36312F"/>
<rect x="42.8574" y="10.7144" width="3.57143" height="3.57143" transform="rotate(-180 42.8574 10.7144)" fill="#36312F"/>
<rect x="46.4287" y="10.7144" width="3.57143" height="3.57143" transform="rotate(-180 46.4287 10.7144)" fill="#36312F"/>
<rect x="46.4287" y="7.14282" width="3.57143" height="3.57143" transform="rotate(-180 46.4287 7.14282)" fill="#36312F"/>
<rect x="50" y="7.14282" width="3.57143" height="3.57143" transform="rotate(-180 50 7.14282)" fill="#36312F"/>
<rect x="53.5713" y="3.57129" width="3.57143" height="3.57143" transform="rotate(-180 53.5713 3.57129)" fill="#36312F"/>
<rect x="50" y="3.57129" width="3.57143" height="3.57143" transform="rotate(-180 50 3.57129)" fill="#36312F"/>
<rect x="57.1426" y="7.14282" width="3.57143" height="3.57143" transform="rotate(-180 57.1426 7.14282)" fill="#36312F"/>
<rect x="57.1426" y="10.7144" width="3.57143" height="3.57143" transform="rotate(-180 57.1426 10.7144)" fill="#36312F"/>
<rect x="60.7139" y="10.7144" width="3.57143" height="3.57143" transform="rotate(-180 60.7139 10.7144)" fill="#36312F"/>
<rect x="60.7139" y="14.2856" width="3.57143" height="3.57143" transform="rotate(-180 60.7139 14.2856)" fill="#36312F"/>
<rect x="60.7139" y="17.8572" width="3.57143" height="3.57143" transform="rotate(-180 60.7139 17.8572)" fill="#36312F"/>
<rect x="64.2852" y="21.4285" width="3.57143" height="3.57143" transform="rotate(-180 64.2852 21.4285)" fill="#36312F"/>
<rect x="67.8574" y="25" width="3.57143" height="3.57143" transform="rotate(-180 67.8574 25)" fill="#36312F"/>
<rect x="67.8574" y="28.5713" width="3.57143" height="3.57143" transform="rotate(-180 67.8574 28.5713)" fill="#36312F"/>
<rect x="71.4287" y="28.5713" width="3.57143" height="3.57143" transform="rotate(-180 71.4287 28.5713)" fill="#36312F"/>
<rect x="75" y="32.1428" width="3.57143" height="3.57143" transform="rotate(-180 75 32.1428)" fill="#36312F"/>
<rect x="78.5713" y="35.7144" width="3.57143" height="3.57143" transform="rotate(-180 78.5713 35.7144)" fill="#36312F"/>
<rect x="82.1426" y="39.2856" width="3.57143" height="3.57143" transform="rotate(-180 82.1426 39.2856)" fill="#36312F"/>
<rect x="85.7139" y="39.2856" width="3.57143" height="3.57143" transform="rotate(-180 85.7139 39.2856)" fill="#36312F"/>
<rect x="89.2861" y="42.8572" width="3.57143" height="3.57143" transform="rotate(-180 89.2861 42.8572)" fill="#36312F"/>
<rect x="89.2861" y="60.7144" width="3.57143" height="3.57143" transform="rotate(-180 89.2861 60.7144)" fill="#36312F"/>
<rect x="89.2861" y="57.1428" width="3.57143" height="3.57143" transform="rotate(-180 89.2861 57.1428)" fill="#36312F"/>
<rect x="89.2861" y="53.5713" width="3.57143" height="3.57143" transform="rotate(-180 89.2861 53.5713)" fill="#36312F"/>
<rect x="89.2861" y="50" width="3.57143" height="3.57143" transform="rotate(-180 89.2861 50)" fill="#36312F"/>
<rect x="89.2861" y="46.4285" width="3.57143" height="3.57143" transform="rotate(-180 89.2861 46.4285)" fill="#36312F"/>
<rect x="92.8574" y="64.2856" width="3.57143" height="3.57143" transform="rotate(-180 92.8574 64.2856)" fill="#36312F"/>
<rect x="89.2861" y="64.2856" width="3.57143" height="3.57143" transform="rotate(-180 89.2861 64.2856)" fill="#36312F"/>
<rect x="96.4287" y="67.8572" width="3.57143" height="3.57143" transform="rotate(-180 96.4287 67.8572)" fill="#36312F"/>
<rect x="100" y="71.4285" width="3.57143" height="3.57143" transform="rotate(-180 100 71.4285)" fill="#36312F"/>
<rect x="100" y="75" width="3.57143" height="3.57143" transform="rotate(-180 100 75)" fill="#36312F"/>
<rect x="100" y="78.5713" width="3.57143" height="3.57143" transform="rotate(-180 100 78.5713)" fill="#36312F"/>
</svg>
