<svg width="70" height="43" viewBox="0 0 70 43" fill="none" xmlns="http://www.w3.org/2000/svg">
<path d="M42.3498 3.80005L5.5998 12.9L2.7998 19.2L13.6498 37.75H44.7998L64.7498 25.15L67.5498 15.7L42.3498 3.80005Z" fill="#866E63" stroke="#866E63"/>
<rect x="31.5" y="4.5" width="3.5" height="3.5" fill="#866E63"/>
<rect x="17.5" y="8" width="3.5" height="3.5" fill="#866E63"/>
<rect x="7" y="11.5" width="3.5" height="3.5" fill="#866E63"/>
<rect x="10.5" y="8" width="3.5" height="3.5" fill="#866E63"/>
<rect x="14" y="8" width="3.5" height="3.5" fill="#866E63"/>
<rect x="21" y="8" width="3.5" height="3.5" fill="#866E63"/>
<rect x="24.5" y="4.5" width="3.5" height="3.5" fill="#866E63"/>
<rect x="28" y="4.5" width="3.5" height="3.5" fill="#866E63"/>
<rect x="35" y="4.5" width="3.5" height="3.5" fill="#866E63"/>
<rect x="38.5" y="1" width="3.5" height="3.5" fill="#866E63"/>
<rect x="3.5" y="11.5" width="3.5" height="3.5" fill="#866E63"/>
<rect x="42" y="1" width="3.5" height="3.5" fill="#866E63"/>
<rect x="45.5" y="4.5" width="3.5" height="3.5" fill="#866E63"/>
<rect x="52.5" y="8" width="3.5" height="3.5" fill="#866E63"/>
<rect x="59.5" y="11.5" width="3.5" height="3.5" fill="#866E63"/>
<rect x="49" y="4.5" width="3.5" height="3.5" fill="#866E63"/>
<rect x="56" y="8" width="3.5" height="3.5" fill="#866E63"/>
<rect x="63" y="11.5" width="3.5" height="3.5" fill="#866E63"/>
<rect x="66.5" y="15" width="3.5" height="3.5" fill="#866E63"/>
<rect x="63" y="18.5" width="3.5" height="3.5" fill="#866E63"/>
<rect x="63" y="22" width="3.5" height="3.5" fill="#866E63"/>
<rect x="59.5" y="25.5" width="3.5" height="3.5" fill="#866E63"/>
<rect x="52.5" y="29" width="3.5" height="3.5" fill="#866E63"/>
<rect x="49" y="32.5" width="3.5" height="3.5" fill="#866E63"/>
<rect x="42" y="36" width="3.5" height="3.5" fill="#866E63"/>
<rect x="45.5" y="36" width="3.5" height="3.5" fill="#866E63"/>
<rect x="56" y="29" width="3.5" height="3.5" fill="#866E63"/>
<rect x="14" y="36" width="3.5" height="3.5" fill="#866E63"/>
<rect x="17.5" y="36" width="3.5" height="3.5" fill="#866E63"/>
<rect x="21" y="36" width="3.5" height="3.5" fill="#866E63"/>
<rect x="24.5" y="36" width="3.5" height="3.5" fill="#866E63"/>
<rect x="28" y="36" width="3.5" height="3.5" fill="#866E63"/>
<rect x="31.5" y="36" width="3.5" height="3.5" fill="#866E63"/>
<rect x="35" y="36" width="3.5" height="3.5" fill="#866E63"/>
<rect x="38.5" y="36" width="3.5" height="3.5" fill="#866E63"/>
<rect x="10.5" y="36" width="3.5" height="3.5" fill="#866E63"/>
<rect y="18.5" width="3.5" height="3.5" fill="#866E63"/>
<rect x="3.5" y="22" width="3.5" height="3.5" fill="#866E63"/>
<rect x="7" y="25.5" width="3.5" height="3.5" fill="#866E63"/>
<rect x="7" y="29" width="3.5" height="3.5" fill="#866E63"/>
<rect x="10.5" y="32.5" width="3.5" height="3.5" fill="#866E63"/>
<rect x="3.5" y="15" width="3.5" height="3.5" fill="#866E63"/>
<path d="M11.9004 20.9498L19.2504 23.7498L32.9004 15.6998L27.3004 34.2498L44.3381 23.7498M44.3381 23.7498L57.4004 15.6998L43.0504 13.2498V7.2998V19.1998L50.0504 23.7498L43.0504 32.4998L35.0004 20.9498L43.0504 28.9998L44.3381 23.7498Z" stroke="#554A59"/>
<rect x="17.5" y="21.9998" width="3.5" height="3.5" fill="#554A59"/>
<rect x="10.5" y="18.4998" width="3.5" height="3.5" fill="#554A59"/>
<rect x="14" y="21.9998" width="3.5" height="3.5" fill="#554A59"/>
<rect x="28" y="14.9998" width="3.5" height="3.5" fill="#554A59"/>
<rect x="24.5" y="18.4998" width="3.5" height="3.5" fill="#554A59"/>
<rect x="21" y="18.4998" width="3.5" height="3.5" fill="#554A59"/>
<rect x="31.5" y="14.9998" width="3.5" height="3.5" fill="#554A59"/>
<rect x="31.5" y="18.4998" width="3.5" height="3.5" fill="#554A59"/>
<rect x="28" y="21.9998" width="3.5" height="3.5" fill="#554A59"/>
<rect x="28" y="25.4998" width="3.5" height="3.5" fill="#554A59"/>
<rect x="28" y="28.9998" width="3.5" height="3.5" fill="#554A59"/>
<rect x="24.5" y="32.4998" width="3.5" height="3.5" fill="#554A59"/>
<rect x="42" y="11.4998" width="3.5" height="3.5" fill="#554A59"/>
<rect x="45.5" y="11.4998" width="3.5" height="3.5" fill="#554A59"/>
<rect x="49" y="11.4998" width="3.5" height="3.5" fill="#554A59"/>
<rect x="52.5" y="14.9998" width="3.5" height="3.5" fill="#554A59"/>
<rect x="56" y="14.9998" width="3.5" height="3.5" fill="#554A59"/>
<rect x="42" y="7.99976" width="3.5" height="3.5" fill="#554A59"/>
<rect x="42" y="4.49976" width="3.5" height="3.5" fill="#554A59"/>
<rect x="42" y="14.9998" width="3.5" height="3.5" fill="#554A59"/>
<rect x="42" y="18.4998" width="3.5" height="3.5" fill="#554A59"/>
<rect x="49" y="21.9998" width="3.5" height="3.5" fill="#554A59"/>
<rect x="45.5" y="18.4998" width="3.5" height="3.5" fill="#554A59"/>
<rect x="45.5" y="25.4998" width="3.5" height="3.5" fill="#554A59"/>
<rect x="42" y="28.9998" width="3.5" height="3.5" fill="#554A59"/>
<rect x="42" y="32.4998" width="3.5" height="3.5" fill="#554A59"/>
<rect x="35" y="21.9998" width="3.5" height="3.5" fill="#554A59"/>
<rect x="38.5" y="25.4998" width="3.5" height="3.5" fill="#554A59"/>
<rect x="38.5" y="28.9998" width="3.5" height="3.5" fill="#554A59"/>
<rect x="35" y="18.4998" width="3.5" height="3.5" fill="#554A59"/>
<rect x="42" y="21.9998" width="3.5" height="3.5" fill="#554A59"/>
<rect x="31.5" y="28.9998" width="3.5" height="3.5" fill="#554A59"/>
<rect x="28" y="32.4998" width="3.5" height="3.5" fill="#554A59"/>
<rect x="35" y="25.4998" width="3.5" height="3.5" fill="#554A59"/>
<rect x="49" y="18.4998" width="3.5" height="3.5" fill="#554A59"/>
<rect x="42" y="25.4998" width="3.5" height="3.5" fill="#554A59"/>
<path d="M40.2502 24.1001L33.6002 26.9001L24.5002 31.4501L19.9502 33.9001L22.4002 35.6501L41.3002 36.3501L35.7002 33.9001L38.5002 31.4501" stroke="#554A59"/>
<rect x="35" y="25.5" width="3.5" height="3.5" fill="#554A59"/>
<rect x="38.5" y="22" width="3.5" height="3.5" fill="#554A59"/>
<rect x="31.5" y="25.5" width="3.5" height="3.5" fill="#554A59"/>
<rect x="24.5" y="29" width="3.5" height="3.5" fill="#554A59"/>
<rect x="28" y="25.5" width="3.5" height="3.5" fill="#554A59"/>
<rect x="21" y="29" width="3.5" height="3.5" fill="#554A59"/>
<rect x="17.5" y="32.5" width="3.5" height="3.5" fill="#554A59"/>
<rect x="21" y="32.5" width="3.5" height="3.5" fill="#554A59"/>
<rect x="24.5" y="32.5" width="3.5" height="3.5" fill="#554A59"/>
<rect x="28" y="32.5" width="3.5" height="3.5" fill="#554A59"/>
<rect x="31.5" y="36" width="3.5" height="3.5" fill="#554A59"/>
<rect x="35" y="36" width="3.5" height="3.5" fill="#554A59"/>
<rect x="38.5" y="36" width="3.5" height="3.5" fill="#554A59"/>
<rect x="35" y="32.5" width="3.5" height="3.5" fill="#554A59"/>
<rect x="38.5" y="32.5" width="3.5" height="3.5" fill="#554A59"/>
<rect x="38.5" y="29" width="3.5" height="3.5" fill="#554A59"/>
<path d="M64.7502 15.3499V21.9999L58.1002 28.2999L50.0502 32.1499L46.2002 37.7499" stroke="#2A2235"/>
<rect x="63" y="14.9998" width="3.5" height="3.5" fill="#2A2235"/>
<rect x="63" y="18.4998" width="3.5" height="3.5" fill="#2A2235"/>
<rect x="63" y="21.9998" width="3.5" height="3.5" fill="#2A2235"/>
<rect x="59.5" y="21.9998" width="3.5" height="3.5" fill="#2A2235"/>
<rect x="56" y="25.4998" width="3.5" height="3.5" fill="#2A2235"/>
<rect x="52.5" y="28.9998" width="3.5" height="3.5" fill="#2A2235"/>
<rect x="49" y="28.9998" width="3.5" height="3.5" fill="#2A2235"/>
<rect x="45.5" y="32.4998" width="3.5" height="3.5" fill="#2A2235"/>
<rect x="45.5" y="35.9998" width="3.5" height="3.5" fill="#2A2235"/>
<path d="M29.3996 28.9999L24.1496 25.1499L17.8496 26.8999" stroke="#2A2235"/>
<rect x="24.5" y="25.5" width="3.5" height="3.5" fill="#554A59"/>
<rect x="28" y="29" width="3.5" height="3.5" fill="#554A59"/>
<rect x="21" y="22" width="3.5" height="3.5" fill="#554A59"/>
<rect x="17.5" y="25.5" width="3.5" height="3.5" fill="#554A59"/>
<rect x="21" y="25.5" width="3.5" height="3.5" fill="#554A59"/>
<path d="M32.9002 28.65H26.9502V24.8" stroke="#2A2235"/>
<rect x="28" y="25.5" width="3.5" height="3.5" fill="#2A2235"/>
<rect x="31.5" y="25.5" width="3.5" height="3.5" fill="#2A2235"/>
<rect x="24.5" y="25.5" width="3.5" height="3.5" fill="#2A2235"/>
<rect x="24.5" y="22" width="3.5" height="3.5" fill="#2A2235"/>
<path d="M35 6.24976C34.16 6.52976 29.9833 6.36642 28 6.24976L24.85 10.7998L14 9.74976" stroke="#2A2235"/>
<rect x="28" y="4.49976" width="3.5" height="3.5" fill="#2A2235"/>
<rect x="31.5" y="4.49976" width="3.5" height="3.5" fill="#2A2235"/>
<rect x="35" y="4.49976" width="3.5" height="3.5" fill="#2A2235"/>
<rect x="24.5" y="7.99976" width="3.5" height="3.5" fill="#2A2235"/>
<rect x="14" y="7.99976" width="3.5" height="3.5" fill="#2A2235"/>
<rect x="17.5" y="7.99976" width="3.5" height="3.5" fill="#2A2235"/>
<rect x="21" y="7.99976" width="3.5" height="3.5" fill="#2A2235"/>
<path d="M40.9502 24.7999L42.7002 17.7999L44.4502 19.1999H48.3002L51.4502 16.3999" stroke="#2A2235"/>
<rect x="42" y="18.4998" width="3.5" height="3.5" fill="#2A2235"/>
<rect x="38.5" y="21.9998" width="3.5" height="3.5" fill="#2A2235"/>
<rect x="42" y="14.9998" width="3.5" height="3.5" fill="#2A2235"/>
<rect x="45.5" y="18.4998" width="3.5" height="3.5" fill="#2A2235"/>
<rect x="49" y="14.9998" width="3.5" height="3.5" fill="#2A2235"/>
<path d="M7.7002 25.8499L9.1002 30.3999L12.2502 32.1499V35.6499L15.0502 38.7999H19.9502" stroke="#2A2235"/>
<rect x="7" y="25.4998" width="3.5" height="3.5" fill="#2A2235"/>
<rect x="7" y="28.9998" width="3.5" height="3.5" fill="#2A2235"/>
<rect x="10.5" y="28.9998" width="3.5" height="3.5" fill="#2A2235"/>
<rect x="10.5" y="32.4998" width="3.5" height="3.5" fill="#2A2235"/>
<rect x="14" y="35.9998" width="3.5" height="3.5" fill="#2A2235"/>
<rect x="17.5" y="35.9998" width="3.5" height="3.5" fill="#2A2235"/>
<path d="M42.6998 37.0499L46.8998 31.7999L54.9498 27.5999H49.6998L42.6998 31.7999L39.5498 39.1499H36.0498" stroke="#2A2235"/>
<rect x="42" y="32.4998" width="3.5" height="3.5" fill="#2A2235"/>
<rect x="42" y="35.9998" width="3.5" height="3.5" fill="#2A2235"/>
<rect x="45.5" y="28.9998" width="3.5" height="3.5" fill="#2A2235"/>
<rect x="49" y="28.9998" width="3.5" height="3.5" fill="#2A2235"/>
<rect x="52.5" y="25.4998" width="3.5" height="3.5" fill="#2A2235"/>
<rect x="49" y="25.4998" width="3.5" height="3.5" fill="#2A2235"/>
<rect x="42" y="28.9998" width="3.5" height="3.5" fill="#2A2235"/>
<rect x="38.5" y="32.4998" width="3.5" height="3.5" fill="#2A2235"/>
<rect x="38.5" y="35.9998" width="3.5" height="3.5" fill="#2A2235"/>
<rect x="35" y="35.9998" width="3.5" height="3.5" fill="#2A2235"/>
<path d="M7.00039 9.7501L1.40039 18.5001L4.55039 24.8001V29.0001L9.80039 33.5501C10.1504 35.6501 11.2004 39.8501 12.6004 39.8501H46.9004L50.7504 35.6501L58.4504 31.8001L63.3504 26.9001L68.9504 18.5001L66.1504 14.6501L57.0504 9.7501L49.0004 3.4501C46.9004 2.7501 42.3504 1.3501 40.9504 1.3501C39.5504 1.3501 37.8004 2.7501 37.1004 3.4501L24.5004 5.2001C21.8171 5.78343 16.1004 6.9501 14.7004 6.9501C13.3004 6.9501 8.98372 8.81676 7.00039 9.7501Z" stroke="#36312F"/>
<rect x="7" y="8" width="3.5" height="3.5" fill="#36312F"/>
<rect x="3.5" y="11.5" width="3.5" height="3.5" fill="#36312F"/>
<rect y="15" width="3.5" height="3.5" fill="#36312F"/>
<rect y="18.5" width="3.5" height="3.5" fill="#36312F"/>
<rect x="10.5" y="4.5" width="3.5" height="3.5" fill="#36312F"/>
<rect x="14" y="4.5" width="3.5" height="3.5" fill="#36312F"/>
<rect x="17.5" y="4.5" width="3.5" height="3.5" fill="#36312F"/>
<rect x="21" y="4.5" width="3.5" height="3.5" fill="#36312F"/>
<rect x="24.5" y="4.5" width="3.5" height="3.5" fill="#36312F"/>
<rect x="28" y="1" width="3.5" height="3.5" fill="#36312F"/>
<rect x="31.5" y="1" width="3.5" height="3.5" fill="#36312F"/>
<rect x="35" y="1" width="3.5" height="3.5" fill="#36312F"/>
<rect x="38.5" y="1" width="3.5" height="3.5" fill="#36312F"/>
<rect x="45.5" y="1" width="3.5" height="3.5" fill="#36312F"/>
<rect x="42" y="1" width="3.5" height="3.5" fill="#36312F"/>
<rect x="49" y="1" width="3.5" height="3.5" fill="#36312F"/>
<rect x="52.5" y="4.5" width="3.5" height="3.5" fill="#36312F"/>
<rect x="56" y="8" width="3.5" height="3.5" fill="#36312F"/>
<rect x="49" y="4.5" width="3.5" height="3.5" fill="#36312F"/>
<rect x="63" y="11.5" width="3.5" height="3.5" fill="#36312F"/>
<rect x="59.5" y="11.5" width="3.5" height="3.5" fill="#36312F"/>
<rect x="66.5" y="15" width="3.5" height="3.5" fill="#36312F"/>
<rect x="66.5" y="18.5" width="3.5" height="3.5" fill="#36312F"/>
<rect x="63" y="22" width="3.5" height="3.5" fill="#36312F"/>
<rect x="63" y="25.5" width="3.5" height="3.5" fill="#36312F"/>
<rect x="59.5" y="29" width="3.5" height="3.5" fill="#36312F"/>
<rect x="59.5" y="25.5" width="3.5" height="3.5" fill="#36312F"/>
<rect x="56" y="29" width="3.5" height="3.5" fill="#36312F"/>
<rect x="52.5" y="32.5" width="3.5" height="3.5" fill="#36312F"/>
<rect x="49" y="32.5" width="3.5" height="3.5" fill="#36312F"/>
<rect x="45.5" y="36" width="3.5" height="3.5" fill="#36312F"/>
<rect x="45.5" y="39.5" width="3.5" height="3.5" fill="#36312F"/>
<rect x="14" y="39.5" width="3.5" height="3.5" fill="#36312F"/>
<rect x="17.5" y="39.5" width="3.5" height="3.5" fill="#36312F"/>
<rect x="21" y="39.5" width="3.5" height="3.5" fill="#36312F"/>
<rect x="24.5" y="39.5" width="3.5" height="3.5" fill="#36312F"/>
<rect x="28" y="39.5" width="3.5" height="3.5" fill="#36312F"/>
<rect x="31.5" y="39.5" width="3.5" height="3.5" fill="#36312F"/>
<rect x="35" y="39.5" width="3.5" height="3.5" fill="#36312F"/>
<rect x="38.5" y="39.5" width="3.5" height="3.5" fill="#36312F"/>
<rect x="42" y="39.5" width="3.5" height="3.5" fill="#36312F"/>
<rect x="10.5" y="39.5" width="3.5" height="3.5" fill="#36312F"/>
<rect x="7" y="32.5" width="3.5" height="3.5" fill="#36312F"/>
<rect x="10.5" y="36" width="3.5" height="3.5" fill="#36312F"/>
<rect x="3.5" y="29" width="3.5" height="3.5" fill="#36312F"/>
<rect x="3.5" y="25.5" width="3.5" height="3.5" fill="#36312F"/>
<rect x="3.5" y="22" width="3.5" height="3.5" fill="#36312F"/>
</svg>
