<svg width="82" height="59" viewBox="0 0 82 59" fill="none" xmlns="http://www.w3.org/2000/svg">
<path d="M72.68 12.5201C44.4419 -2.10322 13.8862 7.11131 1.55539 13.8131L5.16 37.8001C9.42667 41.4268 18.472 48.6801 20.52 48.6801C22.568 48.6801 35.6667 53.8001 41.96 56.3601L51.56 48.6801L72.68 37.8001L75.24 30.1201V25.9601L77.48 22.1201C76.7333 22.1201 74.728 20.2001 72.68 12.5201Z" fill="#866E63"/>
<path d="M1 14.1201C12.9467 7.4001 44.008 -2.3279 72.68 12.5201C74.728 20.2001 76.7333 22.1201 77.48 22.1201L75.24 25.9601V30.1201L72.68 37.8001L51.56 48.6801L41.96 56.3601C35.6667 53.8001 22.568 48.6801 20.52 48.6801C18.472 48.6801 9.42667 41.4268 5.16 37.8001L1.55539 13.8131" stroke="#866E63"/>
<rect x="58.5996" y="6.11987" width="3.2" height="3.2" fill="#866E63"/>
<rect x="17" y="6.11987" width="3.2" height="3.2" fill="#866E63"/>
<rect x="68.2002" y="9.31982" width="3.2" height="3.2" fill="#866E63"/>
<rect x="7.40039" y="9.31982" width="3.2" height="3.2" fill="#866E63"/>
<rect x="1" y="12.52" width="3.2" height="3.2" fill="#866E63"/>
<rect x="4.2002" y="9.31982" width="3.2" height="3.2" fill="#866E63"/>
<rect x="10.5996" y="6.11987" width="3.2" height="3.2" fill="#866E63"/>
<rect x="13.7998" y="6.11987" width="3.2" height="3.2" fill="#866E63"/>
<rect x="20.2002" y="6.11987" width="3.2" height="3.2" fill="#866E63"/>
<rect x="23.4004" y="2.91992" width="3.2" height="3.2" fill="#866E63"/>
<rect x="26.5996" y="2.91992" width="3.2" height="3.2" fill="#866E63"/>
<rect x="29.7998" y="2.91992" width="3.2" height="3.2" fill="#866E63"/>
<rect x="33" y="2.91992" width="3.2" height="3.2" fill="#866E63"/>
<rect x="36.2002" y="2.91992" width="3.2" height="3.2" fill="#866E63"/>
<rect x="39.4004" y="2.91992" width="3.2" height="3.2" fill="#866E63"/>
<rect x="42.5996" y="2.91992" width="3.2" height="3.2" fill="#866E63"/>
<rect x="45.7998" y="2.91992" width="3.2" height="3.2" fill="#866E63"/>
<rect x="49" y="2.91992" width="3.2" height="3.2" fill="#866E63"/>
<rect x="52.2002" y="2.91992" width="3.2" height="3.2" fill="#866E63"/>
<rect x="55.4004" y="6.11987" width="3.2" height="3.2" fill="#866E63"/>
<rect x="61.7998" y="6.11987" width="3.2" height="3.2" fill="#866E63"/>
<rect x="65" y="9.31982" width="3.2" height="3.2" fill="#866E63"/>
<rect x="71.4004" y="12.52" width="3.2" height="3.2" fill="#866E63"/>
<rect x="71.4004" y="15.72" width="3.2" height="3.2" fill="#866E63"/>
<rect x="74.5996" y="18.9199" width="3.2" height="3.2" fill="#866E63"/>
<rect x="74.5996" y="22.1199" width="3.2" height="3.2" fill="#866E63"/>
<rect x="74.5996" y="25.3198" width="3.2" height="3.2" fill="#866E63"/>
<rect x="74.5996" y="28.52" width="3.2" height="3.2" fill="#866E63"/>
<rect x="71.4004" y="31.72" width="3.2" height="3.2" fill="#866E63"/>
<rect x="71.4004" y="34.9199" width="3.2" height="3.2" fill="#866E63"/>
<rect x="68.2002" y="38.1199" width="3.2" height="3.2" fill="#866E63"/>
<rect x="61.7998" y="41.3198" width="3.2" height="3.2" fill="#866E63"/>
<rect x="55.4004" y="44.52" width="3.2" height="3.2" fill="#866E63"/>
<rect x="52.2002" y="44.52" width="3.2" height="3.2" fill="#866E63"/>
<rect x="58.5996" y="41.3198" width="3.2" height="3.2" fill="#866E63"/>
<rect x="65" y="38.1199" width="3.2" height="3.2" fill="#866E63"/>
<rect x="49" y="47.72" width="3.2" height="3.2" fill="#866E63"/>
<rect x="45.7998" y="50.9199" width="3.2" height="3.2" fill="#866E63"/>
<rect x="42.5996" y="54.1199" width="3.2" height="3.2" fill="#866E63"/>
<rect x="39.4004" y="54.1199" width="3.2" height="3.2" fill="#866E63"/>
<rect x="20.2002" y="47.72" width="3.2" height="3.2" fill="#866E63"/>
<rect x="29.7998" y="50.9199" width="3.2" height="3.2" fill="#866E63"/>
<rect x="23.4004" y="47.72" width="3.2" height="3.2" fill="#866E63"/>
<rect x="26.5996" y="50.9199" width="3.2" height="3.2" fill="#866E63"/>
<rect x="33" y="50.9199" width="3.2" height="3.2" fill="#866E63"/>
<rect x="36.2002" y="54.1199" width="3.2" height="3.2" fill="#866E63"/>
<rect x="7.40039" y="38.1199" width="3.2" height="3.2" fill="#866E63"/>
<rect x="10.5996" y="41.3198" width="3.2" height="3.2" fill="#866E63"/>
<rect x="13.7998" y="44.52" width="3.2" height="3.2" fill="#866E63"/>
<rect x="4.2002" y="38.1199" width="3.2" height="3.2" fill="#866E63"/>
<rect x="17" y="47.72" width="3.2" height="3.2" fill="#866E63"/>
<rect x="4.2002" y="34.9199" width="3.2" height="3.2" fill="#866E63"/>
<rect x="1" y="15.72" width="3.2" height="3.2" fill="#866E63"/>
<rect x="1" y="18.9199" width="3.2" height="3.2" fill="#866E63"/>
<rect x="1" y="22.1199" width="3.2" height="3.2" fill="#866E63"/>
<rect x="1" y="25.3198" width="3.2" height="3.2" fill="#866E63"/>
<rect x="1" y="28.52" width="3.2" height="3.2" fill="#866E63"/>
<rect x="4.2002" y="31.72" width="3.2" height="3.2" fill="#866E63"/>
<path d="M10.5996 15.3999L20.8396 26.2799L46.4396 22.4399L57.6396 15.3999L66.5996 17.9599L55.7196 20.8399L51.2396 23.7199L20.8396 31.3999L17.9596 37.4799L26.2796 39.0799L34.9196 31.3999L42.9196 37.4799L53.4796 36.1999L60.5196 31.3999V39.0799L40.0396 45.7999L42.9196 57.3199L17.9596 48.9999" stroke="#554A59"/>
<rect x="10.5996" y="13.7998" width="3.2" height="3.2" fill="#554A59"/>
<rect x="10.5996" y="16.9998" width="3.2" height="3.2" fill="#554A59"/>
<rect x="13.7998" y="20.1997" width="3.2" height="3.2" fill="#554A59"/>
<rect x="17" y="23.3999" width="3.2" height="3.2" fill="#554A59"/>
<rect x="20.1992" y="23.3999" width="3.2" height="3.2" fill="#554A59"/>
<rect x="26.5996" y="23.3999" width="3.2" height="3.2" fill="#554A59"/>
<rect x="23.3994" y="23.3999" width="3.2" height="3.2" fill="#554A59"/>
<rect x="29.7998" y="23.3999" width="3.2" height="3.2" fill="#554A59"/>
<rect x="33" y="23.3999" width="3.2" height="3.2" fill="#554A59"/>
<rect x="36.1992" y="23.3999" width="3.2" height="3.2" fill="#554A59"/>
<rect x="39.3994" y="20.1997" width="3.2" height="3.2" fill="#554A59"/>
<rect x="42.5996" y="20.1997" width="3.2" height="3.2" fill="#554A59"/>
<rect x="45.7998" y="20.1997" width="3.2" height="3.2" fill="#554A59"/>
<rect x="55.3994" y="13.7998" width="3.2" height="3.2" fill="#554A59"/>
<rect x="52.1992" y="16.9998" width="3.2" height="3.2" fill="#554A59"/>
<rect x="49" y="16.9998" width="3.2" height="3.2" fill="#554A59"/>
<rect x="58.5996" y="13.7998" width="3.2" height="3.2" fill="#554A59"/>
<rect x="61.7998" y="16.9998" width="3.2" height="3.2" fill="#554A59"/>
<rect x="65" y="16.9998" width="3.2" height="3.2" fill="#554A59"/>
<rect x="55.3994" y="20.1997" width="3.2" height="3.2" fill="#554A59"/>
<rect x="58.5996" y="16.9998" width="3.2" height="3.2" fill="#554A59"/>
<rect x="52.1992" y="20.1997" width="3.2" height="3.2" fill="#554A59"/>
<rect x="49" y="23.3999" width="3.2" height="3.2" fill="#554A59"/>
<rect x="45.7998" y="23.3999" width="3.2" height="3.2" fill="#554A59"/>
<rect x="33" y="26.5999" width="3.2" height="3.2" fill="#554A59"/>
<rect x="20.1992" y="29.7998" width="3.2" height="3.2" fill="#554A59"/>
<rect x="23.3994" y="29.7998" width="3.2" height="3.2" fill="#554A59"/>
<rect x="26.5996" y="26.5999" width="3.2" height="3.2" fill="#554A59"/>
<rect x="29.7998" y="26.5999" width="3.2" height="3.2" fill="#554A59"/>
<rect x="36.1992" y="26.5999" width="3.2" height="3.2" fill="#554A59"/>
<rect x="39.3994" y="23.3999" width="3.2" height="3.2" fill="#554A59"/>
<rect x="42.5996" y="23.3999" width="3.2" height="3.2" fill="#554A59"/>
<rect x="17" y="32.9998" width="3.2" height="3.2" fill="#554A59"/>
<rect x="17" y="36.1997" width="3.2" height="3.2" fill="#554A59"/>
<rect x="20.1992" y="36.1997" width="3.2" height="3.2" fill="#554A59"/>
<rect x="23.3994" y="36.1997" width="3.2" height="3.2" fill="#554A59"/>
<rect x="33" y="29.7998" width="3.2" height="3.2" fill="#554A59"/>
<rect x="29.7998" y="32.9998" width="3.2" height="3.2" fill="#554A59"/>
<rect x="26.5996" y="36.1997" width="3.2" height="3.2" fill="#554A59"/>
<rect x="36.1992" y="32.9998" width="3.2" height="3.2" fill="#554A59"/>
<rect x="39.3994" y="32.9998" width="3.2" height="3.2" fill="#554A59"/>
<rect x="42.5996" y="36.1997" width="3.2" height="3.2" fill="#554A59"/>
<rect x="45.7998" y="36.1997" width="3.2" height="3.2" fill="#554A59"/>
<rect x="49" y="36.1997" width="3.2" height="3.2" fill="#554A59"/>
<rect x="52.1992" y="36.1997" width="3.2" height="3.2" fill="#554A59"/>
<rect x="58.5996" y="29.7998" width="3.2" height="3.2" fill="#554A59"/>
<rect x="55.3994" y="32.9998" width="3.2" height="3.2" fill="#554A59"/>
<rect x="52.1992" y="32.9998" width="3.2" height="3.2" fill="#554A59"/>
<rect x="58.5996" y="32.9998" width="3.2" height="3.2" fill="#554A59"/>
<rect x="58.5996" y="36.1997" width="3.2" height="3.2" fill="#554A59"/>
<rect x="52.1992" y="39.3999" width="3.2" height="3.2" fill="#554A59"/>
<rect x="42.5996" y="42.5999" width="3.2" height="3.2" fill="#554A59"/>
<rect x="39.3994" y="42.5999" width="3.2" height="3.2" fill="#554A59"/>
<rect x="45.7998" y="42.5999" width="3.2" height="3.2" fill="#554A59"/>
<rect x="49" y="39.3999" width="3.2" height="3.2" fill="#554A59"/>
<rect x="55.3994" y="39.3999" width="3.2" height="3.2" fill="#554A59"/>
<rect x="39.3994" y="45.7998" width="3.2" height="3.2" fill="#554A59"/>
<rect x="39.3994" y="48.9998" width="3.2" height="3.2" fill="#554A59"/>
<rect x="39.3994" y="52.1997" width="3.2" height="3.2" fill="#554A59"/>
<rect x="42.5996" y="55.3999" width="3.2" height="3.2" fill="#554A59"/>
<rect x="20.1992" y="48.9998" width="3.2" height="3.2" fill="#554A59"/>
<rect x="29.7998" y="52.1997" width="3.2" height="3.2" fill="#554A59"/>
<rect x="39.3994" y="55.3999" width="3.2" height="3.2" fill="#554A59"/>
<rect x="17" y="48.9998" width="3.2" height="3.2" fill="#554A59"/>
<rect x="23.3994" y="48.9998" width="3.2" height="3.2" fill="#554A59"/>
<rect x="26.5996" y="52.1997" width="3.2" height="3.2" fill="#554A59"/>
<rect x="33" y="52.1997" width="3.2" height="3.2" fill="#554A59"/>
<rect x="36.1992" y="55.3999" width="3.2" height="3.2" fill="#554A59"/>
<path d="M27.2393 12.52H29.1593L37.7993 8.04004L41.9593 14.44L50.2793 10.6" stroke="#554A59"/>
<rect x="26.5996" y="10.6001" width="3.2" height="3.2" fill="#554A59"/>
<rect x="33" y="7.40015" width="3.2" height="3.2" fill="#554A59"/>
<rect x="29.7998" y="10.6001" width="3.2" height="3.2" fill="#554A59"/>
<rect x="36.1992" y="7.40015" width="3.2" height="3.2" fill="#554A59"/>
<rect x="39.3994" y="10.6001" width="3.2" height="3.2" fill="#554A59"/>
<rect x="39.3994" y="13.8" width="3.2" height="3.2" fill="#554A59"/>
<rect x="45.7998" y="10.6001" width="3.2" height="3.2" fill="#554A59"/>
<rect x="42.5996" y="10.6001" width="3.2" height="3.2" fill="#554A59"/>
<rect x="49" y="10.6001" width="3.2" height="3.2" fill="#554A59"/>
<path d="M80.9998 25.3198L73.5816 36.5198L61.7998 43.2398" stroke="#554A59"/>
<rect x="77.7998" y="26.5999" width="3.2" height="3.2" fill="#554A59"/>
<rect x="74.5996" y="29.7998" width="3.2" height="3.2" fill="#554A59"/>
<rect x="74.5996" y="33" width="3.2" height="3.2" fill="#554A59"/>
<rect x="77.7998" y="23.3999" width="3.2" height="3.2" fill="#554A59"/>
<rect x="71.4004" y="36.2" width="3.2" height="3.2" fill="#554A59"/>
<rect x="68.2002" y="36.2" width="3.2" height="3.2" fill="#554A59"/>
<rect x="65" y="39.3999" width="3.2" height="3.2" fill="#554A59"/>
<rect x="61.7998" y="39.3999" width="3.2" height="3.2" fill="#554A59"/>
<rect x="61.7998" y="42.5999" width="3.2" height="3.2" fill="#554A59"/>
<path d="M2.91992 26.28L5.15992 32.36L8.03992 38.44L9.95992 42.28" stroke="#554A59"/>
<rect x="1" y="26.5999" width="3.2" height="3.2" fill="#554A59"/>
<rect x="4.2002" y="29.7998" width="3.2" height="3.2" fill="#554A59"/>
<rect x="1" y="23.3999" width="3.2" height="3.2" fill="#554A59"/>
<rect x="4.2002" y="33" width="3.2" height="3.2" fill="#554A59"/>
<rect x="7.40039" y="36.2" width="3.2" height="3.2" fill="#554A59"/>
<rect x="7.40039" y="39.3999" width="3.2" height="3.2" fill="#554A59"/>
<path d="M9.64062 26.9198L12.5206 39.7198C13.694 37.5865 16.0406 33.5118 16.0406 34.2798C16.0406 35.0478 18.174 40.9998 19.2406 43.8798L34.6006 44.5198L36.2006 48.9998L52.5206 28.1998L69.1606 24.0398L69.4806 33.9598" stroke="#554A59"/>
<rect x="7.40039" y="26.5999" width="3.2" height="3.2" fill="#554A59"/>
<rect x="10.6006" y="29.7998" width="3.2" height="3.2" fill="#554A59"/>
<rect x="10.6006" y="33" width="3.2" height="3.2" fill="#554A59"/>
<rect x="10.6006" y="36.2" width="3.2" height="3.2" fill="#554A59"/>
<rect x="10.6006" y="39.3999" width="3.2" height="3.2" fill="#554A59"/>
<rect x="13.8008" y="33" width="3.2" height="3.2" fill="#554A59"/>
<rect x="17.001" y="36.2" width="3.2" height="3.2" fill="#554A59"/>
<rect x="17.001" y="39.3999" width="3.2" height="3.2" fill="#554A59"/>
<rect x="17.001" y="42.5999" width="3.2" height="3.2" fill="#554A59"/>
<rect x="26.6006" y="42.5999" width="3.2" height="3.2" fill="#554A59"/>
<rect x="20.2002" y="42.5999" width="3.2" height="3.2" fill="#554A59"/>
<rect x="23.4004" y="42.5999" width="3.2" height="3.2" fill="#554A59"/>
<rect x="29.8008" y="42.5999" width="3.2" height="3.2" fill="#554A59"/>
<rect x="33.001" y="42.5999" width="3.2" height="3.2" fill="#554A59"/>
<rect x="33.001" y="45.7998" width="3.2" height="3.2" fill="#554A59"/>
<rect x="36.2002" y="49" width="3.2" height="3.2" fill="#554A59"/>
<rect x="52.2002" y="26.5999" width="3.2" height="3.2" fill="#554A59"/>
<rect x="49.001" y="29.7998" width="3.2" height="3.2" fill="#554A59"/>
<rect x="45.8008" y="33" width="3.2" height="3.2" fill="#554A59"/>
<rect x="42.6006" y="36.2" width="3.2" height="3.2" fill="#554A59"/>
<rect x="39.4004" y="39.3999" width="3.2" height="3.2" fill="#554A59"/>
<rect x="39.4004" y="42.5999" width="3.2" height="3.2" fill="#554A59"/>
<rect x="36.2002" y="45.7998" width="3.2" height="3.2" fill="#554A59"/>
<rect x="65.001" y="23.3999" width="3.2" height="3.2" fill="#554A59"/>
<rect x="55.4004" y="26.5999" width="3.2" height="3.2" fill="#554A59"/>
<rect x="58.6006" y="23.3999" width="3.2" height="3.2" fill="#554A59"/>
<rect x="61.8008" y="23.3999" width="3.2" height="3.2" fill="#554A59"/>
<rect x="68.2002" y="23.3999" width="3.2" height="3.2" fill="#554A59"/>
<rect x="68.2002" y="26.5999" width="3.2" height="3.2" fill="#554A59"/>
<rect x="68.2002" y="29.7998" width="3.2" height="3.2" fill="#554A59"/>
<rect x="68.2002" y="33" width="3.2" height="3.2" fill="#554A59"/>
<path d="M74.9198 17.9597L76.1998 25.3197L74.9198 35.8797L65.6398 42.5997C61.9065 43.8797 54.2478 46.5037 53.4798 46.7597C52.7118 47.0157 47.3998 52.1997 44.8398 54.7597" stroke="#2A2235"/>
<rect x="74.5996" y="16.9998" width="3.2" height="3.2" fill="#2A2235"/>
<rect x="74.5996" y="20.1997" width="3.2" height="3.2" fill="#2A2235"/>
<rect x="74.5996" y="23.3997" width="3.2" height="3.2" fill="#2A2235"/>
<rect x="74.5996" y="26.5999" width="3.2" height="3.2" fill="#2A2235"/>
<rect x="74.5996" y="29.7998" width="3.2" height="3.2" fill="#2A2235"/>
<rect x="74.5996" y="32.9998" width="3.2" height="3.2" fill="#2A2235"/>
<rect x="71.3994" y="36.1997" width="3.2" height="3.2" fill="#2A2235"/>
<rect x="65" y="39.3997" width="3.2" height="3.2" fill="#2A2235"/>
<rect x="68.1992" y="39.3997" width="3.2" height="3.2" fill="#2A2235"/>
<rect x="65" y="42.5999" width="3.2" height="3.2" fill="#2A2235"/>
<rect x="58.5996" y="42.5999" width="3.2" height="3.2" fill="#2A2235"/>
<rect x="52.1992" y="45.7998" width="3.2" height="3.2" fill="#2A2235"/>
<rect x="55.3994" y="42.5999" width="3.2" height="3.2" fill="#2A2235"/>
<rect x="61.7998" y="42.5999" width="3.2" height="3.2" fill="#2A2235"/>
<rect x="49" y="48.9998" width="3.2" height="3.2" fill="#2A2235"/>
<rect x="45.7998" y="52.1997" width="3.2" height="3.2" fill="#2A2235"/>
<rect x="42.5996" y="52.1997" width="3.2" height="3.2" fill="#2A2235"/>
<path d="M21.1602 27.8799C21.4568 27.9307 21.7785 27.986 22.1202 28.0448M22.1202 28.0448C26.0783 28.7266 32.6975 29.8842 33.6402 30.1199C34.6642 30.3759 43.2402 28.7332 47.4002 27.8799L53.4802 24.3599L47.4002 31.3999L39.4002 36.5199L29.1602 32.6799L22.1202 28.0448ZM36.5202 32.6799L42.6002 30.1199" stroke="#2A2235"/>
<rect x="45.7998" y="26.5999" width="3.2" height="3.2" fill="#2A2235"/>
<rect x="33" y="29.7998" width="3.2" height="3.2" fill="#2A2235"/>
<rect x="36.2002" y="26.5999" width="3.2" height="3.2" fill="#2A2235"/>
<rect x="39.4004" y="26.5999" width="3.2" height="3.2" fill="#2A2235"/>
<rect x="42.5996" y="26.5999" width="3.2" height="3.2" fill="#2A2235"/>
<rect x="52.2002" y="23.3999" width="3.2" height="3.2" fill="#2A2235"/>
<rect x="49" y="23.3999" width="3.2" height="3.2" fill="#2A2235"/>
<rect x="49" y="26.5999" width="3.2" height="3.2" fill="#2A2235"/>
<rect x="45.7998" y="29.7998" width="3.2" height="3.2" fill="#2A2235"/>
<rect x="39.4004" y="33" width="3.2" height="3.2" fill="#2A2235"/>
<rect x="42.5996" y="33" width="3.2" height="3.2" fill="#2A2235"/>
<rect x="39.4004" y="36.2" width="3.2" height="3.2" fill="#2A2235"/>
<rect x="33" y="33" width="3.2" height="3.2" fill="#2A2235"/>
<rect x="29.7998" y="33" width="3.2" height="3.2" fill="#2A2235"/>
<rect x="36.2002" y="33" width="3.2" height="3.2" fill="#2A2235"/>
<rect x="26.5996" y="29.7998" width="3.2" height="3.2" fill="#2A2235"/>
<rect x="20.2002" y="26.5999" width="3.2" height="3.2" fill="#2A2235"/>
<rect x="23.4004" y="26.5999" width="3.2" height="3.2" fill="#2A2235"/>
<rect x="26.5996" y="26.5999" width="3.2" height="3.2" fill="#2A2235"/>
<rect x="29.7998" y="26.5999" width="3.2" height="3.2" fill="#2A2235"/>
<rect x="23.4004" y="29.7998" width="3.2" height="3.2" fill="#2A2235"/>
<rect x="39.4004" y="29.7998" width="3.2" height="3.2" fill="#2A2235"/>
<rect x="36.2002" y="29.7998" width="3.2" height="3.2" fill="#2A2235"/>
<rect x="42.5996" y="29.7998" width="3.2" height="3.2" fill="#2A2235"/>
<path d="M42.5996 9.32007H47.3996" stroke="#2A2235"/>
<rect x="42.5996" y="7.40015" width="3.2" height="3.2" fill="#2A2235"/>
<rect x="45.7998" y="7.40015" width="3.2" height="3.2" fill="#2A2235"/>
<path d="M23.7207 12.2L26.9207 14.12H33.9607" stroke="#2A2235"/>
<rect x="23.4004" y="10.5999" width="3.2" height="3.2" fill="#2A2235"/>
<rect x="26.6006" y="13.7998" width="3.2" height="3.2" fill="#2A2235"/>
<rect x="29.8008" y="13.7998" width="3.2" height="3.2" fill="#2A2235"/>
<rect x="33" y="13.7998" width="3.2" height="3.2" fill="#2A2235"/>
<path d="M32.6807 3.87988C29.374 3.87988 22.8247 4.13588 23.0807 5.15988C23.3367 6.18388 18.9207 8.35988 16.6807 9.31988H7.7207" stroke="#2A2235"/>
<rect x="23.4004" y="4.19995" width="3.2" height="3.2" fill="#2A2235"/>
<rect x="26.6006" y="1" width="3.2" height="3.2" fill="#2A2235"/>
<rect x="29.8008" y="1" width="3.2" height="3.2" fill="#2A2235"/>
<rect x="20.2002" y="4.19995" width="3.2" height="3.2" fill="#2A2235"/>
<rect x="17.001" y="7.3999" width="3.2" height="3.2" fill="#2A2235"/>
<rect x="13.8008" y="7.3999" width="3.2" height="3.2" fill="#2A2235"/>
<rect x="7.40039" y="7.3999" width="3.2" height="3.2" fill="#2A2235"/>
<rect x="10.6006" y="7.3999" width="3.2" height="3.2" fill="#2A2235"/>
<path d="M6.44043 26.5999L9.64043 33.6399L15.7204 40.0399L22.7604 41.6399" stroke="#2A2235"/>
<rect x="4.2002" y="26.5999" width="3.2" height="3.2" fill="#2A2235"/>
<rect x="7.40039" y="29.7998" width="3.2" height="3.2" fill="#2A2235"/>
<rect x="7.40039" y="32.9998" width="3.2" height="3.2" fill="#2A2235"/>
<rect x="10.5996" y="36.1997" width="3.2" height="3.2" fill="#2A2235"/>
<rect x="13.7998" y="39.3999" width="3.2" height="3.2" fill="#2A2235"/>
<rect x="17" y="39.3999" width="3.2" height="3.2" fill="#2A2235"/>
<rect x="20.2002" y="39.3999" width="3.2" height="3.2" fill="#2A2235"/>
<path d="M58.2803 8.04004H63.4003L67.5603 10.6" stroke="#2A2235"/>
<rect x="58.6006" y="7.40015" width="3.2" height="3.2" fill="#2A2235"/>
<rect x="61.8008" y="7.40015" width="3.2" height="3.2" fill="#2A2235"/>
<rect x="55.4004" y="7.40015" width="3.2" height="3.2" fill="#2A2235"/>
<rect x="65.001" y="7.40015" width="3.2" height="3.2" fill="#2A2235"/>
<rect x="65.001" y="10.6001" width="3.2" height="3.2" fill="#2A2235"/>
<path d="M9 6.11982C16.04 6.11982 24.488 1.95982 26.28 1.95982C31.72 1.53316 44.072 1.31982 46.12 1.31982C48.68 1.31982 54.44 3.87982 54.44 4.51982C54.44 5.15982 62.44 5.15982 64.36 6.11982C65.896 6.88782 69.9067 9.21316 71.72 10.2798L77.48 16.3598L79.08 24.3598V34.9198C79.08 35.6878 73.64 40.6798 73.64 43.2398C70.12 44.5198 59.24 46.3118 57.96 47.0798C56.68 47.8478 56.2533 49.8532 54.44 50.2798L46.76 57.6398H36.2L25.32 54.7598L17.64 48.0398L7.08 43.2398L1.96 34.9198C1.64 31.5065 1 24.3598 1 23.0798C1 21.7998 1.64 15.0798 1.96 11.8798L9 6.11982Z" stroke="#36312F"/>
<rect x="23.4004" y="1" width="3.2" height="3.2" fill="#36312F"/>
<rect x="10.5996" y="4.19995" width="3.2" height="3.2" fill="#36312F"/>
<rect x="7.40039" y="4.19995" width="3.2" height="3.2" fill="#36312F"/>
<rect x="13.7998" y="4.19995" width="3.2" height="3.2" fill="#36312F"/>
<rect x="17" y="4.19995" width="3.2" height="3.2" fill="#36312F"/>
<rect x="20.2002" y="1" width="3.2" height="3.2" fill="#36312F"/>
<rect x="4.2002" y="7.3999" width="3.2" height="3.2" fill="#36312F"/>
<rect x="1" y="10.6001" width="3.2" height="3.2" fill="#36312F"/>
<rect x="1" y="13.8" width="3.2" height="3.2" fill="#36312F"/>
<rect x="1" y="17" width="3.2" height="3.2" fill="#36312F"/>
<rect x="1" y="20.2" width="3.2" height="3.2" fill="#36312F"/>
<rect x="1" y="23.3999" width="3.2" height="3.2" fill="#36312F"/>
<rect x="1" y="26.6001" width="3.2" height="3.2" fill="#36312F"/>
<rect x="1" y="29.8" width="3.2" height="3.2" fill="#36312F"/>
<rect x="1" y="33" width="3.2" height="3.2" fill="#36312F"/>
<rect x="1" y="36.2" width="3.2" height="3.2" fill="#36312F"/>
<rect x="4.2002" y="39.3999" width="3.2" height="3.2" fill="#36312F"/>
<rect x="4.2002" y="42.6001" width="3.2" height="3.2" fill="#36312F"/>
<rect x="7.40039" y="42.6001" width="3.2" height="3.2" fill="#36312F"/>
<rect x="13.7998" y="45.8" width="3.2" height="3.2" fill="#36312F"/>
<rect x="10.5996" y="42.6001" width="3.2" height="3.2" fill="#36312F"/>
<rect x="17" y="45.8" width="3.2" height="3.2" fill="#36312F"/>
<rect x="20.2002" y="49" width="3.2" height="3.2" fill="#36312F"/>
<rect x="23.4004" y="52.2" width="3.2" height="3.2" fill="#36312F"/>
<rect x="33" y="55.3999" width="3.2" height="3.2" fill="#36312F"/>
<rect x="26.5996" y="55.3999" width="3.2" height="3.2" fill="#36312F"/>
<rect x="29.7998" y="55.3999" width="3.2" height="3.2" fill="#36312F"/>
<rect x="36.2002" y="55.3999" width="3.2" height="3.2" fill="#36312F"/>
<rect x="39.4004" y="55.3999" width="3.2" height="3.2" fill="#36312F"/>
<rect x="42.5996" y="55.3999" width="3.2" height="3.2" fill="#36312F"/>
<rect x="45.7998" y="55.3999" width="3.2" height="3.2" fill="#36312F"/>
<rect x="52.2002" y="49" width="3.2" height="3.2" fill="#36312F"/>
<rect x="49" y="52.2" width="3.2" height="3.2" fill="#36312F"/>
<rect x="55.4004" y="45.8" width="3.2" height="3.2" fill="#36312F"/>
<rect x="68.2002" y="42.6001" width="3.2" height="3.2" fill="#36312F"/>
<rect x="58.5996" y="45.8" width="3.2" height="3.2" fill="#36312F"/>
<rect x="61.7998" y="42.6001" width="3.2" height="3.2" fill="#36312F"/>
<rect x="65" y="42.6001" width="3.2" height="3.2" fill="#36312F"/>
<rect x="71.4004" y="42.6001" width="3.2" height="3.2" fill="#36312F"/>
<rect x="74.5996" y="36.2" width="3.2" height="3.2" fill="#36312F"/>
<rect x="71.4004" y="39.3999" width="3.2" height="3.2" fill="#36312F"/>
<rect x="77.7998" y="33" width="3.2" height="3.2" fill="#36312F"/>
<rect x="77.7998" y="23.3999" width="3.2" height="3.2" fill="#36312F"/>
<rect x="77.7998" y="26.6001" width="3.2" height="3.2" fill="#36312F"/>
<rect x="77.7998" y="29.8" width="3.2" height="3.2" fill="#36312F"/>
<rect x="77.7998" y="17" width="3.2" height="3.2" fill="#36312F"/>
<rect x="77.7998" y="20.2" width="3.2" height="3.2" fill="#36312F"/>
<rect x="74.5996" y="13.8" width="3.2" height="3.2" fill="#36312F"/>
<rect x="71.4004" y="10.6001" width="3.2" height="3.2" fill="#36312F"/>
<rect x="71.4004" y="7.3999" width="3.2" height="3.2" fill="#36312F"/>
<rect x="68.2002" y="7.3999" width="3.2" height="3.2" fill="#36312F"/>
<rect x="65" y="4.19995" width="3.2" height="3.2" fill="#36312F"/>
<rect x="61.7998" y="4.19995" width="3.2" height="3.2" fill="#36312F"/>
<rect x="55.4004" y="4.19995" width="3.2" height="3.2" fill="#36312F"/>
<rect x="58.5996" y="4.19995" width="3.2" height="3.2" fill="#36312F"/>
<rect x="52.2002" y="4.19995" width="3.2" height="3.2" fill="#36312F"/>
<rect x="49" y="1" width="3.2" height="3.2" fill="#36312F"/>
<rect x="45.7998" y="1" width="3.2" height="3.2" fill="#36312F"/>
<rect x="52.2002" y="1" width="3.2" height="3.2" fill="#36312F"/>
<rect x="26.5996" y="1" width="3.2" height="3.2" fill="#36312F"/>
<rect x="29.7998" y="1" width="3.2" height="3.2" fill="#36312F"/>
<rect x="33" y="1" width="3.2" height="3.2" fill="#36312F"/>
<rect x="36.2002" y="1" width="3.2" height="3.2" fill="#36312F"/>
<rect x="39.4004" y="1" width="3.2" height="3.2" fill="#36312F"/>
<rect x="42.5996" y="1" width="3.2" height="3.2" fill="#36312F"/>
</svg>
